<?xml version="1.0" encoding="utf-8"?>
<!-- Generator: Adobe Illustrator 16.0.0, SVG Export Plug-In . SVG Version: 6.00 Build 0)  -->
<!DOCTYPE svg PUBLIC "-//W3C//DTD SVG 1.1//EN" "http://www.w3.org/Graphics/SVG/1.1/DTD/svg11.dtd">
<svg version="1.1" id="Layer_1" xmlns="http://www.w3.org/2000/svg" xmlns:xlink="http://www.w3.org/1999/xlink" x="0px" y="0px"
	 width="150px" height="150px" viewBox="0 0 150 150" enable-background="new 0 0 150 150" xml:space="preserve">
<g>
	<g>
		<path fill="#939598" d="M73.985,80.768c0.155,0,0.31,0,0.496,0c0.063,0,0.125,0,0.187,0c0.093,0,0.218,0,0.311,0
			c9.101-0.156,16.464-3.354,21.9-9.475c11.959-13.481,9.97-36.591,9.752-38.796c-0.775-16.556-8.604-24.477-15.063-28.173
			c-4.815-2.765-10.438-4.255-16.712-4.38h-0.218c-0.031,0-0.093,0-0.125,0h-0.185c-3.449,0-10.22,0.558-16.713,4.255
			c-6.522,3.697-14.475,11.618-15.252,28.299c-0.218,2.205-2.205,25.314,9.754,38.796C57.521,77.414,64.884,80.611,73.985,80.768z
			 M50.657,33.273c0-0.092,0.031-0.187,0.031-0.248C51.715,10.752,67.523,8.361,74.295,8.361h0.125c0.062,0,0.156,0,0.248,0
			c8.388,0.187,22.645,3.604,23.609,24.664c0,0.092,0,0.187,0.03,0.248c0.031,0.218,2.205,21.341-7.672,32.461
			c-3.915,4.409-9.132,6.585-15.998,6.646c-0.062,0-0.093,0-0.156,0l0,0c-0.062,0-0.092,0-0.153,0
			c-6.836-0.062-12.084-2.237-15.968-6.646C48.515,54.675,50.627,33.46,50.657,33.273z"/>
		<path fill="#939598" d="M138.314,119.1c0-0.033,0-0.064,0-0.095c0-0.249-0.03-0.497-0.03-0.776
			c-0.188-6.151-0.59-20.532-14.07-25.129c-0.095-0.031-0.218-0.062-0.311-0.092c-14.011-3.574-25.659-11.648-25.782-11.743
			c-1.895-1.336-4.506-0.87-5.84,1.026c-1.336,1.895-0.87,4.503,1.024,5.84c0.527,0.371,12.893,8.976,28.36,12.952
			c7.237,2.578,8.044,10.314,8.262,17.396c0,0.279,0,0.527,0.031,0.776c0.032,2.795-0.154,7.114-0.651,9.598
			c-5.032,2.859-24.758,12.736-54.763,12.736c-29.883,0-49.731-9.908-54.795-12.767c-0.497-2.483-0.715-6.802-0.65-9.598
			c0-0.249,0.03-0.497,0.03-0.776c0.218-7.083,1.024-14.818,8.262-17.396c15.47-3.976,27.833-12.611,28.36-12.954
			c1.895-1.334,2.36-3.943,1.024-5.839c-1.334-1.895-3.945-2.361-5.84-1.024c-0.123,0.092-11.71,8.169-25.78,11.741
			c-0.125,0.033-0.218,0.064-0.312,0.095c-13.479,4.628-13.883,19.009-14.07,25.129c0,0.279,0,0.527-0.032,0.776
			c0,0.031,0,0.062,0,0.092c-0.031,1.615-0.062,9.91,1.587,14.073c0.31,0.806,0.868,1.49,1.613,1.956
			c0.932,0.622,23.266,14.848,60.635,14.848c37.367,0,59.701-14.257,60.633-14.848c0.715-0.466,1.306-1.15,1.615-1.956
			C138.378,129.007,138.348,120.715,138.314,119.1z"/>
	</g>
</g>
</svg>
