<?xml version="1.0" encoding="utf-8"?>
<!-- Generator: Adobe Illustrator 16.0.0, SVG Export Plug-In . SVG Version: 6.00 Build 0)  -->
<!DOCTYPE svg PUBLIC "-//W3C//DTD SVG 1.1//EN" "http://www.w3.org/Graphics/SVG/1.1/DTD/svg11.dtd">
<svg version="1.1" id="Layer_1" xmlns="http://www.w3.org/2000/svg" xmlns:xlink="http://www.w3.org/1999/xlink" x="0px" y="0px"
	 width="150px" height="150px" viewBox="0 0 150 150" enable-background="new 0 0 150 150" xml:space="preserve">
<g>
	<g>
		<path fill="#939598" d="M87.602,66.154h58.627c2.085,0,3.771-1.687,3.771-3.771c0-34.403-27.964-62.367-62.367-62.367
			c-2.085,0-3.771,1.687-3.771,3.741v58.626C83.861,64.498,85.518,66.154,87.602,66.154z M91.373,7.681
			c27.26,1.84,49.121,23.702,50.961,50.961H91.373V7.681z"/>
		<path fill="#939598" d="M68.193,149.984c37.592,0,68.163-30.57,68.163-68.162c0-2.085-1.687-3.771-3.771-3.771h-60.65V17.432
			c0-2.085-1.686-3.771-3.771-3.771C30.57,13.66,0,44.23,0,81.822S30.601,149.984,68.193,149.984z M64.421,21.295v60.527
			c0,2.085,1.687,3.771,3.771,3.771h60.528c-1.963,31.705-28.363,56.879-60.528,56.879c-33.453,0-60.65-27.197-60.65-60.65
			C7.543,49.658,32.717,23.227,64.421,21.295z"/>
	</g>
</g>
</svg>
