<?xml version="1.0" encoding="utf-8"?>
<!-- Generator: Adobe Illustrator 16.0.0, SVG Export Plug-In . SVG Version: 6.00 Build 0)  -->
<!DOCTYPE svg PUBLIC "-//W3C//DTD SVG 1.1//EN" "http://www.w3.org/Graphics/SVG/1.1/DTD/svg11.dtd">
<svg version="1.1" id="Layer_1" xmlns="http://www.w3.org/2000/svg" xmlns:xlink="http://www.w3.org/1999/xlink" x="0px" y="0px"
	 width="150px" height="150px" viewBox="0 0 150 150" enable-background="new 0 0 150 150" xml:space="preserve">
<g>
	<g>
		<path fill="#939598" d="M3.779,67.872C1.69,67.872,0,69.562,0,71.651v70.576c0,2.09,1.69,3.779,3.779,3.779h34.504
			c2.089,0,3.779-1.689,3.779-3.779V71.651c0-2.089-1.689-3.779-3.779-3.779H3.779z M34.504,138.447H7.528V75.399h26.977V138.447z"
			/>
		<path fill="#939598" d="M53.984,7.773v134.453c0,2.09,1.69,3.779,3.779,3.779h34.504c2.09,0,3.779-1.689,3.779-3.779V7.773
			c0-2.089-1.689-3.779-3.779-3.779H57.732C55.674,4.025,53.984,5.684,53.984,7.773z M61.512,11.553h26.977v126.926H61.512V11.553
			L61.512,11.553z"/>
		<path fill="#939598" d="M146.221,145.975c2.09,0,3.779-1.689,3.779-3.779V51.649c0-2.089-1.689-3.779-3.779-3.779h-34.504
			c-2.09,0-3.779,1.69-3.779,3.779v90.578c0,2.09,1.689,3.779,3.779,3.779h34.504V145.975L146.221,145.975z M115.496,55.428h26.977
			v83.05h-26.977V55.428z"/>
	</g>
</g>
</svg>
