<?xml version="1.0" encoding="utf-8"?>
<!-- Generator: Adobe Illustrator 16.0.0, SVG Export Plug-In . SVG Version: 6.00 Build 0)  -->
<!DOCTYPE svg PUBLIC "-//W3C//DTD SVG 1.1//EN" "http://www.w3.org/Graphics/SVG/1.1/DTD/svg11.dtd">
<svg version="1.1" id="Layer_1" xmlns="http://www.w3.org/2000/svg" xmlns:xlink="http://www.w3.org/1999/xlink" x="0px" y="0px"
	 width="150px" height="150px" viewBox="0 0 150 150" enable-background="new 0 0 150 150" xml:space="preserve">
<g>
	<g>
		<path fill="#939598" d="M26.037,150c-1.994,0-3.618-1.623-3.618-3.618v-28.363c0-1.995,1.624-3.618,3.618-3.618
			s3.618,1.623,3.618,3.618v24.746h109.056V56.429l-2.703-0.02c-0.043-0.002-0.186-0.01-0.298-0.01H95.056
			c-1.995,0-3.619-1.623-3.619-3.618V7.236H29.655v59.728c0,1.995-1.624,3.618-3.618,3.618s-3.618-1.623-3.618-3.618V3.618
			C22.419,1.623,24.043,0,26.037,0h70.625c0.889,0,1.821,0.366,2.496,0.979l45.648,42.436c0.728,0.668,1.14,1.632,1.14,2.655
			v100.312c0,1.996-1.623,3.618-3.617,3.618H26.037z M98.673,49.164h41.599L98.673,10.432V49.164z"/>
	</g>
</g>
<path fill="#939598" d="M70.104,95.231C70.104,95.231,70.135,95.231,70.104,95.231c0.091-0.09,0.181-0.18,0.241-0.27
	c0.029-0.031,0.06-0.091,0.09-0.15c0.03-0.061,0.061-0.091,0.12-0.15c0.03-0.061,0.061-0.121,0.091-0.15
	c0.029-0.061,0.06-0.091,0.09-0.15c0.03-0.061,0.061-0.121,0.09-0.182c0.03-0.06,0.061-0.09,0.061-0.15
	c0.03-0.06,0.03-0.12,0.061-0.18c0.029-0.061,0.029-0.121,0.061-0.181c0.029-0.061,0.029-0.12,0.029-0.181s0.03-0.121,0.03-0.181
	s0.03-0.12,0.03-0.181s0.029-0.09,0.029-0.15c0-0.12,0.031-0.24,0.031-0.361c0-0.119,0-0.24-0.031-0.36
	c0-0.061-0.029-0.12-0.029-0.15c0-0.061-0.03-0.12-0.03-0.181s-0.03-0.12-0.03-0.181c0-0.06-0.029-0.12-0.029-0.181
	c-0.031-0.061-0.031-0.12-0.061-0.18c-0.03-0.061-0.03-0.121-0.061-0.182c-0.03-0.06-0.061-0.09-0.061-0.15
	c-0.029-0.06-0.06-0.119-0.09-0.18s-0.061-0.09-0.09-0.15c-0.03-0.061-0.061-0.121-0.091-0.15c-0.03-0.061-0.06-0.09-0.12-0.15
	c-0.03-0.061-0.061-0.09-0.09-0.15c-0.061-0.091-0.15-0.181-0.211-0.241c0,0,0,0-0.03-0.03l-14.319-14.32
	c-1.414-1.414-3.701-1.414-5.115,0s-1.414,3.701,0,5.115l8.184,8.273H8.823c-1.985,0-3.61,1.624-3.61,3.609
	c0,1.986,1.625,3.61,3.61,3.61h50.03l-8.123,8.122c-1.414,1.414-1.414,3.701,0,5.115s3.7,1.414,5.114,0L70.104,95.231z"/>
</svg>
