<?xml version="1.0" encoding="utf-8"?>
<!-- Generator: Adobe Illustrator 16.0.0, SVG Export Plug-In . SVG Version: 6.00 Build 0)  -->
<!DOCTYPE svg PUBLIC "-//W3C//DTD SVG 1.1//EN" "http://www.w3.org/Graphics/SVG/1.1/DTD/svg11.dtd">
<svg version="1.1" id="Layer_1" xmlns="http://www.w3.org/2000/svg" xmlns:xlink="http://www.w3.org/1999/xlink" x="0px" y="0px"
	 width="150px" height="150px" viewBox="0 0 150 150" enable-background="new 0 0 150 150" xml:space="preserve">
<g>
	<g>
		<path fill="#939598" d="M78.82,104.879c1.315,0.612,2.877,0.428,3.979-0.491L141.94,55.41c0.855-0.704,1.348-1.775,1.348-2.877
			c0-1.134-0.492-2.174-1.379-2.878L82.799,0.86c-1.132-0.918-2.663-1.133-3.979-0.49c-1.316,0.612-2.143,1.928-2.143,3.398v25.621
			C8.871,31.839,9.146,83.267,9.269,108.185v2.97c0,1.714,1.135,3.183,2.787,3.612c0.305,0.091,0.642,0.123,0.949,0.123
			c1.315,0,2.57-0.705,3.274-1.898c20.02-35.265,36.49-36.979,60.398-37.07v25.56C76.678,102.919,77.504,104.236,78.82,104.879z
			 M16.831,97.93c0.337-10.867,1.775-23.816,7.715-34.775c9.428-17.448,27.701-26.081,55.895-26.357
			c2.053-0.031,3.706-1.683,3.706-3.735V11.696l49.499,40.836L84.177,93.491V72.154c0-0.979-0.399-1.959-1.102-2.663
			c-0.704-0.704-1.653-1.103-2.664-1.103C54.178,68.42,36.086,69.981,16.831,97.93z"/>
		<path fill="#939598" d="M142.552,146.265V77.083c0-2.081-1.684-3.765-3.764-3.765c-2.083,0-3.766,1.684-3.766,3.765V142.5H16.769
			v-12.734c0-2.082-1.684-3.765-3.764-3.765c-2.083,0-3.766,1.683-3.766,3.765v16.469c0,2.082,1.683,3.765,3.766,3.765h125.783
			C140.868,150,142.552,148.317,142.552,146.265z"/>
	</g>
</g>
</svg>
