<?xml version="1.0" encoding="utf-8"?>
<!-- Generator: Adobe Illustrator 16.0.0, SVG Export Plug-In . SVG Version: 6.00 Build 0)  -->
<!DOCTYPE svg PUBLIC "-//W3C//DTD SVG 1.1//EN" "http://www.w3.org/Graphics/SVG/1.1/DTD/svg11.dtd">
<svg version="1.1" id="Layer_1" xmlns="http://www.w3.org/2000/svg" xmlns:xlink="http://www.w3.org/1999/xlink" x="0px" y="0px"
	 width="150px" height="150px" viewBox="0 0 150 150" enable-background="new 0 0 150 150" xml:space="preserve">
<g>
	<g>
		<path fill="#939598" d="M74.456,80.823c0.156,0,0.311,0,0.496,0c0.063,0,0.125,0,0.188,0c0.094,0,0.219,0,0.311,0
			c9.102-0.156,16.465-3.354,21.9-9.475c11.959-13.481,9.971-36.591,9.752-38.796C106.327,15.996,98.499,8.075,92.04,4.38
			c-4.815-2.766-10.438-4.256-16.713-4.381H75.11c-0.031,0-0.094,0-0.125,0H74.8c-3.449,0-10.221,0.559-16.713,4.256
			c-6.522,3.696-14.475,11.617-15.252,28.299c-0.219,2.205-2.205,25.313,9.754,38.796C57.993,77.47,65.355,80.667,74.456,80.823z
			 M51.129,33.328c0-0.092,0.03-0.187,0.03-0.248C52.187,10.808,67.995,8.416,74.767,8.416h0.125c0.062,0,0.156,0,0.248,0
			c8.389,0.188,22.645,3.604,23.609,24.664c0,0.093,0,0.188,0.029,0.248c0.031,0.219,2.205,21.342-7.672,32.461
			c-3.914,4.409-9.132,6.585-15.998,6.646c-0.062,0-0.093,0-0.156,0l0,0c-0.062,0-0.092,0-0.152,0
			c-6.836-0.062-12.084-2.237-15.969-6.646C48.987,54.73,51.099,33.516,51.129,33.328z"/>
		<path fill="#939598" d="M90.161,140.782c-4.702,0.54-9.755,0.862-15.146,0.862c-29.883,0-49.731-9.907-54.795-12.767
			c-0.497-2.483-0.715-6.803-0.649-9.598c0-0.25,0.029-0.498,0.029-0.776c0.219-7.083,1.023-14.818,8.262-17.396
			c15.471-3.976,27.834-12.61,28.36-12.954c1.896-1.334,2.36-3.943,1.024-5.839c-1.334-1.896-3.945-2.36-5.84-1.024
			c-0.123,0.093-11.711,8.17-25.781,11.742c-0.125,0.032-0.217,0.063-0.312,0.094c-13.479,4.629-13.883,19.01-14.069,25.13
			c0,0.278,0,0.526-0.032,0.776v0.092c-0.031,1.615-0.062,9.91,1.587,14.072c0.311,0.807,0.867,1.49,1.613,1.957
			c0.932,0.621,23.266,14.848,60.635,14.848c6.503,0,12.54-0.438,18.099-1.155C94.165,145.441,93.563,141.814,90.161,140.782z"/>
	</g>
</g>
<path fill="#939598" d="M117.016,80.262c-17.861,0-32.369,14.508-32.369,32.369c0,17.86,14.508,32.369,32.369,32.369
	c17.86,0,32.368-14.509,32.368-32.369C149.384,94.77,134.876,80.262,117.016,80.262z M117.016,136.539
	c-13.192,0-23.908-10.717-23.908-23.908c0-13.192,10.716-23.909,23.908-23.909c13.191,0,23.908,10.717,23.908,23.909
	C140.924,125.822,130.207,136.539,117.016,136.539z"/>
<path fill="#939598" d="M117.109,109.701c-1.615,0-2.93-1.314-2.93-2.93s1.314-2.93,2.93-2.93c1.038,0,2.133,0.53,3.169,1.531
	c1.163,1.125,3.018,1.094,4.143-0.067c1.125-1.164,1.095-3.018-0.068-4.143c-1.487-1.439-2.975-2.253-4.313-2.697v-3.413
	c0-1.618-1.312-2.93-2.93-2.93s-2.93,1.312-2.93,2.93v3.433c-3.41,1.21-5.859,4.467-5.859,8.286c0,4.847,3.942,8.789,8.789,8.789
	c1.615,0,2.93,1.314,2.93,2.93s-1.314,2.93-2.93,2.93c-1.252,0-2.604-0.787-3.805-2.216c-1.041-1.239-2.889-1.399-4.127-0.358
	c-1.24,1.042-1.398,2.89-0.358,4.128c1.566,1.863,3.408,3.162,5.36,3.815v3.419c0,1.618,1.312,2.93,2.93,2.93s2.93-1.312,2.93-2.93
	v-3.433c3.409-1.21,5.859-4.467,5.859-8.286C125.898,113.644,121.956,109.701,117.109,109.701z"/>
</svg>
