<?xml version="1.0" encoding="utf-8"?>
<!-- Generator: Adobe Illustrator 16.0.0, SVG Export Plug-In . SVG Version: 6.00 Build 0)  -->
<!DOCTYPE svg PUBLIC "-//W3C//DTD SVG 1.1//EN" "http://www.w3.org/Graphics/SVG/1.1/DTD/svg11.dtd">
<svg version="1.1" id="Layer_1" xmlns="http://www.w3.org/2000/svg" xmlns:xlink="http://www.w3.org/1999/xlink" x="0px" y="0px"
	 width="150px" height="150px" viewBox="0 0 150 150" enable-background="new 0 0 150 150" xml:space="preserve">
<g>
	<g>
		<path fill="#939598" d="M68.456,80.823c0.156,0,0.311,0,0.496,0c0.063,0,0.125,0,0.188,0c0.094,0,0.219,0,0.311,0
			c9.102-0.156,16.465-3.354,21.9-9.475c11.959-13.481,9.971-36.591,9.752-38.796C100.327,15.996,92.499,8.075,86.04,4.38
			c-4.815-2.766-10.438-4.256-16.713-4.381H69.11c-0.031,0-0.094,0-0.125,0H68.8c-3.449,0-10.221,0.559-16.713,4.256
			c-6.522,3.696-14.475,11.617-15.252,28.299c-0.219,2.205-2.205,25.313,9.754,38.796C51.993,77.47,59.355,80.667,68.456,80.823z
			 M45.129,33.328c0-0.092,0.03-0.187,0.03-0.248C46.187,10.808,61.995,8.416,68.767,8.416h0.125c0.062,0,0.156,0,0.248,0
			c8.389,0.188,22.645,3.604,23.609,24.664c0,0.093,0,0.188,0.029,0.248c0.031,0.219,2.205,21.342-7.672,32.461
			c-3.914,4.409-9.132,6.585-15.998,6.646c-0.062,0-0.093,0-0.156,0l0,0c-0.062,0-0.092,0-0.152,0
			c-6.836-0.062-12.084-2.237-15.969-6.646C42.987,54.73,45.099,33.516,45.129,33.328z"/>
		<path fill="#939598" d="M84.161,140.782c-4.702,0.54-9.755,0.862-15.146,0.862c-29.883,0-49.731-9.907-54.795-12.767
			c-0.497-2.483-0.715-6.803-0.649-9.598c0-0.25,0.029-0.498,0.029-0.776c0.219-7.083,1.023-14.818,8.262-17.396
			c15.471-3.976,27.834-12.61,28.36-12.954c1.896-1.334,2.36-3.943,1.024-5.839c-1.334-1.896-3.945-2.36-5.84-1.024
			c-0.123,0.093-11.711,8.17-25.781,11.742c-0.125,0.032-0.217,0.063-0.312,0.094c-13.479,4.629-13.883,19.01-14.069,25.13
			c0,0.278,0,0.526-0.032,0.776v0.092c-0.031,1.615-0.062,9.91,1.587,14.072c0.311,0.807,0.867,1.49,1.613,1.957
			c0.932,0.621,23.266,14.848,60.635,14.848c6.503,0,12.54-0.438,18.099-1.155C88.165,145.441,87.563,141.814,84.161,140.782z"/>
	</g>
</g>
<path fill="#939598" d="M111.016,80.262c-17.861,0-32.369,14.508-32.369,32.369c0,17.86,14.508,32.369,32.369,32.369
	c17.86,0,32.368-14.509,32.368-32.369C143.384,94.77,128.876,80.262,111.016,80.262z M111.016,136.539
	c-13.192,0-23.908-10.717-23.908-23.908c0-13.192,10.716-23.909,23.908-23.909c13.191,0,23.908,10.717,23.908,23.909
	C134.924,125.822,124.207,136.539,111.016,136.539z"/>
<path fill="#939598" d="M125.433,101.722c-2.124-2.126-4.95-3.297-7.957-3.297c-2.339,0-4.562,0.701-6.453,2.03
	c-1.898-1.338-4.129-2.043-6.475-2.043c-2.998,0-5.822,1.168-7.951,3.291c-2.126,2.126-3.297,4.955-3.297,7.964
	c0,3,1.173,5.826,3.303,7.958l11.544,11.537c0.771,0.77,1.794,1.194,2.881,1.194c1.072,0,2.123-0.436,2.882-1.195l11.518-11.517
	c2.122-2.122,3.296-4.947,3.304-7.958C128.73,106.677,127.56,103.848,125.433,101.722z M123.167,109.68
	c0,1.515-0.593,2.943-1.67,4.021l-10.469,10.468l-10.482-10.482c-1.077-1.077-1.67-2.504-1.67-4.02s0.591-2.943,1.664-4.021
	c1.073-1.073,2.499-1.664,4.015-1.664c1.521,0,2.95,0.593,4.026,1.668l0.475,0.476c0.5,0.501,1.219,0.789,1.971,0.789
	c0.754,0,1.474-0.288,1.974-0.79l0.46-0.46c1.077-1.077,2.508-1.67,4.028-1.67c1.516,0,2.941,0.591,4.015,1.664
	C122.576,106.731,123.167,108.159,123.167,109.68z"/>
</svg>
