<?xml version="1.0" encoding="utf-8"?>
<!-- Generator: Adobe Illustrator 16.0.0, SVG Export Plug-In . SVG Version: 6.00 Build 0)  -->
<!DOCTYPE svg PUBLIC "-//W3C//DTD SVG 1.1//EN" "http://www.w3.org/Graphics/SVG/1.1/DTD/svg11.dtd">
<svg version="1.1" id="Layer_1" xmlns="http://www.w3.org/2000/svg" xmlns:xlink="http://www.w3.org/1999/xlink" x="0px" y="0px"
	 width="150px" height="150px" viewBox="0 0 150 150" enable-background="new 0 0 150 150" xml:space="preserve">
<path fill="#939598" d="M114.053,74.616c-19.824,0-35.947,16.123-35.947,35.947s16.123,35.947,35.947,35.947
	S150,130.388,150,110.563S133.877,74.616,114.053,74.616z M117.986,82.235c12.664,1.747,22.689,11.793,24.403,24.468h-24.403V82.235
	z M114.053,139.168c-15.787,0-28.605-12.819-28.605-28.605c0-14.52,10.848-26.521,24.872-28.354v28.529
	c0,2.146,1.745,3.891,3.891,3.891h28.154C140.387,128.493,128.458,139.168,114.053,139.168z"/>
<g>
	<path fill="#939598" d="M27.409,86.147h-1.991V70.1v-1.378h10.627c2.021,0,3.676-1.653,3.676-3.675
		c0-2.021-1.654-3.675-3.676-3.675H25.418V36.045l4.563,4.563c1.439,1.439,3.767,1.439,5.206,0s1.439-3.767,0-5.206L24.377,24.592
		c-1.439-1.439-3.767-1.439-5.206,0L8.299,35.463c-1.439,1.439-1.439,3.767,0,5.207c0.705,0.704,1.654,1.072,2.604,1.072
		s1.868-0.368,2.604-1.072l4.562-4.563v25.266h-1.99C7.228,61.372,0,68.569,0,77.45c0,8.881,7.197,16.077,16.078,16.077h1.99V109.3
		v1.623H7.105c-2.021,0-3.676,1.653-3.676,3.675s1.654,3.676,3.676,3.676H18.1v8.329c0,2.021,1.653,3.675,3.675,3.675
		c2.021,0,3.675-1.653,3.675-3.675v-8.329h1.99c8.852,0,16.078-7.197,16.078-16.078C43.518,93.313,36.26,86.147,27.409,86.147z
		 M18.1,70.069v16.048h-1.991v0.03c-4.808,0-8.728-3.92-8.728-8.728c0-4.809,3.92-8.729,8.728-8.729H18.1V70.069z M27.409,110.923
		h-1.991V109.3V93.498h1.991c4.808,0,8.728,3.92,8.728,8.728C36.137,107.003,32.217,110.923,27.409,110.923z"/>
	<path fill="#939598" d="M70.749,119.614c-0.001-0.008-0.001-0.016-0.002-0.024h-0.233H56.227h-0.51
		c-0.041,0.024-0.084,0.042-0.125,0.064c-1.72,0.304-3.039,1.806-3.039,3.61c0,1.94,1.527,3.526,3.438,3.651
		c0.001,0.008,0.001,0.016,0.002,0.024h0.233h14.287h0.51c0.041-0.024,0.084-0.042,0.125-0.064c1.72-0.304,3.039-1.806,3.039-3.61
		C74.188,121.325,72.66,119.738,70.749,119.614z"/>
</g>
<path fill="#939598" d="M93.283,56.135H78.675V20.243l7.626,7.625c1.439,1.439,3.767,1.439,5.206,0s1.439-3.767,0-5.207
	L77.634,8.789c-0.704-0.704-1.623-1.072-2.603-1.072c-0.98,0-1.899,0.398-2.604,1.072L58.523,22.693
	c-1.439,1.439-1.439,3.767,0,5.206c0.705,0.705,1.654,1.072,2.604,1.072s1.868-0.368,2.604-1.072l7.595-7.625v35.862h-3.553
	c-10.78,0-19.538,8.759-19.538,19.539c0,10.711,8.649,19.419,19.336,19.529c0.003,0.003,0.007,0.006,0.01,0.01h0.192h3.218h4.245
	c2.021,0,3.674-1.653,3.674-3.675c0-1.919-0.221-3.49-0.243-3.645c0.005-0.064,0.004-0.127,0.01-0.192
	c0.001-0.042-0.004-0.083-0.001-0.125V63.485h14.608c2.021,0,3.675-1.654,3.675-3.675C96.958,57.789,95.305,56.135,93.283,56.135z
	 M55.584,75.674c0-6.707,5.482-12.188,12.188-12.188h3.553v24.377h-3.553C61.066,87.862,55.584,82.381,55.584,75.674z"/>
<path fill="#939598" d="M142.527,61.372H131.9V36.045l4.563,4.563c1.439,1.439,3.767,1.439,5.206,0s1.439-3.767,0-5.206
	l-10.841-10.841c-1.439-1.439-3.767-1.439-5.206,0l-10.872,10.872c-1.439,1.439-1.439,3.767,0,5.207
	c0.704,0.704,1.653,1.072,2.603,1.072s1.869-0.368,2.604-1.072l4.562-4.563v25.265l0.009,1.034v7.051v0.51
	c0.024,0.041,0.043,0.084,0.064,0.125c0.304,1.72,1.807,3.039,3.61,3.039c1.94,0,3.526-1.527,3.651-3.438
	c0.008-0.001,0.016-0.001,0.023-0.002v-0.233v-0.424c0.008,0,0.015,0,0.022,0v-0.28h10.627c2.021,0,3.676-1.653,3.676-3.675
	C146.203,63.026,144.549,61.372,142.527,61.372z"/>
</svg>
