<?xml version="1.0" encoding="utf-8"?>
<!-- Generator: Adobe Illustrator 16.0.0, SVG Export Plug-In . SVG Version: 6.00 Build 0)  -->
<!DOCTYPE svg PUBLIC "-//W3C//DTD SVG 1.1//EN" "http://www.w3.org/Graphics/SVG/1.1/DTD/svg11.dtd">
<svg version="1.1" id="Layer_1" xmlns="http://www.w3.org/2000/svg" xmlns:xlink="http://www.w3.org/1999/xlink" x="0px" y="0px"
	 width="150px" height="150px" viewBox="0 0 150 150" enable-background="new 0 0 150 150" xml:space="preserve">
<g>
	<g>
		<path fill="#939598" d="M75,150.001c-41.354,0-75-33.645-75-75C0,33.645,33.646,0,75,0s75,33.645,75,75.001
			C150,116.356,116.354,150.001,75,150.001z M75,5.807c-38.153,0-69.193,31.041-69.193,69.194S36.847,144.194,75,144.194
			s69.193-31.04,69.193-69.193S113.153,5.807,75,5.807z"/>
	</g>
</g>
<g>
	<path fill="#939598" d="M118.649,70.249c0-6.535-5.317-11.871-11.87-11.871H88.427V45.152c0-5.597-1.635-9.629-4.867-11.994
		c-5.109-3.754-12.131-1.616-12.427-1.511c-0.887,0.278-1.494,1.095-1.494,2.033v14.86c0,11.697-13.574,15.676-14.148,15.851
		c-0.173,0.052-0.33,0.104-0.47,0.191c-1.008-2.016-3.093-3.407-5.491-3.407h-9.941c-3.372,0-6.118,2.746-6.118,6.117v36.135
		c0,3.371,2.746,6.117,6.118,6.117h5.753c1.182,0,2.138-0.956,2.138-2.138c0-1.183-0.974-2.121-2.138-2.121h-5.753
		c-1.026,0-1.859-0.833-1.859-1.858V67.293c0-1.025,0.833-1.859,1.859-1.859h9.959c1.025,0,1.859,0.834,1.859,1.859v34.083
		c0,6.535,5.318,11.87,11.871,11.87h36.358c8.065,0,13.193-4.224,14.097-11.523l4.9-30.763c0.017-0.104,0.035-0.226,0.035-0.331
		v-0.381H118.649L118.649,70.249z M114.393,70.44l-4.884,30.675c-0.644,5.214-3.963,7.874-9.873,7.874h-1.354H63.277
		c-4.189,0-7.613-3.407-7.613-7.613V68.511c0.313,0.069,0.645,0.051,0.975-0.036c0.712-0.191,17.259-4.987,17.259-19.952v-13.14
		c1.807-0.278,4.9-0.434,7.142,1.199c2.068,1.53,3.129,4.397,3.129,8.57v15.363c0,1.182,0.955,2.138,2.138,2.138h20.491
		c4.189,0,7.612,3.407,7.612,7.613v0.174H114.393z"/>
</g>
</svg>
