<?xml version="1.0" encoding="utf-8"?>
<!-- Generator: Adobe Illustrator 16.0.0, SVG Export Plug-In . SVG Version: 6.00 Build 0)  -->
<!DOCTYPE svg PUBLIC "-//W3C//DTD SVG 1.1//EN" "http://www.w3.org/Graphics/SVG/1.1/DTD/svg11.dtd">
<svg version="1.1" id="Layer_1" xmlns="http://www.w3.org/2000/svg" xmlns:xlink="http://www.w3.org/1999/xlink" x="0px" y="0px"
	 width="150px" height="150px" viewBox="0 0 150 150" enable-background="new 0 0 150 150" xml:space="preserve">
<g>
	<g>
		<g>
			<path fill="#939598" d="M130.205,38.99H38.846c-8.469,0-15.389-6.889-15.389-15.385c0-8.465,6.889-15.387,15.389-15.387h91.391
				c2.285,0,4.11-1.853,4.11-4.108c0-2.287-1.855-4.109-4.11-4.109H38.846C25.838,0,15.238,10.598,15.238,23.605v102.792
				c0,13.007,10.6,23.604,23.607,23.604h91.391c2.285,0,4.11-1.852,4.11-4.108V43.099C134.315,40.845,132.491,38.99,130.205,38.99z
				 M126.097,141.784H38.846c-8.469,0-15.389-6.892-15.389-15.387V41.523c4.142,3.554,9.518,5.717,15.389,5.717h87.251V141.784
				L126.097,141.784z"/>
			<path fill="#939598" d="M40.142,19.867c-2.286,0-4.11,1.853-4.11,4.11c0,2.254,1.855,4.107,4.11,4.107h77.18
				c2.286,0,4.108-1.853,4.108-4.107c0-2.257-1.854-4.11-4.108-4.11H40.142z"/>
		</g>
	</g>
	<g>
		<path fill="#939598" d="M92.903,107.812c0.171,0.925-0.064,1.823-0.671,2.545c-4.367,5.202-9.995,7.882-16.806,7.882
			c-13.883,0-24.038-10.323-24.038-24.165c0-13.847,10.155-24.168,24.038-24.168c6.734,0,12.531,2.69,16.799,7.911
			c0.585,0.722,0.813,1.607,0.638,2.522c-0.172,0.918-0.712,1.658-1.525,2.111l-2.105,1.175c-1.317,0.732-2.947,0.416-3.894-0.75
			c-2.376-2.938-6.125-4.761-9.912-4.761c-9.113,0-15.046,7.129-15.046,15.96c0,8.799,5.971,15.956,15.046,15.956
			c3.794,0,7.543-1.783,9.912-4.748c0.942-1.173,2.576-1.499,3.894-0.777l2.127,1.172C92.185,106.134,92.729,106.881,92.903,107.812
			z"/>
	</g>
</g>
</svg>
