<?xml version="1.0" encoding="utf-8"?>
<!-- Generator: Adobe Illustrator 16.0.0, SVG Export Plug-In . SVG Version: 6.00 Build 0)  -->
<!DOCTYPE svg PUBLIC "-//W3C//DTD SVG 1.1//EN" "http://www.w3.org/Graphics/SVG/1.1/DTD/svg11.dtd">
<svg version="1.1" id="Layer_1" xmlns="http://www.w3.org/2000/svg" xmlns:xlink="http://www.w3.org/1999/xlink" x="0px" y="0px"
	 width="150px" height="150px" viewBox="0 0 150 150" enable-background="new 0 0 150 150" xml:space="preserve">
<g>
	<path fill="#939598" d="M145.312,23.435H84.375V9.372c0-1.397-0.619-2.719-1.697-3.609c-1.068-0.881-2.484-1.247-3.853-0.994
		l-75,14.062C1.604,19.244,0,21.175,0,23.435V126.56c0,2.25,1.604,4.19,3.825,4.603l75,14.062c0.281,0.057,0.581,0.085,0.862,0.085
		c1.078,0,2.146-0.375,2.99-1.078c1.078-0.891,1.697-2.222,1.697-3.609V75.31h14.062c2.588,0,4.688-2.1,4.688-4.688
		s-2.1-4.688-4.688-4.688H84.375V56.56h14.062c2.588,0,4.688-2.1,4.688-4.688s-2.1-4.688-4.688-4.688H84.375V32.81h56.25V72.7v7.487
		v1.888c0,2.588,2.101,4.688,4.688,4.688s4.688-2.1,4.688-4.688v-2.487V72.7V28.122C150,25.535,147.9,23.435,145.312,23.435z
		 M75,134.969l-65.625-12.3V27.325L75,15.025V134.969z"/>
	<path fill="#939598" d="M117.188,56.56h9.375c2.588,0,4.688-2.1,4.688-4.688s-2.1-4.688-4.688-4.688h-9.375
		c-2.588,0-4.688,2.1-4.688,4.688S114.6,56.56,117.188,56.56z"/>
	<path fill="#939598" d="M117.188,75.31h9.375c2.588,0,4.688-2.1,4.688-4.688s-2.1-4.688-4.688-4.688h-9.375
		c-2.588,0-4.688,2.1-4.688,4.688S114.6,75.31,117.188,75.31z"/>
	<path fill="#939598" d="M49.644,73.716l14.987-19.269c1.594-2.053,1.229-4.997-0.815-6.582c-2.044-1.603-4.987-1.219-6.581,0.816
		L43.354,66.528L31.659,53.163c-1.725-1.959-4.678-2.147-6.618-0.44c-1.95,1.706-2.147,4.668-0.441,6.609l12.892,14.734
		L24.422,90.869c-1.584,2.043-1.219,4.996,0.825,6.581c0.862,0.665,1.875,0.984,2.878,0.984c1.388,0,2.775-0.618,3.693-1.8
		l11.963-15.381l13.631,15.578c0.929,1.059,2.223,1.603,3.525,1.603c1.097,0,2.193-0.384,3.094-1.163
		c1.95-1.705,2.146-4.658,0.44-6.609L49.644,73.716z"/>
	<path fill="#939598" d="M117.775,83.111c-17.15,0-31.084,13.935-31.084,31.084s13.934,31.114,31.084,31.114
		s31.084-13.934,31.084-31.084S134.926,83.111,117.775,83.111z M117.775,137.807c-13.016,0-23.581-10.597-23.581-23.581
		s10.597-23.581,23.581-23.581s23.581,10.597,23.581,23.581S130.791,137.807,117.775,137.807z"/>
	<path fill="#939598" d="M128.289,107.066c0.001-0.001,0.001-0.002,0.002-0.003l-7.832-7.832c-0.269-0.269-0.576-0.471-0.896-0.642
		c-0.076-0.042-0.161-0.065-0.24-0.101c-0.083-0.038-0.166-0.075-0.251-0.106c-0.132-0.048-0.267-0.087-0.404-0.121
		c-0.129-0.032-0.258-0.057-0.39-0.076c-0.043-0.005-0.083-0.021-0.126-0.024c-0.119-0.011-0.236-0.034-0.354-0.034
		c-0.004,0-0.009,0.001-0.013,0.001c-0.003,0-0.007-0.001-0.01-0.001s-0.006,0.001-0.008,0.001c-0.005,0-0.009-0.001-0.013-0.001
		c-0.951-0.001-1.925,0.367-2.661,1.104l-7.832,7.832c0.001,0.001,0.001,0.002,0.002,0.003l-0.897,0.897
		c-1.558,1.428-1.557,3.808-0.086,5.279c0.736,0.736,1.688,1.082,2.662,1.103c0.951,0.001,1.925-0.367,2.661-1.104l2.439-2.439
		v1.134v5.677v9.731c0,2.081,1.684,3.764,3.734,3.733c2.08,0,3.764-1.683,3.732-3.733V117.27v-5.677v-0.791l2.439,2.439
		c0.736,0.736,1.71,1.105,2.661,1.104c0.974-0.021,1.926-0.367,2.662-1.103c1.471-1.471,1.472-3.851-0.086-5.279L128.289,107.066z"
		/>
</g>
</svg>
