<?xml version="1.0" encoding="utf-8"?>
<!-- Generator: Adobe Illustrator 16.0.0, SVG Export Plug-In . SVG Version: 6.00 Build 0)  -->
<!DOCTYPE svg PUBLIC "-//W3C//DTD SVG 1.1//EN" "http://www.w3.org/Graphics/SVG/1.1/DTD/svg11.dtd">
<svg version="1.1" id="Layer_1" xmlns="http://www.w3.org/2000/svg" xmlns:xlink="http://www.w3.org/1999/xlink" x="0px" y="0px"
	 width="150px" height="150px" viewBox="0 0 150 150" enable-background="new 0 0 150 150" xml:space="preserve">
<g>
	<g>
		<path fill="#939598" d="M144.335,0H6.721c-2.109,0-3.84,1.729-3.84,3.842s1.73,3.839,3.84,3.839h8.289v138.382
			c0,1.407,0.769,2.721,2.018,3.391c1.249,0.674,2.753,0.608,3.937-0.19l16.674-11.107l16.738,11.138
			c1.278,0.866,2.976,0.866,4.255,0l16.673-11.105l16.738,11.137c1.279,0.863,2.976,0.863,4.258,0l16.673-11.104l16.735,11.137
			c0.642,0.416,1.378,0.641,2.112,0.641c0.608,0,1.25-0.16,1.825-0.448c1.249-0.674,2.018-1.985,2.018-3.394L135.598,7.779h8.737
			c2.112,0,3.839-1.729,3.839-3.842S146.447,0,144.335,0z M128.014,138.896l-12.899-8.577c-1.278-0.866-2.976-0.866-4.254,0
			l-16.673,11.135l-16.739-11.135c-1.278-0.866-2.976-0.866-4.257,0l-16.673,11.104l-16.739-11.104
			c-1.278-0.866-2.976-0.866-4.255,0l-12.834,8.544V7.648h105.292L128.014,138.896z"/>
		<path fill="#939598" d="M40.358,61.32h40.226c2.113,0,3.843-1.729,3.843-3.841c0-2.113-1.729-3.839-3.843-3.839H40.358
			c-2.113,0-3.843,1.727-3.843,3.839C36.516,59.591,38.213,61.32,40.358,61.32z"/>
		<path fill="#939598" d="M40.358,74.665h30.146c2.112,0,3.841-1.729,3.841-3.842s-1.729-3.839-3.841-3.839H40.358
			c-2.113,0-3.843,1.727-3.843,3.839S38.213,74.665,40.358,74.665z"/>
		<path fill="#939598" d="M100.682,61.32h10.051c2.113,0,3.84-1.729,3.84-3.841c0-2.113-1.727-3.839-3.84-3.839h-10.051
			c-2.11,0-3.839,1.727-3.839,3.839C96.843,59.591,98.539,61.32,100.682,61.32z"/>
		<path fill="#939598" d="M100.682,74.665h10.051c2.113,0,3.84-1.729,3.84-3.842s-1.727-3.839-3.84-3.839h-10.051
			c-2.11,0-3.839,1.727-3.839,3.839S98.539,74.665,100.682,74.665z"/>
		<path fill="#939598" d="M40.358,30.501h40.226c2.113,0,3.843-1.729,3.843-3.842c0-2.112-1.729-3.839-3.843-3.839H40.358
			c-2.113,0-3.843,1.727-3.843,3.839C36.516,28.772,38.213,30.501,40.358,30.501z"/>
		<path fill="#939598" d="M40.358,43.813h30.146c2.112,0,3.841-1.73,3.841-3.842c0-2.11-1.729-3.839-3.841-3.839H40.358
			c-2.113,0-3.843,1.729-3.843,3.839C36.516,42.083,38.213,43.813,40.358,43.813z"/>
		<path fill="#939598" d="M100.682,30.501h10.051c2.113,0,3.84-1.729,3.84-3.842c0-2.112-1.727-3.839-3.84-3.839h-10.051
			c-2.11,0-3.839,1.727-3.839,3.839C96.843,28.772,98.539,30.501,100.682,30.501z"/>
		<path fill="#939598" d="M100.682,43.813h10.051c2.113,0,3.84-1.73,3.84-3.842c0-2.11-1.727-3.839-3.84-3.839h-10.051
			c-2.11,0-3.839,1.729-3.839,3.839C96.843,42.083,98.539,43.813,100.682,43.813z"/>
		<path fill="#939598" d="M40.358,92.521h40.226c2.113,0,3.843-1.729,3.843-3.842c0-2.109-1.729-3.839-3.843-3.839H40.358
			c-2.113,0-3.843,1.729-3.843,3.839C36.516,90.792,38.213,92.521,40.358,92.521z"/>
		<path fill="#939598" d="M40.358,105.834h30.146c2.112,0,3.841-1.727,3.841-3.839s-1.729-3.839-3.841-3.839H40.358
			c-2.113,0-3.843,1.727-3.843,3.839S38.213,105.834,40.358,105.834z"/>
		<path fill="#939598" d="M100.682,92.521h10.051c2.113,0,3.84-1.729,3.84-3.842c0-2.109-1.727-3.839-3.84-3.839h-10.051
			c-2.11,0-3.839,1.729-3.839,3.839C96.843,90.792,98.539,92.521,100.682,92.521z"/>
		<path fill="#939598" d="M100.682,105.834h10.051c2.113,0,3.84-1.727,3.84-3.839s-1.727-3.839-3.84-3.839h-10.051
			c-2.11,0-3.839,1.727-3.839,3.839S98.539,105.834,100.682,105.834z"/>
	</g>
</g>
</svg>
