<?xml version="1.0" encoding="utf-8"?>
<!-- Generator: Adobe Illustrator 16.0.0, SVG Export Plug-In . SVG Version: 6.00 Build 0)  -->
<!DOCTYPE svg PUBLIC "-//W3C//DTD SVG 1.1//EN" "http://www.w3.org/Graphics/SVG/1.1/DTD/svg11.dtd">
<svg version="1.1" id="Layer_1" xmlns="http://www.w3.org/2000/svg" xmlns:xlink="http://www.w3.org/1999/xlink" x="0px" y="0px"
	 width="150px" height="150px" viewBox="0 0 150 150" enable-background="new 0 0 150 150" xml:space="preserve">
<g>
	<path fill="#939598" d="M74.984,69.523H27.6c-2.169,0-3.943,1.772-3.943,3.938c0,2.175,1.774,3.947,3.943,3.947h47.385
		c2.201,0,3.945-1.772,3.945-3.947C78.93,71.295,77.152,69.523,74.984,69.523z"/>
	<path fill="#939598" d="M46.561,83.655H27.6c-2.169,0-3.943,1.774-3.943,3.941c0,2.171,1.774,3.943,3.943,3.943h18.961
		c2.166,0,3.944-1.772,3.944-3.943C50.505,85.429,48.727,83.655,46.561,83.655z"/>
	<path fill="#939598" d="M27.143,63.116h47.381c2.17,0,3.941-1.773,3.941-3.945c0-2.166-1.771-3.939-3.941-3.939H27.143
		c-2.17,0-3.945,1.773-3.945,3.939C23.197,61.343,24.939,63.116,27.143,63.116z"/>
	<path fill="#939598" d="M138.96,12.609H11.038C4.928,12.609,0,17.572,0,23.652v80.539c0,6.08,4.959,11.038,11.038,11.038h70.42
		c4.282,12.866,16.42,22.162,30.714,22.162c14.601,0,26.954-9.696,30.98-22.992c4.022-1.654,6.848-5.612,6.848-10.213V23.647
		C149.997,17.57,145.037,12.609,138.96,12.609z M7.854,23.652c0-1.742,1.445-3.157,3.185-3.157H138.96
		c1.741,0,3.153,1.414,3.153,3.156v12.651H7.854V23.652z M11.038,107.342c-0.218,0-0.429-0.022-0.634-0.064
		c-1.438-0.295-2.518-1.568-2.518-3.091V44.189h134.227v39.46l0.033,7.887v1.279c-4.824-11.818-16.432-20.162-29.975-20.162
		c-17.861,0-32.369,14.508-32.369,32.369c0,0.781,0.037,1.553,0.092,2.32H11.038z M112.172,128.93
		c-13.192,0-23.908-10.717-23.908-23.908c0-13.192,10.716-23.909,23.908-23.909c13.191,0,23.908,10.717,23.908,23.909
		C136.08,118.213,125.363,128.93,112.172,128.93z"/>
</g>
<path fill="#939598" d="M114.723,101.848h-4.518c-1.066,0-1.934-0.867-1.934-1.933s0.867-1.933,1.934-1.933h7.989
	c1.667,0,3.022-1.356,3.022-3.023c0-1.667-1.355-3.022-3.022-3.022h-2.691v-1.713c0-1.667-1.355-3.023-3.022-3.023
	s-3.022,1.356-3.022,3.023v1.75c-4.042,0.386-7.214,3.8-7.214,7.942c0,4.399,3.579,7.978,7.978,7.978h4.518
	c1.066,0,1.934,0.867,1.934,1.933c0,1.065-0.867,1.933-1.934,1.933h-8.124c-1.667,0-3.022,1.356-3.022,3.022
	s1.355,3.022,3.022,3.022h2.843v1.765c0,1.667,1.355,3.022,3.022,3.022s3.022-1.356,3.022-3.022v-1.8
	c4.043-0.385,7.231-3.82,7.231-7.951C122.695,105.423,119.102,101.848,114.723,101.848z"/>
</svg>
