<?xml version="1.0" encoding="utf-8"?>
<!-- Generator: Adobe Illustrator 16.0.0, SVG Export Plug-In . SVG Version: 6.00 Build 0)  -->
<!DOCTYPE svg PUBLIC "-//W3C//DTD SVG 1.1//EN" "http://www.w3.org/Graphics/SVG/1.1/DTD/svg11.dtd">
<svg version="1.1" id="Layer_1" xmlns="http://www.w3.org/2000/svg" xmlns:xlink="http://www.w3.org/1999/xlink" x="0px" y="0px"
	 width="150px" height="150px" viewBox="0 0 150 150" enable-background="new 0 0 150 150" xml:space="preserve">
<g>
	<g>
		<path fill="#939598" d="M131.253,17.825H17.908c-10.116,0-18.343,8.224-18.343,18.342v77.469c0,10.118,8.227,18.342,18.343,18.342
			h113.314c10.119,0,18.343-8.224,18.343-18.342V36.2C149.596,26.081,141.372,17.825,131.253,17.825z M141.217,113.636
			c0,5.492-4.47,9.963-9.964,9.963H17.908c-5.492,0-9.962-4.472-9.962-9.963V36.2c0-5.494,4.47-9.963,9.962-9.963h113.314
			c5.492,0,9.964,4.469,9.964,9.963v77.436H141.217z"/>
		<path fill="#939598" d="M94.166,73.941l36.685-32.9c1.705-1.555,1.86-4.192,0.31-5.927c-1.552-1.709-4.191-1.865-5.926-0.31
			L74.642,80.208l-9.868-8.813c-0.032-0.03-0.062-0.06-0.062-0.093c-0.218-0.217-0.436-0.405-0.683-0.592L23.869,34.772
			c-1.739-1.552-4.377-1.397-5.929,0.342c-1.553,1.735-1.397,4.372,0.342,5.927l37.12,33.177l-36.965,34.605
			c-1.677,1.584-1.77,4.222-0.186,5.927c0.838,0.872,1.953,1.337,3.072,1.337c1.022,0,2.048-0.372,2.854-1.12l37.522-35.1
			l10.179,9.091c0.807,0.717,1.802,1.057,2.794,1.057c0.995,0,2.018-0.373,2.792-1.087l10.461-9.371l37.308,35.44
			c0.805,0.78,1.859,1.152,2.884,1.152c1.118,0,2.205-0.435,3.042-1.307c1.585-1.673,1.521-4.342-0.154-5.927L94.166,73.941z"/>
	</g>
</g>
</svg>
