<?xml version="1.0" encoding="utf-8"?>
<!-- Generator: Adobe Illustrator 16.0.0, SVG Export Plug-In . SVG Version: 6.00 Build 0)  -->
<!DOCTYPE svg PUBLIC "-//W3C//DTD SVG 1.1//EN" "http://www.w3.org/Graphics/SVG/1.1/DTD/svg11.dtd">
<svg version="1.1" id="Layer_1" xmlns="http://www.w3.org/2000/svg" xmlns:xlink="http://www.w3.org/1999/xlink" x="0px" y="0px"
	 width="150px" height="150px" viewBox="0 0 150 150" enable-background="new 0 0 150 150" xml:space="preserve">
<g>
	<g>
		<g>
			<path fill="#939598" d="M67.434,132.812v-38.54c0-6.726-5.474-12.229-12.23-12.229H44.817c-6.726,0-12.23,5.474-12.23,12.229
				v38.569H19.938V75.318c0.415,0.029,0.832,0.029,1.249,0.029c7.202,0,13.573-3.659,17.319-9.227
				c3.751,5.568,10.118,9.227,17.321,9.227c7.202,0,13.54-3.659,17.319-9.227c0.58,0.859,1.239,1.654,1.937,2.417
				c0-5.681,0-12.865,0-18.786H10.685l16.901-29.788h47.498c0-2.477,0-5.001,0-7.172h-49.58c-1.28,0-2.47,0.684-3.096,1.817
				L0.772,52.7c-0.298,0.536-0.476,1.131-0.476,1.756c0,8.541,5.146,15.861,12.498,19.105v62.823c0,1.963,1.608,3.571,3.572,3.571
				h19.73c0.029,0,0.059,0,0.09,0h27.677c0.029,0,0.061,0,0.088,0h11.132c0-2.438,0-4.955,0-7.143H67.434z M69.341,56.866
				c-1.131,6.43-6.757,11.309-13.513,11.309c-6.757,0-12.381-4.879-13.539-11.309H69.341z M7.678,56.866h27.052
				c-1.131,6.43-6.786,11.309-13.542,11.309C14.433,68.204,8.809,63.295,7.678,56.866z M60.322,132.812h-0.031H39.757v-38.54
				c0-2.795,2.264-5.086,5.09-5.086h10.388c2.797,0,5.088,2.259,5.088,5.086V132.812z"/>
		</g>
	</g>
	<path fill="#939598" d="M73.119,10.929"/>
	<path fill="#939598" d="M73.119,130.799"/>
	<path fill="#939598" d="M73.861,19.724l2.587,14.511c1.091-0.479,1.898-1.452,2.08-2.637l1.886-11.161
		c0.052-0.344,0.344-0.586,0.69-0.586H92.29v0.029c0.347,0,0.639,0.238,0.693,0.586l1.858,11.157
		c0.24,1.408,1.274,2.524,2.631,2.871c3.907,1.012,7.654,2.549,11.134,4.625c1.225,0.713,2.737,0.664,3.907-0.163l9.246-6.563
		c0.267-0.186,0.663-0.161,0.905,0.079l7.915,7.919c0.188,0.186,0.213,0.374,0.213,0.507c0,0.156-0.053,0.292-0.13,0.398
		l-6.567,9.219c-0.824,1.145-0.876,2.685-0.158,3.905c2.073,3.481,3.613,7.229,4.625,11.134c0.344,1.383,1.487,2.417,2.87,2.63
		l11.159,1.886c0.347,0.056,0.584,0.348,0.584,0.69V81.95c0,0.344-0.237,0.638-0.584,0.692l-11.159,1.859
		c-1.41,0.24-2.526,1.272-2.87,2.631c-0.982,3.799-2.497,7.464-4.467,10.894c-0.316,0.559-0.476,1.198-0.476,1.807
		c0,0.718,0.213,1.46,0.664,2.074l6.617,9.298c0.077,0.133,0.133,0.267,0.133,0.4c0,0.104-0.028,0.319-0.212,0.502l-7.92,7.919
		c-0.237,0.24-0.608,0.265-0.905,0.081l-9.166-6.538c-1.169-0.822-2.71-0.876-3.931-0.16c-3.455,2.071-7.201,3.667-11.108,4.677
		c-1.354,0.374-2.394,1.49-2.631,2.871l-1.911,11.238c-0.054,0.348-0.347,0.586-0.692,0.586H81.371
		c-0.346,0-0.638-0.238-0.692-0.586l-1.856-11.078c-0.204-1.176-0.979-2.14-2.03-2.635c0.095,1.496,0.182,2.994,0.198,4.496
		c0.034,2.852-1.416,4.333-3.63,4.525l0.253,5.887c0.636,3.801,3.903,6.565,7.758,6.565h11.187c3.853,0,7.12-2.764,7.756-6.565
		l1.544-9.031c2.975-0.933,5.873-2.155,8.635-3.643l7.28,5.234c3.136,2.232,7.417,1.89,10.125-0.851l7.919-7.917
		c1.489-1.487,2.312-3.455,2.312-5.553c0-1.646-0.505-3.215-1.461-4.546l-5.315-7.464c1.41-2.683,2.55-5.501,3.455-8.399
		l8.927-1.483c3.801-0.643,6.564-3.91,6.564-7.761V70.762c0-3.853-2.764-7.12-6.564-7.759l-8.927-1.514
		c-0.931-3-2.124-5.898-3.589-8.664l5.264-7.355c0.955-1.331,1.46-2.923,1.46-4.571c0-2.101-0.823-4.066-2.309-5.556l-7.919-7.917
		c-2.713-2.712-6.991-3.083-10.127-0.851l-7.385,5.261c-2.793-1.46-5.687-2.687-8.664-3.586l-1.487-8.929
		c-0.639-3.799-3.907-6.565-7.761-6.565H81.104C77.379,12.708,73.861,15.516,73.861,19.724z"/>
	<path fill="#939598" d="M86.324,50.215c-3.233,0-6.312,0.616-9.171,1.69c-0.171,2.566-0.242,5.097-0.246,7.606
		c2.787-1.564,5.995-2.466,9.417-2.466c10.651,0,19.301,8.653,19.301,19.303c0,10.652-8.649,19.303-19.301,19.303
		c-2.946,0-5.729-0.68-8.228-1.863c-0.044,2.376-0.163,4.779-0.376,7.212c2.699,0.943,5.585,1.481,8.604,1.481
		c14.419,0,26.135-11.711,26.135-26.133C112.459,61.927,100.743,50.215,86.324,50.215z"/>
	<polygon fill="#939598" points="72.947,139.955 72.947,134.436 72.947,12.792 80.12,12.792 80.141,139.955 	"/>
</g>
</svg>
