<?xml version="1.0" encoding="utf-8"?>
<!-- Generator: Adobe Illustrator 16.0.0, SVG Export Plug-In . SVG Version: 6.00 Build 0)  -->
<!DOCTYPE svg PUBLIC "-//W3C//DTD SVG 1.1//EN" "http://www.w3.org/Graphics/SVG/1.1/DTD/svg11.dtd">
<svg version="1.1" id="Layer_1" xmlns="http://www.w3.org/2000/svg" xmlns:xlink="http://www.w3.org/1999/xlink" x="0px" y="0px"
	 width="150px" height="150px" viewBox="0 0 150 150" enable-background="new 0 0 150 150" xml:space="preserve">
<g>
	<g>
		<path fill="#939598" d="M148.933,43.159l-0.166-0.165l-30.548-27.15c-0.375-0.342-0.808-0.604-1.291-0.781l-22.1-7.898
			c-0.429-0.156-0.876-0.234-1.329-0.234c-1.631,0-3.102,1.03-3.658,2.565c-0.132,0.365-0.209,0.746-0.229,1.18
			c-0.002,0.144-0.55,14.39-14.683,14.613c-13.987-0.22-14.775-14.066-14.803-14.665c-0.112-2.065-1.817-3.684-3.884-3.684
			c-0.069,0-0.14,0.002-0.211,0.006c-0.369,0.021-0.732,0.093-1.09,0.218l-22.079,7.989c-0.475,0.174-0.906,0.436-1.276,0.771
			L1.209,43.017c-1.555,1.479-1.618,3.946-0.142,5.5l24.002,24.261v66.402c0,2.146,1.745,3.891,3.891,3.891h92.079
			c2.146,0,3.892-1.745,3.892-3.891V72.777l23.86-24.119C150.346,47.18,150.409,44.712,148.933,43.159z M124.844,61.689V50.616
			c0-2.146-1.746-3.892-3.892-3.892c-2.146,0-3.892,1.745-3.892,3.892v84.527H32.736V50.616c0-2.146-1.745-3.892-3.892-3.892
			s-3.892,1.745-3.892,3.892v11.102L9.507,46.071l26.737-23.93l16.946-6.118c2.458,9.923,11.412,17.011,21.713,17.011
			c1.431,0,2.874-0.14,4.29-0.415c8.636-1.676,15.382-8.13,17.472-16.596l16.945,6.118l26.651,23.928L124.844,61.689z"/>
	</g>
</g>
</svg>
