<?xml version="1.0" encoding="utf-8"?>
<!-- Generator: Adobe Illustrator 16.0.0, SVG Export Plug-In . SVG Version: 6.00 Build 0)  -->
<!DOCTYPE svg PUBLIC "-//W3C//DTD SVG 1.1//EN" "http://www.w3.org/Graphics/SVG/1.1/DTD/svg11.dtd">
<svg version="1.1" id="Layer_1" xmlns="http://www.w3.org/2000/svg" xmlns:xlink="http://www.w3.org/1999/xlink" x="0px" y="0px"
	 width="150px" height="150px" viewBox="0 0 150 150" enable-background="new 0 0 150 150" xml:space="preserve">
<g>
	<g>
		<path fill="#939598" d="M143.399,77.395c-1.259-1.719-1.289-4.083-0.03-5.833l2.609-3.714c2.057-2.917,2.794-6.601,1.965-10.101
			c-0.829-3.5-3.101-6.478-6.263-8.166l-3.991-2.149c-1.903-1.013-2.917-3.101-2.579-5.219l0.768-4.482
			c0.583-3.531-0.368-7.153-2.609-9.947c-2.271-2.794-5.618-4.482-9.18-4.636l-4.574-0.154c-2.148-0.092-3.99-1.535-4.574-3.592
			l-1.259-4.359c-1.535-5.311-6.478-9.026-12.034-9.026c-1.688,0-3.377,0.338-4.942,1.013l-4.176,1.781
			c-1.934,0.829-4.298,0.307-5.679-1.259l-3.04-3.377C81.447,1.535,78.039,0,74.509,0c-3.622,0-7.062,1.566-9.455,4.298
			l-2.947,3.469c-1.382,1.596-3.715,2.149-5.68,1.351l-4.206-1.719c-1.535-0.614-3.132-0.952-4.759-0.952
			c-5.618,0-10.592,3.776-12.064,9.21l-1.198,4.359c-0.552,2.057-2.394,3.531-4.513,3.653l-4.513,0.276
			c-3.592,0.215-6.907,1.934-9.118,4.759c-2.21,2.824-3.101,6.447-2.455,9.978l0.828,4.451c0.399,2.118-0.614,4.237-2.486,5.281
			l-3.96,2.21c-3.132,1.75-5.373,4.759-6.141,8.258c-0.768,3.5,0,7.184,2.118,10.07l2.671,3.653c1.259,1.719,1.29,4.083,0.031,5.833
			l-2.609,3.714c-2.058,2.917-2.794,6.601-1.965,10.101c0.828,3.5,3.101,6.447,6.263,8.166l3.991,2.149
			c1.903,1.013,2.916,3.101,2.578,5.219l-0.768,4.482c-0.583,3.531,0.369,7.153,2.609,9.947c2.272,2.794,5.618,4.482,9.18,4.636
			l4.544,0.184c2.148,0.092,3.99,1.535,4.574,3.592l1.259,4.359c1.535,5.311,6.478,9.026,12.034,9.026
			c1.688,0,3.377-0.338,4.942-1.013l4.176-1.781c1.934-0.829,4.298-0.307,5.679,1.259l3.04,3.377
			c2.363,2.64,5.771,4.145,9.302,4.145c3.622,0,7.062-1.565,9.455-4.298l2.947-3.469c1.382-1.596,3.715-2.149,5.68-1.351
			l4.206,1.719c1.535,0.614,3.132,0.952,4.759,0.952l0,0c5.618,0,10.592-3.776,12.064-9.21l1.198-4.359
			c0.552-2.057,2.394-3.531,4.513-3.654l4.513-0.246c3.592-0.215,6.907-1.934,9.118-4.758c2.21-2.824,3.101-6.447,2.455-9.977
			l-0.828-4.452c-0.399-2.119,0.613-4.237,2.486-5.25l3.96-2.21c3.132-1.75,5.373-4.758,6.141-8.258c0.768-3.5,0-7.184-2.118-10.069
			L143.399,77.395z M140.852,89.521c-0.308,1.412-1.197,2.579-2.456,3.285l-3.96,2.21c-4.697,2.61-7.215,7.921-6.232,13.201
			l0.829,4.452c0.276,1.412-0.093,2.855-0.982,3.991c-0.891,1.135-2.18,1.811-3.623,1.903l-4.513,0.245
			c-5.372,0.307-9.916,3.991-11.359,9.179l-1.197,4.36c-0.583,2.18-2.578,3.684-4.819,3.684c-0.645,0-1.29-0.123-1.903-0.369
			l-4.206-1.719c-1.535-0.615-3.132-0.952-4.759-0.952c-3.622,0-7.061,1.566-9.455,4.298l-2.979,3.408
			c-0.951,1.105-2.302,1.719-3.775,1.719c-1.443,0-2.764-0.583-3.715-1.658l-3.04-3.377c-2.363-2.64-5.771-4.175-9.332-4.175
			c-1.72,0-3.377,0.337-4.943,1.013l-4.175,1.781c-0.645,0.276-1.289,0.399-1.965,0.399c-2.21,0-4.175-1.474-4.789-3.592
			l-1.259-4.36c-1.504-5.157-6.109-8.78-11.481-9.025l-4.544-0.184c-1.443-0.062-2.763-0.707-3.653-1.842
			c-0.921-1.136-1.289-2.549-1.044-3.96l0.768-4.482c0.891-5.311-1.688-10.561-6.447-13.109l-3.99-2.149
			c-1.29-0.675-2.181-1.842-2.487-3.254c-0.338-1.412-0.062-2.855,0.768-4.021l2.609-3.715c3.101-4.39,3.07-10.254-0.123-14.613
			l-2.671-3.653c-0.859-1.167-1.166-2.61-0.828-4.022c0.307-1.412,1.197-2.579,2.456-3.285l3.96-2.21
			c4.697-2.61,7.214-7.921,6.232-13.201l-0.799-4.39c-0.276-1.443,0.093-2.855,0.982-3.991c0.891-1.136,2.18-1.812,3.623-1.904
			l4.513-0.276c5.372-0.307,9.916-3.991,11.359-9.18l1.197-4.39c0.583-2.149,2.578-3.684,4.819-3.684
			c0.645,0,1.289,0.123,1.903,0.368l4.206,1.719c1.535,0.614,3.132,0.952,4.759,0.952c3.622,0,7.061-1.565,9.455-4.298l2.979-3.408
			c0.951-1.105,2.302-1.719,3.775-1.719c1.443,0,2.764,0.583,3.715,1.658l3.04,3.377c2.363,2.64,5.771,4.175,9.332,4.175
			c1.72,0,3.377-0.338,4.943-1.013l4.175-1.78c0.645-0.276,1.289-0.399,1.965-0.399c2.21,0,4.175,1.474,4.789,3.592l1.259,4.359
			c1.504,5.158,6.109,8.78,11.481,9.026l4.544,0.184c1.442,0.062,2.763,0.707,3.653,1.842c0.921,1.136,1.289,2.548,1.044,3.96
			l-0.737,4.482c-0.89,5.311,1.688,10.561,6.447,13.109l3.991,2.149c1.289,0.675,2.18,1.842,2.518,3.254
			c0.337,1.412,0.061,2.855-0.768,4.021l-2.609,3.715c-3.101,4.39-3.07,10.254,0.122,14.613l2.671,3.653
			C140.852,86.666,141.158,88.078,140.852,89.521z"/>
		<path fill="#939598" d="M75,28.735c-25.512,0-46.265,20.753-46.265,46.265c0,25.511,20.753,46.265,46.265,46.265
			S121.265,100.511,121.265,75C121.265,49.488,100.512,28.735,75,28.735z M75,113.743c-21.367,0-38.743-17.376-38.743-38.743
			S53.633,36.257,75,36.257S113.743,53.633,113.743,75S96.367,113.743,75,113.743z"/>
		<path fill="#939598" d="M78.562,71.193h-7.123c-2.241,0-4.052-2.057-4.052-4.605c0-2.548,1.811-4.605,4.052-4.605h12.557
			c2.088,0,3.776-1.688,3.776-3.776c0-2.087-1.688-3.776-3.776-3.776h-5.25v-4.237c0-2.087-1.688-3.776-3.775-3.776
			c-2.088,0-3.776,1.688-3.776,3.776v4.237c-6.294,0.123-11.359,5.495-11.359,12.126c0,6.692,5.188,12.126,11.574,12.126h7.122
			c2.241,0,4.053,2.057,4.053,4.605c0,2.548-1.812,4.605-4.053,4.605H65.729c-2.088,0-3.776,1.688-3.776,3.776
			c0,2.088,1.688,3.776,3.776,3.776h5.465v4.329c0,2.088,1.688,3.776,3.776,3.776c2.087,0,3.775-1.688,3.775-3.776v-4.329
			c6.294-0.123,11.359-5.526,11.359-12.126C90.135,76.627,84.946,71.193,78.562,71.193z"/>
	</g>
</g>
</svg>
