<?xml version="1.0" encoding="utf-8"?>
<!-- Generator: Adobe Illustrator 16.0.0, SVG Export Plug-In . SVG Version: 6.00 Build 0)  -->
<!DOCTYPE svg PUBLIC "-//W3C//DTD SVG 1.1//EN" "http://www.w3.org/Graphics/SVG/1.1/DTD/svg11.dtd">
<svg version="1.1" id="Layer_1" xmlns="http://www.w3.org/2000/svg" xmlns:xlink="http://www.w3.org/1999/xlink" x="0px" y="0px"
	 width="150px" height="150px" viewBox="0 0 150 150" enable-background="new 0 0 150 150" xml:space="preserve">
<g>
	<g>
		<path fill="#939598" d="M142.322,59.254l-10.529-1.786c-1.096-3.541-2.506-6.956-4.229-10.215l6.204-8.68
			c2.633-3.697,2.225-8.742-1.002-11.938l-9.338-9.338c-1.756-1.755-4.074-2.727-6.549-2.727c-1.943,0-3.792,0.596-5.359,1.724
			l-8.711,6.204c-3.384-1.786-6.924-3.259-10.591-4.355L90.463,7.739C89.711,3.259,85.857,0,81.313,0H68.121
			c-4.543,0-8.397,3.259-9.149,7.739l-1.817,10.654c-3.509,1.097-6.925,2.538-10.184,4.293l-8.617-6.204
			c-1.566-1.128-3.447-1.724-5.39-1.724c-2.475,0-4.825,0.972-6.549,2.726l-9.369,9.338c-3.196,3.196-3.635,8.241-1.002,11.938
			l6.267,8.806c-1.723,3.29-3.102,6.705-4.167,10.246L7.74,59.567C3.259,60.319,0,64.174,0,68.717v13.192
			c0,4.544,3.259,8.397,7.74,9.149l10.654,1.818c1.097,3.509,2.538,6.924,4.293,10.184l-6.173,8.585
			c-2.632,3.698-2.225,8.743,1.003,11.938l9.338,9.338c1.754,1.755,4.073,2.727,6.549,2.727c1.943,0,3.792-0.596,5.358-1.724
			l8.805-6.267c3.165,1.66,6.486,3.008,9.902,4.073l1.755,10.528c0.752,4.48,4.605,7.74,9.149,7.74h13.224
			c4.543,0,8.397-3.26,9.149-7.74l1.786-10.528c3.541-1.097,6.957-2.507,10.215-4.23l8.68,6.204c1.566,1.129,3.447,1.724,5.39,1.724
			l0,0c2.476,0,4.794-0.972,6.55-2.726l9.337-9.338c3.196-3.196,3.635-8.241,1.003-11.939l-6.204-8.711
			c1.724-3.289,3.165-6.705,4.229-10.215l10.529-1.754c4.48-0.752,7.739-4.607,7.739-9.15V68.403
			C150.062,63.86,146.803,60.006,142.322,59.254z M141.602,81.596c0,0.407-0.282,0.752-0.689,0.814l-13.16,2.193
			c-1.661,0.282-2.978,1.504-3.385,3.103c-1.19,4.606-3.008,9.024-5.452,13.13c-0.847,1.441-0.783,3.227,0.188,4.605l7.739,10.904
			c0.22,0.313,0.188,0.783-0.095,1.065l-9.337,9.338c-0.22,0.22-0.438,0.251-0.596,0.251c-0.188,0-0.345-0.062-0.47-0.156
			l-10.873-7.74c-1.348-0.972-3.165-1.034-4.606-0.188c-4.104,2.443-8.522,4.261-13.129,5.451c-1.63,0.408-2.852,1.756-3.103,3.385
			l-2.225,13.16c-0.062,0.408-0.407,0.689-0.814,0.689H68.404c-0.408,0-0.753-0.281-0.815-0.689l-2.193-13.16
			c-0.282-1.661-1.504-2.977-3.102-3.385c-4.481-1.159-8.805-2.945-12.847-5.264c-0.658-0.376-1.41-0.564-2.131-0.564
			c-0.846,0-1.724,0.251-2.444,0.783l-10.967,7.803c-0.157,0.094-0.313,0.156-0.47,0.156c-0.125,0-0.376-0.031-0.595-0.25
			l-9.338-9.338c-0.282-0.282-0.313-0.721-0.094-1.065l7.708-10.811c0.972-1.378,1.034-3.196,0.188-4.638
			c-2.444-4.073-4.324-8.491-5.515-13.098c-0.439-1.598-1.755-2.82-3.384-3.102L9.15,82.724c-0.408-0.062-0.689-0.407-0.689-0.814
			V68.717c0-0.407,0.282-0.752,0.689-0.814l13.066-2.193c1.661-0.282,3.008-1.504,3.416-3.134c1.159-4.606,2.945-9.056,5.358-13.16
			c0.846-1.441,0.752-3.228-0.22-4.575l-7.802-10.967c-0.219-0.313-0.188-0.783,0.094-1.065L32.4,23.47
			c0.219-0.22,0.439-0.251,0.596-0.251c0.188,0,0.344,0.062,0.47,0.157l10.811,7.708c1.379,0.972,3.196,1.034,4.638,0.188
			c4.073-2.444,8.492-4.324,13.098-5.516c1.598-0.438,2.821-1.755,3.102-3.384l2.256-13.255c0.062-0.407,0.408-0.689,0.814-0.689
			h13.192c0.407,0,0.752,0.282,0.815,0.689l2.193,13.066c0.281,1.661,1.504,3.009,3.133,3.416c4.731,1.19,9.244,3.039,13.443,5.515
			c1.441,0.847,3.227,0.783,4.605-0.188l10.811-7.771c0.156-0.094,0.313-0.156,0.471-0.156c0.125,0,0.375,0.031,0.595,0.25
			l9.338,9.338c0.282,0.282,0.313,0.721,0.094,1.065l-7.739,10.873c-0.972,1.348-1.034,3.165-0.188,4.606
			c2.444,4.104,4.262,8.523,5.452,13.129c0.408,1.63,1.755,2.852,3.385,3.103l13.16,2.225c0.407,0.062,0.689,0.407,0.689,0.814
			v13.192H141.602z"/>
		<path fill="#939598" d="M75.016,42.615c-17.861,0-32.369,14.508-32.369,32.369c0,17.86,14.508,32.369,32.369,32.369
			c17.86,0,32.368-14.509,32.368-32.369C107.384,57.123,92.876,42.615,75.016,42.615z M75.016,98.893
			c-13.192,0-23.909-10.717-23.909-23.908c0-13.192,10.716-23.909,23.909-23.909c13.191,0,23.908,10.717,23.908,23.909
			C98.924,88.176,88.207,98.893,75.016,98.893z"/>
	</g>
</g>
</svg>
