<?xml version="1.0" encoding="utf-8"?>
<!-- Generator: Adobe Illustrator 16.0.0, SVG Export Plug-In . SVG Version: 6.00 Build 0)  -->
<!DOCTYPE svg PUBLIC "-//W3C//DTD SVG 1.1//EN" "http://www.w3.org/Graphics/SVG/1.1/DTD/svg11.dtd">
<svg version="1.1" id="Layer_1" xmlns="http://www.w3.org/2000/svg" xmlns:xlink="http://www.w3.org/1999/xlink" x="0px" y="0px"
	 width="150px" height="150px" viewBox="0 0 150 150" enable-background="new 0 0 150 150" xml:space="preserve">
<path fill="#939598" d="M143.808,0H6.193c-2.109,0-3.84,1.729-3.84,3.842c0,2.113,1.73,3.839,3.84,3.839h8.289v138.381
	c0,1.408,0.77,2.722,2.018,3.392c1.25,0.674,2.754,0.608,3.938-0.19l16.674-11.106l16.738,11.138c1.277,0.866,2.977,0.866,4.255,0
	l16.673-11.105l16.738,11.138c1.279,0.862,2.977,0.862,4.258,0l16.674-11.104l16.734,11.137c0.643,0.416,1.378,0.642,2.111,0.642
	c0.609,0,1.25-0.16,1.826-0.448c1.248-0.674,2.018-1.984,2.018-3.394L135.07,7.778h8.737c2.112,0,3.839-1.729,3.839-3.842
	S145.92,0,143.808,0z M127.486,138.896l-12.898-8.578c-1.278-0.865-2.977-0.865-4.254,0L93.66,141.454l-16.738-11.136
	c-1.278-0.865-2.977-0.865-4.258,0l-16.672,11.104l-16.74-11.104c-1.277-0.865-2.975-0.865-4.254,0l-12.834,8.545V7.647h105.291
	L127.486,138.896z"/>
<path fill="#939598" d="M114.665,50.12L98.537,35.761c-0.341-0.311-0.733-0.548-1.177-0.709l-11.515-4.116
	c-0.386-0.14-0.79-0.211-1.199-0.211c-1.474,0-2.802,0.931-3.298,2.3c-0.123,0.33-0.194,0.678-0.215,1.093
	c-0.011,0.249-0.331,6.086-6.147,6.179c-5.777-0.091-6.225-5.596-6.258-6.243c-0.103-1.864-1.644-3.324-3.508-3.324l-0.191,0.005
	c-0.335,0.018-0.663,0.083-0.993,0.2l-11.512,4.166c-0.431,0.156-0.821,0.392-1.149,0.69L35.502,49.949
	c-0.681,0.646-1.068,1.519-1.093,2.457c-0.024,0.939,0.319,1.832,0.926,2.467L47.48,67.154v34.011c0,1.938,1.576,3.515,3.514,3.515
	h48.012c1.938,0,3.514-1.577,3.514-3.515V67.154l11.98-12.111C115.903,53.707,115.959,51.478,114.665,50.12z M98.96,51.474
	c-1.938,0-3.515,1.577-3.515,3.515v42.587H54.449V54.988c0-1.938-1.576-3.515-3.514-3.515c-1.938,0-3.515,1.577-3.515,3.515v2.17
	l-4.416-4.474l12.562-11.243l7.112-2.568c1.927,4.999,6.772,8.433,12.271,8.433c0.84,0,1.688-0.082,2.519-0.243
	c4.529-0.879,8.174-3.994,9.778-8.189l7.106,2.566l12.522,11.242l-4.402,4.46v-2.154C102.475,53.05,100.897,51.474,98.96,51.474z"/>
</svg>
