<?xml version="1.0" encoding="UTF-8"?>
<svg xmlns="http://www.w3.org/2000/svg" xmlns:xlink="http://www.w3.org/1999/xlink" width="75pt" height="75pt" viewBox="0 0 75 75" version="1.1">
<g id="surface1">
<path style=" stroke:none;fill-rule:nonzero;fill:rgb(57.647059%,58.431373%,59.607843%);fill-opacity:1;" d="M 36.992188 40.382812 C 37.070312 40.382812 37.148438 40.382812 37.242188 40.382812 C 37.273438 40.382812 37.304688 40.382812 37.335938 40.382812 C 37.378906 40.382812 37.441406 40.382812 37.488281 40.382812 C 42.039062 40.304688 45.722656 38.707031 48.441406 35.648438 C 54.417969 28.90625 53.425781 17.351562 53.316406 16.25 C 52.929688 7.96875 49.011719 4.011719 45.785156 2.160156 C 43.375 0.78125 40.566406 0.0351562 37.429688 -0.0273438 L 37.320312 -0.0273438 C 37.304688 -0.0273438 37.273438 -0.0273438 37.257812 -0.0273438 L 37.164062 -0.0273438 C 35.441406 -0.0273438 32.054688 0.25 28.808594 2.097656 C 25.546875 3.949219 21.570312 7.910156 21.179688 16.25 C 21.074219 17.351562 20.078125 28.90625 26.058594 35.648438 C 28.761719 38.707031 32.441406 40.304688 36.992188 40.382812 Z M 25.328125 16.636719 C 25.328125 16.589844 25.34375 16.542969 25.34375 16.511719 C 25.859375 5.375 33.761719 4.179688 37.148438 4.179688 L 37.210938 4.179688 C 37.242188 4.179688 37.289062 4.179688 37.335938 4.179688 C 41.527344 4.273438 48.65625 5.984375 49.136719 16.511719 C 49.136719 16.558594 49.136719 16.605469 49.152344 16.636719 C 49.167969 16.746094 50.257812 27.308594 45.316406 32.867188 C 43.359375 35.070312 40.75 36.160156 37.320312 36.191406 C 37.289062 36.191406 37.273438 36.191406 37.242188 36.191406 C 37.210938 36.191406 37.195312 36.191406 37.164062 36.191406 C 33.746094 36.160156 31.121094 35.070312 29.179688 32.867188 C 24.257812 27.335938 25.3125 16.730469 25.328125 16.636719 Z M 25.328125 16.636719 "/>
<path style=" stroke:none;fill-rule:nonzero;fill:rgb(57.647059%,58.431373%,59.607843%);fill-opacity:1;" d="M 69.15625 59.550781 C 69.15625 59.535156 69.15625 59.519531 69.15625 59.503906 C 69.15625 59.378906 69.140625 59.253906 69.140625 59.113281 C 69.046875 56.039062 68.847656 48.847656 62.105469 46.550781 C 62.058594 46.535156 61.996094 46.519531 61.953125 46.503906 C 54.945312 44.71875 49.121094 40.679688 49.058594 40.632812 C 48.113281 39.964844 46.808594 40.199219 46.140625 41.144531 C 45.472656 42.09375 45.707031 43.398438 46.652344 44.066406 C 46.914062 44.25 53.097656 48.554688 60.832031 50.542969 C 64.449219 51.832031 64.855469 55.699219 64.964844 59.238281 C 64.964844 59.378906 64.964844 59.503906 64.980469 59.628906 C 64.996094 61.023438 64.902344 63.183594 64.652344 64.425781 C 62.136719 65.855469 52.273438 70.792969 37.273438 70.792969 C 22.332031 70.792969 12.40625 65.839844 9.875 64.410156 C 9.625 63.167969 9.515625 61.011719 9.550781 59.613281 C 9.550781 59.488281 9.566406 59.363281 9.566406 59.222656 C 9.671875 55.683594 10.078125 51.816406 13.695312 50.527344 C 21.429688 48.539062 27.613281 44.21875 27.875 44.050781 C 28.824219 43.382812 29.054688 42.078125 28.386719 41.128906 C 27.71875 40.183594 26.414062 39.949219 25.46875 40.617188 C 25.40625 40.664062 19.613281 44.703125 12.578125 46.488281 C 12.515625 46.503906 12.46875 46.519531 12.421875 46.535156 C 5.683594 48.847656 5.480469 56.039062 5.386719 59.101562 C 5.386719 59.238281 5.386719 59.363281 5.371094 59.488281 C 5.371094 59.503906 5.371094 59.519531 5.371094 59.535156 C 5.355469 60.339844 5.339844 64.488281 6.164062 66.570312 C 6.320312 66.972656 6.597656 67.316406 6.96875 67.546875 C 7.4375 67.859375 18.601562 74.972656 37.289062 74.972656 C 55.972656 74.972656 67.136719 67.84375 67.605469 67.546875 C 67.960938 67.316406 68.257812 66.972656 68.410156 66.570312 C 69.1875 64.503906 69.175781 60.359375 69.15625 59.550781 Z M 69.15625 59.550781 "/>
</g>
</svg>
