<?xml version="1.0" encoding="utf-8"?>
<!-- Generator: Adobe Illustrator 16.0.0, SVG Export Plug-In . SVG Version: 6.00 Build 0)  -->
<!DOCTYPE svg PUBLIC "-//W3C//DTD SVG 1.1//EN" "http://www.w3.org/Graphics/SVG/1.1/DTD/svg11.dtd">
<svg version="1.1" id="Layer_1" xmlns="http://www.w3.org/2000/svg" xmlns:xlink="http://www.w3.org/1999/xlink" x="0px" y="0px"
	 width="150px" height="150px" viewBox="0 0 150 150" enable-background="new 0 0 150 150" xml:space="preserve">
<g>
	<path fill="#939598" d="M114.053,74.616c-19.824,0-35.947,16.123-35.947,35.947s16.123,35.947,35.947,35.947
		S150,130.388,150,110.563S133.877,74.616,114.053,74.616z M142.39,106.703h-24.403V82.235
		C130.65,83.981,140.676,94.028,142.39,106.703z M114.053,139.168c-15.787,0-28.605-12.819-28.605-28.605
		c0-14.52,10.848-26.521,24.872-28.354v28.529c0,2.146,1.745,3.891,3.891,3.891h28.154
		C140.387,128.493,128.458,139.168,114.053,139.168z"/>
	<g>
		<path fill="#939598" d="M129.936,19.034H10.324C4.609,19.034,0,23.674,0,29.357v75.308c0,5.685,4.64,10.323,10.324,10.323h40.253
			h8.091h7.774c2.027,0,3.688-1.658,3.688-3.687s-1.66-3.687-3.719-3.687h-7.722h-8.089H10.324c-1.629,0-2.95-1.322-2.95-2.95
			V48.561h125.512v7.374c0,0.003,0.001,0.006,0.001,0.01v12.716c0,2.027,1.658,3.688,3.687,3.688s3.687-1.66,3.687-3.719V55.935
			v-3.116V29.357C140.26,23.674,135.62,19.034,129.936,19.034z M132.886,41.187H7.344V29.357c0-1.628,1.352-2.949,2.98-2.949
			h119.611c1.629,0,2.95,1.321,2.95,2.949V41.187z"/>
		<path fill="#939598" d="M70.115,72.25H25.809c-2.027,0-3.687,1.659-3.687,3.688c0,2.027,1.659,3.687,3.687,3.687h44.307
			c2.059,0,3.687-1.659,3.687-3.687C73.802,73.909,72.143,72.25,70.115,72.25z"/>
		<path fill="#939598" d="M25.809,85.462c-2.027,0-3.687,1.659-3.687,3.687c0,2.028,1.659,3.688,3.687,3.688h17.729
			c2.028,0,3.688-1.659,3.688-3.688c0-2.027-1.659-3.687-3.688-3.687H25.809z"/>
		<path fill="#939598" d="M25.379,66.259h44.306c2.028,0,3.687-1.659,3.687-3.688c0-2.027-1.658-3.687-3.687-3.687H25.379
			c-2.027,0-3.688,1.659-3.688,3.687C21.691,64.6,23.32,66.259,25.379,66.259z"/>
	</g>
</g>
</svg>
