<?xml version="1.0" encoding="utf-8"?>
<!-- Generator: Adobe Illustrator 16.0.0, SVG Export Plug-In . SVG Version: 6.00 Build 0)  -->
<!DOCTYPE svg PUBLIC "-//W3C//DTD SVG 1.1//EN" "http://www.w3.org/Graphics/SVG/1.1/DTD/svg11.dtd">
<svg version="1.1" id="Layer_1" xmlns="http://www.w3.org/2000/svg" xmlns:xlink="http://www.w3.org/1999/xlink" x="0px" y="0px"
	 width="150px" height="150px" viewBox="0 0 150 150" enable-background="new 0 0 150 150" xml:space="preserve">
<g>
	<path fill="#939598" d="M136.678,0H13.321C5.984,0.008,0.009,5.984,0,13.323v123.355c0.009,7.337,5.984,13.313,13.322,13.322
		h123.356c7.337-0.008,13.312-5.984,13.321-13.323V13.322C149.991,5.984,144.016,0.008,136.678,0z M136.678,143.092H13.322
		c-3.537,0-6.414-2.878-6.414-6.415V26.644h136.184v110.033C143.092,140.214,140.215,143.092,136.678,143.092z M13.322,6.908
		h123.355c3.537,0,6.414,2.878,6.414,6.415v6.414H6.908v-6.414C6.908,9.786,9.785,6.908,13.322,6.908z"/>
	<path fill="#939598" d="M105.748,51.497l-0.142-0.125h-0.001c-8.384-7.668-19.254-11.89-30.626-11.89
		c-10.005,0-19.503,3.204-27.472,9.27c-1.209,0.926-2.276,1.825-3.253,2.739c-8.944,8.179-14.169,19.352-14.71,31.461
		C29.003,95.06,33.21,106.655,41.389,115.6c8.575,9.377,20.787,14.756,33.506,14.757c0.001,0,0.002,0,0.004,0
		c10.059,0,19.601-3.24,27.595-9.371c1.206-0.924,2.272-1.823,3.254-2.741c8.914-8.193,14.105-19.367,14.615-31.464
		s-3.722-23.668-11.914-32.582C107.604,53.279,106.695,52.37,105.748,51.497z M88.738,110.62c-2.782,6.204-6.38,10.391-10.285,11.99
		v-14.37C81.979,108.554,85.431,109.353,88.738,110.62z M97.986,115.689c-0.074,0.054-0.149,0.108-0.225,0.162l-0.285,0.206
		c-0.549,0.396-1.1,0.787-1.664,1.152c-0.358,0.232-0.725,0.451-1.092,0.67l-0.143,0.086c-0.564,0.335-1.132,0.658-1.725,0.962
		c-0.348,0.184-0.7,0.362-1.058,0.536c1.22-1.838,2.286-3.775,3.19-5.794C96.016,114.294,97.02,114.97,97.986,115.689z
		 M78.453,101.328V88.323H93.65c-0.228,5.346-1.09,10.649-2.567,15.793C87.021,102.582,82.781,101.646,78.453,101.328z
		 M93.65,81.414l-15.197,0.001V68.409c4.333-0.319,8.571-1.255,12.63-2.789C92.561,70.765,93.423,76.067,93.65,81.414z
		 M94.985,56.064c-0.903-2.018-1.968-3.954-3.187-5.792c0.352,0.172,0.699,0.348,1.046,0.529c0.588,0.309,1.167,0.639,1.744,0.983
		c0.401,0.237,0.803,0.475,1.198,0.739c0.572,0.37,1.131,0.766,1.685,1.169l0.27,0.194c0.073,0.054,0.148,0.107,0.223,0.161
		C97.005,54.765,96.008,55.439,94.985,56.064z M78.453,61.498V47.129c3.854,1.598,7.522,5.863,10.283,11.989
		C85.431,60.384,81.98,61.182,78.453,61.498z M113.279,88.323c-0.771,8.468-4.337,16.458-10.129,22.688
		c-1.802-1.433-3.716-2.731-5.708-3.872c1.852-6.113,2.9-12.434,3.121-18.816H113.279z M113.279,81.414l-12.716,0.001
		c-0.221-6.383-1.27-12.705-3.121-18.817c1.994-1.142,3.909-2.44,5.708-3.873C108.943,64.955,112.51,72.944,113.279,81.414z
		 M61.262,59.117c2.788-6.216,6.385-10.403,10.285-11.994v14.375C68.019,61.182,64.567,60.383,61.262,59.117z M52.013,54.048
		c0.064-0.047,0.129-0.093,0.193-0.14l0.317-0.229c0.548-0.396,1.1-0.786,1.667-1.153c0.375-0.243,0.759-0.472,1.141-0.7
		l0.087-0.052c0.564-0.334,1.133-0.659,1.729-0.963c0.347-0.184,0.698-0.361,1.056-0.534c-1.22,1.838-2.286,3.773-3.189,5.79
		C53.985,55.444,52.981,54.769,52.013,54.048z M71.547,68.409v13.006H56.351c0.229-5.345,1.096-10.649,2.578-15.795
		C62.985,67.153,67.221,68.089,71.547,68.409z M56.35,88.323h15.197v13.005c-4.328,0.318-8.567,1.254-12.63,2.788
		C57.439,98.972,56.577,93.669,56.35,88.323z M55.015,113.673c0.902,2.017,1.968,3.953,3.187,5.792
		c-0.352-0.171-0.7-0.347-1.045-0.528c-0.589-0.31-1.168-0.639-1.759-0.992c-0.397-0.234-0.794-0.469-1.184-0.729
		c-0.573-0.371-1.132-0.768-1.686-1.17l-0.264-0.19c-0.077-0.055-0.153-0.11-0.229-0.165
		C52.997,114.972,53.994,114.296,55.015,113.673z M71.547,108.24v14.368c-3.855-1.599-7.523-5.864-10.283-11.989
		C64.57,109.353,68.021,108.554,71.547,108.24z M36.721,81.415c0.771-8.469,4.337-16.458,10.129-22.69
		c1.8,1.432,3.714,2.73,5.708,3.873c-1.852,6.113-2.9,12.434-3.121,18.817H36.721z M46.85,111.011
		c-5.793-6.229-9.359-14.218-10.129-22.688h12.716c0.221,6.382,1.27,12.703,3.121,18.816C50.564,108.28,48.65,109.578,46.85,111.011
		z"/>
</g>
<circle fill="#939598" cx="16.083" cy="13.323" r="4.12"/>
<circle fill="#939598" cx="25.659" cy="13.323" r="4.12"/>
<circle fill="#939598" cx="35.527" cy="13.322" r="4.12"/>
</svg>
