<?xml version="1.0" encoding="utf-8"?>
<!-- Generator: Adobe Illustrator 16.0.0, SVG Export Plug-In . SVG Version: 6.00 Build 0)  -->
<!DOCTYPE svg PUBLIC "-//W3C//DTD SVG 1.1//EN" "http://www.w3.org/Graphics/SVG/1.1/DTD/svg11.dtd">
<svg version="1.1" id="Layer_1" xmlns="http://www.w3.org/2000/svg" xmlns:xlink="http://www.w3.org/1999/xlink" x="0px" y="0px"
	 width="150px" height="150px" viewBox="0 0 150 150" enable-background="new 0 0 150 150" xml:space="preserve">
<g>
	<path fill="#939598" d="M30.87,69.747h42.87c5.27,0,9.541-4.271,9.541-9.541V32.177c0-5.27-4.271-9.541-9.541-9.541H30.87
		c-5.269,0-9.54,4.271-9.54,9.541v28.029C21.33,65.476,25.602,69.747,30.87,69.747z M28.812,32.177c0-1.154,0.936-2.058,2.058-2.058
		h42.87c1.154,0,2.059,0.935,2.059,2.058v28.029c0,1.153-0.936,2.058-2.059,2.058H30.87c-1.153,0-2.058-0.936-2.058-2.058V32.177z"
		/>
	<path fill="#939598" d="M30.028,85.273H25.07c-2.057,0-3.74,1.684-3.74,3.741s1.684,3.741,3.74,3.741h4.958
		c2.058,0,3.741-1.684,3.741-3.741S32.086,85.273,30.028,85.273z"/>
	<path fill="#939598" d="M54.784,85.273h-4.958c-2.057,0-3.74,1.684-3.74,3.741s1.684,3.741,3.74,3.741h4.958
		c2.058,0,3.741-1.684,3.741-3.741S56.842,85.273,54.784,85.273z"/>
	<path fill="#939598" d="M30.028,102.172H25.07c-2.057,0-3.74,1.684-3.74,3.742c0,2.057,1.684,3.74,3.74,3.74h4.958
		c2.058,0,3.741-1.684,3.741-3.74C33.77,103.855,32.086,102.172,30.028,102.172z"/>
	<path fill="#939598" d="M54.784,102.172h-4.958c-2.057,0-3.74,1.684-3.74,3.742c0,2.057,1.684,3.74,3.74,3.74h4.958
		c2.058,0,3.741-1.684,3.741-3.74C58.525,103.855,56.842,102.172,54.784,102.172z"/>
	<path fill="#939598" d="M30.028,119.07H25.07c-2.057,0-3.74,1.684-3.74,3.742c0,2.058,1.684,3.741,3.74,3.741h4.958
		c2.058,0,3.741-1.684,3.741-3.741C33.77,120.754,32.086,119.07,30.028,119.07z"/>
	<path fill="#939598" d="M54.784,119.07h-4.958c-2.057,0-3.74,1.684-3.74,3.742c0,2.058,1.684,3.741,3.74,3.741h4.958
		c2.058,0,3.741-1.684,3.741-3.741C58.525,120.754,56.842,119.07,54.784,119.07z"/>
	<path fill="#939598" d="M114.862,105.619h-6.179c-2.218,0-4.03-2.039-4.03-4.523c0-2.485,1.812-4.523,4.03-4.523h10.902
		c1.522,0,2.755-1.232,2.755-2.754c0-1.522-1.232-2.756-2.755-2.756h-5.059v-4.209c-0.022-1.499-1.233-2.73-2.756-2.73
		s-2.752,1.231-2.752,2.755v4.209h-0.36c-5.239,0-9.516,4.5-9.516,10.009c0,5.506,4.276,10.008,9.516,10.008h6.181
		c2.216,0,4.029,2.037,4.029,4.522c0,2.508-1.813,4.522-4.029,4.522h-11.105c-1.522,0-2.753,1.233-2.753,2.753
		c0,1.524,1.23,2.755,2.753,2.755h5.285v4.275c0,1.524,1.23,2.755,2.753,2.755c1.521,0,2.755-1.23,2.755-2.755v-4.298h0.403
		c0.022,0,0.045,0,0.066,0c5.195-0.067,9.382-4.544,9.382-10.008C124.379,110.096,120.103,105.619,114.862,105.619z"/>
	<path fill="#939598" d="M111.762,71.647c-2.969,0-5.853,0.363-8.619,1.031v-58.68c0-6.173-5.021-11.161-11.193-11.161H12.662
		C6.488,2.838,1.5,7.857,1.5,13.999v122.002c0,6.173,5.02,11.161,11.162,11.161h79.287c3.089,0,6.396-1.743,8.461-3.805
		c3.578,1.166,7.391,1.805,11.352,1.805c20.258,0,36.738-16.48,36.738-36.738C148.5,88.146,132.02,71.647,111.762,71.647z
		 M12.662,139.648c-2.027,0-3.68-1.652-3.68-3.679V13.999c0-2.026,1.652-3.679,3.68-3.679h79.287c2.026,0,3.71,1.652,3.71,3.679
		l0.068,61.339c-5.32,2.592-9.926,6.43-13.433,11.133c-0.685-0.731-1.649-1.197-2.724-1.197h-4.958
		c-2.058,0-3.741,1.684-3.741,3.741s1.684,3.741,3.741,3.741h3.91c-1.391,2.946-2.397,6.106-2.964,9.416h-0.946
		c-2.058,0-3.741,1.684-3.741,3.742c0,2.057,1.684,3.74,3.741,3.74h0.442c0.111,3.264,0.644,6.421,1.554,9.416h-1.996
		c-2.058,0-3.741,1.684-3.741,3.742c0,2.058,1.684,3.741,3.741,3.741h4.958c0.087,0,0.168-0.02,0.253-0.025
		c3.044,5.348,7.385,9.862,12.597,13.106L12.662,139.648z M111.762,139.812c-17.308,0-31.388-14.08-31.388-31.388
		c0-17.307,14.08-31.388,31.388-31.388s31.388,14.081,31.388,31.388C143.149,125.731,129.069,139.812,111.762,139.812z"/>
</g>
</svg>
