<?xml version="1.0" encoding="utf-8"?>
<!-- Generator: Adobe Illustrator 16.0.0, SVG Export Plug-In . SVG Version: 6.00 Build 0)  -->
<!DOCTYPE svg PUBLIC "-//W3C//DTD SVG 1.1//EN" "http://www.w3.org/Graphics/SVG/1.1/DTD/svg11.dtd">
<svg version="1.1" id="Layer_1" xmlns="http://www.w3.org/2000/svg" xmlns:xlink="http://www.w3.org/1999/xlink" x="0px" y="0px"
	 width="150px" height="150px" viewBox="0 0 150 150" enable-background="new 0 0 150 150" xml:space="preserve">
<g>
	<g>
		<path d="M101.294,59.791l-14.243-1.034L81.68,45.55c-1.126-2.729-3.736-4.491-6.681-4.491c-2.946,0-5.555,1.762-6.679,4.491
			l-5.374,13.207l-14.238,1.034c-2.946,0.21-5.405,2.155-6.316,4.947c-0.908,2.792-0.03,5.83,2.217,7.742l10.9,9.201l-3.401,13.843
			c-0.546,2.151-0.061,4.398,1.306,6.131c1.366,1.761,3.491,2.797,5.674,2.797c1.337,0,2.643-0.37,3.796-1.096l12.114-7.531
			l12.111,7.531c1.156,0.726,2.463,1.096,3.799,1.096c2.182,0,4.309-1.036,5.675-2.797c1.365-1.732,1.853-3.979,1.306-6.131
			l-3.397-13.843l10.895-9.201c2.247-1.882,3.128-4.918,2.217-7.742C106.692,61.946,104.201,60.001,101.294,59.791z M87.932,77.493
			c-1.092,0.91-1.547,2.362-1.216,3.732l3.828,15.516l-13.572-8.443c-1.215-0.761-2.73-0.761-3.917,0l-13.6,8.498l3.855-15.601
			c0.333-1.365-0.123-2.822-1.216-3.738L49.861,67.138L65.8,65.984c1.396-0.093,2.642-1.003,3.188-2.31l6.011-14.783l6.041,14.815
			c0.55,1.304,1.762,2.214,3.188,2.307l15.939,1.154L87.932,77.493z"/>
		<path d="M142.636,77.368c-1.239-1.697-1.271-4.04-0.028-5.769l2.581-3.674c2.032-2.885,2.763-6.525,1.948-9.986
			c-0.827-3.464-3.073-6.406-6.196-8.077l-3.944-2.125c-1.887-1.001-2.889-3.065-2.553-5.162l0.756-4.432
			c0.581-3.49-0.364-7.074-2.576-9.837c-2.248-2.763-5.556-4.432-9.079-4.584l-4.524-0.153c-2.126-0.089-3.943-1.516-4.524-3.551
			l-1.24-4.311c-1.521-5.253-6.406-8.926-11.906-8.926c-1.667,0-3.338,0.335-4.884,1l-4.13,1.762
			c-1.917,0.821-4.249,0.306-5.619-1.243L83.712,4.96c-2.337-2.612-5.707-4.129-9.198-4.129c-3.583,0-6.983,1.549-9.351,4.252
			l-2.915,3.431c-1.368,1.579-3.673,2.125-5.617,1.336l-4.159-1.702c-1.519-0.607-3.097-0.939-4.707-0.939
			c-5.555,0-10.475,3.732-11.931,9.108l-1.184,4.311c-0.548,2.032-2.371,3.491-4.465,3.611l-4.461,0.274
			c-3.553,0.211-6.832,1.913-9.018,4.705c-2.185,2.792-3.066,6.376-2.427,9.866l0.818,4.402c0.395,2.097-0.606,4.191-2.458,5.222
			l-3.918,2.188C5.627,52.625,3.41,55.6,2.652,59.061c-0.758,3.46,0,7.104,2.095,9.959l2.642,3.613
			c1.244,1.697,1.274,4.039,0.03,5.771l-2.58,3.674c-2.034,2.882-2.765,6.525-1.944,9.984c0.821,3.463,3.065,6.376,6.193,8.077
			l3.946,2.127c1.884,1.001,2.886,3.062,2.55,5.159l-0.758,4.435c-0.575,3.488,0.365,7.071,2.58,9.835
			c2.247,2.762,5.557,4.428,9.079,4.584l4.494,0.186c2.124,0.084,3.946,1.511,4.521,3.547l1.247,4.313
			c1.519,5.25,6.406,8.924,11.9,8.924l0,0c1.67,0,3.339-0.336,4.888-1.002l4.129-1.761c1.914-0.82,4.25-0.3,5.618,1.247l3.004,3.338
			c2.338,2.612,5.708,4.099,9.199,4.099c3.583,0,6.982-1.551,9.35-4.254l2.917-3.428c1.365-1.582,3.673-2.127,5.614-1.337
			l4.16,1.701c1.521,0.606,3.098,0.941,4.704,0.941c5.555,0,10.475-3.732,11.931-9.108l1.187-4.309
			c0.545-2.032,2.367-3.493,4.463-3.614l4.461-0.24c3.552-0.214,6.83-1.916,9.019-4.709c2.187-2.793,3.066-6.375,2.432-9.864
			l-0.821-4.403c-0.395-2.093,0.604-4.194,2.457-5.195l3.919-2.182c3.093-1.732,5.31-4.705,6.071-8.168
			c0.761-3.463,0-7.102-2.094-9.959L142.636,77.368z M140.119,89.363c-0.305,1.396-1.187,2.548-2.427,3.248l-3.918,2.183
			c-4.646,2.582-7.133,7.832-6.162,13.057l0.816,4.404c0.275,1.396-0.086,2.822-0.966,3.943c-0.886,1.121-2.157,1.792-3.588,1.882
			l-4.46,0.24c-5.31,0.305-9.809,3.948-11.236,9.078l-1.18,4.313c-0.576,2.158-2.553,3.645-4.77,3.645
			c-0.636,0-1.275-0.126-1.882-0.366l-4.159-1.701c-1.516-0.606-3.098-0.939-4.705-0.939c-3.583,0-6.98,1.551-9.353,4.253
			l-2.942,3.367c-0.941,1.092-2.278,1.696-3.734,1.696c-1.426,0-2.731-0.574-3.673-1.635l-3.004-3.345
			c-2.341-2.607-5.708-4.128-9.231-4.128c-1.7,0-3.339,0.341-4.888,1.007l-4.129,1.761c-0.637,0.275-1.272,0.395-1.941,0.395
			c-2.187,0-4.131-1.461-4.736-3.552l-1.247-4.315c-1.486-5.099-6.04-8.683-11.354-8.923l-4.494-0.186
			c-1.426-0.055-2.733-0.695-3.614-1.816c-0.911-1.126-1.274-2.521-1.031-3.918l0.728-4.43c0.881-5.255-1.669-10.449-6.375-12.967
			l-3.946-2.122c-1.274-0.671-2.154-1.826-2.46-3.223c-0.333-1.396-0.061-2.823,0.76-3.979l2.58-3.673
			c3.065-4.339,3.036-10.137-0.123-14.448l-2.64-3.613c-0.851-1.153-1.154-2.58-0.821-3.977c0.305-1.396,1.184-2.549,2.43-3.247
			l3.916-2.188c4.644-2.58,7.135-7.833,6.163-13.055l-0.758-4.342c-0.276-1.426,0.089-2.822,0.971-3.945
			c0.881-1.124,2.154-1.793,3.581-1.882l4.465-0.273c5.312-0.306,9.806-3.948,11.232-9.078L43,18.258
			c0.578-2.154,2.549-3.644,4.767-3.644c0.639,0,1.274,0.122,1.882,0.366l4.159,1.698c1.519,0.608,3.099,0.94,4.707,0.94
			c3.582,0,6.982-1.546,9.353-4.248L70.81,10c0.942-1.094,2.277-1.699,3.733-1.699c1.427,0,2.733,0.576,3.675,1.64l3.002,3.338
			c2.337,2.612,5.71,4.131,9.233,4.131c1.701,0,3.338-0.335,4.89-1.003l4.129-1.762c0.636-0.273,1.271-0.394,1.941-0.394
			c2.187,0,4.13,1.457,4.734,3.551l1.246,4.312c1.487,5.101,6.041,8.684,11.351,8.926l4.494,0.184
			c1.432,0.06,2.733,0.698,3.613,1.821c0.911,1.123,1.277,2.52,1.037,3.916l-0.73,4.432c-0.882,5.253,1.665,10.444,6.369,12.964
			l3.954,2.125c1.271,0.668,2.152,1.822,2.488,3.219c0.335,1.396,0.059,2.821-0.762,3.976l-2.576,3.676
			c-3.069,4.342-3.038,10.143,0.119,14.45l2.638,3.609C140.119,86.535,140.424,87.932,140.119,89.363z"/>
	</g>
</g>
</svg>
