<?xml version="1.0" encoding="utf-8"?>
<!-- Generator: Adobe Illustrator 16.0.0, SVG Export Plug-In . SVG Version: 6.00 Build 0)  -->
<!DOCTYPE svg PUBLIC "-//W3C//DTD SVG 1.1//EN" "http://www.w3.org/Graphics/SVG/1.1/DTD/svg11.dtd">
<svg version="1.1" id="Capa_1" xmlns="http://www.w3.org/2000/svg" xmlns:xlink="http://www.w3.org/1999/xlink" x="0px" y="0px"
	 width="150px" height="150px" viewBox="0 0 150 150" enable-background="new 0 0 150 150" xml:space="preserve">
<g>
	<g>
		<path d="M127.382,121.622l-7.317-13.733V73.971c0-20.966-14.08-38.704-33.281-44.258v-16.93C86.783,5.734,81.049,0,74,0
			c-7.048,0-12.783,5.734-12.783,12.783v16.931c-19.201,5.554-33.282,23.292-33.282,44.258v33.917l-7.317,13.733
			c-1.409,2.646-1.33,5.757,0.213,8.327c1.542,2.568,4.252,4.103,7.249,4.103h29.05C57.625,142.93,65.001,150,74,150
			s16.375-7.07,16.87-15.948h29.05c2.997,0,5.707-1.534,7.25-4.103C128.711,127.379,128.791,124.268,127.382,121.622z
			 M67.981,12.783c0-3.319,2.7-6.019,6.019-6.019c3.318,0,6.02,2.7,6.02,6.019v15.518c-1.972-0.258-3.979-0.393-6.02-0.393
			s-4.048,0.135-6.019,0.393V12.783z M34.699,73.971c0-21.67,17.63-39.301,39.301-39.301c21.67,0,39.301,17.631,39.301,39.301
			v31.119H34.699V73.971z M74,143.236c-5.268,0-9.608-4.041-10.088-9.186h20.177C83.607,139.195,79.268,143.236,74,143.236z
			 M121.37,126.468c-0.147,0.247-0.585,0.821-1.45,0.821H28.08c-0.863,0-1.301-0.574-1.449-0.821s-0.449-0.903-0.042-1.665
			l6.899-12.949h81.028l6.898,12.949C121.818,125.564,121.518,126.221,121.37,126.468z"/>
	</g>
</g>
<g>
	<g>
		<path d="M74,43.686c-16.7,0-30.287,13.586-30.287,30.287c0,1.868,1.514,3.38,3.382,3.38c1.868,0,3.382-1.514,3.382-3.38
			C50.477,61.002,61.029,50.45,74,50.45c1.867,0,3.382-1.514,3.382-3.381C77.382,45.199,75.867,43.686,74,43.686z"/>
	</g>
</g>
<g>
	<circle fill="#FFFFFF" cx="115.857" cy="48.352" r="17.193"/>
	<path d="M115.857,68.545c-11.135,0-20.192-9.059-20.192-20.193c0-11.134,9.06-20.193,20.192-20.193
		c11.135,0,20.193,9.059,20.193,20.193C136.051,59.486,126.993,68.545,115.857,68.545z M115.857,34.159
		c-7.825,0-14.192,6.367-14.192,14.193s6.367,14.193,14.192,14.193c7.826,0,14.193-6.367,14.193-14.193
		S123.686,34.159,115.857,34.159z"/>
</g>
</svg>
