<?xml version="1.0" encoding="utf-8"?>
<!-- Generator: Adobe Illustrator 16.0.0, SVG Export Plug-In . SVG Version: 6.00 Build 0)  -->
<!DOCTYPE svg PUBLIC "-//W3C//DTD SVG 1.1//EN" "http://www.w3.org/Graphics/SVG/1.1/DTD/svg11.dtd">
<svg version="1.1" id="Layer_1" xmlns="http://www.w3.org/2000/svg" xmlns:xlink="http://www.w3.org/1999/xlink" x="0px" y="0px"
	 width="150px" height="150px" viewBox="0 0 150 150" enable-background="new 0 0 150 150" xml:space="preserve">
<g>
	<path fill="#5CA745" d="M114.053,74.616c-19.824,0-35.947,16.123-35.947,35.947s16.123,35.947,35.947,35.947
		S150,130.388,150,110.563S133.877,74.616,114.053,74.616z M142.39,106.703h-24.403V82.235
		C130.65,83.981,140.676,94.028,142.39,106.703z M114.053,139.168c-15.787,0-28.605-12.819-28.605-28.605
		c0-14.52,10.848-26.521,24.872-28.354v28.529c0,2.146,1.745,3.891,3.891,3.891h28.154
		C140.387,128.493,128.458,139.168,114.053,139.168z"/>
	<path fill="#5CA745" d="M129.174,64.079l-0.039-0.436c-0.001-0.018,0.003-0.036,0.001-0.054l-0.511-5.772c-0.002,0-0.005,0-0.008,0
		l-2.208-24.871c-0.183-2.146-1.992-3.772-4.109-3.772h-17.668C104.384,13.037,91.195,0,74.999,0
		C58.802,0,45.611,13.037,45.368,29.173H27.697c-2.146,0-3.925,1.626-4.108,3.772l-8.59,96.716c0,0.123-0.029,0.246-0.029,0.369
		c0,11.013,10.089,19.97,22.514,19.97h42.674h4.815h2.021c2.303,0,4.144-1.841,4.144-4.142s-1.84-4.143-4.144-4.143h-5.796
		c0,0,0,0,0,0.001H37.483c-7.791,0-14.109-5.152-14.232-11.501l8.221-92.73h13.865V50.06c0,2.303,1.84,4.144,4.142,4.144
		c2.301,0,4.142-1.84,4.142-4.144V37.485H96.35V50.06c0,2.303,1.841,4.144,4.142,4.144s4.143-1.84,4.143-4.144V37.485h13.863
		l2.01,22.575l0.377,4.261c0.203,2.293,2.198,3.965,4.491,3.762c2.125-0.188,3.697-1.922,3.756-4.004
		C129.145,64.079,129.159,64.079,129.174,64.079z M53.648,29.173c0.246-11.566,9.726-20.89,21.351-20.89
		c11.627,0,21.104,9.324,21.35,20.89H53.648z"/>
</g>
</svg>
