<?xml version="1.0" encoding="utf-8"?>
<!-- Generator: Adobe Illustrator 16.0.0, SVG Export Plug-In . SVG Version: 6.00 Build 0)  -->
<!DOCTYPE svg PUBLIC "-//W3C//DTD SVG 1.1//EN" "http://www.w3.org/Graphics/SVG/1.1/DTD/svg11.dtd">
<svg version="1.1" id="Layer_1" xmlns="http://www.w3.org/2000/svg" xmlns:xlink="http://www.w3.org/1999/xlink" x="0px" y="0px"
	 width="150px" height="150px" viewBox="0 0 150 150" enable-background="new 0 0 150 150" xml:space="preserve">
<g>
	<path fill="#5CA745" d="M114.172,81.262c-17.861,0-32.369,14.508-32.369,32.369c0,17.86,14.508,32.369,32.369,32.369
		s32.368-14.509,32.368-32.369C146.54,95.77,132.033,81.262,114.172,81.262z M114.172,137.539
		c-13.193,0-23.908-10.717-23.908-23.908c0-13.192,10.715-23.909,23.908-23.909c13.191,0,23.908,10.717,23.908,23.909
		C138.08,126.822,127.363,137.539,114.172,137.539z"/>
</g>
<g>
	<circle fill="#5CA745" cx="51.562" cy="24.849" r="2.93"/>
	<path fill="#5CA745" d="M28.125,39.498c-1.615,0-2.93-1.314-2.93-2.93s1.314-2.93,2.93-2.93c1.038,0,2.133,0.53,3.169,1.531
		c1.163,1.125,3.018,1.094,4.142-0.067c1.126-1.164,1.096-3.018-0.068-4.143c-1.486-1.439-2.974-2.253-4.312-2.697v-3.413
		c0-1.618-1.312-2.93-2.93-2.93s-2.93,1.312-2.93,2.93v3.433c-3.41,1.21-5.859,4.467-5.859,8.286c0,4.847,3.942,8.789,8.789,8.789
		c1.615,0,2.93,1.314,2.93,2.93s-1.314,2.93-2.93,2.93c-1.252,0-2.604-0.787-3.805-2.216c-1.041-1.239-2.889-1.399-4.127-0.358
		c-1.24,1.042-1.398,2.89-0.357,4.128c1.565,1.863,3.407,3.162,5.359,3.815v3.419c0,1.618,1.312,2.93,2.93,2.93
		s2.93-1.312,2.93-2.93v-3.433c3.409-1.21,5.859-4.467,5.859-8.286C36.914,43.44,32.972,39.498,28.125,39.498z"/>
	<path fill="#5CA745" d="M67.969,103.951c-6.461,0-11.719,5.258-11.719,11.719s5.258,11.719,11.719,11.719
		s11.719-5.258,11.719-11.719S74.43,103.951,67.969,103.951z M67.969,121.529c-3.23,0-5.859-2.629-5.859-5.859
		s2.629-5.859,5.859-5.859s5.859,2.629,5.859,5.859S71.199,121.529,67.969,121.529z"/>
	<path fill="#5CA745" d="M141.211,4.341H8.789C3.942,4.341,0,8.284,0,13.13v58.594c0,4.847,3.942,8.789,8.789,8.789h72.119l-5.602,8
		c-1.666,2.38-4.252,3.785-6.904,3.722c-11.952-0.191-21.391,8.268-23.422,18.792c-1.501,7.767,0.898,15.698,6.415,21.215
		c5.533,5.532,13.472,7.911,21.218,6.415c1.846-0.356,3.613-0.952,5.283-1.732c0.113-0.042,0.219-0.095,0.324-0.149
		c0.086-0.042,0.177-0.078,0.263-0.121c-0.003-0.004-0.006-0.008-0.009-0.012c0.822-0.522,1.367-1.417,1.367-2.434
		c0-1.611-1.361-2.918-3.039-2.918c-0.651,0-1.251,0.201-1.746,0.536c-0.008-0.013-0.017-0.024-0.024-0.037
		c-1.129,0.5-2.312,0.88-3.53,1.116c-5.943,1.146-11.762-0.604-15.964-4.807c-4.202-4.201-5.952-10.019-4.806-15.961
		c1.482-7.678,8.539-14.193,17.564-14.045c4.612,0.088,9.023-2.239,11.81-6.22c3.935-5.619,30.595-43.693,34.036-48.607
		c4.729,4.991,5.398,12.732,1.366,18.481c-0.772,1.103-9.482,12.265-9.721,14.455c-0.141,1.292,0.377,4.276,3.638,4.276
		l31.785,0.035c4.847,0,8.789-3.944,8.789-8.789V13.13C150,8.284,146.058,4.341,141.211,4.341z M144.141,71.724
		c0,1.616-1.314,2.93-2.93,2.93h-27.586l6.682-9.543c0.49-0.7,0.93-1.427,1.326-2.176h7.859c1.618,0,2.93-1.312,2.93-2.93
		s-1.312-2.93-2.93-2.93h-5.813c0.934-5.077-0.104-10.321-2.816-14.648h8.63c1.618,0,2.93-1.312,2.93-2.93s-1.312-2.93-2.93-2.93
		h-14.186c-0.011-0.008-0.021-0.016-0.031-0.023c-0.637-0.446-1.426-0.622-2.189-0.486c-0.768,0.135-1.447,0.568-1.893,1.205
		l-26.182,37.39H8.789c-1.615,0-2.93-1.314-2.93-2.93V13.13c0-1.616,1.314-2.93,2.93-2.93h82.617v2.93c0,1.618,1.311,2.93,2.93,2.93
		c1.617,0,2.93-1.312,2.93-2.93v-2.93h43.945c1.615,0,2.93,1.314,2.93,2.93V71.724z"/>
	<path fill="#5CA745" d="M94.336,21.919c-1.619,0-2.93,1.312-2.93,2.93v5.859c0,1.618,1.311,2.93,2.93,2.93
		c1.617,0,2.93-1.312,2.93-2.93v-5.859C97.266,23.231,95.953,21.919,94.336,21.919z"/>
	<path fill="#5CA745" d="M94.336,39.498c-1.619,0-2.93,1.312-2.93,2.93v5.859c0,1.618,1.311,2.93,2.93,2.93
		c1.617,0,2.93-1.312,2.93-2.93v-5.859C97.266,40.809,95.953,39.498,94.336,39.498z"/>
	<path fill="#5CA745" d="M76.758,57.076H51.562c-1.618,0-2.93,1.312-2.93,2.93s1.312,2.93,2.93,2.93h25.195
		c1.619,0,2.93-1.312,2.93-2.93S78.377,57.076,76.758,57.076z"/>
	<path fill="#5CA745" d="M76.758,39.498H51.562c-1.618,0-2.93,1.312-2.93,2.93s1.312,2.93,2.93,2.93h25.195
		c1.619,0,2.93-1.312,2.93-2.93S78.377,39.498,76.758,39.498z"/>
	<path fill="#5CA745" d="M129.492,21.919h-17.578c-1.618,0-2.93,1.312-2.93,2.93s1.312,2.93,2.93,2.93h17.578
		c1.618,0,2.93-1.312,2.93-2.93S131.11,21.919,129.492,21.919z"/>
	<path fill="#5CA745" d="M76.758,21.919H63.281c-1.618,0-2.93,1.312-2.93,2.93s1.312,2.93,2.93,2.93h13.477
		c1.619,0,2.93-1.312,2.93-2.93S78.377,21.919,76.758,21.919z"/>
</g>
<path fill="#5CA745" d="M114.265,109.701c-1.615,0-2.93-1.314-2.93-2.93s1.314-2.93,2.93-2.93c1.038,0,2.133,0.53,3.169,1.531
	c1.163,1.125,3.018,1.094,4.142-0.067c1.126-1.164,1.096-3.018-0.068-4.143c-1.486-1.439-2.974-2.253-4.312-2.697v-3.413
	c0-1.618-1.312-2.93-2.93-2.93s-2.93,1.312-2.93,2.93v3.433c-3.41,1.21-5.859,4.467-5.859,8.286c0,4.847,3.942,8.789,8.789,8.789
	c1.615,0,2.93,1.314,2.93,2.93s-1.314,2.93-2.93,2.93c-1.252,0-2.604-0.787-3.805-2.216c-1.041-1.239-2.889-1.399-4.127-0.358
	c-1.24,1.042-1.398,2.89-0.357,4.128c1.565,1.863,3.407,3.162,5.359,3.815v3.419c0,1.618,1.312,2.93,2.93,2.93s2.93-1.312,2.93-2.93
	v-3.433c3.409-1.21,5.859-4.467,5.859-8.286C123.054,113.644,119.111,109.701,114.265,109.701z"/>
</svg>
