<?xml version="1.0" encoding="utf-8"?>
<!-- Generator: Adobe Illustrator 16.0.0, SVG Export Plug-In . SVG Version: 6.00 Build 0)  -->
<!DOCTYPE svg PUBLIC "-//W3C//DTD SVG 1.1//EN" "http://www.w3.org/Graphics/SVG/1.1/DTD/svg11.dtd">
<svg version="1.1" id="Layer_1" xmlns="http://www.w3.org/2000/svg" xmlns:xlink="http://www.w3.org/1999/xlink" x="0px" y="0px"
	 width="150px" height="150px" viewBox="0 0 150 150" enable-background="new 0 0 150 150" xml:space="preserve">
<g>
	<g>
		<path fill="#5CA745" d="M41.381,9.372c-4.532-6.043-10.65-9.371-17.229-9.371S11.457,3.329,6.924,9.372
			C2.613,15.119,0.24,22.707,0.24,30.737s2.373,15.618,6.684,21.365c2.521,3.361,5.534,5.879,8.842,7.455l-5.059,76.072
			c-0.247,3.707,1.068,7.389,3.605,10.102c2.539,2.713,6.126,4.27,9.842,4.27c3.715,0,7.3-1.555,9.838-4.268
			c2.537-2.713,3.852-6.395,3.605-10.103l-5.06-76.071c3.309-1.576,6.321-4.094,8.843-7.456c4.311-5.747,6.685-13.335,6.685-21.365
			S45.691,15.119,41.381,9.372z M28.967,141.031c-1.26,1.347-2.969,2.088-4.812,2.088c-1.846,0-3.557-0.742-4.817-2.089
			c-1.261-1.348-1.888-3.103-1.765-4.944l4.967-74.687c0.535,0.045,1.071,0.076,1.613,0.076c0.541,0,1.078-0.031,1.613-0.076
			l4.967,74.687C30.854,137.928,30.229,139.684,28.967,141.031z M24.152,54.593c-1.232,0-2.434-0.189-3.593-0.539
			c-0.097-0.036-0.193-0.068-0.293-0.095C12.742,51.49,7.12,42.019,7.12,30.737c0-13.154,7.641-23.856,17.032-23.856
			s17.033,10.702,17.033,23.856S33.545,54.593,24.152,54.593z"/>
	</g>
</g>
<g>
	<g>
		<path fill="#5CA745" d="M149.76,89.625V3.874l-0.029,0.013c0.1-0.758-0.051-1.554-0.484-2.255
			c-0.999-1.616-3.119-2.116-4.735-1.117c-14.034,8.677-22.415,23.706-22.417,40.204c0,0.002-0.001,0.004-0.001,0.006v45.053
			c0,3.953,3.159,7.173,7.081,7.293v46.588c0,5.676,4.617,10.293,10.293,10.293s10.293-4.617,10.293-10.293V89.643
			C149.76,89.637,149.76,89.631,149.76,89.625z M129.396,86.201c-0.234,0-0.423-0.189-0.423-0.423V40.731
			c0-0.001,0.001-0.003,0.001-0.004c0-11.9,5.101-22.907,13.904-30.509v75.984H129.396z M142.88,139.658
			c0,1.882-1.53,3.413-3.413,3.413c-1.882,0-3.413-1.53-3.413-3.413V93.082h6.826V139.658L142.88,139.658z"/>
	</g>
</g>
<g>
	<g>
		<path fill="#5CA745" d="M97.5,0.001c-1.9,0-3.441,1.54-3.441,3.44v39.082h-8.766V3.441c0-1.9-1.54-3.44-3.439-3.44
			c-1.9,0-3.44,1.54-3.44,3.44v39.082h-8.766V3.441c0-1.9-1.54-3.44-3.44-3.44s-3.44,1.54-3.44,3.44v49.8
			c0,5.607,4.562,10.17,10.17,10.17h0.612l-4.826,72.554c-0.242,3.619,1.04,7.214,3.52,9.864c2.479,2.651,5.982,4.171,9.611,4.171
			c3.628,0,7.131-1.52,9.61-4.171c2.479-2.649,3.762-6.245,3.52-9.862l-4.827-72.556h0.613c5.608,0,10.17-4.562,10.17-10.17v-49.8
			C100.939,1.541,99.398,0.001,97.5,0.001z M86.439,141.129c-1.201,1.283-2.83,1.99-4.587,1.99s-3.386-0.707-4.586-1.99
			s-1.796-2.954-1.679-4.706l4.856-73.012h2.816l4.857,73.013C88.235,138.175,87.639,139.846,86.439,141.129z M94.059,53.241
			c0,1.814-1.475,3.29-3.289,3.29H77.111c-0.005,0-0.01,0-0.014,0h-4.16c-1.814,0-3.29-1.476-3.29-3.29v-3.838h24.411V53.241z"/>
	</g>
</g>
</svg>
