<?xml version="1.0" encoding="utf-8"?>
<!-- Generator: Adobe Illustrator 16.0.0, SVG Export Plug-In . SVG Version: 6.00 Build 0)  -->
<!DOCTYPE svg PUBLIC "-//W3C//DTD SVG 1.1//EN" "http://www.w3.org/Graphics/SVG/1.1/DTD/svg11.dtd">
<svg version="1.1" id="Layer_1" xmlns="http://www.w3.org/2000/svg" xmlns:xlink="http://www.w3.org/1999/xlink" x="0px" y="0px"
	 width="150px" height="150px" viewBox="0 0 150 150" enable-background="new 0 0 150 150" xml:space="preserve">
<g>
	<path fill="#5CA745" d="M74.984,81.132H27.6c-2.169,0-3.943,1.772-3.943,3.938c0,2.175,1.774,3.947,3.943,3.947h47.385
		c2.201,0,3.945-1.772,3.945-3.947C78.93,82.904,77.152,81.132,74.984,81.132z"/>
	<path fill="#5CA745" d="M46.561,95.264H27.6c-2.169,0-3.943,1.774-3.943,3.941c0,2.171,1.774,3.943,3.943,3.943h18.961
		c2.166,0,3.944-1.772,3.944-3.943C50.505,97.038,48.727,95.264,46.561,95.264z"/>
	<path fill="#5CA745" d="M27.143,74.725h47.381c2.17,0,3.942-1.773,3.942-3.945c0-2.166-1.772-3.939-3.942-3.939H27.143
		c-2.17,0-3.945,1.773-3.945,3.939C23.197,72.952,24.939,74.725,27.143,74.725z"/>
	<path fill="#5CA745" d="M138.96,24.218H11.038C4.928,24.218,0,29.181,0,35.261v52.11v28.424v0.005
		c0,6.08,4.959,11.038,11.038,11.038h0.002h32.8h43.335h45.892h5.896c6.11,0,11.038-4.963,11.038-11.043v-52.11V35.261v-0.005
		C149.997,29.179,145.037,24.218,138.96,24.218z M7.854,35.261c0-1.742,1.445-3.157,3.185-3.157H138.96
		c1.741,0,3.153,1.414,3.153,3.156v12.651H7.854V35.261z M142.146,115.795c0,1.742-1.445,3.157-3.185,3.157h-5.239v0H87.141H44.115
		H11.038c-0.218,0-0.429-0.022-0.634-0.064c-1.438-0.295-2.518-1.568-2.518-3.091v-12.651V55.798h134.227v39.46l0.033,7.887V115.795
		z"/>
</g>
</svg>
