<?xml version="1.0" encoding="utf-8"?>
<!-- Generator: Adobe Illustrator 16.0.0, SVG Export Plug-In . SVG Version: 6.00 Build 0)  -->
<!DOCTYPE svg PUBLIC "-//W3C//DTD SVG 1.1//EN" "http://www.w3.org/Graphics/SVG/1.1/DTD/svg11.dtd">
<svg version="1.1" id="Layer_1" xmlns="http://www.w3.org/2000/svg" xmlns:xlink="http://www.w3.org/1999/xlink" x="0px" y="0px"
	 width="150px" height="150px" viewBox="0 0 150 150" enable-background="new 0 0 150 150" xml:space="preserve">
<g>
	<path fill="#5CA745" d="M114.053,74.616c-19.824,0-35.947,16.123-35.947,35.947s16.123,35.947,35.947,35.947
		S150,130.388,150,110.563S133.877,74.616,114.053,74.616z M117.986,82.235c12.664,1.747,22.689,11.793,24.403,24.468h-24.403
		V82.235z M114.053,139.168c-15.787,0-28.605-12.819-28.605-28.605c0-14.52,10.848-26.521,24.872-28.354v28.529
		c0,2.146,1.745,3.891,3.891,3.891h28.154C140.387,128.493,128.458,139.168,114.053,139.168z"/>
	<path fill="#5CA745" d="M96.516,44.662H84.91v-8.981c0-2.037-1.635-3.703-3.703-3.703c-2.037,0-3.703,1.666-3.703,3.703v8.981
		h-2.346c-9.352,0-16.975,7.623-16.975,16.975s7.623,16.975,16.975,16.975h6.237h3.25h1.591c2.037,0,3.703-1.666,3.703-3.703
		s-1.666-3.703-3.703-3.703h-1.82c0,0,0,0,0-0.001h-9.258c-5.277,0-9.567-4.29-9.567-9.567s4.29-9.567,9.567-9.567h21.357
		c2.037,0,3.703-1.667,3.703-3.704S98.553,44.662,96.516,44.662z"/>
	<path fill="#5CA745" d="M70.924,97.746h-0.585h-4.267h-0.574c-2.037,0-3.703,1.666-3.703,3.703s1.666,3.703,3.703,3.703h0.585
		h4.267h0.574c2.037,0,3.703-1.666,3.703-3.703S72.961,97.746,70.924,97.746z"/>
	<g>
		<path fill="#5CA745" d="M149.93,72.704c-0.572-17.502-7.634-33.895-20.083-46.343C116.854,13.367,99.57,6.207,81.207,6.207
			c-18.703,0-36.201,7.376-49.256,20.771c-1.42,1.451-1.39,3.796,0.061,5.247c1.451,1.419,3.797,1.389,5.247-0.062
			c11.666-11.944,27.252-18.518,43.948-18.518c33.268-0.031,60.402,26.554,61.336,59.599c-0.018,1.975-0.104,3.958-0.315,5.949
			c-0.192,2.042,1.28,3.868,3.298,4.082c2.043,0.192,3.868-1.28,4.08-3.299c0.262-2.431,0.388-4.853,0.395-7.263
			C149.977,72.709,149.953,72.707,149.93,72.704z"/>
		<path fill="#5CA745" d="M78.577,136.51c-0.679-0.115-1.356-0.195-2.034-0.289c-0.006-0.011-0.011-0.021-0.016-0.032
			c-0.235-0.018-0.467-0.05-0.701-0.07c-0.868-0.111-1.734-0.2-2.602-0.277C43.136,131.916,19.853,106.149,19.853,75v-0.771
			l6.079,6.111c0.711,0.709,1.668,1.08,2.624,1.08s1.883-0.371,2.623-1.08c1.45-1.451,1.45-3.797,0-5.247L18.771,62.655
			c-1.449-1.451-3.795-1.451-5.246,0L1.088,75.093c-1.451,1.45-1.451,3.796,0,5.247c1.451,1.45,3.796,1.45,5.246,0l6.111-6.111V75
			c0,18.363,7.16,35.646,20.153,48.64c11.142,11.141,25.44,17.977,40.867,19.701c1.808,0.141,2.07,0.182,3.883,0.486
			c2.026,0.316,3.938-1.043,4.274-3.043C81.938,138.755,80.58,136.844,78.577,136.51z"/>
	</g>
</g>
</svg>
