<?xml version="1.0" encoding="utf-8"?>
<!-- Generator: Adobe Illustrator 16.0.0, SVG Export Plug-In . SVG Version: 6.00 Build 0)  -->
<!DOCTYPE svg PUBLIC "-//W3C//DTD SVG 1.1//EN" "http://www.w3.org/Graphics/SVG/1.1/DTD/svg11.dtd">
<svg version="1.1" id="Layer_1" xmlns="http://www.w3.org/2000/svg" xmlns:xlink="http://www.w3.org/1999/xlink" x="0px" y="0px"
	 width="150px" height="150px" viewBox="0 0 150 150" enable-background="new 0 0 150 150" xml:space="preserve">
<path fill="#5CA745" d="M114.172,84.262c-17.861,0-32.369,14.508-32.369,32.369c0,17.86,14.508,32.369,32.369,32.369
	s32.368-14.509,32.368-32.369C146.54,98.77,132.033,84.262,114.172,84.262z M114.172,140.539c-13.192,0-23.908-10.717-23.908-23.908
	c0-13.192,10.716-23.909,23.908-23.909c13.191,0,23.908,10.717,23.908,23.909C138.08,129.822,127.363,140.539,114.172,140.539z"/>
<path fill="#5CA745" d="M142.666,46.417c0-0.062-0.03-0.154-0.03-0.216c0-0.062-0.03-0.123-0.03-0.185
	c-0.031-0.062-0.031-0.123-0.062-0.216c-0.03-0.062-0.03-0.123-0.061-0.185c-0.031-0.062-0.031-0.124-0.062-0.185
	c-0.031-0.062-0.062-0.124-0.092-0.216c-0.031-0.062-0.062-0.124-0.093-0.154c-0.031-0.062-0.062-0.123-0.093-0.185
	c-0.031-0.062-0.062-0.092-0.092-0.154c-0.031-0.062-0.094-0.124-0.124-0.185s-0.062-0.093-0.123-0.154
	c-0.03-0.062-0.093-0.092-0.124-0.154c-0.03-0.062-0.092-0.092-0.123-0.154s-0.092-0.093-0.123-0.124
	c-0.062-0.062-0.092-0.092-0.154-0.154c-0.062-0.031-0.092-0.093-0.154-0.124c-0.062-0.031-0.123-0.092-0.185-0.123
	c-0.062-0.031-0.093-0.062-0.154-0.093s-0.123-0.062-0.185-0.123c-0.062-0.031-0.123-0.062-0.186-0.093l-0.185-0.092
	c-0.062-0.031-0.124-0.062-0.185-0.093c-0.062-0.031-0.124-0.031-0.186-0.062s-0.154-0.062-0.216-0.062s-0.123-0.031-0.154-0.031
	c-0.093-0.031-0.153-0.031-0.247-0.031c-0.03,0-0.061-0.031-0.123-0.031l-9.321-1.287c0.003-0.004,0.005-0.008,0.008-0.012
	l-11.841-1.672c-0.178-0.025-0.353-0.019-0.527-0.021L34.523,28.405v-0.021V13.771c0-0.154,0-0.308-0.03-0.432
	c0-0.031,0-0.062-0.03-0.123c0-0.093-0.031-0.185-0.031-0.277c-0.031-0.093-0.031-0.154-0.062-0.247c0-0.062-0.03-0.092-0.03-0.154
	c-0.03-0.093-0.062-0.185-0.093-0.278c0-0.031-0.03-0.092-0.03-0.123c-0.031-0.092-0.062-0.154-0.124-0.247
	c-0.03-0.031-0.03-0.093-0.061-0.124c-0.031-0.062-0.062-0.123-0.124-0.185c-0.03-0.062-0.062-0.093-0.093-0.154
	c-0.03-0.062-0.062-0.093-0.092-0.154c-0.031-0.062-0.093-0.123-0.123-0.185l-0.094-0.092c-0.061-0.062-0.123-0.124-0.184-0.185
	l-0.094-0.092c-0.061-0.062-0.123-0.124-0.215-0.185c-0.031-0.031-0.093-0.062-0.123-0.092c-0.062-0.062-0.124-0.093-0.186-0.154
	c-0.093-0.062-0.186-0.124-0.246-0.154c-0.031-0.031-0.062-0.031-0.094-0.062c-0.123-0.062-0.277-0.124-0.4-0.185L9.244,0.33
	c-2.127-0.894-4.562,0.092-5.456,2.22c-0.894,2.127,0.093,4.562,2.22,5.457l20.162,8.508v13.128
	c-0.053,0.021-0.104,0.046-0.156,0.067v6.424c0.051,0.031,0.105,0.054,0.156,0.084v71.485c0,8.633,6.474,15.785,14.828,16.863
	c-1.511,2.528-2.404,5.488-2.404,8.633c0,9.279,7.553,16.801,16.801,16.801s16.801-7.553,16.801-16.801
	c0-3.06-0.82-5.964-2.279-8.419c2.254-0.037,4.078-1.839,4.097-4.109c0.023-2.287-1.779-4.15-4.058-4.206c0-0.022,0-0.045,0-0.068
	H43.187c-4.81,0-8.693-3.915-8.693-8.694V96.421c2.528,1.479,5.519,2.343,8.693,2.343h25.629c0-0.001,0-0.002,0-0.004l2.99,0.03
	c2.306,0.023,4.188-1.811,4.207-4.119c0.023-2.307-1.81-4.188-4.115-4.212l-1.072-0.012v-0.003l-0.705-0.005l-1.486-0.017
	c-0.001,0.005-0.003,0.011-0.004,0.017H43.187c-4.81,0-8.693-3.914-8.693-8.693V36.79l84.091,11.583l6.533,0.93l0.018-0.028
	l9.239,1.273v3.46v17.419l-0.044,4.339c-0.023,2.306,1.812,4.188,4.118,4.207c2.307,0.023,4.188-1.81,4.213-4.115l0.005-0.504
	c0.011,0,0.021,0,0.031,0V54.008v-7.406C142.697,46.541,142.697,46.479,142.666,46.417z M55.426,124.689
	c4.654,0,8.477,3.793,8.477,8.479s-3.822,8.478-8.477,8.478c-4.655,0-8.479-3.823-8.479-8.478
	C46.947,128.513,50.771,124.689,55.426,124.689z"/>
<path fill="#5CA745" d="M114.16,103.259c-2.079-0.001-3.746,1.667-3.746,3.746v5.889l-5.891,0.001
	c-2.078-0.001-3.746,1.667-3.746,3.746c0,2.08,1.668,3.747,3.746,3.746l5.891,0.001l-0.021,5.868
	c-0.002,2.079,1.666,3.747,3.746,3.745c1.039,0.001,1.971-0.41,2.664-1.104s1.104-1.625,1.104-2.664v-5.889l5.89-0.001
	c1.04,0,1.972-0.411,2.663-1.104c0.694-0.693,1.105-1.625,1.105-2.665c0-2.078-1.668-3.746-3.746-3.745l-5.891-0.001v-5.89
	C117.908,104.926,116.24,103.259,114.16,103.259z"/>
</svg>
