<?xml version="1.0" encoding="utf-8"?>
<!-- Generator: Adobe Illustrator 16.0.0, SVG Export Plug-In . SVG Version: 6.00 Build 0)  -->
<!DOCTYPE svg PUBLIC "-//W3C//DTD SVG 1.1//EN" "http://www.w3.org/Graphics/SVG/1.1/DTD/svg11.dtd">
<svg version="1.1" id="Layer_1" xmlns="http://www.w3.org/2000/svg" xmlns:xlink="http://www.w3.org/1999/xlink" x="0px" y="0px"
	 width="150px" height="150px" viewBox="0 0 150 150" enable-background="new 0 0 150 150" xml:space="preserve">
<g>
	<g>
		<path fill="#5CA745" d="M45.676,99.85h80.896c8.936,0,16.186-7.28,16.186-16.186V49.609c0-1.985-1.625-3.61-3.61-3.61
			s-3.61,1.625-3.61,3.61v34.055c0,4.964-4.031,8.965-8.965,8.965H45.676c-4.964,0-8.965-4.031-8.965-8.965V63.598V41.155v-2.918
			V17.088c0-0.121,0-0.241-0.03-0.391c0-0.03,0-0.06,0-0.09c0-0.09-0.03-0.181-0.03-0.241s-0.03-0.15-0.061-0.21
			c0-0.03-0.03-0.09-0.03-0.12c-0.03-0.09-0.06-0.151-0.09-0.241c0-0.03-0.03-0.061-0.03-0.09c-0.03-0.061-0.06-0.15-0.09-0.211
			c-0.03-0.03-0.03-0.09-0.061-0.12c-0.03-0.06-0.06-0.12-0.09-0.15c-0.03-0.06-0.06-0.09-0.09-0.15
			c-0.03-0.03-0.061-0.09-0.09-0.121c-0.03-0.06-0.09-0.12-0.121-0.15c-0.03-0.03-0.06-0.06-0.09-0.09
			c-0.061-0.06-0.09-0.12-0.151-0.18c-0.03-0.03-0.06-0.03-0.06-0.06c-0.06-0.061-0.12-0.121-0.18-0.181
			c-0.03-0.03-0.061-0.06-0.09-0.06c-0.061-0.06-0.121-0.09-0.181-0.15c-0.06-0.03-0.12-0.09-0.21-0.121
			c-0.03-0.03-0.06-0.03-0.09-0.06c-0.121-0.06-0.21-0.121-0.331-0.15L12.252,4.362c-1.835-0.782-3.941,0.09-4.723,1.925
			s0.09,3.941,1.925,4.723l20.006,8.454v18.773v2.918v22.443v20.066v25.361c0,8.483,6.528,15.434,14.832,16.125
			c-1.685,2.527-2.677,5.565-2.677,8.845c0,8.815,7.19,16.005,16.005,16.005c8.814,0,16.004-7.189,16.004-16.005
			c0-3.249-0.962-6.257-2.617-8.784h38.298c-1.655,2.527-2.617,5.535-2.617,8.784c0,8.815,7.189,16.005,16.004,16.005
			s16.005-7.189,16.005-16.005c0-8.814-7.19-16.005-16.005-16.005H45.676c-4.964,0-8.965-4.031-8.965-8.965V97.143
			C39.268,98.857,42.367,99.85,45.676,99.85z M66.404,133.995c0,4.844-3.941,8.784-8.784,8.784c-4.844,0-8.785-3.94-8.785-8.784
			s3.941-8.784,8.785-8.784C62.463,125.211,66.404,129.151,66.404,133.995z M131.446,133.995c0,4.844-3.941,8.784-8.784,8.784
			c-4.844,0-8.785-3.94-8.785-8.784s3.941-8.784,8.785-8.784C127.505,125.211,131.446,129.151,131.446,133.995z"/>
		<path fill="#5CA745" d="M83.553,64.892C83.553,64.892,83.553,64.922,83.553,64.892c0.09,0.09,0.18,0.181,0.27,0.241
			c0.031,0.03,0.091,0.06,0.15,0.09c0.061,0.03,0.091,0.06,0.15,0.12c0.061,0.03,0.121,0.061,0.15,0.09
			c0.061,0.03,0.091,0.06,0.15,0.09c0.061,0.03,0.121,0.06,0.182,0.09c0.06,0.03,0.09,0.06,0.15,0.06c0.06,0.03,0.12,0.03,0.18,0.06
			c0.061,0.03,0.121,0.03,0.181,0.061c0.061,0.03,0.12,0.03,0.181,0.03s0.121,0.03,0.181,0.03s0.12,0.03,0.181,0.03
			s0.09,0.03,0.15,0.03c0.12,0,0.24,0.03,0.361,0.03c0.119,0,0.24,0,0.36-0.03c0.061,0,0.12-0.03,0.15-0.03
			c0.061,0,0.12-0.03,0.181-0.03s0.12-0.03,0.181-0.03c0.06,0,0.12-0.03,0.181-0.03c0.061-0.03,0.12-0.03,0.18-0.061
			c0.061-0.03,0.121-0.03,0.182-0.06c0.06-0.03,0.09-0.06,0.15-0.06c0.06-0.03,0.119-0.06,0.18-0.09s0.09-0.06,0.15-0.09
			c0.061-0.03,0.121-0.06,0.15-0.09c0.061-0.03,0.09-0.06,0.15-0.12c0.061-0.03,0.09-0.06,0.15-0.09
			c0.091-0.06,0.181-0.15,0.241-0.21c0,0,0,0,0.03-0.03l14.32-14.32c1.414-1.414,1.414-3.701,0-5.115
			c-1.414-1.414-3.701-1.414-5.115,0l-8.273,8.183V3.61c0-1.986-1.624-3.61-3.609-3.61c-1.986,0-3.61,1.625-3.61,3.61v50.03
			l-8.123-8.123c-1.414-1.414-3.701-1.414-5.114,0c-1.414,1.414-1.414,3.7,0,5.114L83.553,64.892z"/>
		<path fill="#5CA745" d="M57.649,81.017h56.919c1.986,0,3.611-1.624,3.611-3.61c0-1.985-1.625-3.609-3.611-3.609H57.649
			c-1.985,0-3.61,1.625-3.61,3.609C54.04,79.393,55.634,81.017,57.649,81.017z"/>
	</g>
</g>
</svg>
