<?xml version="1.0" encoding="utf-8"?>
<!-- Generator: Adobe Illustrator 16.0.0, SVG Export Plug-In . SVG Version: 6.00 Build 0)  -->
<!DOCTYPE svg PUBLIC "-//W3C//DTD SVG 1.1//EN" "http://www.w3.org/Graphics/SVG/1.1/DTD/svg11.dtd">
<svg version="1.1" id="Layer_1" xmlns="http://www.w3.org/2000/svg" xmlns:xlink="http://www.w3.org/1999/xlink" x="0px" y="0px"
	 width="150px" height="150px" viewBox="0 0 150 150" enable-background="new 0 0 150 150" xml:space="preserve">
<g>
	<path fill="#5CA745" d="M114.053,74.616c-19.824,0-35.947,16.123-35.947,35.947s16.123,35.947,35.947,35.947
		S150,130.388,150,110.563S133.877,74.616,114.053,74.616z M142.39,106.703h-24.403V82.235
		C130.65,83.981,140.676,94.028,142.39,106.703z M114.053,139.168c-15.787,0-28.605-12.819-28.605-28.605
		c0-14.52,10.848-26.521,24.872-28.354v28.529c0,2.146,1.745,3.891,3.891,3.891h28.154
		C140.387,128.493,128.458,139.168,114.053,139.168z"/>
	<path fill="#5CA745" d="M120.415,65.454l-4.567-5.772l0.044-0.035c-0.121-0.085-0.228-0.197-0.339-0.299
		c-0.015-0.005-0.028-0.013-0.043-0.019c-8.199-9.794-16.326-16.36-20.49-19.412l15.903-29.5c0.781-1.465,0.53-3.274-0.687-4.428
		C106.123,1.964,101.757,0,96.893,0c-4.459,0-8.545,1.685-12.1,3.181c-2.809,1.154-5.458,2.277-7.611,2.277
		c-0.654,0-1.214-0.093-1.774-0.311c-7.425-2.714-13.13-4.397-18.65-4.397c-6.983,0-12.942,2.806-18.772,8.794
		c-1.217,1.247-1.402,3.211-0.438,4.676l17.152,25.914c-4.241,3.149-12.35,9.762-20.488,19.523
		c-6.83,8.201-12.288,16.964-16.217,26.007c-4.928,11.382-7.422,23.264-7.422,35.3c0,15.999,13.035,29.035,29.033,29.035h40.068
		h6.91h0.722c-0.003-0.024-0.007-0.048-0.01-0.072c1.72-0.335,3.027-1.856,3.027-3.67c0-2.06-1.683-3.741-3.739-3.741h-0.111h-5.269
		H39.605c-11.881,0-21.549-9.668-21.549-21.55c0-19.989,7.328-38.948,21.735-56.351c9.104-11.007,18.367-17.837,21.175-19.832
		h28.004c2.838,1.964,12.069,8.825,21.174,19.832c0.58,0.699,1.129,1.404,1.686,2.107c0.015-0.001,0.03-0.001,0.045-0.002
		l2.673,3.377c1.276,1.613,3.64,1.887,5.254,0.61C121.417,69.429,121.692,67.066,120.415,65.454z M87.911,37.298H61.84
		L45.529,12.661c3.619-3.116,7.078-4.49,11.228-4.49c4.429,0,9.418,1.498,16.062,3.962c1.371,0.497,2.836,0.748,4.332,0.748
		c3.649,0,7.144-1.434,10.479-2.839c3.211-1.341,6.269-2.619,9.229-2.619c1.436,0,3.461,0.251,6.019,2.058L87.911,37.298z"/>
	<path fill="#5CA745" d="M75,116.66c0-1.947-1.509-3.538-3.41-3.708c-0.001-0.011-0.002-0.022-0.003-0.033h-0.326h-3.732h-2.852
		c-2.058,0-3.739,1.685-3.739,3.742c0,2.06,1.683,3.741,3.739,3.741h2.618h0.961h3.005c0.68,0,1.311-0.198,1.861-0.518
		c0.007,0.004,0.014,0.008,0.021,0.013c0.005-0.005,0.008-0.01,0.013-0.015c-0.002-0.004-0.003-0.009-0.005-0.014
		C74.251,119.215,75,118.026,75,116.66z"/>
	<path fill="#5CA745" d="M86.568,75.375H79.49v-5.209c0-2.057-1.686-3.742-3.742-3.742s-3.742,1.685-3.742,3.742v5.209h-0.529
		c-7.234,0-13.129,5.893-13.129,13.129c0,7.167,5.787,13.009,12.93,13.117c-0.001,0.003-0.002,0.007-0.003,0.01h0.202h1.925h0.877
		c0.68,0,1.311-0.198,1.861-0.518c0.007,0.004,0.014,0.008,0.021,0.013c0.005-0.005,0.008-0.01,0.013-0.015
		c-0.002-0.004-0.003-0.009-0.005-0.014c1.101-0.654,1.85-1.842,1.85-3.208c0-1.947-1.509-3.538-3.41-3.708
		c-0.001-0.011-0.002-0.022-0.003-0.033H71.99c0,0,0,0,0-0.001h-0.514c-3.119,0-5.646-2.523-5.646-5.643s2.524-5.645,5.646-5.645
		h15.092c2.061,0,3.742-1.686,3.742-3.742C90.311,77.057,88.628,75.375,86.568,75.375z"/>
</g>
</svg>
