<?xml version="1.0" encoding="utf-8"?>
<!-- Generator: Adobe Illustrator 16.0.0, SVG Export Plug-In . SVG Version: 6.00 Build 0)  -->
<!DOCTYPE svg PUBLIC "-//W3C//DTD SVG 1.1//EN" "http://www.w3.org/Graphics/SVG/1.1/DTD/svg11.dtd">
<svg version="1.1" id="Layer_1" xmlns="http://www.w3.org/2000/svg" xmlns:xlink="http://www.w3.org/1999/xlink" x="0px" y="0px"
	 width="150px" height="150px" viewBox="0 0 150 150" enable-background="new 0 0 150 150" xml:space="preserve">
<g>
	<g>
		<path fill="#5CA745" d="M78.93,83.07c0-2.166-1.777-3.938-3.945-3.938H27.6c-2.169,0-3.943,1.772-3.943,3.938
			c0,2.175,1.774,3.947,3.943,3.947h47.385C77.186,87.018,78.93,85.245,78.93,83.07z"/>
		<path fill="#5CA745" d="M27.6,93.264c-2.169,0-3.943,1.774-3.943,3.941c0,2.171,1.774,3.943,3.943,3.943h18.961
			c2.166,0,3.944-1.772,3.944-3.943c0-2.167-1.778-3.941-3.944-3.941H27.6z"/>
		<path fill="#5CA745" d="M27.143,72.725h47.381c2.17,0,3.942-1.773,3.942-3.945c0-2.166-1.772-3.939-3.942-3.939H27.143
			c-2.17,0-3.945,1.773-3.945,3.939C23.197,70.952,24.939,72.725,27.143,72.725z"/>
	</g>
</g>
<path fill="#5CA745" d="M44.115,116.951c-0.154,2.62-0.33,5.271-0.275,7.887h89.227c0.002-0.029,0.004-0.059,0.006-0.088
	c0.223-2.602,0.455-5.2,0.65-7.798H44.115z"/>
<path fill="#5CA745" d="M150,33.256c-0.003-6.077-4.963-11.038-11.04-11.038H11.038C4.928,22.218,0,27.181,0,33.261v52.11v28.424
	v0.005c0,6.08,4.959,11.038,11.038,11.038h0.002h76.135h51.787c6.11,0,11.038-4.963,11.038-11.043v-52.11V33.261V33.256L150,33.256z
	 M7.854,33.261c0-1.742,1.445-3.157,3.185-3.157H138.96c1.741,0,3.153,1.414,3.153,3.156v12.651H7.854V33.261z M142.146,113.795
	c0,1.742-1.445,3.157-3.185,3.157H87.146c-0.001,0-0.003,0-0.005,0H11.038c-0.218,0-0.429-0.022-0.634-0.064
	c-1.438-0.295-2.518-1.568-2.518-3.091v-12.651V53.798h134.227v39.46l0.033,7.887V113.795z"/>
</svg>
