<?xml version="1.0" encoding="utf-8"?>
<!-- Generator: Adobe Illustrator 16.0.0, SVG Export Plug-In . SVG Version: 6.00 Build 0)  -->
<!DOCTYPE svg PUBLIC "-//W3C//DTD SVG 1.1//EN" "http://www.w3.org/Graphics/SVG/1.1/DTD/svg11.dtd">
<svg version="1.1" id="Layer_1" xmlns="http://www.w3.org/2000/svg" xmlns:xlink="http://www.w3.org/1999/xlink" x="0px" y="0px"
	 width="150px" height="150px" viewBox="0 0 150 150" enable-background="new 0 0 150 150" xml:space="preserve">
<g>
	<path fill="#5CA745" d="M100.142,25.919c-0.883,0-1.747,0.129-2.581,0.386c-1.529-2.912-4.511-4.746-7.839-4.746
		c-1.044,0-2.057,0.178-3.019,0.531c-1.638-2.492-4.396-4.006-7.399-4.006c-0.521,0-1.038,0.046-1.547,0.137v-7.437
		c0-4.923-3.981-8.928-8.875-8.928c-4.893,0-8.873,4.005-8.873,8.928V39.53l-3.925-4.489c-0.051-0.057-0.104-0.114-0.16-0.172
		c-1.676-1.678-3.907-2.608-6.327-2.62c-2.372,0-4.596,0.917-6.26,2.584c-2.945,2.948-3.148,7.252-0.557,11.808
		c3.051,5.361,6.36,10.406,9.327,14.928c2.122,3.235,4.127,6.292,5.585,8.803c1.142,1.969,4.068,8.097,4.669,9.359
		c0.604,1.271,1.903,2.092,3.31,2.092h33.674c1.595,0,2.996-1.021,3.487-2.541c1.033-3.216,6.185-19.599,6.185-26.261V34.847
		C109.015,29.924,105.033,25.919,100.142,25.919z M67.335,49.285v-38.5c0-0.883,0.694-1.602,1.549-1.602
		c0.853,0,1.547,0.719,1.547,1.602v24.863c0,2.02,1.643,3.663,3.662,3.663c2.021,0,3.664-1.643,3.664-3.663v-8.635
		c0-0.883,0.694-1.601,1.547-1.601s1.547,0.718,1.547,1.601v12.108c0,2.02,1.643,3.664,3.662,3.664c2.021,0,3.664-1.644,3.664-3.664
		v-8.633c0-0.884,0.693-1.603,1.545-1.603c0.854,0,1.549,0.719,1.549,1.603v12.11c0,2.02,1.644,3.663,3.664,3.663
		c2.02,0,3.662-1.643,3.662-3.663v-7.75c0-0.884,0.693-1.603,1.545-1.603c0.854,0,1.549,0.719,1.549,1.603v18.173
		c0,3.731-2.666,13.733-5.039,21.476H67.979c-1.364-2.825-3.062-6.27-3.95-7.8c-1.554-2.68-3.605-5.809-5.809-9.167
		c-2.865-4.365-6.112-9.313-9.071-14.51c-0.825-1.454-1.061-2.578-0.63-3.008c0.279-0.279,0.657-0.43,1.094-0.437
		c0.412,0.004,0.8,0.16,1.03,0.372l10.271,11.748c0.985,1.128,2.64,1.548,4.046,1.02C66.381,52.181,67.335,50.803,67.335,49.285z"/>
	<path fill="#5CA745" d="M45.03,98.764h82.65c9.372,0,17.017-7.646,17.017-17.018V46.603c0-0.062,0-0.124-0.031-0.185
		c0-0.062-0.03-0.154-0.03-0.216c0-0.062-0.03-0.123-0.03-0.185c-0.031-0.062-0.031-0.123-0.062-0.216
		c-0.03-0.062-0.03-0.123-0.061-0.185c-0.031-0.062-0.031-0.124-0.062-0.185c-0.031-0.062-0.062-0.124-0.092-0.216
		c-0.031-0.062-0.062-0.124-0.093-0.154c-0.031-0.062-0.062-0.123-0.093-0.185c-0.031-0.062-0.062-0.092-0.092-0.154
		c-0.031-0.062-0.094-0.124-0.124-0.185s-0.062-0.093-0.123-0.154c-0.03-0.062-0.093-0.092-0.124-0.154
		c-0.03-0.062-0.092-0.092-0.123-0.154s-0.092-0.093-0.123-0.124c-0.062-0.062-0.092-0.092-0.154-0.154
		c-0.062-0.031-0.092-0.093-0.154-0.124c-0.062-0.031-0.123-0.092-0.185-0.123c-0.062-0.031-0.093-0.062-0.154-0.093
		s-0.123-0.062-0.185-0.123c-0.062-0.031-0.123-0.062-0.186-0.093l-0.185-0.092c-0.062-0.031-0.124-0.062-0.185-0.093
		c-0.062-0.031-0.124-0.031-0.186-0.062s-0.154-0.062-0.216-0.062s-0.123-0.031-0.154-0.031c-0.093-0.031-0.153-0.031-0.247-0.031
		c-0.03,0-0.061-0.031-0.123-0.031l-9.321-1.287c0.003-0.004,0.005-0.008,0.008-0.012l-11.841-1.672
		c-2.284-0.322-4.389,1.253-4.708,3.539c-0.321,2.284,1.253,4.387,3.536,4.71l1.062,0.151c0,0.001,0,0.002,0,0.003l0.698,0.096
		l6.562,0.934c0.006-0.009,0.012-0.019,0.018-0.028l9.239,1.273v31.167c0,4.84-3.915,8.724-8.693,8.724H45.03
		c-4.81,0-8.693-3.914-8.693-8.693V36.769l0.03-8.385V13.771c0-0.154,0-0.308-0.03-0.432c0-0.031,0-0.062-0.03-0.123
		c0-0.093-0.031-0.185-0.031-0.277c-0.031-0.093-0.031-0.154-0.062-0.247c0-0.062-0.03-0.092-0.03-0.154
		c-0.03-0.093-0.062-0.185-0.093-0.278c0-0.031-0.03-0.092-0.03-0.123c-0.031-0.092-0.062-0.154-0.124-0.247
		c-0.03-0.031-0.03-0.093-0.061-0.124c-0.031-0.062-0.062-0.123-0.124-0.185c-0.03-0.062-0.062-0.093-0.093-0.154
		c-0.03-0.062-0.062-0.093-0.092-0.154c-0.031-0.062-0.093-0.123-0.123-0.185l-0.094-0.092c-0.061-0.062-0.123-0.124-0.184-0.185
		l-0.094-0.092c-0.061-0.062-0.123-0.124-0.215-0.185c-0.031-0.031-0.093-0.062-0.123-0.092c-0.062-0.062-0.124-0.093-0.186-0.154
		c-0.093-0.062-0.186-0.124-0.246-0.154c-0.031-0.031-0.062-0.031-0.094-0.062c-0.123-0.062-0.277-0.124-0.4-0.185L11.088,0.33
		c-2.127-0.894-4.562,0.092-5.456,2.22c-0.894,2.127,0.093,4.562,2.22,5.457l20.162,8.508v91.189
		c0,8.633,6.474,15.785,14.828,16.863c-1.511,2.528-2.404,5.488-2.404,8.633c0,9.279,7.553,16.801,16.801,16.801
		s16.801-7.553,16.801-16.801c0-3.084-0.832-6.012-2.312-8.479h37.425c-1.479,2.497-2.312,5.395-2.312,8.479
		c0,9.279,7.553,16.801,16.802,16.801c9.248,0,16.801-7.553,16.801-16.801c0-9.249-7.553-16.802-16.801-16.802H45.03
		c-4.81,0-8.693-3.915-8.693-8.694V96.421C38.865,97.9,41.855,98.764,45.03,98.764z M123.673,124.689
		c4.655,0,8.478,3.793,8.478,8.479s-3.822,8.478-8.478,8.478s-8.478-3.823-8.478-8.478
		C115.195,128.513,119.018,124.689,123.673,124.689z M57.27,124.689c4.654,0,8.477,3.793,8.477,8.479s-3.822,8.478-8.477,8.478
		c-4.655,0-8.479-3.823-8.479-8.478C48.791,128.513,52.614,124.689,57.27,124.689z"/>
</g>
</svg>
