<?xml version="1.0" encoding="utf-8"?>
<!-- Generator: Adobe Illustrator 16.0.0, SVG Export Plug-In . SVG Version: 6.00 Build 0)  -->
<!DOCTYPE svg PUBLIC "-//W3C//DTD SVG 1.1//EN" "http://www.w3.org/Graphics/SVG/1.1/DTD/svg11.dtd">
<svg version="1.1" id="Layer_1" xmlns="http://www.w3.org/2000/svg" xmlns:xlink="http://www.w3.org/1999/xlink" x="0px" y="0px"
	 width="150px" height="150px" viewBox="0 0 150 150" enable-background="new 0 0 150 150" xml:space="preserve">
<g>
	<g>
		<path fill="#5CA745" d="M118.373,4.705H32.188c-8.632,0-15.64,7.007-15.64,15.639v71.341L6.661,81.8
			c-1.468-1.468-3.824-1.468-5.294,0c-1.468,1.468-1.468,3.826,0,5.294l16.312,16.313c0.735,0.735,1.685,1.103,2.663,1.103
			s1.928-0.368,2.663-1.103l16.313-16.313c1.468-1.468,1.468-3.826,0-5.294c-1.471-1.468-3.826-1.468-5.297,0l-9.916,9.917V20.344
			c0-4.5,3.644-8.142,8.142-8.142h86.157c4.498,0,8.14,3.642,8.14,8.142V30.75c0,2.081,1.685,3.763,3.766,3.763
			s3.763-1.682,3.763-3.763V20.344C133.983,11.744,126.973,4.705,118.373,4.705z"/>
		<path fill="#5CA745" d="M127.587,47.338l-16.313,16.313c-1.471,1.468-1.471,3.824,0,5.294c0.735,0.735,1.682,1.1,2.663,1.1
			c0.979,0,1.928-0.365,2.662-1.1l9.917-9.917v71.343c0,4.498-3.644,8.14-8.143,8.14H32.188c-4.498,0-8.143-3.642-8.143-8.14
			v-10.408c0-2.079-1.682-3.763-3.763-3.763s-3.766,1.685-3.766,3.763v10.408c0,8.631,7.01,15.639,15.642,15.639h86.154
			c8.632,0,15.639-7.007,15.639-15.639V59.029l9.917,9.917c1.47,1.47,3.826,1.47,5.294,0c1.471-1.47,1.471-3.826,0-5.294
			l-16.311-16.313C131.503,45.929,128.993,45.929,127.587,47.338z"/>
		<path fill="#5CA745" d="M75.28,42.195c-2.081,0-3.763,1.684-3.763,3.766v5.754h-0.492c-7.161,0-13.008,6.151-13.008,13.682
			c0,7.526,5.847,13.68,13.008,13.68h8.449c3.03,0,5.508,2.784,5.508,6.183c0,3.427-2.478,6.182-5.508,6.182H64.293
			c-2.081,0-3.763,1.685-3.763,3.763c0,2.083,1.682,3.766,3.763,3.766h7.225v5.844c0,2.083,1.682,3.766,3.763,3.766
			s3.766-1.682,3.766-3.766v-5.876h0.55c0.032,0,0.062,0,0.093,0c7.101-0.092,12.823-6.211,12.823-13.679
			c0-7.561-5.845-13.68-13.008-13.68h-8.446c-3.031,0-5.509-2.787-5.509-6.183c0-3.398,2.478-6.183,5.509-6.183h14.903
			c2.081,0,3.766-1.685,3.766-3.766s-1.685-3.766-3.766-3.766h-6.915v-5.754C79.015,43.879,77.361,42.195,75.28,42.195z"/>
	</g>
</g>
</svg>
