<?xml version="1.0" encoding="utf-8"?>
<!-- Generator: Adobe Illustrator 16.0.0, SVG Export Plug-In . SVG Version: 6.00 Build 0)  -->
<!DOCTYPE svg PUBLIC "-//W3C//DTD SVG 1.1//EN" "http://www.w3.org/Graphics/SVG/1.1/DTD/svg11.dtd">
<svg version="1.1" id="Layer_1" xmlns="http://www.w3.org/2000/svg" xmlns:xlink="http://www.w3.org/1999/xlink" x="0px" y="0px"
	 width="150px" height="150px" viewBox="0 0 150 150" enable-background="new 0 0 150 150" xml:space="preserve">
<g>
	<g>
		<path fill="#5CA745" d="M106.099,80.783H85.717c-5.577,0-10.115,4.533-10.115,10.113v15.631c0,5.58,4.538,10.113,10.115,10.113
			h20.382c5.577,0,10.115-4.534,10.115-10.113V90.896C116.214,85.316,111.676,80.783,106.099,80.783z M108.857,106.527
			c0,1.532-1.258,2.761-2.759,2.761H85.717c-1.532,0-2.759-1.259-2.759-2.761V90.896c0-1.532,1.255-2.757,2.759-2.757h20.382
			c1.531,0,2.759,1.255,2.759,2.757V106.527z"/>
		<path fill="#5CA745" d="M149.529,52.371c0-0.645-0.152-1.257-0.49-1.809l-22.314-39.231c-0.643-1.134-1.867-1.871-3.187-1.871
			H25.49c-1.319,0-2.544,0.705-3.188,1.871L0.02,50.562c-0.308,0.552-0.49,1.165-0.49,1.809c0,8.796,5.301,16.335,12.872,19.676
			v64.702c0,2.022,1.656,3.678,3.679,3.678H36.4c0.03,0,0.061,0,0.093,0h28.505c0.03,0,0.062,0,0.091,0h67.857
			c2.024,0,3.681-1.656,3.681-3.678V72.507c0-0.152,0-0.277-0.032-0.397C144.196,68.769,149.529,61.197,149.529,52.371z
			 M27.635,16.846h93.757l17.442,30.679H10.227L27.635,16.846z M106.281,54.852C105.116,61.474,99.324,66.5,92.369,66.5
			c-6.96,0-12.752-5.025-13.917-11.647H106.281z M70.639,54.852C69.474,61.474,63.679,66.5,56.722,66.5
			c-6.959,0-12.751-5.025-13.944-11.647H70.639z M7.131,54.852h27.86C33.827,61.474,28.002,66.5,21.045,66.5
			C14.088,66.53,8.296,61.474,7.131,54.852z M61.317,133.071H40.169V93.378c0-2.879,2.332-5.238,5.243-5.238h10.697
			c2.882,0,5.24,2.327,5.24,5.238v39.693H61.317z M129.271,133.071H68.675V93.378c0-6.927-5.639-12.595-12.598-12.595H45.382
			c-6.927,0-12.597,5.638-12.597,12.595v39.723H19.758V73.856c0.428,0.03,0.857,0.03,1.287,0.03c7.417,0,13.979-3.769,17.838-9.503
			c3.862,5.734,10.42,9.503,17.839,9.503c7.417,0,13.944-3.769,17.838-9.503c3.863,5.734,10.42,9.503,17.81,9.503
			c7.414,0,13.944-3.769,17.807-9.503c3.859,5.734,10.421,9.503,17.838,9.503c0.43,0,0.827-0.03,1.257-0.03V133.071L129.271,133.071
			z M128.014,66.53c-6.957,0-12.75-5.028-13.916-11.647h27.862C140.763,61.474,134.971,66.53,128.014,66.53z"/>
	</g>
</g>
</svg>
