<?xml version="1.0" encoding="utf-8"?>
<!-- Generator: Adobe Illustrator 16.0.0, SVG Export Plug-In . SVG Version: 6.00 Build 0)  -->
<!DOCTYPE svg PUBLIC "-//W3C//DTD SVG 1.1//EN" "http://www.w3.org/Graphics/SVG/1.1/DTD/svg11.dtd">
<svg version="1.1" id="Layer_1" xmlns="http://www.w3.org/2000/svg" xmlns:xlink="http://www.w3.org/1999/xlink" x="0px" y="0px"
	 width="150px" height="150px" viewBox="0 0 150 150" enable-background="new 0 0 150 150" xml:space="preserve">
<g>
	<g>
		<path fill="#5CA745" d="M129.687,78.794H71.235V20.343c0-2.36-1.889-4.249-4.252-4.249c-36.908,0-66.954,30.043-66.954,66.954
			C0.029,119.957,30.075,150,66.983,150c36.909,0,66.955-30.043,66.955-66.952C133.938,80.717,132.018,78.794,129.687,78.794z
			 M66.983,141.497c-32.217,0-58.448-26.235-58.448-58.449c0-30.802,23.932-56.122,54.199-58.295v58.295
			c0,2.361,1.889,4.252,4.249,4.252h58.293C123.105,117.562,97.784,141.497,66.983,141.497z"/>
		<path fill="#5CA745" d="M150,66.733c-0.065-16.252-6.016-31.903-16.756-44.09C120.521,8.25,102.255,0,83.046,0
			c-2.363,0-4.252,1.891-4.252,4.251v62.701c0,2.365,1.889,4.254,4.252,4.254h62.702l0,0c2.361,0,4.252-1.889,4.252-4.254
			C150,66.891,150,66.825,150,66.733z M87.295,62.734V8.693c15.184,1.1,29.418,8.124,39.557,19.62
			c8.503,9.603,13.543,21.696,14.487,34.421H87.295L87.295,62.734z"/>
	</g>
</g>
</svg>
