<?xml version="1.0" encoding="utf-8"?>
<!-- Generator: Adobe Illustrator 16.0.0, SVG Export Plug-In . SVG Version: 6.00 Build 0)  -->
<!DOCTYPE svg PUBLIC "-//W3C//DTD SVG 1.1//EN" "http://www.w3.org/Graphics/SVG/1.1/DTD/svg11.dtd">
<svg version="1.1" id="Layer_1" xmlns="http://www.w3.org/2000/svg" xmlns:xlink="http://www.w3.org/1999/xlink" x="0px" y="0px"
	 width="150px" height="150px" viewBox="0 0 150 150" enable-background="new 0 0 150 150" xml:space="preserve">
<g>
	<path fill="#5CA745" d="M69.748,89.967V0h-4.283v0H5.7L5.628,7.681v138.381c0,1.408,0.77,2.722,2.018,3.392
		c1.25,0.674,2.754,0.608,3.938-0.19l16.674-11.106l16.738,11.138c1.277,0.866,2.977,0.866,4.255,0l16.673-11.105h0.004l3.821-2.803
		V92.521h0.247C69.898,91.67,69.825,90.818,69.748,89.967z M62.163,98.318c-0.334-0.095-0.678-0.162-1.041-0.162H30.976
		c-2.112,0-3.842,1.727-3.842,3.839s1.697,3.839,3.842,3.839h30.146c0.363,0,0.707-0.067,1.041-0.162v25.743l-15.025,10.008
		l-16.74-11.104c-1.277-0.865-2.975-0.865-4.254,0l-12.834,8.545V7.648h48.854V22.82H30.976c-2.112,0-3.842,1.727-3.842,3.839
		c0,2.113,1.697,3.842,3.842,3.842h31.188v5.793c-0.334-0.095-0.678-0.163-1.041-0.163H30.976c-2.112,0-3.842,1.729-3.842,3.839
		c0,2.112,1.697,3.842,3.842,3.842h30.146c0.363,0,0.707-0.067,1.041-0.163v9.99H30.976c-2.112,0-3.842,1.727-3.842,3.839
		s1.697,3.841,3.842,3.841h31.188v5.826c-0.334-0.095-0.678-0.162-1.041-0.162H30.976c-2.112,0-3.842,1.727-3.842,3.839
		c0,2.112,1.697,3.842,3.842,3.842h30.146c0.363,0,0.707-0.067,1.041-0.163V84.84H30.976c-2.112,0-3.842,1.729-3.842,3.84
		c0,2.112,1.697,3.842,3.842,3.842h31.188V98.318z"/>
	<path fill="#5CA745" d="M144.372,0H84.53v0h-4.277v135.515l3.908,2.772l16.59,11.04c1.279,0.862,2.977,0.862,4.258,0l16.674-11.104
		l16.734,11.137c0.643,0.416,1.378,0.642,2.111,0.642c0.609,0,1.25-0.16,1.826-0.448c1.248-0.674,2.018-1.984,2.018-3.394
		l-0.066-138.38L144.372,0z M123.823,130.318c-1.278-0.865-2.977-0.865-4.254,0l-16.674,11.136l-15.058-10.018V92.521h1.454
		c2.113,0,3.843-1.729,3.843-3.842c0-2.109-1.729-3.84-3.843-3.84h-1.454V61.32h1.454c2.113,0,3.843-1.729,3.843-3.841
		c0-2.113-1.729-3.839-3.843-3.839h-1.454V30.501h1.454c2.113,0,3.843-1.729,3.843-3.842c0-2.112-1.729-3.839-3.843-3.839h-1.454
		V7.648h48.853l0.031,131.249L123.823,130.318z"/>
	<path fill="#5CA745" d="M119.44,53.64H109.39c-2.109,0-3.839,1.727-3.839,3.839s1.696,3.841,3.839,3.841h10.051
		c2.113,0,3.841-1.729,3.841-3.841C123.281,55.366,121.554,53.64,119.44,53.64z"/>
	<path fill="#5CA745" d="M119.44,66.984H109.39c-2.109,0-3.839,1.727-3.839,3.839c0,2.112,1.696,3.842,3.839,3.842h10.051
		c2.113,0,3.841-1.729,3.841-3.842C123.281,68.71,121.554,66.984,119.44,66.984z"/>
	<path fill="#5CA745" d="M119.44,22.82H109.39c-2.109,0-3.839,1.727-3.839,3.839c0,2.113,1.696,3.842,3.839,3.842h10.051
		c2.113,0,3.841-1.729,3.841-3.842C123.281,24.547,121.554,22.82,119.44,22.82z"/>
	<path fill="#5CA745" d="M119.44,36.132H109.39c-2.109,0-3.839,1.729-3.839,3.839c0,2.112,1.696,3.842,3.839,3.842h10.051
		c2.113,0,3.841-1.73,3.841-3.842C123.281,37.861,121.554,36.132,119.44,36.132z"/>
	<path fill="#5CA745" d="M119.44,84.84H109.39c-2.109,0-3.839,1.729-3.839,3.84c0,2.112,1.696,3.842,3.839,3.842h10.051
		c2.113,0,3.841-1.729,3.841-3.842C123.281,86.57,121.554,84.84,119.44,84.84z"/>
	<path fill="#5CA745" d="M119.44,98.156H109.39c-2.109,0-3.839,1.727-3.839,3.839s1.696,3.839,3.839,3.839h10.051
		c2.113,0,3.841-1.727,3.841-3.839S121.554,98.156,119.44,98.156z"/>
</g>
</svg>
