<?xml version="1.0" encoding="utf-8"?>
<!-- Generator: Adobe Illustrator 16.0.0, SVG Export Plug-In . SVG Version: 6.00 Build 0)  -->
<!DOCTYPE svg PUBLIC "-//W3C//DTD SVG 1.1//EN" "http://www.w3.org/Graphics/SVG/1.1/DTD/svg11.dtd">
<svg version="1.1" id="Layer_1" xmlns="http://www.w3.org/2000/svg" xmlns:xlink="http://www.w3.org/1999/xlink" x="0px" y="0px"
	 width="150px" height="150px" viewBox="0 0 150 150" enable-background="new 0 0 150 150" xml:space="preserve">
<g>
	<g>
		<path fill="#5CA745" d="M69.456,80.823c0.156,0,0.31,0,0.495,0c0.064,0,0.126,0,0.188,0c0.094,0,0.219,0,0.311,0
			c9.102-0.156,16.466-3.354,21.899-9.475c11.96-13.481,9.972-36.591,9.752-38.796C101.327,15.996,93.5,8.075,87.04,4.38
			c-4.815-2.766-10.438-4.256-16.713-4.381H70.11c-0.031,0-0.094,0-0.125,0H69.8c-3.45,0-10.221,0.559-16.714,4.256
			c-6.521,3.696-14.474,11.617-15.25,28.299c-0.221,2.205-2.206,25.313,9.753,38.796C52.993,77.47,60.355,80.667,69.456,80.823z
			 M46.129,33.328c0-0.092,0.03-0.187,0.03-0.248C47.186,10.808,62.995,8.416,69.766,8.416h0.126c0.062,0,0.156,0,0.248,0
			c8.389,0.188,22.644,3.604,23.61,24.664c0,0.093,0,0.188,0.028,0.248c0.031,0.219,2.204,21.342-7.672,32.461
			c-3.914,4.409-9.132,6.585-15.998,6.646c-0.062,0-0.093,0-0.157,0l0,0c-0.061,0-0.091,0-0.151,0
			c-6.836-0.062-12.084-2.237-15.969-6.646C43.986,54.73,46.098,33.516,46.129,33.328z"/>
		<path fill="#5CA745" d="M85.161,140.782c-4.702,0.54-9.755,0.862-15.146,0.862c-29.883,0-49.732-9.907-54.795-12.767
			c-0.497-2.483-0.715-6.803-0.649-9.598c0-0.25,0.029-0.498,0.029-0.776c0.218-7.083,1.024-14.818,8.262-17.396
			c15.472-3.976,27.834-12.61,28.36-12.954c1.896-1.334,2.361-3.943,1.024-5.839c-1.334-1.896-3.946-2.36-5.84-1.024
			c-0.124,0.093-11.711,8.17-25.78,11.742c-0.125,0.032-0.218,0.063-0.312,0.094c-13.479,4.629-13.883,19.01-14.069,25.13
			c0,0.278,0,0.526-0.032,0.776v0.092c-0.031,1.615-0.062,9.91,1.587,14.072c0.311,0.807,0.868,1.49,1.613,1.957
			c0.932,0.621,23.266,14.848,60.635,14.848c6.503,0,12.54-0.438,18.099-1.155C89.166,145.441,88.563,141.814,85.161,140.782z"/>
	</g>
</g>
<path fill="#5CA745" d="M112.016,80.262c-17.861,0-32.369,14.508-32.369,32.369c0,17.86,14.508,32.369,32.369,32.369
	s32.368-14.509,32.368-32.369C144.384,94.77,129.877,80.262,112.016,80.262z M112.016,136.539
	c-13.192,0-23.908-10.717-23.908-23.908c0-13.192,10.716-23.909,23.908-23.909c13.191,0,23.908,10.717,23.908,23.909
	C135.924,125.822,125.207,136.539,112.016,136.539z"/>
<g>
	<path fill="#5CA745" d="M102.587,108.323c-1.892,0-3.43,1.539-3.43,3.43s1.538,3.43,3.43,3.43s3.43-1.539,3.43-3.43
		S104.479,108.323,102.587,108.323z"/>
	<path fill="#5CA745" d="M111.628,108.323c-1.892,0-3.43,1.539-3.43,3.43s1.538,3.43,3.43,3.43s3.43-1.539,3.43-3.43
		S113.52,108.323,111.628,108.323z"/>
	<path fill="#5CA745" d="M111.628,117.042c-1.892,0-3.43,1.539-3.43,3.43s1.538,3.43,3.43,3.43s3.43-1.539,3.43-3.43
		S113.52,117.042,111.628,117.042z"/>
	<path fill="#5CA745" d="M111.628,99.893c-1.892,0-3.43,1.539-3.43,3.43s1.538,3.43,3.43,3.43s3.43-1.539,3.43-3.43
		S113.52,99.893,111.628,99.893z"/>
	<path fill="#5CA745" d="M120.425,108.323c-1.892,0-3.43,1.539-3.43,3.43s1.538,3.43,3.43,3.43s3.43-1.539,3.43-3.43
		S122.316,108.323,120.425,108.323z"/>
</g>
</svg>
