<?xml version="1.0" encoding="utf-8"?>
<!-- Generator: Adobe Illustrator 16.0.0, SVG Export Plug-In . SVG Version: 6.00 Build 0)  -->
<!DOCTYPE svg PUBLIC "-//W3C//DTD SVG 1.1//EN" "http://www.w3.org/Graphics/SVG/1.1/DTD/svg11.dtd">
<svg version="1.1" id="Layer_1" xmlns="http://www.w3.org/2000/svg" xmlns:xlink="http://www.w3.org/1999/xlink" x="0px" y="0px"
	 width="150px" height="150px" viewBox="0 0 150 150" enable-background="new 0 0 150 150" xml:space="preserve">
<g>
	<g>
		<path fill="#5CA745" d="M116.102,44.83c19.336,0,33.898-7.516,33.898-17.495S135.438,9.84,116.102,9.84
			c-19.334,0-33.898,7.516-33.898,17.495S96.768,44.83,116.102,44.83z M116.102,17.356c16.123,0,26.414,5.924,26.414,10.01
			c0,4.085-10.291,10.01-26.414,10.01c-16.121,0-26.41-5.925-26.41-10.01C89.691,23.28,99.98,17.356,116.102,17.356z"/>
		<path fill="#5CA745" d="M147.162,45.173c-1.934-0.718-4.086,0.279-4.801,2.215c-1.592,4.333-12.068,9.011-26.227,9.011
			c-13.785,0-24.107-4.428-26.104-8.701c-0.871-1.871-3.121-2.682-4.99-1.809c-1.871,0.874-2.682,3.118-1.809,4.989
			c3.648,7.798,16.873,13.004,32.902,13.004c7.637,0,15.061-1.248,20.955-3.555c6.484-2.524,10.76-6.11,12.318-10.384
			C150.096,48.041,149.098,45.889,147.162,45.173z"/>
		<path fill="#5CA745" d="M114.053,74.616c-19.824,0-35.947,16.123-35.947,35.947s16.123,35.947,35.947,35.947
			S150,130.388,150,110.563S133.877,74.616,114.053,74.616z M117.986,82.235c12.664,1.747,22.689,11.793,24.403,24.468h-24.403
			V82.235z M114.053,139.168c-15.787,0-28.605-12.819-28.605-28.605c0-14.52,10.848-26.521,24.872-28.354v28.529
			c0,2.146,1.745,3.891,3.891,3.891h28.154C140.387,128.493,128.458,139.168,114.053,139.168z"/>
		<path fill="#5CA745" d="M64.93,83.31c-1.936-0.715-4.088,0.282-4.805,2.216c-1.592,4.336-12.068,9.012-26.225,9.012
			c-13.785,0-24.107-4.426-26.104-8.699c-0.871-1.871-3.119-2.682-4.988-1.809c-1.873,0.873-2.684,3.119-1.812,4.99
			c3.652,7.795,16.873,13.004,32.902,13.004c7.641,0,15.061-1.25,20.955-3.557c6.488-2.525,10.758-6.111,12.318-10.384
			C67.859,86.181,66.861,84.027,64.93,83.31z"/>
		<path fill="#5CA745" d="M64.93,102.396c-1.936-0.718-4.088,0.282-4.805,2.215c-1.592,4.334-12.068,9.013-26.225,9.013
			c-13.785,0-24.107-4.429-26.104-8.7c-0.871-1.873-3.119-2.682-4.988-1.811c-1.873,0.873-2.684,3.117-1.812,4.992
			c3.652,7.795,16.873,13.004,32.902,13.004c7.641,0,15.061-1.25,20.955-3.556c6.488-2.526,10.758-6.114,12.318-10.384
			C67.859,105.234,66.861,103.082,64.93,102.396z"/>
		<path fill="#5CA745" d="M64.93,121.449c-1.936-0.715-4.088,0.281-4.805,2.215c-1.592,4.335-12.068,9.013-26.225,9.013
			c-13.785,0-24.107-4.429-26.104-8.7c-0.871-1.871-3.119-2.682-4.988-1.809c-1.873,0.874-2.684,3.117-1.812,4.988
			c3.652,7.795,16.873,13.004,32.902,13.004c7.641,0,15.061-1.247,20.955-3.555c6.488-2.527,10.758-6.113,12.318-10.385
			C67.859,124.32,66.861,122.169,64.93,121.449z"/>
		<path fill="#5CA745" d="M33.9,47.979C14.564,47.979,0,55.495,0,65.474c0,9.979,14.564,17.495,33.9,17.495
			c19.334,0,33.896-7.516,33.896-17.495C67.797,55.495,53.234,47.979,33.9,47.979z M33.9,75.484
			c-16.123,0-26.414-5.925-26.414-10.011c0-4.084,10.291-10.009,26.414-10.009c16.119,0,26.41,5.924,26.41,10.009
			C60.311,69.56,50.02,75.484,33.9,75.484z"/>
	</g>
</g>
</svg>
