<?xml version="1.0" encoding="utf-8"?>
<!-- Generator: Adobe Illustrator 16.0.0, SVG Export Plug-In . SVG Version: 6.00 Build 0)  -->
<!DOCTYPE svg PUBLIC "-//W3C//DTD SVG 1.1//EN" "http://www.w3.org/Graphics/SVG/1.1/DTD/svg11.dtd">
<svg version="1.1" id="Layer_1" xmlns="http://www.w3.org/2000/svg" xmlns:xlink="http://www.w3.org/1999/xlink" x="0px" y="0px"
	 width="150px" height="150px" viewBox="0 0 150 150" enable-background="new 0 0 150 150" xml:space="preserve">
<g>
	<path fill="#5CA745" d="M106.917,76.728c-17.861,0-32.369,14.508-32.369,32.369c0,17.86,14.508,32.369,32.369,32.369
		s32.368-14.509,32.368-32.369C139.285,91.236,124.778,76.728,106.917,76.728z M106.917,133.005
		c-13.192,0-23.908-10.717-23.908-23.908c0-13.192,10.716-23.909,23.908-23.909c13.191,0,23.908,10.717,23.908,23.909
		C130.825,122.289,120.108,133.005,106.917,133.005z"/>
	<path fill="#5CA745" d="M116.349,99.629c-1.469-1.471-3.827-1.471-5.297,0l-4.165,4.165l-4.166-4.165
		c-1.469-1.47-3.827-1.47-5.298,0c-1.471,1.471-1.471,3.83,0,5.298l4.164,4.167l-4.164,4.134c-1.471,1.468-1.471,3.827,0.001,5.297
		c0.733,0.735,1.684,1.104,2.664,1.104s1.929-0.369,2.664-1.104l4.164-4.164l4.165,4.164c0.736,0.735,1.686,1.104,2.664,1.103
		c0.98,0.001,1.93-0.367,2.666-1.103c1.469-1.469,1.469-3.828-0.002-5.297l-4.164-4.166l4.165-4.165
		C117.82,103.458,117.819,101.099,116.349,99.629z"/>
	<path fill="#5CA745" d="M124.919,64.079l-0.039-0.436c-0.001-0.018,0.003-0.036,0.001-0.054l-0.511-5.772c-0.002,0-0.005,0-0.008,0
		l-2.208-24.871c-0.183-2.146-1.992-3.772-4.109-3.772h-17.668C100.129,13.037,86.94,0,70.744,0
		C54.547,0,41.356,13.037,41.113,29.173H23.442c-2.146,0-3.925,1.626-4.108,3.772l-8.59,96.716c0,0.123-0.029,0.246-0.029,0.369
		c0,11.013,10.089,19.97,22.514,19.97h42.674h4.815h2.021c2.303,0,4.144-1.841,4.144-4.142s-1.84-4.143-4.144-4.143h-5.796
		c0,0,0,0,0,0l-43.714,0c-7.791,0-14.109-5.152-14.232-11.501l8.221-92.73h13.865V50.06c0,2.303,1.84,4.144,4.142,4.144
		c2.301,0,4.142-1.84,4.142-4.144V37.485h42.729V50.06c0,2.303,1.841,4.144,4.142,4.144s4.143-1.84,4.143-4.144V37.485h13.863
		l2.01,22.575l0.377,4.261c0.203,2.293,2.198,3.965,4.491,3.762c2.125-0.188,3.697-1.922,3.756-4.004
		C124.89,64.079,124.904,64.079,124.919,64.079z M49.394,29.173c0.246-11.566,9.726-20.89,21.351-20.89
		c11.627,0,21.104,9.324,21.35,20.89H49.394z"/>
</g>
</svg>
