<?xml version="1.0" encoding="utf-8"?>
<!-- Generator: Adobe Illustrator 16.0.0, SVG Export Plug-In . SVG Version: 6.00 Build 0)  -->
<!DOCTYPE svg PUBLIC "-//W3C//DTD SVG 1.1//EN" "http://www.w3.org/Graphics/SVG/1.1/DTD/svg11.dtd">
<svg version="1.1" id="Layer_1" xmlns="http://www.w3.org/2000/svg" xmlns:xlink="http://www.w3.org/1999/xlink" x="0px" y="0px"
	 width="150px" height="150px" viewBox="0 0 150 150" enable-background="new 0 0 150 150" xml:space="preserve">
<g>
	<g>
		<path fill="#5CA745" d="M149.959,144.822V98.203V5.24c0-2.865-2.344-5.209-5.209-5.209h-19.812c-2.096,0-3.79,1.695-3.79,3.791
			c0,2.096,1.694,3.759,3.79,3.759h17.472v90.622v44.278h-91.36H7.509V98.203V7.581h17.624c2.096,0,3.791-1.695,3.791-3.759
			s-1.695-3.791-3.791-3.791H5.165c-2.865,0-5.206,2.344-5.206,5.209v92.963v46.588c0,2.868,2.341,5.209,5.206,5.209h45.853h93.701
			C147.615,150.031,149.959,147.688,149.959,144.822z"/>
		<path fill="#5CA745" d="M50.245,121.066c1.788,0,3.482-0.679,4.839-1.881L74.68,101.5l19.599,17.686
			c1.325,1.202,3.051,1.881,4.837,1.881c4.007,0,7.273-3.266,7.273-7.273V3.791c0-2.096-1.695-3.791-3.791-3.791H46.733
			c-2.096,0-3.79,1.695-3.79,3.791v110.002C42.974,117.832,46.209,121.066,50.245,121.066z M50.524,7.581h48.345v105.566
			l-19.318-17.41c-2.683-2.403-7.057-2.403-9.708,0l-19.318,17.41V7.581L50.524,7.581z"/>
	</g>
</g>
</svg>
