<?xml version="1.0" encoding="utf-8"?>
<!-- Generator: Adobe Illustrator 16.0.0, SVG Export Plug-In . SVG Version: 6.00 Build 0)  -->
<!DOCTYPE svg PUBLIC "-//W3C//DTD SVG 1.1//EN" "http://www.w3.org/Graphics/SVG/1.1/DTD/svg11.dtd">
<svg version="1.1" id="Layer_1" xmlns="http://www.w3.org/2000/svg" xmlns:xlink="http://www.w3.org/1999/xlink" x="0px" y="0px"
	 width="150px" height="150px" viewBox="0 0 150 150" enable-background="new 0 0 150 150" xml:space="preserve">
<g>
	<g>
		<path fill="#5CA745" d="M0,75c0,41.346,33.655,75,75,75c41.346,0,75-33.654,75-75c0-41.345-33.654-75-75-75
			C33.655,0,0,33.655,0,75z M31.348,126.374c11.074-7.476,20.58-12.274,23.379-13.659c1.692-0.83,2.769-2.521,2.769-4.43v-9.413
			c0-0.677-0.185-1.323-0.523-1.907c-1.908-3.23-3.23-7.106-3.907-11.506c-0.215-1.477-1.323-2.676-2.707-3.045
			c-0.369-0.461-1.415-2.062-2.738-6.707c-1.046-3.691-1.046-5.506-0.954-6.244c1.138,0,2.246-0.523,2.953-1.446
			c0.8-1.015,1.015-2.369,0.584-3.568c-1.477-4.184-1.661-8.46-0.523-12.828c0.984-4.184,3.23-8.121,6.707-11.69
			c1.876-2,4.03-3.784,6.337-5.229c0.031-0.031,0.092-0.062,0.123-0.092c1.938-1.354,3.938-2.369,5.938-3.046h0.03
			c1.692-0.584,3.446-0.892,5.322-0.984c5.045-0.431,9.567,0.492,13.535,2.861c4.369,2.399,6.122,5.537,6.122,5.537
			c0.616,1.169,1.784,1.938,3.077,2.03c0.03,0,1.691,0.308,3.199,2.276c1.783,2.369,4.307,8.521,1.23,23.38
			c-0.339,1.692,0.492,3.384,1.999,4.123c0.123,0.584,0.276,2.369-0.892,6.521c-1.047,3.692-1.908,5.445-2.431,6.246
			c-0.646-0.093-1.354,0-1.969,0.246c-1.169,0.492-2.03,1.568-2.245,2.799c-0.615,3.477-1.569,6.583-2.861,9.229
			c-0.246,0.523-0.369,1.077-0.369,1.631v10.891c0,1.906,1.046,3.599,2.769,4.43c2.83,1.384,12.336,6.214,23.38,13.658
			c-11.782,10.029-27.01,16.089-43.653,16.089C58.357,142.463,43.129,136.402,31.348,126.374z M75,7.537
			c37.192,0,67.463,30.271,67.463,67.463c0,17.781-6.922,33.993-18.211,46.053c-10.553-7.23-19.936-12.244-24.18-14.367v-8.429
			c1.015-2.215,1.846-4.676,2.461-7.291c3.014-1.138,5.137-4.646,7.137-11.69c1.814-6.429,1.661-10.951-0.492-13.535
			c2.246-12.336,1.23-21.441-3.046-27.071c-2.215-2.953-4.799-4.245-6.583-4.799c-1.262-1.784-3.814-4.676-8.061-7.014
			c-5.26-3.107-11.289-4.399-17.78-3.845c-2.461,0.123-4.892,0.584-7.26,1.384h-0.031c-2.646,0.892-5.229,2.215-7.721,3.938
			c-2.831,1.815-5.445,3.969-7.691,6.337c-4.43,4.522-7.322,9.629-8.583,15.074c-1.169,4.491-1.292,8.983-0.338,13.413
			c-0.4,0.308-0.8,0.646-1.138,1.077c-2.215,2.676-2.399,6.953-0.554,13.505c1.23,4.338,2.83,8.798,5.599,10.859
			c0.831,4.152,2.153,7.937,3.968,11.259v6.829c-4.214,2.123-13.628,7.137-24.18,14.367C14.489,108.993,7.537,92.781,7.537,75
			C7.537,37.808,37.808,7.537,75,7.537z"/>
	</g>
</g>
</svg>
