<?xml version="1.0" encoding="utf-8"?>
<!-- Generator: Adobe Illustrator 16.0.0, SVG Export Plug-In . SVG Version: 6.00 Build 0)  -->
<!DOCTYPE svg PUBLIC "-//W3C//DTD SVG 1.1//EN" "http://www.w3.org/Graphics/SVG/1.1/DTD/svg11.dtd">
<svg version="1.1" id="Layer_1" xmlns="http://www.w3.org/2000/svg" xmlns:xlink="http://www.w3.org/1999/xlink" x="0px" y="0px"
	 width="150px" height="150px" viewBox="0 0 150 150" enable-background="new 0 0 150 150" xml:space="preserve">
<path fill="#5CA745" d="M114.172,84.262c-17.861,0-32.369,14.508-32.369,32.369c0,17.86,14.508,32.369,32.369,32.369
	s32.368-14.509,32.368-32.369C146.54,98.77,132.033,84.262,114.172,84.262z M114.172,140.539c-13.192,0-23.908-10.717-23.908-23.908
	c0-13.192,10.716-23.909,23.908-23.909c13.191,0,23.908,10.717,23.908,23.909C138.08,129.822,127.363,140.539,114.172,140.539z"/>
<path fill="#5CA745" d="M123.604,107.163c-1.469-1.471-3.827-1.471-5.297,0l-4.165,4.165l-4.166-4.165
	c-1.469-1.47-3.827-1.47-5.298,0c-1.471,1.471-1.471,3.83,0,5.298l4.164,4.167l-4.164,4.134c-1.471,1.468-1.471,3.827,0.001,5.297
	c0.733,0.735,1.684,1.104,2.664,1.104s1.929-0.369,2.664-1.104l4.164-4.164l4.165,4.164c0.736,0.735,1.686,1.104,2.664,1.103
	c0.98,0.001,1.93-0.367,2.666-1.103c1.469-1.469,1.469-3.828-0.002-5.297l-4.164-4.166l4.165-4.165
	C125.075,110.992,125.074,108.633,123.604,107.163z"/>
<g>
	<g>
		<path fill="#5CA745" d="M24.668,19.284c-1.478-1.476-3.846-1.476-5.322-0.031c-1.507,1.477-1.507,3.845-0.031,5.321l8.981,9.042
			c0.708,0.707,1.661,1.107,2.676,1.107l0,0c0.984,0,1.938-0.4,2.646-1.107L60.959,6.428c1.477-1.477,1.477-3.845,0.031-5.321
			c-1.477-1.477-3.844-1.477-5.32,0l-8.273,8.212c-4.398-4.552-10.52-7.167-16.947-7.167c-13.01,0-23.59,10.581-23.59,23.59
			c0,13.01,10.58,23.59,23.59,23.59c10.488,0,19.561-6.736,22.605-16.762c0.615-1.999-0.523-4.091-2.521-4.706
			c-1.999-0.584-4.091,0.523-4.706,2.522c-2.03,6.705-8.366,11.411-15.378,11.411c-8.857,0-16.055-7.197-16.055-16.055
			S21.592,9.688,30.449,9.688c4.398,0,8.581,1.845,11.596,4.982l-11.043,10.98L24.668,19.284z"/>
		<path fill="#5CA745" d="M30.449,52.471c-13.01,0-23.59,10.581-23.59,23.59c0,13.011,10.58,23.591,23.59,23.591
			s23.59-10.58,23.59-23.591C54.039,63.051,43.459,52.471,30.449,52.471z M30.449,92.116c-8.857,0-16.055-7.197-16.055-16.056
			c0-8.857,7.197-16.054,16.055-16.054s16.055,7.197,16.055,16.054C46.504,84.919,39.307,92.116,30.449,92.116z"/>
		<path fill="#5CA745" d="M54.039,126.41c0-13.011-10.58-23.591-23.59-23.591s-23.59,10.58-23.59,23.591
			c0,13.01,10.58,23.59,23.59,23.59S54.039,139.42,54.039,126.41z M30.449,142.495c-8.857,0-16.055-7.196-16.055-16.055
			s7.197-16.056,16.055-16.056s16.055,7.197,16.055,16.056S39.307,142.495,30.449,142.495z"/>
		<path fill="#5CA745" d="M139.358,72.278H66.065c-2.092,0-3.783,1.692-3.783,3.783c0,2.092,1.691,3.783,3.783,3.783h73.293
			c2.091,0,3.782-1.691,3.782-3.783C143.141,73.97,141.449,72.278,139.358,72.278z"/>
		<path fill="#5CA745" d="M139.358,21.991H66.065c-2.092,0-3.783,1.691-3.783,3.783s1.691,3.783,3.783,3.783h73.293
			c2.091,0,3.782-1.692,3.782-3.783S141.449,21.991,139.358,21.991z"/>
		<path fill="#5CA745" d="M75.124,122.657h-2.335h-2.317h-4.406c-2.092,0-3.783,1.692-3.783,3.783s1.691,3.783,3.783,3.783h4.577
			h2.252h2.229c2.091,0,3.782-1.692,3.782-3.783C78.906,124.318,77.215,122.657,75.124,122.657z"/>
	</g>
</g>
</svg>
