<?xml version="1.0" encoding="utf-8"?>
<!-- Generator: Adobe Illustrator 16.0.0, SVG Export Plug-In . SVG Version: 6.00 Build 0)  -->
<!DOCTYPE svg PUBLIC "-//W3C//DTD SVG 1.1//EN" "http://www.w3.org/Graphics/SVG/1.1/DTD/svg11.dtd">
<svg version="1.1" id="Layer_1" xmlns="http://www.w3.org/2000/svg" xmlns:xlink="http://www.w3.org/1999/xlink" x="0px" y="0px"
	 width="150px" height="150px" viewBox="0 0 150 150" enable-background="new 0 0 150 150" xml:space="preserve">
<g>
	<path fill="#5CA745" d="M114.053,74.616c-19.824,0-35.947,16.123-35.947,35.947s16.123,35.947,35.947,35.947
		S150,130.388,150,110.563S133.877,74.616,114.053,74.616z M142.39,106.703h-24.403V82.235
		C130.65,83.981,140.676,94.028,142.39,106.703z M114.053,139.168c-15.787,0-28.605-12.819-28.605-28.605
		c0-14.52,10.848-26.521,24.872-28.354v28.529c0,2.146,1.745,3.891,3.891,3.891h28.154
		C140.387,128.493,128.458,139.168,114.053,139.168z"/>
	<path fill="#5CA745" d="M143.986,35.362c0-0.568-0.125-1.139-0.381-1.677c-0.506-1.078-1.486-1.806-2.562-2.027L76.553,0.38
		c-1.043-0.507-2.279-0.507-3.324,0L8.105,31.944c-1.266,0.602-2.088,1.867-2.152,3.292v79.368c0,1.459,0.822,2.789,2.152,3.42
		l65.123,31.564c0.033,0,0.033,0,0.062,0.031c0.096,0.031,0.189,0.064,0.285,0.126c0.031,0,0.062,0.032,0.127,0.032
		c0.096,0.031,0.189,0.062,0.285,0.096c0.031,0,0.062,0.031,0.096,0.031c0.096,0.031,0.221,0.031,0.314,0.063h0.096
		c0.127,0,0.285,0.031,0.412,0.031c0.125,0,0.285,0,0.412-0.031h0.094c0.098,0,0.223-0.032,0.316-0.063
		c0.031,0,0.064-0.031,0.096-0.031c0.096-0.033,0.189-0.064,0.285-0.096c0.031,0,0.062-0.032,0.127-0.032
		c0.096-0.031,0.189-0.062,0.285-0.126c0.031,0,0.031,0,0.062-0.031c0,0,1.238-0.403,2.104-1.564l-0.013-8.23v-3.771
		c0.005,0.001,0.009,0.002,0.014,0.002v-5.012c0-2.089-1.711-3.799-3.799-3.799c-2.092,0-3.799,1.71-3.799,3.799v0.853h-0.018v8.224
		L13.551,112.2V41.504l57.523,27.891v20.292c0.001,0,0.001,0,0.002,0v2.072c0,2.089,1.711,3.799,3.799,3.799
		c2.092,0,3.799-1.71,3.799-3.799v-2.091c0.001,0,0.001,0,0.002,0V69.396l27.004-13.107v5.012v3.055v1.957
		c0,2.089,1.711,3.799,3.799,3.799c2.092,0,3.799-1.71,3.799-3.799v-2.39v-0.959V52.584l23.113-11.207v30.713h0.059v2.222
		c0,2.089,1.711,3.799,3.799,3.799c2.092,0,3.799-1.71,3.799-3.799v-2.222v-1.127V35.458
		C143.986,35.426,143.986,35.394,143.986,35.362z M74.877,62.78L18.395,35.394l26.975-13.074l56.48,27.384L74.877,62.78z
		 M110.555,45.494l-56.48-27.384L74.877,8.008l56.479,27.385L110.555,45.494z"/>
</g>
</svg>
