<?xml version="1.0" encoding="utf-8"?>
<!-- Generator: Adobe Illustrator 16.0.0, SVG Export Plug-In . SVG Version: 6.00 Build 0)  -->
<!DOCTYPE svg PUBLIC "-//W3C//DTD SVG 1.1//EN" "http://www.w3.org/Graphics/SVG/1.1/DTD/svg11.dtd">
<svg version="1.1" id="Layer_1" xmlns="http://www.w3.org/2000/svg" xmlns:xlink="http://www.w3.org/1999/xlink" x="0px" y="0px"
	 width="150px" height="150px" viewBox="0 0 150 150" enable-background="new 0 0 150 150" xml:space="preserve">
<g>
	<g>
		<path fill="#5CA745" d="M87.135,115.951H11.032c-1.739,0-3.151-1.409-3.151-3.151V52.798h134.228v7.887
			c0,2.167,1.775,3.94,3.944,3.94s3.941-1.773,3.941-3.94V32.261c0-6.08-4.961-11.043-11.04-11.043H11.032
			c-6.11,0-11.038,4.963-11.038,11.043V112.8c0,6.08,4.959,11.038,11.038,11.038h76.137c2.169,0,3.942-1.776,3.942-3.942
			C91.111,117.729,89.338,115.951,87.135,115.951z M11.032,29.104h127.922c1.742,0,3.154,1.414,3.154,3.156v12.651H7.848V32.261
			C7.848,30.519,9.293,29.104,11.032,29.104z"/>
		<path fill="#5CA745" d="M78.924,82.071c0-2.167-1.778-3.939-3.945-3.939H27.594c-2.169,0-3.944,1.773-3.944,3.939
			c0,2.174,1.775,3.947,3.944,3.947h47.385C77.179,86.018,78.924,84.245,78.924,82.071z"/>
		<path fill="#5CA745" d="M27.594,92.263c-2.169,0-3.944,1.775-3.944,3.942c0,2.171,1.775,3.944,3.944,3.944h18.961
			c2.166,0,3.944-1.773,3.944-3.944c0-2.167-1.778-3.942-3.944-3.942H27.594z"/>
		<path fill="#5CA745" d="M27.136,71.725h47.382c2.169,0,3.942-1.773,3.942-3.945c0-2.166-1.773-3.939-3.942-3.939H27.136
			c-2.169,0-3.944,1.773-3.944,3.939C23.191,69.952,24.933,71.725,27.136,71.725z"/>
	</g>
</g>
<path fill="#5CA745" d="M117.856,76.053v25.903c2.38,0.175,4.76,0.388,7.137,0.611V76.053l12.818,12.818
	c1.402,1.402,3.676,1.402,5.049,0c1.402-1.4,1.402-3.648,0-5.048l-18.925-18.924c-0.687-0.687-1.61-1.058-2.511-1.058
	c-0.897,0-1.824,0.344-2.511,1.058L99.99,83.823c-1.4,1.4-1.4,3.648,0,5.048c1.399,1.402,3.646,1.402,5.048,0L117.856,76.053z"/>
<path fill="#5CA745" d="M117.856,100.038v25.503c0,1.982,1.587,3.568,3.568,3.568c1.984,0,3.568-1.586,3.568-3.568v-24.904
	C122.613,100.416,120.236,100.205,117.856,100.038z"/>
</svg>
