<?xml version="1.0" encoding="utf-8"?>
<!-- Generator: Adobe Illustrator 16.0.0, SVG Export Plug-In . SVG Version: 6.00 Build 0)  -->
<!DOCTYPE svg PUBLIC "-//W3C//DTD SVG 1.1//EN" "http://www.w3.org/Graphics/SVG/1.1/DTD/svg11.dtd">
<svg version="1.1" id="Layer_1" xmlns="http://www.w3.org/2000/svg" xmlns:xlink="http://www.w3.org/1999/xlink" x="0px" y="0px"
	 width="150px" height="150px" viewBox="0 0 150 150" enable-background="new 0 0 150 150" xml:space="preserve">
<g>
	<g>
		<g>
			<path fill="#5CA745" d="M140.025,76.943c-0.604-1.235-0.604-2.651,0-3.886l5.596-11.445c3.114-6.372,0.646-13.967-5.619-17.291
				l-11.253-5.971c-1.214-0.645-2.046-1.79-2.284-3.144l-2.201-12.548c-1.225-6.985-7.688-11.681-14.709-10.687l-12.613,1.784
				c-1.361,0.191-2.707-0.246-3.695-1.201l-9.154-8.857c-5.099-4.932-13.085-4.932-18.183,0l-9.155,8.858
				c-0.988,0.955-2.334,1.393-3.695,1.201l-12.613-1.784c-7.023-0.994-13.484,3.7-14.709,10.687l-2.201,12.547
				c-0.237,1.354-1.07,2.5-2.283,3.144L9.998,44.321c-6.265,3.324-8.732,10.92-5.617,17.292l5.594,11.444
				c0.604,1.235,0.604,2.651,0,3.886L4.38,88.388c-3.114,6.372-0.647,13.968,5.618,17.292l11.254,5.971
				c1.213,0.645,2.046,1.79,2.283,3.143l2.201,12.548c1.115,6.36,6.568,10.82,12.836,10.819c0.617,0,1.244-0.043,1.873-0.133
				l12.613-1.783c1.36-0.193,2.707,0.245,3.695,1.201l9.155,8.856C68.459,148.768,71.729,150,75,150
				c3.271,0,6.543-1.232,9.091-3.698l9.155-8.856c0.988-0.956,2.335-1.393,3.695-1.201l12.613,1.783
				c7.025,0.994,13.484-3.701,14.709-10.687l2.201-12.547c0.238-1.354,1.07-2.499,2.284-3.144l11.253-5.971
				c6.266-3.324,8.733-10.92,5.619-17.292L140.025,76.943z M135.947,98.037l-11.253,5.971c-3.588,1.904-6.048,5.29-6.75,9.291
				l-2.201,12.547c-0.415,2.363-2.6,3.951-4.977,3.615l-12.612-1.783c-4.023-0.57-8.004,0.725-10.923,3.549l-9.155,8.856
				c-1.725,1.668-4.427,1.668-6.152,0l-9.155-8.857c-2.468-2.387-5.692-3.681-9.06-3.681c-0.617,0-1.239,0.044-1.862,0.133
				l-12.613,1.783c-2.374,0.336-4.562-1.252-4.977-3.615l-2.201-12.548c-0.702-4.001-3.162-7.388-6.75-9.29l-11.253-5.971
				c-2.12-1.125-2.955-3.695-1.9-5.851l5.594-11.444c1.783-3.649,1.783-7.835,0-11.484l-5.594-11.444
				c-1.055-2.156-0.22-4.726,1.9-5.851l11.253-5.971c3.587-1.903,6.048-5.29,6.75-9.29l2.2-12.548
				c0.416-2.363,2.6-3.951,4.977-3.615l12.613,1.784c4.021,0.568,8.003-0.726,10.922-3.549l9.156-8.857
				c1.725-1.668,4.427-1.668,6.151,0l9.155,8.857c2.92,2.824,6.9,4.117,10.922,3.549l12.613-1.784
				c2.375-0.336,4.562,1.252,4.977,3.615l2.201,12.548c0.702,4.001,3.162,7.387,6.75,9.29l11.254,5.971
				c2.119,1.125,2.954,3.694,1.9,5.851l-5.594,11.444c-1.784,3.649-1.784,7.835,0,11.483l5.594,11.444
				C138.902,94.342,138.066,96.912,135.947,98.037z"/>
		</g>
	</g>
	<g>
		<g>
			<path fill="#5CA745" d="M106.606,43.394c-1.688-1.689-4.429-1.689-6.117,0l-57.097,57.096c-1.688,1.689-1.688,4.429,0,6.118
				c0.846,0.844,1.952,1.267,3.059,1.267c1.107,0,2.215-0.423,3.059-1.267l57.097-57.097
				C108.297,47.821,108.297,45.083,106.606,43.394z"/>
		</g>
	</g>
	<g>
		<g>
			<path fill="#5CA745" d="M57.697,36.069c-8.746,0-15.861,7.115-15.861,15.86c0,8.746,7.115,15.861,15.861,15.861
				s15.861-7.115,15.861-15.861C73.559,43.185,66.443,36.069,57.697,36.069z M57.697,59.14c-3.975,0-7.209-3.234-7.209-7.21
				s3.234-7.209,7.209-7.209s7.209,3.233,7.209,7.209S61.672,59.14,57.697,59.14z"/>
		</g>
	</g>
	<g>
		<g>
			<path fill="#5CA745" d="M92.303,82.209c-8.746,0-15.861,7.115-15.861,15.861s7.115,15.861,15.861,15.861
				s15.861-7.115,15.861-15.861S101.049,82.209,92.303,82.209z M92.303,105.279c-3.976,0-7.21-3.233-7.21-7.209
				c0-3.975,3.234-7.209,7.21-7.209c3.975,0,7.209,3.234,7.209,7.209C99.512,102.046,96.277,105.279,92.303,105.279z"/>
		</g>
	</g>
</g>
</svg>
