
<!-- Generator: Adobe Illustrator 16.0.0, SVG Export Plug-In . SVG Version: 6.00 Build 0)  -->
<!DOCTYPE svg PUBLIC "-//W3C//DTD SVG 1.1//EN" "http://www.w3.org/Graphics/SVG/1.1/DTD/svg11.dtd">
<svg version="1.1" id="Capa_1" xmlns="http://www.w3.org/2000/svg" xmlns:xlink="http://www.w3.org/1999/xlink" x="0px" y="0px"
	 width="150px" height="150px" viewBox="0 231 150 150" enable-background="new 0 231 150 150" xml:space="preserve">
<g>
	<g>
		<path fill="#5CA645" d="M137.057,357.52l-10.738-17.889c-4.949-8.256-7.568-17.705-7.568-27.337v-15.669
			c0-24.119-19.631-43.75-43.75-43.75c-24.119,0-43.75,19.631-43.75,43.75v15.669c0,9.632-2.619,19.081-7.569,27.337L12.944,357.52
			c-0.582,0.962-0.594,2.168-0.044,3.143c0.557,0.982,1.6,1.588,2.725,1.588h118.75c1.125,0,2.168-0.605,2.725-1.588
			C137.65,359.688,137.638,358.481,137.057,357.52z M21.144,356l7.894-13.156c5.538-9.225,8.462-19.787,8.462-30.55v-15.669
			c0-20.681,16.819-37.5,37.5-37.5c20.682,0,37.5,16.819,37.5,37.5v15.669c0,10.763,2.925,21.325,8.456,30.55L128.855,356H21.144
			L21.144,356z"/>
	</g>
</g>
<g>
	<g>
		<path fill="#5CA645" d="M75,231c-6.894,0-12.5,5.606-12.5,12.5V256c0,1.725,1.4,3.125,3.125,3.125s3.125-1.4,3.125-3.125v-12.5
			c0-3.45,2.8-6.25,6.25-6.25s6.25,2.8,6.25,6.25V256c0,1.725,1.4,3.125,3.125,3.125s3.125-1.4,3.125-3.125v-12.5
			C87.5,236.606,81.895,231,75,231z"/>
	</g>
</g>
<g>
	<g>
		<path fill="#5CA645" d="M88.525,357.544c-0.882-1.487-2.788-1.976-4.281-1.119c-1.494,0.875-1.994,2.794-1.119,4.281
			c0.812,1.382,1.256,3.038,1.256,4.669c0,5.168-4.206,9.375-9.375,9.375c-5.169,0-9.375-4.207-9.375-9.375
			c0-1.631,0.444-3.287,1.256-4.669c0.869-1.493,0.369-3.406-1.119-4.281c-1.506-0.856-3.406-0.368-4.281,1.119
			c-1.381,2.362-2.112,5.068-2.112,7.831C59.375,373.994,66.381,381,75,381c8.619,0,15.625-7.006,15.638-15.625
			C90.638,362.612,89.906,359.906,88.525,357.544z"/>
	</g>
</g>
</svg>
