<?xml version="1.0" encoding="utf-8"?>
<!-- Generator: Adobe Illustrator 16.0.0, SVG Export Plug-In . SVG Version: 6.00 Build 0)  -->
<!DOCTYPE svg PUBLIC "-//W3C//DTD SVG 1.1//EN" "http://www.w3.org/Graphics/SVG/1.1/DTD/svg11.dtd">
<svg version="1.1" id="Capa_1" xmlns="http://www.w3.org/2000/svg" xmlns:xlink="http://www.w3.org/1999/xlink" x="0px" y="0px"
	 width="150px" height="150px" viewBox="0 0 150 150" enable-background="new 0 0 150 150" xml:space="preserve">
<g>
	<g>
		<path fill="#939598" d="M128.061,128.061c29.253-29.254,29.253-76.867,0-106.121C98.807-7.313,51.193-7.313,21.94,21.94
			s-29.253,76.867,0,106.121C51.193,157.313,98.807,157.313,128.061,128.061z M27.234,27.234c26.346-26.347,69.186-26.347,95.532,0
			c26.348,26.346,26.348,69.186,0,95.532c-26.346,26.348-69.186,26.348-95.532,0C0.887,96.42,0.918,53.58,27.234,27.234z"/>
		<path fill="#5CA745" d="M75,103.091c1.041,0,1.959-0.429,2.662-1.103c0.674-0.672,1.102-1.621,1.102-2.662V78.733h20.594
			c1.041,0,1.959-0.429,2.662-1.102c0.674-0.673,1.102-1.622,1.102-2.663c0-2.081-1.684-3.764-3.732-3.733H78.795V50.643
			c0-2.081-1.684-3.764-3.734-3.733c-2.081,0-3.764,1.683-3.733,3.733v20.594H50.734c-2.081,0-3.764,1.683-3.733,3.733
			c0,2.082,1.683,3.764,3.733,3.734h20.594v20.594C71.236,101.408,72.919,103.091,75,103.091z"/>
	</g>
</g>
</svg>
