<?xml version="1.0" encoding="utf-8"?>
<!-- Generator: Adobe Illustrator 16.0.0, SVG Export Plug-In . SVG Version: 6.00 Build 0)  -->
<!DOCTYPE svg PUBLIC "-//W3C//DTD SVG 1.1//EN" "http://www.w3.org/Graphics/SVG/1.1/DTD/svg11.dtd">
<svg version="1.1" id="Layer_1" xmlns="http://www.w3.org/2000/svg" xmlns:xlink="http://www.w3.org/1999/xlink" x="0px" y="0px"
	 width="35.142px" height="51.683px" viewBox="0 0 35.142 51.683" enable-background="new 0 0 35.142 51.683" xml:space="preserve">
<g>
	<path fill="#34C670" d="M13.516,35.999H9.928c-2.526,0-4.573-2.049-4.573-4.574v-0.1c0-1.34-0.45-2.637-1.254-3.71
		c-2.062-2.762-3.295-6.178-3.33-9.88C0.683,8.438,8.243,0.788,17.538,0.771C12.613,0.804,8.61,8.448,8.657,17.734
		c0.019,3.703,0.673,7.119,1.768,9.88c0.426,1.073,0.664,2.37,0.664,3.71v0.1C11.089,33.951,12.176,35.999,13.516,35.999z"/>
	<path fill="#34C670" d="M29.732,38.484c0,0.687-0.278,1.309-0.728,1.758c-0.45,0.45-1.072,0.728-1.758,0.728H7.841
		c-1.373,0-2.486-1.112-2.486-2.485c0-0.687,0.278-1.308,0.728-1.757c0.45-0.45,1.072-0.729,1.759-0.729h19.406
		C28.619,35.999,29.732,37.112,29.732,38.484z"/>
	<path fill="#34C670" d="M27.903,43.456c0,0.687-0.278,1.309-0.728,1.758c-0.45,0.45-1.071,0.729-1.758,0.729H9.669
		c-1.372,0-2.486-1.113-2.486-2.486c0-0.688,0.278-1.309,0.729-1.758c0.451-0.449,1.072-0.729,1.758-0.729h15.749
		C26.791,40.969,27.903,42.083,27.903,43.456z"/>
	<path fill="#DDFFE0" d="M29.732,38.484c0,0.687-0.278,1.309-0.728,1.758c-0.45,0.45-1.072,0.728-1.758,0.728H12.937
		c-1.373,0-2.486-1.112-2.486-2.485c0-0.687,0.279-1.308,0.729-1.757c0.449-0.45,1.072-0.729,1.758-0.729h14.311
		C28.619,35.999,29.732,37.112,29.732,38.484z"/>
	<path fill="#DDFFE0" d="M27.903,43.456c0,0.687-0.278,1.309-0.728,1.758c-0.45,0.45-1.071,0.729-1.758,0.729H14.765
		c-1.373,0-2.485-1.113-2.485-2.486c0-0.688,0.278-1.309,0.728-1.758c0.45-0.449,1.071-0.729,1.758-0.729h10.653
		C26.791,40.969,27.903,42.083,27.903,43.456z"/>
	<path d="M33.219,9.572c-0.193-0.379-0.656-0.528-1.035-0.334s-0.528,0.658-0.335,1.037c1.163,2.271,1.753,4.726,1.753,7.296
		c0,3.514-1.115,6.85-3.227,9.646c-0.876,1.16-1.358,2.62-1.358,4.109v0.098c0,2.098-1.706,3.804-3.803,3.804h-6.873v-9.75
		c2.779-0.377,4.928-2.765,4.928-5.645c0-0.426-0.345-0.771-0.77-0.771c-0.426,0-0.77,0.345-0.77,0.771
		c0,2.292-1.865,4.158-4.158,4.158s-4.158-1.866-4.158-4.158c0-0.426-0.345-0.771-0.771-0.771c-0.425,0-0.771,0.345-0.771,0.771
		c0,2.88,2.15,5.267,4.929,5.645v9.75H9.928c-2.097,0-3.803-1.706-3.803-3.804v-0.1c0-1.498-0.486-2.939-1.406-4.171
		c-2.047-2.74-3.146-6-3.179-9.427C1.5,13.436,3.149,9.383,6.186,6.312c3.034-3.069,7.067-4.764,11.355-4.771h0.03
		c5.043,0,9.69,2.302,12.755,6.319c0.258,0.338,0.741,0.403,1.079,0.146c0.339-0.258,0.403-0.741,0.146-1.079
		c-1.608-2.109-3.707-3.855-6.069-5.048C23.005,0.627,20.328-0.007,17.538,0C12.837,0.009,8.416,1.866,5.091,5.229
		c-3.327,3.365-5.135,7.808-5.09,12.512c0.035,3.757,1.24,7.331,3.484,10.335c0.719,0.962,1.1,2.087,1.1,3.249v0.1
		c0,1.643,0.745,3.113,1.914,4.095c-1.128,0.513-1.914,1.647-1.914,2.965c0,1.497,1.016,2.761,2.395,3.14
		c-0.357,0.522-0.566,1.153-0.566,1.832c0,1.795,1.461,3.256,3.256,3.256h2.186c0.378,2.803,2.784,4.972,5.689,4.972
		c2.904,0,5.311-2.169,5.688-4.972h2.186c1.795,0,3.256-1.461,3.256-3.256c0-0.679-0.209-1.31-0.566-1.832
		c1.379-0.379,2.395-1.643,2.395-3.14c0-1.304-0.77-2.429-1.878-2.949c1.18-0.981,1.933-2.459,1.933-4.109v-0.099
		c0-1.156,0.372-2.287,1.048-3.182c2.313-3.066,3.537-6.723,3.537-10.574C35.142,14.754,34.495,12.063,33.219,9.572z M17.544,50.143
		c-2.055,0-3.768-1.481-4.13-3.432h8.259C21.311,48.662,19.597,50.143,17.544,50.143z M27.247,36.768
		c0.946,0,1.715,0.77,1.715,1.716S28.193,40.2,27.247,40.2H13.842c-0.425,0-0.771,0.346-0.771,0.77c0,0.426,0.346,0.771,0.771,0.771
		h11.576c0.946,0,1.716,0.77,1.716,1.716s-0.77,1.716-1.716,1.716H9.669c-0.945,0-1.715-0.77-1.715-1.716s0.77-1.716,1.715-1.716
		h1.093c0.425,0,0.771-0.345,0.771-0.771c0-0.424-0.346-0.77-0.771-0.77H7.841c-0.946,0-1.716-0.77-1.716-1.716
		s0.77-1.716,1.716-1.716H27.247z"/>
</g>
</svg>
