<?xml version="1.0" encoding="utf-8"?>
<!-- Generator: Adobe Illustrator 16.0.0, SVG Export Plug-In . SVG Version: 6.00 Build 0)  -->
<!DOCTYPE svg PUBLIC "-//W3C//DTD SVG 1.1//EN" "http://www.w3.org/Graphics/SVG/1.1/DTD/svg11.dtd">
<svg version="1.1" id="Background" xmlns="http://www.w3.org/2000/svg" xmlns:xlink="http://www.w3.org/1999/xlink" x="0px" y="0px"
	 width="1042.188px" height="334.014px" viewBox="0 0 1042.188 334.014" enable-background="new 0 0 1042.188 334.014"
	 xml:space="preserve">
<g>
	<g>
		<g>
			<g>
				<g>
					<path fill="#FFFFFF" d="M21.276,109.468c-11.625,0-21.083-9.457-21.083-21.081V4.82h42.167v83.566
						C42.359,100.011,32.901,109.468,21.276,109.468z M1.192,5.82v82.566c0,11.072,9.009,20.081,20.083,20.081
						s20.083-9.009,20.083-20.081V5.82H1.192z"/>
				</g>
				<g>
					<path fill="#FFFFFF" d="M62.439,109.468c-11.624,0-21.08-9.457-21.08-21.081V4.82h42.163v83.566
						C83.522,100.011,74.064,109.468,62.439,109.468z M42.359,5.82v82.566c0,11.072,9.008,20.081,20.08,20.081
						c11.074,0,20.083-9.009,20.083-20.081V5.82H42.359z"/>
				</g>
				<g>
					<path fill="#FFFFFF" d="M103.606,109.468c-11.626,0-21.084-9.457-21.084-21.081V4.82h42.167v83.566
						C124.688,100.011,115.231,109.468,103.606,109.468z M83.522,5.82v82.566c0,11.072,9.01,20.081,20.084,20.081
						c11.074,0,20.083-9.009,20.083-20.081V5.82H83.522z"/>
				</g>
				<g>
					<path fill="#FFFFFF" d="M144.769,109.468c-11.624,0-21.08-9.457-21.08-21.081V4.82h42.164v83.566
						C165.852,100.011,156.394,109.468,144.769,109.468z M124.688,5.82v82.566c0,11.072,9.008,20.081,20.08,20.081
						c11.074,0,20.083-9.009,20.083-20.081V5.82H124.688z"/>
				</g>
			</g>
		</g>
	</g>
	<g>
		<g>
			<g>
				<g>
					<path fill="#FFFFFF" d="M620.101,102.499c-9.574,0-17.364-7.727-17.364-17.224V17.279h34.729v67.996
						C637.465,94.772,629.675,102.499,620.101,102.499z M603.736,18.279v66.996c0,8.945,7.341,16.224,16.364,16.224
						s16.364-7.278,16.364-16.224V18.279H603.736z"/>
				</g>
				<g>
					<path fill="#FFFFFF" d="M653.829,102.499c-9.574,0-17.364-7.727-17.364-17.224V17.279h34.729v67.996
						C671.193,94.772,663.403,102.499,653.829,102.499z M637.465,18.279v66.996c0,8.945,7.341,16.224,16.364,16.224
						s16.364-7.278,16.364-16.224V18.279H637.465z"/>
				</g>
				<g>
					<path fill="#FFFFFF" d="M687.558,102.499c-9.574,0-17.364-7.727-17.364-17.224V17.279h34.729v67.996
						C704.922,94.772,697.132,102.499,687.558,102.499z M671.193,18.279v66.996c0,8.945,7.341,16.224,16.364,16.224
						s16.364-7.278,16.364-16.224V18.279H671.193z"/>
				</g>
				<g>
					<path fill="#FFFFFF" d="M721.286,102.499c-9.574,0-17.364-7.727-17.364-17.224V17.279h34.729v67.996
						C738.65,94.772,730.86,102.499,721.286,102.499z M704.922,18.279v66.996c0,8.945,7.341,16.224,16.364,16.224
						s16.364-7.278,16.364-16.224V18.279H704.922z"/>
				</g>
				<g>
					<path fill="#FFFFFF" d="M755.016,102.499c-9.575,0-17.365-7.727-17.365-17.224V17.279h34.728v67.996
						C772.378,94.772,764.589,102.499,755.016,102.499z M738.65,18.279v66.996c0,8.945,7.342,16.224,16.365,16.224
						c9.022,0,16.362-7.278,16.362-16.224V18.279H738.65z"/>
				</g>
				<g>
					<path fill="#FFFFFF" d="M788.743,102.499c-9.575,0-17.365-7.727-17.365-17.224V17.279h34.729v67.996
						C806.106,94.772,798.317,102.499,788.743,102.499z M772.378,18.279v66.996c0,8.945,7.342,16.224,16.365,16.224
						c9.022,0,16.363-7.278,16.363-16.224V18.279H772.378z"/>
				</g>
				<g>
					<path fill="#FFFFFF" d="M822.473,102.499c-9.576,0-17.366-7.727-17.366-17.224V17.279h34.729v67.996
						C839.836,94.772,832.047,102.499,822.473,102.499z M806.106,18.279v66.996c0,8.945,7.342,16.224,16.366,16.224
						c9.022,0,16.363-7.278,16.363-16.224V18.279H806.106z"/>
				</g>
				<g>
					<path fill="#FFFFFF" d="M856.201,102.499c-9.575,0-17.365-7.727-17.365-17.224V17.279h34.729v67.996
						C873.564,94.772,865.775,102.499,856.201,102.499z M839.836,18.279v66.996c0,8.945,7.342,16.224,16.365,16.224
						c9.022,0,16.363-7.278,16.363-16.224V18.279H839.836z"/>
				</g>
				<g>
					<path fill="#FFFFFF" d="M889.93,102.499c-9.575,0-17.365-7.727-17.365-17.224V17.279h34.729v67.996
						C907.294,94.772,899.504,102.499,889.93,102.499z M873.564,18.279v66.996c0,8.945,7.342,16.224,16.365,16.224
						s16.364-7.278,16.364-16.224V18.279H873.564z"/>
				</g>
				<g>
					<path fill="#FFFFFF" d="M923.658,102.499c-9.574,0-17.364-7.727-17.364-17.224V17.279h34.729v67.996
						C941.022,94.772,933.232,102.499,923.658,102.499z M907.294,18.279v66.996c0,8.945,7.341,16.224,16.364,16.224
						s16.364-7.278,16.364-16.224V18.279H907.294z"/>
				</g>
				<g>
					<path fill="#FFFFFF" d="M957.389,102.499c-9.576,0-17.366-7.727-17.366-17.224V17.279h34.727v67.996
						C974.749,94.772,966.961,102.499,957.389,102.499z M941.022,18.279v66.996c0,8.945,7.342,16.224,16.366,16.224
						c9.021,0,16.36-7.278,16.36-16.224V18.279H941.022z"/>
				</g>
				<g>
					<path fill="#FFFFFF" d="M991.114,102.499c-9.575,0-17.365-7.727-17.365-17.224V17.279h34.731v67.996
						C1008.48,94.772,1000.69,102.499,991.114,102.499z M974.749,18.279v66.996c0,8.945,7.342,16.224,16.365,16.224
						c9.024,0,16.366-7.278,16.366-16.224V18.279H974.749z"/>
				</g>
				<g>
					<path fill="#FFFFFF" d="M1024.842,102.499c-9.573,0-17.361-7.727-17.361-17.224V17.279h34.727v67.996
						C1042.207,94.772,1034.417,102.499,1024.842,102.499z M1008.48,18.279v66.996c0,8.945,7.34,16.224,16.361,16.224
						c9.023,0,16.365-7.278,16.365-16.224V18.279H1008.48z"/>
				</g>
			</g>
		</g>
	</g>
	<g>
		<rect x="553.785" y="162.128" fill="#FFFFFF" width="56.97" height="1"/>
	</g>
	<g>
		<rect x="144.269" y="108.968" fill="#FFFFFF" width="1" height="53.66"/>
	</g>
	<g>
		<rect x="144.769" y="162.128" fill="#FFFFFF" width="77.628" height="1"/>
	</g>
	<g>
		<rect x="221.897" y="135.798" fill="#FFFFFF" width="1" height="26.83"/>
	</g>
	<g>
		<rect x="553.285" y="145.965" fill="#FFFFFF" width="1" height="16.663"/>
	</g>
	<g>
		<rect x="553.785" y="162.128" fill="#FFFFFF" width="56.97" height="1"/>
	</g>
	<g>
		<rect x="610.255" y="99.195" fill="#FFFFFF" width="1" height="63.433"/>
	</g>
	<g>
		<rect x="1033.207" y="99.195" fill="#FFFFFF" width="1" height="234.818"/>
	</g>
	<g>
		<g>
			<g>
				<path fill="#FFFFFF" d="M524.255,35.378H242.898V9.027c0-4.878,3.888-8.846,8.667-8.846h264.019
					c4.781,0,8.671,3.968,8.671,8.846V35.378z M243.898,34.378h279.356V9.027c0-4.326-3.441-7.846-7.671-7.846H251.565
					c-4.228,0-7.667,3.52-7.667,7.846V34.378z"/>
			</g>
			<g>
				<g>
					<g>
						<g>
							<path fill="#FFFFFF" d="M199.222,151.01c-12.581,0-22.955-9.846-23.619-22.415l-0.027-0.526h47.287l-0.028,0.526
								C222.17,141.164,211.798,151.01,199.222,151.01z M176.636,129.068c0.893,11.785,10.714,20.941,22.586,20.941
								c11.868,0,21.687-9.156,22.58-20.941H176.636z"/>
						</g>
						<g>
							<path fill="#FFFFFF" d="M245.454,151.01c-12.58,0-22.954-9.846-23.619-22.415l-0.028-0.526h47.292l-0.027,0.526
								C268.409,141.164,258.035,151.01,245.454,151.01z M222.868,129.068c0.894,11.785,10.715,20.941,22.586,20.941
								c11.872,0,21.692-9.156,22.585-20.941H222.868z"/>
						</g>
						<g>
							<path fill="#FFFFFF" d="M291.698,151.01c-12.588,0-22.965-9.846-23.625-22.415l-0.027-0.526h47.293l-0.028,0.526
								C314.636,141.164,304.264,151.01,291.698,151.01z M269.105,129.068c0.889,11.786,10.713,20.941,22.593,20.941
								c11.858,0,21.676-9.156,22.58-20.941H269.105z"/>
						</g>
						<g>
							<path fill="#FFFFFF" d="M337.152,151.01c-12.582,0-22.955-9.846-23.614-22.415l-0.028-0.526h47.283l-0.028,0.526
								C360.101,141.164,349.729,151.01,337.152,151.01z M314.57,129.068c0.889,11.786,10.708,20.941,22.582,20.941
								c11.868,0,21.687-9.156,22.58-20.941H314.57z"/>
						</g>
					</g>
					<g>
						<g>
							<path fill="#FFFFFF" d="M567.549,151.01c-12.578,0-22.95-9.846-23.614-22.415l-0.028-0.526h47.288l-0.028,0.526
								C590.501,141.164,580.127,151.01,567.549,151.01z M544.967,129.068c0.894,11.785,10.713,20.941,22.582,20.941
								c11.87,0,21.69-9.156,22.585-20.941H544.967z"/>
						</g>
						<g>
							<path fill="#FFFFFF" d="M521.31,151.01c-12.574,0-22.948-9.846-23.617-22.415l-0.028-0.526h47.297l-0.028,0.526
								C544.26,141.164,533.884,151.01,521.31,151.01z M498.725,129.068c0.898,11.785,10.719,20.941,22.585,20.941
								s21.688-9.156,22.591-20.941H498.725z"/>
						</g>
						<g>
							<path fill="#FFFFFF" d="M475.072,151.01c-12.574,0-22.944-9.846-23.608-22.415l-0.028-0.526h47.283l-0.028,0.526
								C498.031,141.164,487.656,151.01,475.072,151.01z M452.496,129.068c0.894,11.785,10.71,20.941,22.576,20.941
								c11.876,0,21.697-9.155,22.586-20.941H452.496z"/>
						</g>
						<g>
							<path fill="#FFFFFF" d="M429.617,151.01c-12.577,0-22.953-9.846-23.623-22.415l-0.028-0.526h47.299l-0.028,0.526
								C452.572,141.164,442.198,151.01,429.617,151.01z M407.026,129.068c0.899,11.785,10.722,20.941,22.591,20.941
								c11.872,0,21.693-9.156,22.587-20.941H407.026z"/>
						</g>
						<g>
							<path fill="#FFFFFF" d="M383.386,151.01c-12.581,0-22.955-9.846-23.619-22.415l-0.028-0.526h47.281l-0.027,0.526
								C406.34,141.164,395.971,151.01,383.386,151.01z M360.799,129.068c0.894,11.785,10.715,20.941,22.587,20.941
								c11.876,0,21.692-9.155,22.575-20.941H360.799z"/>
						</g>
					</g>
					<g>
						<g>
							<path fill="#FFFFFF" d="M222.619,129.068h-47.582l67.524-89.395h33.414l-0.452,0.756L222.619,129.068z M177.045,128.068
								h45.006l52.162-87.395h-31.154L177.045,128.068z"/>
						</g>
						<g>
							<path fill="#FFFFFF" d="M315.193,129.068h-93.677l53.293-89.395h64.775l-0.172,0.632L315.193,129.068z M223.277,128.068
								h91.152l23.847-87.395h-62.898L223.277,128.068z"/>
						</g>
						<g>
							<path fill="#FFFFFF" d="M360.708,129.068h-93.214l39.23-89.395h64.983L360.708,129.068z M269.025,128.068h90.798
								l10.754-87.395h-63.2L269.025,128.068z"/>
						</g>
						<g>
							<path fill="#FFFFFF" d="M314.416,129.068h-46.607l38.914-89.395h32.868L314.416,129.068z M269.335,128.068h44.323
								l24.612-87.395h-30.892L269.335,128.068z"/>
						</g>
						<g>
							<path fill="#FFFFFF" d="M407.069,129.068H359.7l11-89.395h25.368L407.069,129.068z M360.831,128.068h45.107l-10.755-87.395
								h-23.599L360.831,128.068z"/>
						</g>
					</g>
					<g>
						<g>
							<path fill="#FFFFFF" d="M591.727,129.068h-93.549l-0.132-0.299l-39.088-89.096h65.256l0.15,0.198L591.727,129.068z
								 M498.83,128.068h90.889l-66.003-87.395h-63.227L498.83,128.068z"/>
						</g>
						<g>
							<path fill="#FFFFFF" d="M545.246,129.068h-93.665l-24.402-89.395h64.78L545.246,129.068z M452.345,128.068h91.142
								l-52.096-87.395h-62.902L452.345,128.068z"/>
						</g>
						<g>
							<path fill="#FFFFFF" d="M499.27,129.068h-93.208l-11.001-89.395h64.989l0.132,0.299L499.27,129.068z M406.946,128.068h90.792
								l-38.341-87.395h-63.206L406.946,128.068z"/>
						</g>
						<g>
							<path fill="#FFFFFF" d="M453.397,129.068h-47.336l-11.001-89.395h33.152L453.397,129.068z M406.946,128.068h45.131
								l-24.622-87.395h-31.264L406.946,128.068z"/>
						</g>
					</g>
				</g>
			</g>
		</g>
	</g>
</g>
</svg>
