<?xml version="1.0" encoding="utf-8"?>
<!-- Generator: Adobe Illustrator 22.0.1, SVG Export Plug-In . SVG Version: 6.00 Build 0)  -->
<svg version="1.1" id="Layer_1" xmlns="http://www.w3.org/2000/svg" xmlns:xlink="http://www.w3.org/1999/xlink" x="0px" y="0px"
	 viewBox="0 0 319 55.8" style="enable-background:new 0 0 319 55.8;" xml:space="preserve">
<style type="text/css">
	.st0{fill-rule:evenodd;clip-rule:evenodd;fill:#FFFFFF;}
</style>
<g>
	<g>
		<g>
			<path class="st0" d="M28.6,47.2c-0.4,0-0.9-0.1-1.5-0.3c-4.9-1.9-9.7-3.7-14.6-5.6c-3-1.1-3.9-3.3-2.8-6.3
				c2.9-7.5,5.7-15,8.6-22.5c0.5-1.4,1.4-2.3,2.8-3c3.1-1.5,6.3-2.9,9.3-4.6c2.6-1.5,6.6,0.3,7.5,2.9c1.1,3.4,2.6,6.6,3.9,9.9
				c0.5,1.1,0.5,2.3,0,3.4c-3,7.8-6,15.7-9,23.5C32.2,46.3,30.7,47.2,28.6,47.2z M33,12.5c1.5,0,2.8-1.3,2.8-2.8
				C35.7,8.3,34.4,7,33,7c-1.5,0-2.8,1.3-2.8,2.8C30.2,11.3,31.5,12.5,33,12.5z"/>
			<path class="st0" d="M153.8,18.4c0-3.3,0-6.5,0-9.7c0-0.6,0-1.2,0-1.8c0.1-1.4,1-2.4,2.3-2.4c1.5,0,2.4,0.8,2.6,2.2
				c0,0.3,0,0.6,0,0.9c0,6.9,0,13.9,0,20.8c0,6.4-4.2,11.7-10.4,12.9c-7,1.5-14.3-3.4-15.4-10.3c-1.3-7.7,3.7-14.5,11.2-15.4
				C147.6,15.4,150.8,16.2,153.8,18.4z M145.7,36.7c4.5,0,8.1-3.6,8.1-8.1c0-4.5-3.6-8.1-8.1-8.1c-4.5,0-8.1,3.6-8.1,8.1
				C137.6,33.1,141.2,36.7,145.7,36.7z"/>
			<path class="st0" d="M83.9,31.1c0.7,3,3.9,5.5,7,5.6c2.2,0.1,4.1-0.5,5.9-1.8c1.2-1,2.7-0.8,3.5,0.4c0.8,1.1,0.6,2.6-0.5,3.6
				c-4,3.1-8.4,3.8-13.1,2c-4.7-1.9-7.4-5.5-8.1-10.5c-1.1-8.5,6.3-15.8,14.8-14.5c6.4,0.9,11,6.1,11.2,12.5
				c0.1,1.7-0.9,2.8-2.7,2.8C95.9,31.1,89.9,31.1,83.9,31.1z M99.2,26.3c-1.1-3.6-4.6-5.9-8.5-5.6c-3.1,0.2-6.3,2.9-6.8,5.6
				C89,26.3,94.1,26.3,99.2,26.3z"/>
			<path class="st0" d="M67.4,32.2c0.8-2,1.5-3.9,2.3-5.8c2.6-6.7,5.2-13.3,7.7-20c0.7-1.8,2-2.2,3.5-1.7c1.4,0.5,1.9,1.9,1.2,3.6
				c-2.6,6.8-5.3,13.5-7.9,20.2c-1.5,3.7-2.9,7.4-4.4,11.1c-0.4,1.2-1.1,2-2.4,2c-1.2,0-1.9-0.5-2.5-2c-4-10.2-8-20.5-12-30.7
				c-0.1-0.2-0.2-0.4-0.3-0.6c-0.6-1.7-0.1-3,1.3-3.6c1.5-0.6,2.8,0.1,3.4,1.8c2.2,5.7,4.4,11.4,6.6,17.1
				C65.2,26.4,66.3,29.2,67.4,32.2z"/>
			<path class="st0" d="M111.5,17.9c5.3-3.6,11.5-2.6,15.3,1.1c2.5,2.3,3.9,5.2,3.9,8.7c0,3.8,0,7.7,0,11.5c0,1.3-0.6,2.1-1.7,2.4
				c-1,0.3-2,0-2.7-0.8c-0.5-0.6-0.6-1.3-0.6-2.1c0-3.6,0-7.3,0-10.9c0-3.5-2.7-6.6-6.1-7.1c-3.4-0.5-6.8,1.6-7.9,5
				c-0.2,0.7-0.4,1.4-0.4,2.2c0,3.7-0.1,7.4,0,11c0,1.9-1.4,2.9-2.5,2.9c-1.5,0-2.5-1.2-2.5-2.9c0-6.7,0-13.4,0-20.2
				c0-1.7,0.7-2.7,2.1-3C109.9,15.4,110.9,16.2,111.5,17.9z"/>
			<path class="st0" d="M188.9,32.7c2-4.7,3.8-9.2,5.7-13.6c0.2-0.6,0.5-1.2,0.7-1.7c0.7-1.5,2-2,3.3-1.5c1.3,0.6,1.8,1.9,1.3,3.3
				c-1.5,3.6-3,7.2-4.5,10.9c-2.9,6.9-5.8,13.8-8.6,20.7c-0.4,1-1,1.9-2.2,2c-2.1,0.2-3.3-1.6-2.5-3.6c1.2-2.9,2.4-5.8,3.6-8.6
				c0.4-1,0.4-1.7,0-2.7c-2.6-6.1-5.1-12.2-7.6-18.3c-0.7-1.6-0.3-2.9,0.9-3.6c1.4-0.8,3-0.2,3.6,1.5c1.8,4.3,3.6,8.7,5.5,13.1
				C188.2,31.2,188.5,31.8,188.9,32.7z"/>
			<path class="st0" d="M164.1,27.2c0-1.9,0-3.8,0-5.7c0-0.6-0.1-0.9-0.8-0.9c-1.7,0-2.7-1-2.7-2.5c0-1.5,1-2.5,2.7-2.5
				c0.6,0,0.7-0.2,0.7-0.7c0-2.5,0-5,0-7.5c0-1.8,0.9-2.8,2.5-2.8c1.6,0,2.5,1,2.5,2.9c0,2.3,0.1,4.7,0,7c0,1.1,0.3,1.3,1.3,1.2
				c0.5-0.1,1.1,0,1.6,0c1.3,0.1,2.4,1,2.4,2.3c0,1.5-0.8,2.5-2.3,2.6c-0.8,0.1-1.6,0-2.4,0c-0.5,0-0.6,0.1-0.6,0.6
				c0,3.9,0,7.8,0,11.7c0,2.3,1.7,3.7,4.2,3.8c2.1,0,3.3,1.6,2.7,3.4c-0.3,0.9-1,1.5-1.8,1.5c-3.2,0.1-6.1-0.4-8.2-3.1
				c-1.3-1.6-1.6-3.6-1.7-5.5C164.1,31.1,164.1,29.1,164.1,27.2C164.1,27.2,164.1,27.2,164.1,27.2z"/>
			<path class="st0" d="M42.5,24.4c0.8,4.8,1.6,9.5,2.4,14.2c0.4,2.5-0.3,3.6-2.8,4c-2.1,0.4-4.2,0.7-6.3,1.1
				c-0.5,0.1-0.9,0.1-0.6-0.6c2.3-6.1,4.7-12.2,7-18.3C42.3,24.7,42.3,24.6,42.5,24.4z"/>
			<path class="st0" d="M44.7,26.3c0.7,0.4,0.8,0.9,1,1.3c1.1,3,2.3,5.9,3.4,8.9c0.6,1.6-0.1,2.7-1.7,3c-0.7,0.1-0.5-0.4-0.5-0.7
				c-0.4-2.5-0.9-5-1.3-7.5C45.3,29.7,45,28,44.7,26.3z"/>
		</g>
	</g>
</g>
<path class="st0" d="M276.4,18.6c0-3.3,0-6.5,0-9.7c0-0.6,0-1.2,0-1.8c0.1-1.4,1-2.4,2.3-2.4c1.5,0,2.4,0.8,2.6,2.2
	c0,0.3,0,0.6,0,0.9c0,6.9,0,13.9,0,20.8c0,6.4-4.2,11.7-10.4,12.9c-7,1.5-14.3-3.4-15.4-10.3c-1.3-7.7,3.7-14.5,11.2-15.4
	C270.2,15.6,273.3,16.4,276.4,18.6z M268.3,36.9c4.5,0,8.1-3.6,8.1-8.1c0-4.5-3.6-8.1-8.1-8.1c-4.5,0-8.1,3.6-8.1,8.1
	C260.2,33.3,263.8,36.9,268.3,36.9z"/>
<path class="st0" d="M206.4,31.3c0.7,3,3.9,5.5,7,5.6c2.2,0.1,4.1-0.5,5.9-1.8c1.2-1,2.7-0.8,3.5,0.4c0.8,1.1,0.6,2.6-0.5,3.6
	c-4,3.1-8.4,3.8-13.1,2c-4.7-1.9-7.4-5.5-8.1-10.5c-1.1-8.5,6.3-15.8,14.8-14.5c6.4,0.9,11,6.1,11.2,12.5c0.1,1.7-0.9,2.8-2.7,2.8
	C218.5,31.3,212.5,31.3,206.4,31.3z M221.7,26.4c-1.1-3.6-4.6-5.9-8.5-5.6c-3.1,0.2-6.3,2.9-6.8,5.6
	C211.5,26.4,216.6,26.4,221.7,26.4z"/>
<path class="st0" d="M234.1,18.1c5.3-3.6,11.5-2.6,15.3,1.1c2.5,2.3,3.9,5.2,3.9,8.7c0,3.8,0,7.7,0,11.5c0,1.3-0.6,2.1-1.7,2.4
	c-1,0.3-2,0-2.7-0.8c-0.5-0.6-0.6-1.3-0.6-2.1c0-3.6,0-7.3,0-10.9c0-3.5-2.7-6.6-6.1-7.1c-3.4-0.5-6.8,1.6-7.9,5
	c-0.2,0.7-0.4,1.4-0.4,2.2c0,3.7-0.1,7.4,0,11c0,1.9-1.4,2.9-2.5,2.9c-1.5,0-2.5-1.2-2.5-2.9c0-6.7,0-13.4,0-20.2
	c0-1.7,0.7-2.7,2.1-3C232.4,15.6,233.5,16.4,234.1,18.1z"/>
<path class="st0" d="M309.3,38.6c0-1.4,0-2.7,0-4.1c0-1.3,0-2.6,0-3.8c0,0,0,0,0,0c0-0.6,0-1.2,0-1.8c0-6.4-4.2-11.7-10.4-12.9
	c-7-1.5-14.3,3.4-15.4,10.3c-1.3,7.7,3.7,14.5,11.2,15.4c3.3,0.4,6.3-0.3,9.1-2.2c0,0,0,0,0,0c0,0,0,0,0,0c0.2-0.1,0.4-0.2,0.5-0.4
	V39c0,0,0,0,0,0c0,0.1,0,0.2,0,0.3c0.1,1.4,1,2.4,2.3,2.4c1.5,0,2.4-0.8,2.6-2.2C309.3,39.1,309.3,38.9,309.3,38.6
	C309.3,38.6,309.3,38.6,309.3,38.6z M296.2,36.7c-4.5,0-8.1-3.6-8.1-8.1c0-4.5,3.6-8.1,8.1-8.1c4.5,0,8.1,3.6,8.1,8.1
	C304.3,33.1,300.7,36.7,296.2,36.7z"/>
</svg>
