<?xml version="1.0" encoding="utf-8"?>
<!-- Generator: Adobe Illustrator 16.0.0, SVG Export Plug-In . SVG Version: 6.00 Build 0)  -->
<!DOCTYPE svg PUBLIC "-//W3C//DTD SVG 1.1//EN" "http://www.w3.org/Graphics/SVG/1.1/DTD/svg11.dtd">
<svg version="1.1" id="Layer_1" xmlns="http://www.w3.org/2000/svg" xmlns:xlink="http://www.w3.org/1999/xlink" x="0px" y="0px"
	 width="150px" height="150px" viewBox="0 0 150 150" enable-background="new 0 0 150 150" xml:space="preserve">
<g>
	<path d="M75.104,127.983c0.757,0,1.505-0.133,2.221-0.393c3.363-1.225,5.103-4.957,3.88-8.321
		c-0.931-2.556-3.382-4.272-6.102-4.272c-0.757,0-1.503,0.131-2.22,0.392c-3.363,1.225-5.104,4.958-3.881,8.322
		C69.934,126.265,72.386,127.983,75.104,127.983z M74.363,119.456c0.239-0.087,0.488-0.131,0.738-0.131
		c0.907,0,1.725,0.572,2.035,1.425c0.408,1.121-0.172,2.364-1.293,2.773c-0.239,0.087-0.489,0.132-0.74,0.132
		c-0.905,0-1.724-0.573-2.034-1.425C72.662,121.108,73.242,119.864,74.363,119.456z"/>
	<path d="M149.802,98.925l-2.961-8.133c-0.299-0.818-0.896-1.475-1.701-1.859c-0.049-0.023-0.097-0.042-0.129-0.054l-0.204-0.08
		c-0.708-0.242-1.483-0.235-2.19,0.021l-6.014,2.187l-20.587-56.568c-0.474-1.295-1.72-2.166-3.099-2.166
		c-0.388,0-0.768,0.067-1.125,0.198c-0.826,0.3-1.487,0.905-1.86,1.704s-0.413,1.695-0.112,2.521l4.795,13.17l-26.539,9.659
		l-0.936,0v0.339l-15.135,5.508L61.43,36.324l12.785-4.653l2.819,7.745c0.472,1.299,1.716,2.172,3.096,2.172
		c0.394,0,0.777-0.069,1.13-0.202l10.845-3.946c0.824-0.299,1.484-0.902,1.86-1.704c0.26-0.556,0.358-1.167,0.287-1.776
		l-0.017-0.125c-0.015-0.081-0.03-0.163-0.062-0.296c-0.025-0.108-0.059-0.215-0.098-0.324l-2.82-7.747l12.782-4.652l2.821,7.747
		c0.476,1.297,1.72,2.168,3.097,2.168c0.392,0,0.774-0.068,1.13-0.2c1.705-0.62,2.589-2.514,1.971-4.226l-3.948-10.848
		c-0.413-1.124-1.404-1.938-2.588-2.125c-0.545-0.085-1.117-0.032-1.638,0.158L56.079,31.256c-0.824,0.299-1.485,0.902-1.861,1.703
		c-0.374,0.801-0.412,1.698-0.11,2.522l24.44,67.156c-0.758-0.14-1.524-0.233-2.296-0.28l-30.99-85.152
		C43.549,12.5,39.029,9.34,34.018,9.34c-1.368,0-2.72,0.236-4.018,0.7L1.429,20.345v0.117c-0.003,0.003-0.007,0.005-0.011,0.008
		l-0.569,0.499c-0.047,0.049-0.088,0.1-0.141,0.168l-0.083,0.106c-0.038,0.053-0.075,0.11-0.096,0.146
		C0.5,21.428,0.474,21.47,0.463,21.49l-0.146,0.273c-0.023,0.048-0.044,0.097-0.082,0.191L0.063,22.54
		c-0.012,0.049-0.021,0.098-0.027,0.139L0,23.19l0.033,0.467c0.007,0.049,0.018,0.099,0.027,0.144l0.036,0.176
		c0.008,0.033,0.018,0.067,0.031,0.111l3.033,8.364c0.029,0.077,0.063,0.149,0.12,0.264l0.092,0.196
		c0.044,0.079,0.094,0.152,0.172,0.266l0.112,0.164c0.066,0.084,0.137,0.161,0.223,0.25l0.114,0.12
		c0.084,0.079,0.174,0.149,0.262,0.215l0.128,0.099c0.108,0.074,0.221,0.138,0.293,0.174l0.134,0.075
		c0.114,0.056,0.234,0.101,0.311,0.126l0.146,0.056c0.126,0.04,0.252,0.067,0.336,0.082l0.146,0.031
		c0.166,0.027,0.337,0.04,0.509,0.04c0.089,0,0.181-0.004,0.34-0.019c0.076-0.008,0.15-0.017,0.223-0.03l0.275-0.06
		c0.025-0.007,0.051-0.014,0.081-0.023l0.183-0.059c0.002,0,0.003-0.001,0.005-0.002l24.691-8.906l29.872,82.07
		c-5.482,5.212-7.429,13.334-4.834,20.466c2.747,7.545,9.985,12.615,18.013,12.615c2.233,0,4.438-0.39,6.553-1.16
		c4.812-1.751,8.652-5.27,10.815-9.909c1.031-2.21,1.624-4.545,1.767-6.952l53.646-19.511c0.085-0.032,0.166-0.065,0.25-0.105
		l0.38-0.218c0.058-0.037,0.113-0.074,0.229-0.165c0.065-0.052,0.132-0.105,0.194-0.163l0.1-0.099
		c0.048-0.048,0.101-0.105,0.173-0.188c0.034-0.041,0.068-0.082,0.102-0.125l0.117-0.163c0.04-0.06,0.083-0.126,0.135-0.216
		c0.047-0.081,0.091-0.165,0.147-0.295l0.086-0.208c0.02-0.05,0.036-0.101,0.063-0.192l0.04-0.14
		c0.021-0.085,0.037-0.171,0.034-0.174l0.029-0.14C150.044,100,149.988,99.444,149.802,98.925z M142.478,98.082l-49.038,17.832
		c-0.101-0.334-0.209-0.659-0.326-0.981c-0.117-0.321-0.243-0.641-0.379-0.958l49.037-17.832L142.478,98.082z M35.911,20.229
		L35.911,20.229L35.911,20.229L35.911,20.229z M63.714,116.179c1.422-3.048,3.938-5.357,7.09-6.504
		c1.391-0.506,2.837-0.763,4.298-0.763c5.267,0,10.015,3.326,11.816,8.278c1.149,3.155,0.999,6.569-0.419,9.613
		c-1.421,3.044-3.94,5.353-7.096,6.501c-1.391,0.506-2.838,0.763-4.299,0.763c-5.266,0-10.014-3.327-11.814-8.278
		C62.143,122.639,62.293,119.226,63.714,116.179z M36.014,20.438L36.014,20.438L36.014,20.438L36.014,20.438z M94.089,76.634
		l10.844-3.947c0.828-0.3,1.489-0.904,1.861-1.703c0.373-0.799,0.413-1.695,0.11-2.522l-2.819-7.746l12.785-4.653l13.538,37.196
		l-41.399,15.055c-0.643-0.677-1.332-1.307-2.06-1.878L74.261,71.57l12.783-4.652l2.819,7.746
		C90.466,76.317,92.352,77.259,94.089,76.634z M94.931,69.312l-1.691-4.649l4.65-1.692l1.692,4.649L94.931,69.312z M39.063,19.46
		l30.462,83.693c-0.334,0.101-0.66,0.21-0.977,0.325c-0.321,0.116-0.641,0.243-0.963,0.381L37.128,20.168
		c-0.018-0.049-0.038-0.097-0.064-0.155l-0.055-0.127c-0.022-0.052-0.05-0.102-0.093-0.18l-0.084-0.147L35.64,19.85
		c-0.005-0.006-0.01-0.012-0.015-0.018l1.196-0.29l-0.069-0.104c-0.032-0.049-0.065-0.098-0.088-0.127l-0.08-0.098
		c-0.046-0.058-0.095-0.115-0.141-0.165l-0.078-0.079c-0.048-0.048-0.095-0.094-0.2-0.185c-0.064-0.055-0.13-0.108-0.234-0.184
		c-0.077-0.054-0.153-0.104-0.248-0.159c-0.436-0.253-0.93-0.404-1.432-0.438l-0.004,0C34.23,18.001,34.214,18,34.197,18
		l-0.172-0.004l-0.211,0.009c-0.087,0.006-0.177,0.014-0.279,0.029l-0.136,0.026c-0.058,0.011-0.114,0.022-0.171,0.036
		c-0.063,0.016-0.128,0.036-0.199,0.059l-24.8,8.94l-0.706-1.939l24.608-8.876l0.121-0.043c0.572-0.201,1.168-0.303,1.769-0.303
		c2.097,0,3.999,1.232,4.87,3.108l1.109-0.269c0.002,0.003,0.003,0.006,0.004,0.01l-1.108,0.271
		C38.958,19.186,39.014,19.321,39.063,19.46z M80.41,29.417l4.65-1.692l1.692,4.649l-4.65,1.692L80.41,29.417z M2.034,21.42
		L2.034,21.42L2.034,21.42L2.034,21.42z"/>
</g>
</svg>
