<?xml version="1.0" encoding="utf-8"?>
<!-- Generator: Adobe Illustrator 16.0.0, SVG Export Plug-In . SVG Version: 6.00 Build 0)  -->
<!DOCTYPE svg PUBLIC "-//W3C//DTD SVG 1.1//EN" "http://www.w3.org/Graphics/SVG/1.1/DTD/svg11.dtd">
<svg version="1.1" id="Layer_1" xmlns="http://www.w3.org/2000/svg" xmlns:xlink="http://www.w3.org/1999/xlink" x="0px" y="0px"
	 width="150px" height="150px" viewBox="0 0 150 150" enable-background="new 0 0 150 150" xml:space="preserve">
<path d="M106.172,76.728c-17.861,0-32.369,14.508-32.369,32.369c0,17.86,14.508,32.369,32.369,32.369s32.368-14.509,32.368-32.369
	C138.54,91.236,124.033,76.728,106.172,76.728z M106.172,133.005c-13.192,0-23.908-10.717-23.908-23.908
	c0-13.192,10.716-23.909,23.908-23.909c13.191,0,23.908,10.717,23.908,23.909C130.08,122.289,119.363,133.005,106.172,133.005z"/>
<path d="M124.174,64.079l-0.039-0.436c-0.001-0.018,0.003-0.036,0.001-0.054l-0.511-5.772c-0.002,0-0.005,0-0.008,0l-2.208-24.871
	c-0.183-2.146-1.992-3.772-4.109-3.772H99.632C99.384,13.037,86.195,0,69.999,0C53.802,0,40.611,13.037,40.368,29.173H22.697
	c-2.146,0-3.925,1.626-4.108,3.772l-8.59,96.716c0,0.123-0.029,0.246-0.029,0.369c0,11.013,10.089,19.97,22.514,19.97h42.674h4.815
	h2.021c2.303,0,4.144-1.841,4.144-4.142s-1.84-4.143-4.144-4.143h-5.796c0,0,0,0,0,0l-43.714,0c-7.791,0-14.109-5.152-14.232-11.501
	l8.221-92.73h13.865V50.06c0,2.303,1.84,4.144,4.142,4.144c2.301,0,4.142-1.84,4.142-4.144V37.485H91.35V50.06
	c0,2.303,1.841,4.144,4.142,4.144s4.143-1.84,4.143-4.144V37.485h13.863l2.01,22.575l0.377,4.261
	c0.203,2.293,2.198,3.965,4.491,3.762c2.125-0.188,3.697-1.922,3.756-4.004C124.145,64.079,124.159,64.079,124.174,64.079z
	 M48.648,29.173c0.246-11.566,9.726-20.89,21.351-20.89c11.627,0,21.104,9.324,21.35,20.89H48.648z"/>
<path d="M108.404,106.049h-4.518c-1.066,0-1.934-0.867-1.934-1.933s0.867-1.933,1.934-1.933h7.989c1.667,0,3.022-1.356,3.022-3.023
	c0-1.667-1.355-3.022-3.022-3.022h-2.691v-1.713c0-1.667-1.355-3.023-3.022-3.023s-3.022,1.356-3.022,3.023v1.75
	c-4.042,0.386-7.214,3.8-7.214,7.942c0,4.399,3.579,7.978,7.978,7.978h4.518c1.066,0,1.934,0.867,1.934,1.933
	c0,1.065-0.867,1.933-1.934,1.933h-8.124c-1.667,0-3.022,1.356-3.022,3.022s1.355,3.022,3.022,3.022h2.843v1.765
	c0,1.667,1.355,3.022,3.022,3.022s3.022-1.356,3.022-3.022v-1.8c4.043-0.385,7.231-3.82,7.231-7.951
	C116.377,109.625,112.783,106.049,108.404,106.049z"/>
</svg>
