<?xml version="1.0" encoding="utf-8"?>
<!-- Generator: Adobe Illustrator 16.0.0, SVG Export Plug-In . SVG Version: 6.00 Build 0)  -->
<!DOCTYPE svg PUBLIC "-//W3C//DTD SVG 1.1//EN" "http://www.w3.org/Graphics/SVG/1.1/DTD/svg11.dtd">
<svg version="1.1" id="Layer_1" xmlns="http://www.w3.org/2000/svg" xmlns:xlink="http://www.w3.org/1999/xlink" x="0px" y="0px"
	 width="150px" height="150px" viewBox="0 0 150 150" enable-background="new 0 0 150 150" xml:space="preserve">
<g>
	<g>
		<g>
			<path d="M102.201,47.974c0.017,0.057,0.028,0.085,0.045,0.147c0.611,2.136,2.811,3.425,4.999,2.892
				c2.25-0.552,3.596-2.802,3.044-5.042l-4.3-17.406c1.337,0.93,2.606,1.919,3.848,2.942c0.147-0.457,0.348-0.896,0.657-1.287
				c0.67-0.852,1.389-1.688,1.945-2.619c0.009-0.019,0.012-0.023,0.019-0.04c0.091-0.2,0.176-0.402,0.25-0.611
				c0.045-0.15,0.073-0.243,0.093-0.307c0.035-0.219,0.071-0.44,0.095-0.659c0.091-0.766,0.366-1.462,0.759-2.085
				c-0.944-0.723-1.872-1.462-2.852-2.143l16.569-4.088c2.247-0.549,3.591-2.797,3.039-5.044c-0.542-2.221-2.794-3.593-5.049-3.042
				l-26.417,6.535l-0.029,0.007c-0.057,0.017-0.085,0.021-0.147,0.043l-0.297,0.085c-2.164,0.618-3.425,2.813-2.89,5.004
				L102.201,47.974z"/>
			<path d="M131.505,41.131c-5.619-8.179-12.799-14.864-21.04-19.832c-0.257,1.855-0.806,3.651-1.579,5.492
				c-0.39,0.937-1.013,1.719-1.778,2.283c20.186,12.745,31.716,36.889,27.1,61.784c-4.017,21.704-19.59,39.407-40.577,46.247
				c-2.179,0.692-3.37,3.054-2.676,5.237c0.1,0.335,0.233,0.616,0.409,0.906c0.987,1.598,2.954,2.378,4.823,1.769
				c23.901-7.762,41.604-27.939,46.199-52.64C145.739,74.413,141.867,56.19,131.505,41.131z"/>
			<path d="M56.919,17.042c-0.691-2.181-3.054-3.368-5.234-2.675C41.499,17.68,32.459,23.25,25.067,30.446
				c2.341,1.512,5.035,4.844,7.007,6.756c6.414-6.117,13.779-11.708,22.521-14.545C56.779,21.965,57.611,19.228,56.919,17.042z"/>
		</g>
	</g>
	<path d="M76.275,84.767c2.393,0,4.305-1.917,4.305-4.309V4.307C80.58,1.915,78.668,0,76.275,0c-2.396,0-4.309,1.915-4.309,4.307
		v76.118C71.967,82.819,73.879,84.767,76.275,84.767z"/>
	<g>
		<path d="M100.967,19.535c-3.38,2.184-3.439,4.295,2.29,7.975c14.278,9.166,28.498,27.58,30.475,46.404
			c3.458,32.941-20.526,62.555-53.47,66.012c-32.943,3.46-62.557-20.526-66.015-53.467C12.102,66.029,20.516,46.887,35.07,34.46
			c-0.882-1.26-1.736-2.544-2.53-3.883c-0.875-1.484-1.65-3.063-2.411-4.657C12.38,40.311,1.999,63.104,4.558,87.476
			c4.02,38.285,38.438,66.16,76.722,62.138c38.285-4.019,66.16-38.437,62.139-76.719C140.476,44.868,126.085,27.975,100.967,19.535z
			"/>
	</g>
</g>
</svg>
