<?xml version="1.0" encoding="utf-8"?>
<!-- Generator: Adobe Illustrator 16.0.0, SVG Export Plug-In . SVG Version: 6.00 Build 0)  -->
<!DOCTYPE svg PUBLIC "-//W3C//DTD SVG 1.1//EN" "http://www.w3.org/Graphics/SVG/1.1/DTD/svg11.dtd">
<svg version="1.1" id="Layer_1" xmlns="http://www.w3.org/2000/svg" xmlns:xlink="http://www.w3.org/1999/xlink" x="0px" y="0px"
	 width="150px" height="150px" viewBox="0 0 150 150" enable-background="new 0 0 150 150" xml:space="preserve">
<g>
	<g>
		<path fill="#010101" d="M110.879,53.657L80.731,27.259c-1.599-1.383-3.626-2.151-5.747-2.151c-2.12,0-4.148,0.769-5.746,2.151
			l-10.695,9.373c-0.614-2.274-0.952-4.671-0.952-7.16c0-6.023,1.905-11.678,5.347-15.888c3.258-3.995,7.561-6.208,12.047-6.208
			c9.588,0,17.395,9.896,17.395,22.096c0,2.028,1.659,3.688,3.688,3.688l0,0c2.028,0,3.688-1.66,3.688-3.688
			C99.754,13.214,88.629,0,74.984,0c-6.761,0-13.061,3.166-17.763,8.912c-4.517,5.532-7.007,12.815-7.007,20.56
			c0,4.364,0.799,8.574,2.305,12.446l-13.398,11.74c-3.35,2.95-5.285,7.191-5.285,11.647V131.5c0,10.203,8.297,18.5,18.5,18.5
			h45.328c10.203,0,18.5-8.297,18.5-18.5V65.304C116.164,60.848,114.229,56.607,110.879,53.657z M108.789,131.5
			c0,6.146-4.979,11.125-11.125,11.125H52.305c-6.146,0-11.125-4.979-11.125-11.125V65.304c0-2.335,1.015-4.579,2.766-6.116
			l12.14-10.633c0.368,0.492,0.737,0.983,1.106,1.475c4.701,5.747,11.002,8.912,17.763,8.912l0,0c2.028,0,3.688-1.66,3.688-3.688
			s-1.659-3.688-3.688-3.688c-4.518,0-8.79-2.213-12.047-6.208c-0.431-0.553-0.86-1.106-1.261-1.69l12.416-10.879
			c0.308-0.277,0.646-0.338,0.892-0.338c0.245,0,0.583,0.062,0.892,0.338l30.146,26.398c1.752,1.537,2.766,3.78,2.766,6.116V131.5
			H108.789z"/>
		<path fill="#010101" d="M79.041,93.27h-8.113c-2.857,0-5.193-2.336-5.193-5.193s2.336-5.193,5.193-5.193h14.291
			c2.027,0,3.688-1.66,3.688-3.688c0-2.029-1.66-3.688-3.688-3.688h-6.547v-4.794c0-2.028-1.659-3.688-3.688-3.688
			c-2.027,0-3.688,1.659-3.688,3.688v4.794h-0.369c-6.945,0-12.568,5.655-12.568,12.569c0,6.945,5.654,12.569,12.568,12.569h8.113
			c2.858,0,5.193,2.335,5.193,5.193s-2.335,5.194-5.193,5.194H64.475c-2.028,0-3.688,1.658-3.688,3.688
			c0,2.027,1.659,3.688,3.688,3.688h6.822v4.887c0,2.027,1.66,3.688,3.688,3.688c2.028,0,3.688-1.66,3.688-3.688v-4.887h0.431
			c0.03,0,0.062,0,0.093,0c6.853-0.092,12.415-5.686,12.415-12.569C91.61,98.894,85.955,93.27,79.041,93.27z"/>
	</g>
</g>
</svg>
