<?xml version="1.0" encoding="utf-8"?>
<!-- Generator: Adobe Illustrator 16.0.0, SVG Export Plug-In . SVG Version: 6.00 Build 0)  -->
<!DOCTYPE svg PUBLIC "-//W3C//DTD SVG 1.1//EN" "http://www.w3.org/Graphics/SVG/1.1/DTD/svg11.dtd">
<svg version="1.1" id="Layer_1" xmlns="http://www.w3.org/2000/svg" xmlns:xlink="http://www.w3.org/1999/xlink" x="0px" y="0px"
	 width="150px" height="150px" viewBox="0 0 150 150" enable-background="new 0 0 150 150" xml:space="preserve">
<g>
	<g>
		<path d="M80.052,94.146h-8.576c-3.119,0-5.645-2.523-5.645-5.642s2.525-5.645,5.645-5.645h15.093c2.06,0,3.742-1.685,3.742-3.742
			c0-2.06-1.683-3.742-3.742-3.742H79.49v-5.209c0-2.057-1.685-3.742-3.742-3.742s-3.742,1.685-3.742,3.742v5.209h-0.53
			c-7.234,0-13.129,5.893-13.129,13.129c0,7.234,5.895,13.127,13.129,13.127h8.576c3.118,0,5.645,2.528,5.645,5.646
			c0,3.116-2.526,5.642-5.645,5.642H64.677c-2.058,0-3.74,1.685-3.74,3.742c0,2.06,1.683,3.742,3.74,3.742h7.36v5.334
			c0,2.058,1.685,3.742,3.742,3.742s3.742-1.685,3.742-3.742v-5.334h0.623c0.031,0,0.062,0,0.094,0
			c7.174-0.093,12.942-5.955,12.942-13.126C93.181,100.042,87.288,94.146,80.052,94.146z"/>
		<path d="M132.006,85.665c-3.929-9.042-9.355-17.806-16.217-26.007c-8.294-9.979-16.558-16.654-20.769-19.741l15.903-29.5
			c0.781-1.465,0.53-3.274-0.686-4.428C106.123,1.964,101.757,0,96.892,0c-4.459,0-8.545,1.685-12.099,3.181
			c-2.808,1.154-5.458,2.277-7.611,2.277c-0.654,0-1.214-0.093-1.775-0.311C67.983,2.433,62.277,0.75,56.757,0.75
			c-6.984,0-12.942,2.806-18.773,8.794c-1.216,1.247-1.402,3.211-0.437,4.676l17.152,25.914c-4.241,3.149-12.35,9.762-20.488,19.523
			c-6.83,8.201-12.288,16.964-16.217,26.007c-4.928,11.382-7.422,23.264-7.422,35.3c0,15.999,13.035,29.035,29.034,29.035h70.787
			c15.999,0,29.034-13.036,29.034-29.035C139.428,108.929,136.934,97.047,132.006,85.665z M45.53,12.661
			c3.618-3.116,7.078-4.49,11.227-4.49c4.429,0,9.418,1.498,16.062,3.962c1.371,0.497,2.836,0.748,4.332,0.748
			c3.649,0,7.143-1.434,10.479-2.839c3.211-1.341,6.268-2.619,9.23-2.619c1.435,0,3.461,0.251,6.018,2.058L87.911,37.298H61.84
			L45.53,12.661z M110.394,142.516H39.606c-11.882,0-21.55-9.668-21.55-21.55c0-19.989,7.329-38.949,21.736-56.351
			c9.104-11.007,18.367-17.837,21.175-19.832H88.97c2.839,1.964,12.07,8.825,21.175,19.832
			c14.438,17.401,21.737,36.33,21.737,56.351C131.943,132.847,122.275,142.516,110.394,142.516z"/>
	</g>
</g>
</svg>
