<?xml version="1.0" encoding="utf-8"?>
<!-- Generator: Adobe Illustrator 16.0.0, SVG Export Plug-In . SVG Version: 6.00 Build 0)  -->
<!DOCTYPE svg PUBLIC "-//W3C//DTD SVG 1.1//EN" "http://www.w3.org/Graphics/SVG/1.1/DTD/svg11.dtd">
<svg version="1.1" id="Layer_1" xmlns="http://www.w3.org/2000/svg" xmlns:xlink="http://www.w3.org/1999/xlink" x="0px" y="0px"
	 width="150px" height="150px" viewBox="0 0 150 150" enable-background="new 0 0 150 150" xml:space="preserve">
<g>
	<path fill="#010101" d="M146.563,139.538v-7.977c0-8.13-3.805-15.954-10.155-20.894c-14.788-11.475-29.853-19.482-35.13-22.151
		v-9.112c1.074-2.393,1.964-5.001,2.639-7.824c3.927-1.412,6.075-7.18,7.517-12.272c1.934-6.781,1.719-11.536-0.552-14.175
		c2.393-13.04,1.319-22.643-3.16-28.564c-2.362-3.099-5.124-4.418-6.965-5.001c-1.319-1.841-3.988-4.94-8.499-7.425
		C87.595,1.381,82.348,0,76.58,0c-1.043,0-2.086,0.062-3.007,0.123c-2.577,0.123-5.124,0.614-7.64,1.442
		c-0.03,0-0.062,0.03-0.092,0.03c-2.762,0.951-5.461,2.332-8.069,4.111c-2.976,1.902-5.707,4.173-8.069,6.688
		c-4.633,4.756-7.701,10.125-9.02,15.862c-1.259,4.755-1.351,9.542-0.308,14.236c-0.552,0.399-1.043,0.859-1.473,1.412
		c-2.116,2.792-2.209,7.179-0.337,13.837c1.288,4.603,3.007,9.296,5.921,11.414c0.859,4.418,2.302,8.438,4.234,11.996v7.395
		c-5.277,2.669-20.342,10.646-35.13,22.152c-6.351,4.939-10.155,12.732-10.155,20.894v7.977c0,5.768,4.694,10.432,10.432,10.432
		h122.264C141.869,150,146.563,145.306,146.563,139.538z M10.923,139.538v-7.977c0-5.829,2.699-11.413,7.24-14.941
		c15.954-12.365,32.185-20.526,35.283-22.029c1.719-0.828,2.792-2.546,2.792-4.479v-9.971c0-0.675-0.184-1.319-0.521-1.902
		c-2.024-3.436-3.437-7.547-4.142-12.242c-0.246-1.503-1.351-2.7-2.792-3.068c-0.399-0.46-1.534-2.117-2.977-7.241
		c-1.196-4.234-1.104-6.197-0.981-6.903c1.196,0.061,2.393-0.491,3.16-1.442c0.798-1.012,1.013-2.362,0.583-3.559
		c-1.596-4.449-1.779-9.02-0.553-13.684c1.044-4.479,3.437-8.652,7.149-12.457c1.994-2.147,4.295-4.019,6.75-5.584
		c0.03-0.031,0.092-0.062,0.122-0.092c2.056-1.442,4.203-2.516,6.32-3.252c0.03,0,0.062-0.031,0.062-0.031
		c1.811-0.613,3.682-0.951,5.646-1.043c5.369-0.46,10.186,0.552,14.45,3.038c4.664,2.577,6.566,5.952,6.566,5.952
		c0.583,1.197,1.626,1.902,2.976,1.995c0.092,0,2.087,0.307,3.805,2.73c1.811,2.577,4.388,9.205,1.166,24.667
		c-0.368,1.718,0.521,3.437,2.086,4.173c0.153,0.552,0.399,2.424-0.92,7.087c-1.166,4.111-2.117,5.983-2.67,6.811
		c-0.705-0.123-1.441-0.062-2.116,0.246c-1.166,0.491-2.025,1.564-2.24,2.792c-0.645,3.682-1.688,6.995-3.037,9.818
		c-0.246,0.521-0.368,1.074-0.368,1.626V90.11c0,1.933,1.073,3.621,2.792,4.479c3.099,1.503,19.329,9.695,35.252,22.029
		c4.541,3.528,7.241,9.112,7.241,14.941v7.977c0,1.595-1.319,2.915-2.915,2.915H13.868
		C12.242,142.483,10.923,141.164,10.923,139.538z"/>
</g>
</svg>
