<?xml version="1.0" encoding="utf-8"?>
<!-- Generator: Adobe Illustrator 16.0.0, SVG Export Plug-In . SVG Version: 6.00 Build 0)  -->
<!DOCTYPE svg PUBLIC "-//W3C//DTD SVG 1.1//EN" "http://www.w3.org/Graphics/SVG/1.1/DTD/svg11.dtd">
<svg version="1.1" id="Layer_1" xmlns="http://www.w3.org/2000/svg" xmlns:xlink="http://www.w3.org/1999/xlink" x="0px" y="0px"
	 width="150px" height="150px" viewBox="0 0 150 150" enable-background="new 0 0 150 150" xml:space="preserve">
<g>
	<path fill="#010101" d="M51.562,31.06c1.617,0,2.93-1.312,2.93-2.93s-1.312-2.93-2.93-2.93s-2.93,1.312-2.93,2.93
		S49.945,31.06,51.562,31.06z"/>
	<path fill="#010101" d="M28.125,42.778c-1.615,0-2.93-1.314-2.93-2.93s1.314-2.93,2.93-2.93c1.038,0,2.133,0.53,3.169,1.531
		c1.163,1.125,3.018,1.094,4.143-0.067c1.125-1.164,1.095-3.018-0.068-4.143c-1.487-1.439-2.975-2.253-4.313-2.697V28.13
		c0-1.618-1.312-2.93-2.93-2.93s-2.93,1.312-2.93,2.93v3.433c-3.41,1.21-5.859,4.467-5.859,8.286c0,4.847,3.942,8.789,8.789,8.789
		c1.615,0,2.93,1.314,2.93,2.93s-1.314,2.93-2.93,2.93c-1.252,0-2.604-0.787-3.805-2.216c-1.041-1.239-2.889-1.399-4.127-0.358
		c-1.24,1.042-1.398,2.89-0.358,4.128c1.566,1.863,3.408,3.162,5.36,3.815v3.419c0,1.618,1.312,2.93,2.93,2.93s2.93-1.312,2.93-2.93
		v-3.433c3.409-1.21,5.859-4.467,5.859-8.286C36.914,46.721,32.972,42.778,28.125,42.778z"/>
	<path fill="#010101" d="M67.969,107.231c-6.461,0-11.719,5.258-11.719,11.719s5.258,11.719,11.719,11.719
		s11.719-5.258,11.719-11.719S74.43,107.231,67.969,107.231z M67.969,124.81c-3.23,0-5.859-2.629-5.859-5.859
		s2.629-5.859,5.859-5.859s5.859,2.629,5.859,5.859S71.199,124.81,67.969,124.81z"/>
	<path fill="#010101" d="M126.562,130.669c6.461,0,11.719-5.258,11.719-11.719s-5.258-11.719-11.719-11.719
		s-11.719,5.258-11.719,11.719S120.102,130.669,126.562,130.669z M126.562,113.091c3.23,0,5.859,2.629,5.859,5.859
		s-2.629,5.859-5.859,5.859s-5.859-2.629-5.859-5.859S123.332,113.091,126.562,113.091z"/>
	<path fill="#010101" d="M141.211,7.622H8.789C3.942,7.622,0,11.564,0,16.411v58.594c0,4.847,3.942,8.789,8.789,8.789h72.119
		l-5.602,8c-1.666,2.38-4.252,3.785-6.904,3.722c-11.952-0.191-21.391,8.268-23.422,18.792c-1.501,7.767,0.898,15.698,6.415,21.215
		c5.533,5.532,13.472,7.911,21.218,6.415c9.086-1.754,16.435-9.014,18.288-18.064c0.597-2.913,0.665-5.836,0.204-8.687
		c-0.306-1.888-0.325-4.63,1.312-6.97l4.849-6.924l4.848,6.923c1.638,2.341,1.617,5.083,1.312,6.97
		c-0.461,2.852-0.393,5.774,0.204,8.688c1.853,9.051,9.202,16.311,18.288,18.064c1.523,0.295,3.054,0.439,4.571,0.439
		c6.216,0,12.21-2.42,16.644-6.854c5.518-5.516,7.916-13.447,6.418-21.217c-2.033-10.532-11.503-19.007-23.428-18.792
		c-2.641,0.048-5.232-1.341-6.899-3.723l-5.603-8h27.59c4.847,0,8.789-3.944,8.789-8.789V16.411
		C150,11.564,146.058,7.622,141.211,7.622z M87.617,104.858c-2.156,3.082-2.973,7.082-2.297,11.264
		c0.348,2.148,0.294,4.361-0.159,6.576c-1.362,6.651-6.979,12.198-13.658,13.488c-5.944,1.146-11.763-0.604-15.965-4.807
		c-4.201-4.201-5.952-10.019-4.806-15.961c1.482-7.678,8.539-14.193,17.564-14.045c4.612,0.088,9.023-2.239,11.81-6.22
		c3.935-5.619,30.596-43.693,34.036-48.607c4.729,4.991,5.398,12.732,1.366,18.481C113.452,67.964,87.617,104.858,87.617,104.858z
		 M125.98,101.376c9.904,0,16.41,6.75,17.818,14.043c1.145,5.942-0.607,11.762-4.809,15.963c-4.201,4.2-10.019,5.951-15.962,4.805
		c-6.68-1.29-12.296-6.837-13.658-13.487c-0.453-2.216-0.507-4.429-0.159-6.578c0.676-4.181-0.141-8.181-2.297-11.265l-6.072-8.67
		l7.152-10.214l6.43,9.181C117.16,99.064,121.467,101.376,125.98,101.376z M144.141,75.005c0,1.616-1.314,2.93-2.93,2.93h-27.587
		l6.683-9.543c0.49-0.7,0.93-1.427,1.326-2.176h7.859c1.618,0,2.93-1.312,2.93-2.93s-1.312-2.93-2.93-2.93h-5.813
		c0.934-5.077-0.104-10.321-2.816-14.648h8.63c1.618,0,2.93-1.312,2.93-2.93s-1.312-2.93-2.93-2.93h-14.186
		c-0.011-0.008-0.021-0.016-0.031-0.023c-0.637-0.446-1.425-0.622-2.19-0.486s-1.446,0.568-1.892,1.205l-26.182,37.39H8.789
		c-1.615,0-2.93-1.314-2.93-2.93V16.411c0-1.616,1.314-2.93,2.93-2.93h82.617v2.93c0,1.618,1.312,2.93,2.93,2.93
		s2.93-1.312,2.93-2.93v-2.93h43.945c1.615,0,2.93,1.314,2.93,2.93V75.005z"/>
	<path fill="#010101" d="M94.336,25.2c-1.618,0-2.93,1.312-2.93,2.93v5.859c0,1.618,1.312,2.93,2.93,2.93s2.93-1.312,2.93-2.93
		V28.13C97.266,26.512,95.954,25.2,94.336,25.2z"/>
	<path fill="#010101" d="M94.336,42.778c-1.618,0-2.93,1.312-2.93,2.93v5.859c0,1.618,1.312,2.93,2.93,2.93s2.93-1.312,2.93-2.93
		v-5.859C97.266,44.09,95.954,42.778,94.336,42.778z"/>
	<path fill="#010101" d="M76.758,60.356H51.562c-1.618,0-2.93,1.312-2.93,2.93s1.312,2.93,2.93,2.93h25.195
		c1.618,0,2.93-1.312,2.93-2.93S78.376,60.356,76.758,60.356z"/>
	<path fill="#010101" d="M76.758,42.778H51.562c-1.618,0-2.93,1.312-2.93,2.93s1.312,2.93,2.93,2.93h25.195
		c1.618,0,2.93-1.312,2.93-2.93S78.376,42.778,76.758,42.778z"/>
	<path fill="#010101" d="M129.492,25.2h-17.578c-1.618,0-2.93,1.312-2.93,2.93s1.312,2.93,2.93,2.93h17.578
		c1.618,0,2.93-1.312,2.93-2.93S131.11,25.2,129.492,25.2z"/>
	<path fill="#010101" d="M76.758,25.2H63.281c-1.618,0-2.93,1.312-2.93,2.93s1.312,2.93,2.93,2.93h13.477
		c1.618,0,2.93-1.312,2.93-2.93S78.376,25.2,76.758,25.2z"/>
</g>
</svg>
