<?xml version="1.0" encoding="utf-8"?>
<!-- Generator: Adobe Illustrator 16.0.0, SVG Export Plug-In . SVG Version: 6.00 Build 0)  -->
<!DOCTYPE svg PUBLIC "-//W3C//DTD SVG 1.1//EN" "http://www.w3.org/Graphics/SVG/1.1/DTD/svg11.dtd">
<svg version="1.1" id="Layer_1" xmlns="http://www.w3.org/2000/svg" xmlns:xlink="http://www.w3.org/1999/xlink" x="0px" y="0px"
	 width="150px" height="150px" viewBox="0 0 150 150" enable-background="new 0 0 150 150" xml:space="preserve">
<g>
	<g>
		<path fill="#010101" d="M118.107,4.348H31.922c-8.631,0-15.64,7.007-15.64,15.639v71.342l-9.887-9.886
			c-1.468-1.468-3.824-1.468-5.294,0c-1.469,1.468-1.469,3.826,0,5.294l16.312,16.313c0.734,0.735,1.684,1.103,2.662,1.103
			s1.928-0.367,2.663-1.103l16.313-16.313c1.468-1.468,1.468-3.826,0-5.294c-1.471-1.468-3.826-1.468-5.297,0l-9.916,9.917V19.986
			c0-4.5,3.644-8.142,8.142-8.142h86.157c4.498,0,8.14,3.642,8.14,8.142v10.406c0,2.081,1.685,3.763,3.767,3.763
			c2.08,0,3.763-1.682,3.763-3.763V19.986C133.717,11.387,126.707,4.348,118.107,4.348z"/>
		<path fill="#010101" d="M127.321,46.98l-16.313,16.313c-1.471,1.468-1.471,3.824,0,5.294c0.735,0.735,1.683,1.1,2.664,1.1
			c0.979,0,1.928-0.365,2.662-1.1l9.916-9.917v71.343c0,4.498-3.644,8.14-8.143,8.14H31.922c-4.498,0-8.143-3.642-8.143-8.14
			v-10.408c0-2.079-1.682-3.763-3.763-3.763s-3.767,1.685-3.767,3.763v10.408c0,8.631,7.01,15.639,15.643,15.639h86.154
			c8.631,0,15.639-7.007,15.639-15.639V58.671l9.917,9.917c1.47,1.47,3.825,1.47,5.294,0c1.471-1.47,1.471-3.826,0-5.294
			l-16.311-16.313C131.237,45.572,128.728,45.572,127.321,46.98z"/>
	</g>
</g>
<path d="M104.348,57.042c-0.039-0.12-0.086-0.237-0.141-0.352c-0.366-0.781-1.061-1.368-1.884-1.603L76.287,42.458
	c-0.82-0.4-1.835-0.401-2.661-0.001L47.204,55.264c-1.016,0.482-1.678,1.487-1.729,2.623l-0.002,32.286
	c0,1.167,0.68,2.244,1.72,2.738l26.212,12.705l0.071,0.076l0.258,0.085l0.252,0.161h0.145l0.144,0.064l0.688,0.039
	c0.062,0,0.169,0,0.299-0.015c0.073-0.004,0.147-0.013,0.223-0.027l0.18-0.003l0.265-0.116l0.305-0.006l0.268-0.248l26.313-12.755
	c1.041-0.509,1.714-1.583,1.714-2.737V57.135L104.348,57.042z M51.557,88.257V62.895l20.35,9.867v25.362L51.557,88.257z
	 M77.992,72.761l7.962-3.864v5.11c0,1.677,1.364,3.042,3.042,3.042s3.042-1.365,3.042-3.042v-8.069l6.382-3.094v25.363
	l-20.428,9.917V72.761z M69.942,51.002l5.008-2.432l19.49,9.45l-5.009,2.432L69.942,51.002z M82.46,63.829l-7.51,3.641L55.461,58.02
	l7.512-3.641L82.46,63.829z"/>
</svg>
