<?xml version="1.0" encoding="utf-8"?>
<!-- Generator: Adobe Illustrator 16.0.0, SVG Export Plug-In . SVG Version: 6.00 Build 0)  -->
<!DOCTYPE svg PUBLIC "-//W3C//DTD SVG 1.1//EN" "http://www.w3.org/Graphics/SVG/1.1/DTD/svg11.dtd">
<svg version="1.1" id="Layer_1" xmlns="http://www.w3.org/2000/svg" xmlns:xlink="http://www.w3.org/1999/xlink" x="0px" y="0px"
	 width="150px" height="150px" viewBox="0 0 150 150" enable-background="new 0 0 150 150" xml:space="preserve">
<g>
	<path d="M76.844,88.077h-7.258c-0.427-1.24-0.935-2.459-1.515-3.634l5.169-5.168c1.24-1.246,1.24-3.275-0.001-4.523l-9.759-9.757
		c-1.209-1.203-3.312-1.204-4.522,0.001l-5.17,5.17c-1.148-0.552-2.34-1.035-3.55-1.439v-7.255c0-1.769-1.438-3.208-3.207-3.208
		H33.155c-1.768,0-3.207,1.439-3.207,3.208v7.56c-1.156,0.409-2.294,0.888-3.39,1.43l-5.385-5.357
		c-1.21-1.203-3.311-1.204-4.523,0.001l-9.73,9.729c-1.239,1.247-1.239,3.276,0.001,4.523l5.439,5.439
		c-0.52,1.062-0.981,2.163-1.376,3.28H3.207C1.438,88.077,0,89.515,0,91.284v13.795c0,1.768,1.438,3.207,3.207,3.207h7.772
		c0.386,1.134,0.842,2.253,1.358,3.334l-5.418,5.494c-1.24,1.247-1.24,3.276,0.001,4.523l9.759,9.758
		c1.209,1.202,3.31,1.203,4.522-0.001l5.357-5.357c1.1,0.543,2.236,1.022,3.389,1.43v7.561c0,1.769,1.439,3.206,3.207,3.206H46.95
		c1.768,0,3.207-1.438,3.207-3.206v-7.392c1.211-0.406,2.402-0.889,3.549-1.439l5.172,5.172c1.209,1.202,3.31,1.203,4.522-0.001
		l9.758-9.758c1.24-1.247,1.24-3.275-0.001-4.522l-5.167-5.167c0.58-1.175,1.088-2.394,1.514-3.634h7.26
		c1.769,0,3.207-1.439,3.207-3.207V91.284C79.971,89.538,78.604,88.128,76.844,88.077z M64.004,104.282
		c-0.564,2.294-1.458,4.493-2.654,6.531c-0.757,1.262-0.559,2.871,0.481,3.913l4.553,4.553l-5.231,5.208l-4.607-4.607
		c-1.003-1.009-2.645-1.23-3.885-0.514c-2.03,1.195-4.22,2.089-6.506,2.657c-1.456,0.359-2.48,1.708-2.438,3.192v6.604h-7.354
		v-6.697c0.047-1.511-0.942-2.83-2.404-3.206c-2.231-0.58-4.367-1.474-6.348-2.656c-1.233-0.738-2.897-0.531-3.912,0.481l-4.801,4.8
		l-5.206-5.157l4.772-4.848c1.031-1.026,1.242-2.621,0.509-3.887c-1.176-1.966-2.07-4.084-2.655-6.292
		c-0.364-1.416-1.639-2.405-3.188-2.405c-0.001,0-0.002,0-0.003,0H6.469V94.49l6.989,0.002c1.463,0,2.739-0.99,3.103-2.403
		c0.59-2.215,1.484-4.333,2.68-6.337c0.623-1.303,0.294-2.872-0.772-3.787l-4.777-4.853l5.235-5.21l4.799,4.8
		c1.015,1.013,2.682,1.217,3.911,0.481c1.985-1.181,4.121-2.074,6.354-2.658c1.447-0.388,2.423-1.706,2.373-3.189v-6.658h7.381v6.59
		c-0.044,1.498,0.981,2.847,2.438,3.207c2.285,0.567,4.475,1.461,6.51,2.657c1.232,0.715,2.877,0.496,3.881-0.513l4.609-4.635
		l5.231,5.207l-4.582,4.581c-1.039,1.041-1.237,2.65-0.482,3.909c1.196,2.035,2.091,4.233,2.657,6.539
		c0.365,1.416,1.64,2.405,3.188,2.405c0.001,0,0.002,0,0.003,0h6.441v7.246l-6.528-0.002C65.646,101.87,64.37,102.86,64.004,104.282
		z"/>
	<path d="M40.065,82.657c-8.643,0-15.674,7.031-15.674,15.674s7.031,15.674,15.674,15.674c8.644,0,15.675-7.031,15.675-15.675
		C55.726,89.702,48.693,82.671,40.065,82.657z M39.631,107.58c-4.904-0.229-8.824-4.29-8.824-9.25c0-5.106,4.153-9.26,9.259-9.26
		c5.107,0,9.262,4.153,9.262,9.256c-0.043,5.063-4.197,9.183-9.262,9.183L39.631,107.58z"/>
	<path d="M149.94,50.66l-2.958-13.499c-0.374-1.681-2.121-2.808-3.816-2.438l-7.083,1.552c-0.705-1.12-1.487-2.199-2.329-3.217
		l4.029-6.146c0.95-1.484,0.519-3.47-0.964-4.425l-11.654-7.508c-0.519-0.332-1.116-0.508-1.729-0.508
		c-1.095,0-2.103,0.55-2.696,1.47l-3.983,6.207c-1.241-0.295-2.511-0.514-3.782-0.65l-1.577-7.242
		c-0.338-1.466-1.621-2.488-3.123-2.488c-0.24,0-0.483,0.027-0.715,0.08l-13.666,2.983c-1.721,0.383-2.815,2.095-2.435,3.829
		l1.81,7.344c-1.044,0.645-2.055,1.354-3.014,2.117l-6.393-4.09c-0.519-0.332-1.116-0.508-1.729-0.508
		c-1.096,0-2.104,0.55-2.696,1.469L71.9,36.621c-0.951,1.484-0.52,3.47,0.963,4.426l6.478,4.146
		c-0.274,1.163-0.482,2.351-0.62,3.538l-7.54,1.657c-1.721,0.384-2.813,2.096-2.437,3.816l2.954,13.554
		c0.323,1.455,1.639,2.512,3.128,2.512c0.23,0,0.462-0.025,0.688-0.074l7.553-1.636c0.669,1.005,1.402,1.979,2.186,2.9l-4.138,6.465
		c-0.951,1.484-0.52,3.47,0.964,4.426l11.601,7.453c0.518,0.332,1.115,0.508,1.728,0.508c1.096,0,2.104-0.55,2.698-1.472
		l4.089-6.392c1.188,0.294,2.403,0.518,3.62,0.668l1.604,7.377c0.315,1.469,1.634,2.534,3.136,2.534l0.629-0.001l13.704-2.95
		c1.628-0.524,2.558-2.229,2.122-3.858l-1.577-7.237c1.091-0.653,2.149-1.377,3.153-2.157l6.289,4.037
		c0.518,0.331,1.115,0.507,1.729,0.507c1.096,0,2.104-0.549,2.697-1.47l7.447-11.619c0.478-0.712,0.648-1.566,0.481-2.406
		c-0.166-0.841-0.649-1.566-1.356-2.039l-6.23-3.997c0.314-1.269,0.548-2.565,0.698-3.865l7.066-1.548
		C149.142,54.085,150.278,52.398,149.94,50.66z M100.771,75.555h-0.023c-1.094,0.002-2.101,0.554-2.692,1.475l-3.661,5.708
		l-6.222-3.996l3.537-5.811c0.788-1.231,0.643-2.84-0.353-3.91c-1.545-1.677-2.85-3.562-3.877-5.604
		c-0.649-1.302-2.137-2.013-3.559-1.7l-6.726,1.467l-1.575-7.161l6.722-1.466c1.436-0.307,2.478-1.546,2.533-2.996
		c0.167-2.309,0.659-4.579,1.467-6.768c0.45-1.384-0.091-2.9-1.315-3.688l-5.761-3.689l3.988-6.209l5.543,3.577
		c1.211,0.786,2.895,0.634,3.945-0.354c1.68-1.588,3.575-2.929,5.631-3.984c1.289-0.663,1.975-2.113,1.668-3.529l-1.438-6.562
		l7.159-1.575l1.411,6.45c0.314,1.469,1.632,2.534,3.181,2.534c0.001,0,0.002,0,0.002,0c2.353,0.062,4.676,0.465,6.907,1.195
		c1.367,0.444,2.914-0.11,3.688-1.315l3.525-5.49l6.211,3.989l-3.498,5.438c-0.8,1.25-0.642,2.872,0.376,3.936
		c1.584,1.737,2.907,3.693,3.934,5.822c0.65,1.302,2.144,2.014,3.558,1.7l6.293-1.359l1.576,7.171l-6.234,1.484
		c-1.422,0.304-2.464,1.529-2.535,2.988c-0.08,2.378-0.509,4.729-1.273,6.987c-0.469,1.397,0.072,2.928,1.313,3.721l5.436,3.472
		l-3.989,6.21l-5.49-3.526c-1.201-0.77-2.869-0.618-3.911,0.351c-1.734,1.594-3.683,2.925-5.789,3.957
		c-1.332,0.648-2.044,2.112-1.731,3.562l1.411,6.453l-7.16,1.576l-1.438-6.559c-0.304-1.422-1.531-2.464-2.984-2.534
		c-2.308-0.102-4.587-0.53-6.778-1.276C101.448,75.609,101.111,75.555,100.771,75.555z M100.771,76.052L100.771,76.052
		L100.771,76.052L100.771,76.052z M110.554,92.527C110.554,92.527,110.554,92.527,110.554,92.527v0.004V92.527z"/>
	<path d="M109.388,68.092c8.64,0,15.672-7.028,15.675-15.668c0-1.118-0.12-2.241-0.356-3.335
		c-1.535-7.153-7.958-12.345-15.317-12.345c-8.639,0-15.671,7.028-15.675,15.668c-0.003,8.643,7.025,15.677,15.668,15.68H109.388z
		 M107.384,43.365c0.645-0.137,1.307-0.206,1.971-0.206h0.027c5.099,0,9.252,4.147,9.26,9.246c0.007,4.344-3.071,8.157-7.318,9.068
		l-0.196,0.042c-0.547,0.098-1.102,0.146-1.652,0.146c-4.39,0-8.159-2.989-9.163-7.262C99.232,49.415,102.406,44.463,107.384,43.365
		z M109.388,67.595L109.388,67.595L109.388,67.595L109.388,67.595z"/>
</g>
</svg>
