<?xml version="1.0" encoding="utf-8"?>
<!-- Generator: Adobe Illustrator 16.0.0, SVG Export Plug-In . SVG Version: 6.00 Build 0)  -->
<!DOCTYPE svg PUBLIC "-//W3C//DTD SVG 1.1//EN" "http://www.w3.org/Graphics/SVG/1.1/DTD/svg11.dtd">
<svg version="1.1" id="Layer_1" xmlns="http://www.w3.org/2000/svg" xmlns:xlink="http://www.w3.org/1999/xlink" x="0px" y="0px"
	 width="150px" height="150px" viewBox="0 0 150 150" enable-background="new 0 0 150 150" xml:space="preserve">
<g>
	<g>
		<path d="M33.323,0.092H9.853c-5.416,0-9.822,4.406-9.822,9.822v23.47c0,5.416,4.406,9.823,9.822,9.823h23.47
			c5.416,0,9.822-4.407,9.822-9.823V9.914C43.146,4.498,38.739,0.092,33.323,0.092z M35.649,33.384c0,1.285-1.041,2.326-2.326,2.326
			H9.853c-1.285,0-2.326-1.041-2.326-2.326V9.914c0-1.285,1.041-2.325,2.326-2.325h23.47c1.285,0,2.326,1.04,2.326,2.325V33.384z"/>
		<path d="M0,86.75c0,5.416,4.406,9.822,9.823,9.822h23.47c5.416,0,9.823-4.406,9.823-9.822V63.28c0-5.416-4.407-9.822-9.823-9.822
			H9.853c-5.416,0-9.822,4.406-9.822,9.822v23.47H0z M7.497,63.25c0-1.285,1.04-2.325,2.326-2.325h23.47
			c1.285,0,2.326,1.04,2.326,2.325v23.47c0,1.285-1.041,2.325-2.326,2.325H9.853c-1.285,0-2.326-1.04-2.326-2.325V63.25H7.497z"/>
		<path d="M0,140.086c0,5.416,4.406,9.822,9.823,9.822h23.47c5.416,0,9.823-4.406,9.823-9.822v-23.471
			c0-5.416-4.407-9.822-9.823-9.822H9.853c-5.416,0-9.822,4.406-9.822,9.822v23.471H0z M7.497,116.615
			c0-1.285,1.04-2.325,2.326-2.325h23.47c1.285,0,2.326,1.04,2.326,2.325v23.471c0,1.285-1.041,2.325-2.326,2.325H9.853
			c-1.285,0-2.326-1.04-2.326-2.325v-23.471H7.497z"/>
		<path d="M61.934,25.398h84.302c2.08,0,3.764-1.683,3.764-3.764c0-2.081-1.684-3.764-3.764-3.764H61.934
			c-2.081,0-3.764,1.683-3.764,3.764C58.17,23.715,59.853,25.398,61.934,25.398z"/>
		<path d="M61.934,78.764h84.302c2.08,0,3.764-1.684,3.764-3.764c0-2.081-1.684-3.764-3.764-3.764H61.934
			c-2.081,0-3.764,1.683-3.764,3.764C58.17,77.08,59.853,78.764,61.934,78.764z"/>
		<path d="M61.934,132.1h84.302c2.08,0,3.764-1.684,3.764-3.764c0-2.082-1.684-3.764-3.764-3.764H61.934
			c-2.081,0-3.764,1.682-3.764,3.764C58.17,130.416,59.853,132.1,61.934,132.1z"/>
	</g>
</g>
</svg>
