<?xml version="1.0" encoding="utf-8"?>
<!-- Generator: Adobe Illustrator 16.0.0, SVG Export Plug-In . SVG Version: 6.00 Build 0)  -->
<!DOCTYPE svg PUBLIC "-//W3C//DTD SVG 1.1//EN" "http://www.w3.org/Graphics/SVG/1.1/DTD/svg11.dtd">
<svg version="1.1" id="Layer_1" xmlns="http://www.w3.org/2000/svg" xmlns:xlink="http://www.w3.org/1999/xlink" x="0px" y="0px"
	 width="150px" height="150px" viewBox="0 0 150 150" enable-background="new 0 0 150 150" xml:space="preserve">
<g>
	<path d="M115.381,84.141c-17.626,0-31.943,14.317-31.943,31.943c0,17.625,14.317,31.944,31.943,31.944
		c17.627,0,31.943-14.318,31.943-31.944C147.324,98.458,133.008,84.141,115.381,84.141z M115.381,139.679
		c-13.019,0-23.594-10.576-23.594-23.594c0-13.019,10.575-23.595,23.594-23.595c13.018,0,23.594,10.576,23.594,23.595
		C138.975,129.103,128.399,139.679,115.381,139.679z"/>
	<path d="M124.901,112.335l-5.813-0.001v-5.812c-0.019-1.988-1.665-3.633-3.718-3.633c-2.052-0.001-3.697,1.645-3.697,3.697v5.812
		l-5.813,0.001c-2.051-0.001-3.697,1.645-3.697,3.697c0,2.052,1.646,3.698,3.697,3.697l5.813,0.001l-0.021,5.791
		c-0.002,2.051,1.644,3.697,3.697,3.696c1.025,0.001,1.945-0.405,2.629-1.089c0.684-0.684,1.089-1.603,1.089-2.629v-5.812
		l5.812-0.001c1.026,0,1.946-0.406,2.628-1.089c0.685-0.684,1.091-1.603,1.091-2.629
		C128.598,113.98,126.952,112.334,124.901,112.335z"/>
	<path d="M28.419,68.404c1.088-1.84,0.477-4.224-1.364-5.312c-0.598-0.354-1.279-0.541-1.971-0.541c-1.366,0-2.646,0.73-3.341,1.905
		c-3.434,5.807-5.249,12.536-5.249,19.459v0.305c0,3.901,0.507,7.772,1.508,11.507c0.454,1.693,1.994,2.875,3.744,2.875
		c0.337,0,0.676-0.045,1.005-0.134c1.001-0.268,1.837-0.909,2.355-1.807s0.656-1.942,0.388-2.943c-0.826-3.08-1.244-6.276-1.244-9.5
		v-0.304C24.25,78.382,25.691,73.018,28.419,68.404z"/>
	<path d="M25.967,108.581c0.702,0,1.395-0.193,2.001-0.558c1.825-1.098,2.42-3.483,1.305-5.354c-0.708-1.166-1.945-1.862-3.31-1.862
		c-0.704,0-1.396,0.193-2.002,0.558c-1.825,1.099-2.42,3.483-1.304,5.353C23.365,107.885,24.603,108.581,25.967,108.581z"/>
	<path d="M76.512,86.506c3.337-5.782,9.297-9.617,15.942-10.257l20.064-1.935c2.442-0.236,4.871-0.692,7.233-1.36
		c0.604,2.38,1.422,4.71,2.438,6.943l0.349,0.767l0.346,0.615l0.032-0.002c0.716,1.11,1.924,1.77,3.251,1.77
		c0.703,0,1.395-0.192,2.001-0.557c1.146-0.69,1.831-1.891,1.869-3.193l0.332-0.146l-0.5-1.101
		c-0.099-0.337-0.221-0.619-0.398-0.917c-0.02-0.033-0.042-0.064-0.059-0.087l-0.164-0.36c-1.354-2.976-2.263-6.127-2.7-9.364
		c-0.16-1.183-0.872-2.244-1.904-2.839c-1.029-0.593-2.314-0.68-3.41-0.23c-3.029,1.242-6.212,2.03-9.461,2.343l-20.063,1.936
		c-9.135,0.881-17.327,6.151-21.914,14.097l-0.174,0.301c-6.014,10.416-6.072,23.394-0.136,33.896l0.276,0.491
		c0.376,0.674,0.583,1.045,1.127,1.803c0.708,1.166,1.946,1.862,3.31,1.862c0.703,0,1.395-0.193,2.001-0.558
		c1.661-1,2.303-3.065,1.565-4.838l0.077-0.074l-0.469-0.692c-0.458-0.677-0.82-1.255-1.154-1.844
		c-4.574-8.091-4.529-18.118,0.118-26.166L76.512,86.506z"/>
	<path d="M91.27,139.021l0.001-0.031l-0.591-0.273c-1.194-0.552-2.16-1.046-3.041-1.555l-7.41-4.276
		c-5.866-3.388-10.726-8.292-14.077-14.22c-6.58-11.64-6.514-26.063,0.17-37.642l0.174-0.3c5.202-9.01,14.491-14.986,24.848-15.985
		l20.064-1.935c8.195-0.791,15.687-4.956,20.692-11.471l0.203,0.117c-3.141,7.592-3.002,16.163,0.412,23.656l8.009,17.583
		l0.032,0.067c0.089,0.262,0.196,0.494,0.341,0.736c0.708,1.166,1.946,1.862,3.31,1.862c0.702,0,1.395-0.193,2.001-0.558
		c1.81-1.089,2.41-3.442,1.322-5.323l-7.958-17.583c-2.93-6.434-2.57-13.928,0.964-20.049c0.519-0.897,0.656-1.942,0.388-2.943
		c-0.268-1.001-0.91-1.837-1.807-2.355l-6.476-3.74c-0.882-0.508-1.955-0.65-2.943-0.387c-1.001,0.269-1.837,0.911-2.354,1.807
		c-3.535,6.122-9.846,10.181-16.881,10.859l-20.064,1.935c-12.846,1.239-24.367,8.651-30.819,19.827l-0.174,0.3
		c-8.052,13.947-8.132,31.315-0.188,45.37c0.793,1.403,1.676,2.782,2.636,4.119h-9.788c-7.628,0-15.133-2.047-21.745-5.944
		C17.544,113.039,9.483,98.928,9.483,83.865V83.48c0-11.744,5.708-22.828,15.268-29.648l18.292-13.053
		c8.568-6.113,13.683-16.046,13.683-26.572V7.756h1.737v6.451c0,10.525,5.115,20.459,13.683,26.572l16.498,11.771
		c0.662,0.473,1.439,0.722,2.25,0.722c1.252,0,2.433-0.608,3.159-1.626c0.602-0.843,0.839-1.871,0.669-2.892
		c-0.17-1.022-0.729-1.916-1.572-2.517L76.651,34.465C70.119,29.805,66.22,22.231,66.22,14.207V3.878C66.22,1.74,64.48,0,62.341,0
		h-9.493C50.71,0,48.97,1.74,48.97,3.878v10.329c0,8.024-3.9,15.597-10.432,20.259L20.245,47.519
		C8.65,55.792,1.727,69.236,1.727,83.48v0.385c0,8.773,2.3,17.436,6.652,25.052c4.352,7.617,10.644,13.997,18.238,18.474
		c6.22,3.667,13.291,5.985,20.501,6.727v4.583c0,2.139,1.739,3.878,3.878,3.878c2.138,0,3.878-1.739,3.878-3.878v-4.312h1.496
		v11.732c0,2.138,1.74,3.878,3.878,3.878c2.139,0,3.878-1.74,3.878-3.878V134.39h1.496v4.312c0,2.139,1.739,3.878,3.878,3.878
		s3.878-1.739,3.878-3.878v-0.978c0.979,0.673,1.974,1.302,2.973,1.879l7.41,4.277c0.361,0.208,0.654,0.381,0.909,0.532
		c0.997,0.588,1.452,0.857,2.98,1.484l0.222,0.087c0.077,0.033,0.156,0.063,0.235,0.091l0.622,0.244l0.018-0.076
		c0.909,0.157,1.855-0.024,2.65-0.502c1.825-1.098,2.42-3.482,1.305-5.354C92.352,139.814,91.858,139.345,91.27,139.021z"/>
</g>
</svg>
