<?xml version="1.0" encoding="utf-8"?>
<!-- Generator: Adobe Illustrator 16.0.0, SVG Export Plug-In . SVG Version: 6.00 Build 0)  -->
<!DOCTYPE svg PUBLIC "-//W3C//DTD SVG 1.1//EN" "http://www.w3.org/Graphics/SVG/1.1/DTD/svg11.dtd">
<svg version="1.1" id="Layer_1" xmlns="http://www.w3.org/2000/svg" xmlns:xlink="http://www.w3.org/1999/xlink" x="0px" y="0px"
	 width="150px" height="150px" viewBox="0 0 150 150" enable-background="new 0 0 150 150" xml:space="preserve">
<g>
	<g>
		<path d="M73.996,101.48V75.919c23.907,0.092,40.378,1.806,60.397,37.072c0.704,1.194,1.958,1.898,3.274,1.898
			c0.307,0,0.645-0.03,0.949-0.123c1.653-0.429,2.787-1.898,2.787-3.611v-2.969c0.122-24.919,0.396-76.346-67.408-78.796V3.768
			c0-1.471-0.827-2.787-2.143-3.396c-1.316-0.645-2.848-0.43-3.979,0.489L8.763,49.656c-0.887,0.702-1.378,1.743-1.378,2.877
			c0,1.102,0.491,2.173,1.348,2.877l59.143,48.98c1.101,0.919,2.662,1.101,3.979,0.489C73.169,104.237,73.996,102.918,73.996,101.48
			z M70.262,68.389c-1.011,0-1.96,0.399-2.664,1.101c-0.702,0.705-1.102,1.686-1.102,2.665v21.335L17.027,52.533l49.499-40.838
			v21.368c0,2.05,1.653,3.704,3.706,3.736c28.193,0.275,46.467,8.908,55.895,26.355c5.939,10.959,7.378,23.908,7.715,34.774
			C114.587,69.98,96.495,68.419,70.262,68.389z"/>
		<path d="M11.885,150h125.783c2.083,0,3.766-1.683,3.766-3.766v-16.468c0-2.083-1.683-3.764-3.766-3.764
			c-2.08,0-3.764,1.681-3.764,3.764V142.5H15.65V77.083c0-2.083-1.683-3.764-3.766-3.764c-2.08,0-3.764,1.681-3.764,3.764v69.184
			C8.121,148.317,9.805,150,11.885,150z"/>
	</g>
</g>
</svg>
