<?xml version="1.0" encoding="utf-8"?>
<!-- Generator: Adobe Illustrator 16.0.0, SVG Export Plug-In . SVG Version: 6.00 Build 0)  -->
<!DOCTYPE svg PUBLIC "-//W3C//DTD SVG 1.1//EN" "http://www.w3.org/Graphics/SVG/1.1/DTD/svg11.dtd">
<svg version="1.1" id="Layer_1" xmlns="http://www.w3.org/2000/svg" xmlns:xlink="http://www.w3.org/1999/xlink" x="0px" y="0px"
	 width="150px" height="150px" viewBox="0 0 150 150" enable-background="new 0 0 150 150" xml:space="preserve">
<g>
	<path d="M114.053,74.616c-19.824,0-35.947,16.123-35.947,35.947s16.123,35.947,35.947,35.947S150,130.388,150,110.563
		S133.877,74.616,114.053,74.616z M117.986,82.235c12.664,1.747,22.689,11.793,24.403,24.468h-24.403V82.235z M114.053,139.168
		c-15.787,0-28.605-12.819-28.605-28.605c0-14.52,10.848-26.521,24.872-28.354v28.529c0,2.146,1.745,3.891,3.891,3.891h28.154
		C140.387,128.493,128.458,139.168,114.053,139.168z"/>
	<path fill="#010101" d="M142.568,55.932c-3.789-3.234-8.533-4.99-13.34-4.99H96.853V27.561c0-9.827-2.864-16.913-8.533-21.071
		C79.355-0.103,67.002,3.655,66.479,3.84c-1.541,0.493-2.588,1.91-2.588,3.512v26.154c0,8.533-4.066,15.772-12.106,21.533
		C45.777,59.352,39.646,61.231,39,61.446l-0.894,0.216c-1.325-2.249-3.759-3.758-6.562-3.758H7.609C3.42,57.904,0,61.323,0,65.513
		v70.36c0,4.189,3.42,7.608,7.609,7.608h23.997c2.341,0,4.467-1.078,5.853-2.741c3.852,4.097,9.304,6.653,15.219,6.653h26.025h0.585
		h3.91h0.356h0.574c2.037,0,3.703-1.666,3.703-3.703s-1.666-3.703-3.703-3.703h-0.585h-4.267h-0.574
		c-0.151,0-0.296,0.027-0.442,0.045H52.646c-6.562,0-12.26-4.898-13.277-11.367c-0.03-0.217-0.092-0.432-0.154-0.647V68.994
		l1.603-0.37c0.062,0,0.093-0.031,0.153-0.031c0.309-0.092,7.609-2.156,14.973-7.394c10.072-7.146,15.371-16.727,15.371-27.694
		V10.309c3.204-0.523,8.688-0.801,12.661,2.157c3.636,2.68,5.483,7.763,5.483,15.094v27.047c0,2.033,1.664,3.697,3.697,3.697h36.072
		c3.051,0,6.1,1.14,8.533,3.234c3.636,3.111,5.422,8.071,4.621,12.938l-0.152,0.951c-0.009-0.003-0.018-0.005-0.025-0.008
		l-0.066,0.575L142.1,76.24c0.004,0,0.008,0,0.012,0.001l-0.244,2.12l-0.065,0.573c-0.233,2.034,1.245,3.882,3.284,4.106
		s3.898-1.255,4.13-3.289l0.069-0.583l0.279-2.445c0.002,0,0.005,0,0.008,0l0.174-1.077
		C150.885,68.254,148.144,60.676,142.568,55.932z M31.822,135.873h-0.031c0,0.123-0.092,0.216-0.215,0.216H7.609
		c-0.123,0-0.216-0.093-0.216-0.216v-70.36c0-0.123,0.093-0.216,0.216-0.216h23.997c0.123,0,0.216,0.093,0.216,0.216V135.873z"/>
</g>
</svg>
