<?xml version="1.0" encoding="utf-8"?>
<!-- Generator: Adobe Illustrator 16.0.0, SVG Export Plug-In . SVG Version: 6.00 Build 0)  -->
<!DOCTYPE svg PUBLIC "-//W3C//DTD SVG 1.1//EN" "http://www.w3.org/Graphics/SVG/1.1/DTD/svg11.dtd">
<svg version="1.1" id="Layer_1" xmlns="http://www.w3.org/2000/svg" xmlns:xlink="http://www.w3.org/1999/xlink" x="0px" y="0px"
	 width="150px" height="150px" viewBox="0 0 150 150" enable-background="new 0 0 150 150" xml:space="preserve">
<g>
	<g>
		<path d="M67.586,139.975c1.865,1.865,4.374,2.907,7.004,2.907c2.6,0,5.168-1.072,7.005-2.907l54.962-54.965
			c8.352-8.348,12.94-19.454,12.972-31.228c0-11.808-4.59-22.911-12.94-31.261c-8.348-8.349-19.422-12.937-31.228-12.937
			c-11.593,0-22.512,4.434-30.801,12.511c-8.32-8.105-19.271-12.573-30.895-12.573c-11.774,0-22.849,4.589-31.196,12.909
			c-8.351,8.351-12.94,19.453-12.94,31.258c0,11.777,4.62,22.879,12.972,31.23L67.586,139.975z M17.791,27.753
			c6.911-6.914,16.117-10.738,25.905-10.738c9.79,0,19.024,3.824,25.969,10.767l2.264,2.263c0.703,0.706,1.651,1.103,2.661,1.103
			l0,0c0.977,0,1.956-0.397,2.662-1.103l2.201-2.201c6.942-6.943,16.148-10.767,25.967-10.767c9.787,0,18.996,3.824,25.908,10.736
			c6.941,6.945,10.735,16.151,10.735,25.938s-3.821,18.993-10.767,25.939l-54.994,54.993c-0.888,0.889-2.508,0.889-3.426,0
			L17.819,79.628C10.877,72.685,7.053,63.477,7.053,53.689C7.053,43.902,10.877,34.696,17.791,27.753z"/>
	</g>
</g>
</svg>
