<?xml version="1.0" encoding="utf-8"?>
<!-- Generator: Adobe Illustrator 16.0.0, SVG Export Plug-In . SVG Version: 6.00 Build 0)  -->
<!DOCTYPE svg PUBLIC "-//W3C//DTD SVG 1.1//EN" "http://www.w3.org/Graphics/SVG/1.1/DTD/svg11.dtd">
<svg version="1.1" id="Layer_1" xmlns="http://www.w3.org/2000/svg" xmlns:xlink="http://www.w3.org/1999/xlink" x="0px" y="0px"
	 width="150px" height="150px" viewBox="0 0 150 150" enable-background="new 0 0 150 150" xml:space="preserve">
<g>
	<path d="M74.984,69.523H27.6c-2.169,0-3.943,1.772-3.943,3.938c0,2.175,1.774,3.947,3.943,3.947h47.385
		c2.201,0,3.945-1.772,3.945-3.947C78.93,71.295,77.152,69.523,74.984,69.523z"/>
	<path d="M46.561,83.655H27.6c-2.169,0-3.943,1.774-3.943,3.941c0,2.171,1.774,3.943,3.943,3.943h18.961
		c2.166,0,3.944-1.772,3.944-3.943C50.505,85.429,48.727,83.655,46.561,83.655z"/>
	<path d="M27.143,63.116h47.381c2.17,0,3.941-1.773,3.941-3.945c0-2.166-1.771-3.939-3.941-3.939H27.143
		c-2.17,0-3.945,1.773-3.945,3.939C23.197,61.343,24.939,63.116,27.143,63.116z"/>
	<path d="M138.96,12.609H11.038C4.928,12.609,0,17.572,0,23.652v80.539c0,6.08,4.959,11.038,11.038,11.038h70.42
		c4.282,12.866,16.42,22.162,30.714,22.162c14.601,0,26.954-9.696,30.98-22.992c4.022-1.654,6.848-5.612,6.848-10.213V23.647
		C149.997,17.57,145.037,12.609,138.96,12.609z M7.854,23.652c0-1.742,1.445-3.157,3.185-3.157H138.96
		c1.741,0,3.153,1.414,3.153,3.156v12.651H7.854V23.652z M11.038,107.342c-0.218,0-0.429-0.022-0.634-0.064
		c-1.438-0.295-2.518-1.568-2.518-3.091V44.189h134.227v39.46l0.033,7.887v1.279c-4.824-11.818-16.432-20.162-29.975-20.162
		c-17.861,0-32.369,14.508-32.369,32.369c0,0.781,0.037,1.553,0.092,2.32H11.038z M112.172,128.93
		c-13.192,0-23.908-10.717-23.908-23.908c0-13.192,10.716-23.909,23.908-23.909c13.191,0,23.908,10.717,23.908,23.909
		C136.08,118.213,125.363,128.93,112.172,128.93z"/>
</g>
<g>
	<path d="M112.259,103.247c1.727,0,3.131-1.404,3.131-3.131v-9.813c0-1.726-1.404-3.13-3.131-3.13c-1.726,0-3.13,1.404-3.13,3.13
		v9.813C109.129,101.843,110.533,103.247,112.259,103.247z"/>
	<path d="M121.944,93.791c-0.561-0.449-1.229-0.687-1.934-0.687c-1.734,0-3.146,1.411-3.146,3.145c0,0.95,0.435,1.845,1.188,2.454
		c2.165,1.759,3.406,4.357,3.406,7.13c-0.001,5.418-4.698,9.752-10.25,9.134c-4.246-0.474-7.646-3.906-8.082-8.163
		c-0.321-3.1,0.931-6.126,3.343-8.092c0.762-0.615,1.198-1.513,1.198-2.463c0-1.725-1.411-3.128-3.145-3.128
		c-0.726,0-1.413,0.247-1.987,0.714c-4.025,3.271-6.142,8.308-5.661,13.474c0.689,7.422,6.819,13.413,14.257,13.937
		c0.383,0.027,0.762,0.041,1.139,0.041c8.519,0,15.449-6.932,15.449-15.453C127.72,101.141,125.615,96.752,121.944,93.791z"/>
</g>
</svg>
