<?xml version="1.0" encoding="utf-8"?>
<!-- Generator: Adobe Illustrator 16.0.0, SVG Export Plug-In . SVG Version: 6.00 Build 0)  -->
<!DOCTYPE svg PUBLIC "-//W3C//DTD SVG 1.1//EN" "http://www.w3.org/Graphics/SVG/1.1/DTD/svg11.dtd">
<svg version="1.1" id="Layer_1" xmlns="http://www.w3.org/2000/svg" xmlns:xlink="http://www.w3.org/1999/xlink" x="0px" y="0px"
	 width="150px" height="150px" viewBox="0 0 150 150" enable-background="new 0 0 150 150" xml:space="preserve">
<g>
	<path d="M143.249,35.362c0-0.568-0.126-1.139-0.381-1.677c-0.507-1.078-1.486-1.806-2.564-2.027L75.815,0.38
		c-1.044-0.507-2.279-0.507-3.325,0L7.368,31.944c-1.266,0.602-2.089,1.867-2.152,3.292v0.031c0,0.031,0,0.064,0,0.126v79.211
		c0,1.458,0.822,2.788,2.152,3.42l65.122,31.564c0.033,0,0.033,0,0.063,0.031c0.096,0.031,0.19,0.064,0.286,0.126
		c0.03,0,0.062,0.033,0.126,0.033c0.095,0.031,0.19,0.062,0.285,0.095c0.031,0,0.062,0.031,0.095,0.031
		c0.096,0.031,0.222,0.031,0.316,0.064c0.031,0,0.064,0,0.096,0c0.126,0,0.285,0.031,0.411,0.031s0.286,0,0.412-0.031
		c0.03,0,0.062,0,0.095,0c0.096,0,0.222-0.033,0.316-0.064c0.031,0,0.064-0.031,0.096-0.031c0.095-0.033,0.189-0.064,0.285-0.095
		c0.031,0,0.062-0.033,0.126-0.033c0.095-0.031,0.19-0.062,0.285-0.126c0.031,0,0.031,0,0.062-0.031l65.313-31.659
		c1.297-0.633,2.15-1.963,2.15-3.421V35.457C143.249,35.426,143.249,35.393,143.249,35.362z M74.139,8.008l56.479,27.385
		l-20.801,10.1L53.336,18.109L74.139,8.008z M74.139,62.78L17.656,35.393l26.976-13.074l56.479,27.384L74.139,62.78z M12.813,41.504
		l57.523,27.891v70.695l-57.523-27.891V41.504z M77.938,140.09V69.395l27.004-13.107v18.49c0,2.089,1.71,3.799,3.799,3.799
		c2.091,0,3.799-1.71,3.799-3.799V52.584l23.112-11.207v70.695L77.938,140.09z"/>
</g>
</svg>
