<?xml version="1.0" encoding="utf-8"?>
<!-- Generator: Adobe Illustrator 16.0.0, SVG Export Plug-In . SVG Version: 6.00 Build 0)  -->
<!DOCTYPE svg PUBLIC "-//W3C//DTD SVG 1.1//EN" "http://www.w3.org/Graphics/SVG/1.1/DTD/svg11.dtd">
<svg version="1.1" id="Layer_1" xmlns="http://www.w3.org/2000/svg" xmlns:xlink="http://www.w3.org/1999/xlink" x="0px" y="0px"
	 width="150px" height="150px" viewBox="0 0 150 150" enable-background="new 0 0 150 150" xml:space="preserve">
<g>
	<g>
		<g>
			<path fill="#010101" d="M127.451,50.125c-0.002,0-0.003,0-0.005,0H2.147C0.963,50.124,0.001,51.083,0,52.268
				c0,0.002,0,0.003,0,0.005v60.143c-0.001,1.185,0.958,2.146,2.143,2.147c0.002,0,0.004,0,0.005,0h85.203
				c1.186,0,2.147-0.961,2.147-2.147s-0.962-2.147-2.147-2.147H4.295V54.42h121.004v5.37c-0.002,1.185,0.958,2.146,2.143,2.147
				c0.001,0,0.003,0,0.005,0c1.185,0.001,2.146-0.958,2.147-2.143c0-0.001,0-0.003,0-0.005v-7.518
				C129.595,51.088,128.636,50.126,127.451,50.125z"/>
		</g>
	</g>
	<g>
		<g>
			<path fill="#010101" d="M112.882,40.154L12.643,17.6c-0.557-0.125-1.14-0.023-1.621,0.281c-0.481,0.307-0.822,0.791-0.947,1.348
				L5.062,41.783c-0.258,1.158,0.473,2.306,1.631,2.563c1.158,0.258,2.306-0.473,2.563-1.631l4.544-20.451l98.139,22.08
				c0.155,0.036,0.313,0.054,0.474,0.053c1.186-0.002,2.146-0.965,2.144-2.151C114.555,41.242,113.859,40.375,112.882,40.154z"/>
		</g>
	</g>
	<g>
		<g>
			<path fill="#010101" d="M100.71,27.727L40.566,2.667c-1.045-0.436-2.249,0.012-2.756,1.025l-5.013,10.024
				c-0.565,1.047-0.176,2.354,0.871,2.921c1.047,0.566,2.354,0.176,2.921-0.871c0.022-0.041,0.043-0.083,0.062-0.125v0.005
				l4.112-8.229l58.286,24.285c1.098,0.458,2.359-0.06,2.817-1.158C102.326,29.446,101.808,28.185,100.71,27.727z"/>
		</g>
	</g>
	<g>
		<g>
			<path fill="#010101" d="M102.229,60.149h-19.89c-1.186,0-2.147,0.962-2.147,2.147c0,1.186,0.962,2.148,2.147,2.148h19.89
				c1.187,0,2.147-0.962,2.147-2.148C104.376,61.111,103.415,60.149,102.229,60.149z"/>
		</g>
	</g>
	<g>
		<g>
			<path fill="#010101" d="M62.291,60.292c-12.18,0-22.053,9.873-22.053,22.052c0.013,12.174,9.879,22.041,22.053,22.053
				c12.18,0,22.053-9.874,22.053-22.053S74.471,60.292,62.291,60.292z M62.291,100.388c-9.965,0-18.043-8.078-18.043-18.043
				c0.011-9.96,8.083-18.032,18.043-18.043c9.965,0,18.043,8.078,18.043,18.043C80.334,92.31,72.256,100.388,62.291,100.388z"/>
		</g>
	</g>
	<g>
		<g>
			<path fill="#010101" d="M122.435,67.309c-13.282,0-27.566,3.138-27.566,10.024v60.144c0,6.886,14.284,10.023,27.566,10.023
				c13.281,0,27.565-3.137,27.565-10.023V77.333C150,70.446,135.716,67.309,122.435,67.309z M144.988,137.438
				c-0.379,1.391-7.895,5.05-22.554,5.05c-14.66,0-22.176-3.659-22.554-5.012v-3.939c5.332,2.686,14.141,3.939,22.554,3.939
				c8.412,0,17.224-1.266,22.554-3.942V137.438z M144.988,127.415c-0.379,1.391-7.895,5.049-22.554,5.049
				c-14.66,0-22.176-3.659-22.554-5.012v-3.94c5.332,2.687,14.141,3.94,22.554,3.94c8.412,0,17.224-1.266,22.554-3.942V127.415z
				 M144.988,117.391c-0.379,1.391-7.895,5.049-22.554,5.049c-14.66,0-22.176-3.659-22.554-5.012v-3.939
				c5.332,2.687,14.141,3.939,22.554,3.939c8.412,0,17.224-1.266,22.554-3.942V117.391z M144.988,107.366
				c-0.379,1.391-7.895,5.05-22.554,5.05c-14.66,0-22.176-3.659-22.554-5.012v-3.939c5.332,2.687,14.141,3.939,22.554,3.939
				c8.412,0,17.224-1.265,22.554-3.941V107.366z M144.988,97.343c-0.379,1.391-7.895,5.049-22.554,5.049
				c-14.66,0-22.176-3.659-22.554-5.012v-3.939c5.332,2.674,14.141,3.939,22.554,3.939c8.412,0,17.224-1.266,22.554-3.942V97.343z
				 M144.988,87.319c-0.379,1.391-7.895,5.049-22.554,5.049c-14.66,0-22.176-3.659-22.554-5.012v-3.939
				c5.332,2.674,14.141,3.939,22.554,3.939c8.412,0,17.224-1.266,22.554-3.942V87.319z M122.435,82.344
				c-14.638,0-22.15-3.648-22.554-4.967v-0.015c0.403-1.396,7.916-5.042,22.554-5.042c14.534,0,22.053,3.594,22.554,5.012
				C144.487,78.751,136.969,82.344,122.435,82.344z"/>
		</g>
	</g>
	<g>
		<g>
			<path fill="#010101" d="M42.243,100.242H23.301l-8.981-9.824V74.13l9.918-9.686h18.006c1.186,0,2.147-0.962,2.147-2.148
				c0-1.186-0.962-2.147-2.147-2.147H23.366c-0.562-0.001-1.102,0.217-1.504,0.609L10.668,71.677
				c-0.418,0.488-0.647,1.111-0.646,1.754v17.822c0,0.536,0.2,1.053,0.562,1.449l10.182,11.137c0.406,0.445,0.982,0.699,1.586,0.699
				h19.893c1.186,0,2.147-0.961,2.147-2.147S43.43,100.242,42.243,100.242z"/>
		</g>
	</g>
	<g>
		<g>
			<path fill="#010101" d="M63.544,79.838h-2.506c-0.779,0-1.253-0.436-1.253-0.626s0.474-0.626,1.253-0.626h6.265
				c1.384,0,2.506-1.122,2.506-2.506c0-1.384-1.122-2.506-2.506-2.506h-2.506c0-1.384-1.122-2.506-2.506-2.506
				s-2.506,1.122-2.506,2.506v0.113c-2.779,0.392-4.886,2.708-5.012,5.513c0.179,3.286,2.978,5.811,6.265,5.651h2.506
				c0.779,0,1.253,0.437,1.253,0.627s-0.474,0.626-1.253,0.626h-6.265c-1.384,0-2.506,1.122-2.506,2.506s1.122,2.506,2.506,2.506
				h2.506c0,1.384,1.122,2.506,2.506,2.506s2.506-1.122,2.506-2.506v-0.113c2.779-0.393,4.885-2.709,5.012-5.513
				C69.629,82.204,66.831,79.679,63.544,79.838z"/>
		</g>
	</g>
</g>
</svg>
