<?xml version="1.0" encoding="utf-8"?>
<!-- Generator: Adobe Illustrator 16.0.0, SVG Export Plug-In . SVG Version: 6.00 Build 0)  -->
<!DOCTYPE svg PUBLIC "-//W3C//DTD SVG 1.1//EN" "http://www.w3.org/Graphics/SVG/1.1/DTD/svg11.dtd">
<svg version="1.1" id="Layer_1" xmlns="http://www.w3.org/2000/svg" xmlns:xlink="http://www.w3.org/1999/xlink" x="0px" y="0px"
	 width="150px" height="150px" viewBox="0 0 150 150" enable-background="new 0 0 150 150" xml:space="preserve">
<g>
	<path d="M126.475,57.426v-5.767c0-13.804-4.885-26.629-13.741-36.146C103.66,5.745,91.183,0.388,77.569,0.388H72.81
		c-13.614,0-26.093,5.357-35.167,15.125c-8.855,9.517-13.74,22.342-13.74,36.146v5.767C13.156,58.15,4.617,67.099,4.617,78.034
		v9.013c0,11.375,9.264,20.64,20.642,20.64h11.626c2.08,0,3.781-1.701,3.781-3.782V61.144c0-2.081-1.701-3.782-3.781-3.782h-5.419
		v-5.703c0-24.926,17.774-43.708,41.313-43.708h4.757c23.573,0,41.313,18.782,41.313,43.708v5.703h-5.419
		c-2.081,0-3.782,1.701-3.782,3.782v42.73c0,2.081,1.701,3.784,3.782,3.784h5.293c-1.541,19.724-15.126,24.294-21.43,25.335
		c-1.73-5.327-6.742-9.169-12.632-9.169h-9.459c-7.309,0-13.265,5.954-13.265,13.267c0,7.31,5.957,13.298,13.265,13.298h9.488
		c6.114,0,11.251-4.161,12.792-9.77c3.092-0.442,7.976-1.545,12.827-4.381c6.838-4,14.936-12.163,16.01-28.613
		c10.81-0.66,19.378-9.643,19.378-20.607v-9.012C145.731,67.099,137.222,58.119,126.475,57.426z M33.167,100.093h-7.847
		c-7.215,0-13.077-5.859-13.077-13.077v-9.012c0-7.217,5.862-13.079,13.077-13.079h7.847V100.093z M84.69,142.825h-9.488
		c-3.147,0-5.702-2.554-5.702-5.706c0-3.151,2.555-5.704,5.702-5.704h9.488c3.149,0,5.706,2.553,5.706,5.704
		C90.396,140.271,87.84,142.825,84.69,142.825z M138.168,87.016c0,7.217-5.861,13.077-13.079,13.077h-7.85V64.925h7.85
		c7.218,0,13.079,5.862,13.079,13.079V87.016z"/>
</g>
</svg>
