<?xml version="1.0" encoding="utf-8"?>
<!-- Generator: Adobe Illustrator 16.0.0, SVG Export Plug-In . SVG Version: 6.00 Build 0)  -->
<!DOCTYPE svg PUBLIC "-//W3C//DTD SVG 1.1//EN" "http://www.w3.org/Graphics/SVG/1.1/DTD/svg11.dtd">
<svg version="1.1" id="Layer_1" xmlns="http://www.w3.org/2000/svg" xmlns:xlink="http://www.w3.org/1999/xlink" x="0px" y="0px"
	 width="150px" height="150px" viewBox="0 0 150 150" enable-background="new 0 0 150 150" xml:space="preserve">
<g>
	<g>
		<path d="M110.879,53.657L80.73,27.259c-1.598-1.383-3.625-2.151-5.746-2.151c-2.12,0-4.148,0.769-5.746,2.151l-10.695,9.373
			c-0.614-2.274-0.952-4.671-0.952-7.16c0-6.023,1.905-11.678,5.347-15.888c3.258-3.995,7.561-6.208,12.047-6.208
			c9.588,0,17.395,9.896,17.395,22.096c0,2.028,1.659,3.688,3.688,3.688l0,0c2.028,0,3.688-1.66,3.688-3.688
			C99.754,13.214,88.629,0,74.984,0c-6.761,0-13.061,3.166-17.763,8.912c-4.517,5.532-7.007,12.815-7.007,20.56
			c0,4.364,0.799,8.574,2.305,12.446l-13.398,11.74c-3.35,2.95-5.285,7.191-5.285,11.647V131.5c0,10.203,8.297,18.5,18.5,18.5
			h45.328c10.203,0,18.5-8.297,18.5-18.5V65.304C116.164,60.848,114.229,56.607,110.879,53.657z M108.789,131.5
			c0,6.146-4.979,11.125-11.125,11.125H52.305c-6.146,0-11.125-4.979-11.125-11.125V65.304c0-2.335,1.015-4.579,2.766-6.116
			l12.141-10.633c0.367,0.492,0.736,0.983,1.105,1.475c4.701,5.747,11.002,8.912,17.763,8.912l0,0c2.028,0,3.688-1.66,3.688-3.688
			s-1.659-3.688-3.688-3.688c-4.519,0-8.79-2.213-12.047-6.208c-0.431-0.553-0.86-1.106-1.261-1.69l12.416-10.879
			c0.308-0.277,0.646-0.338,0.892-0.338c0.245,0,0.583,0.062,0.892,0.338l30.146,26.398c1.752,1.537,2.766,3.78,2.766,6.116V131.5
			H108.789z"/>
	</g>
</g>
<g>
	<path d="M57.358,102c-1.55-6.418,0.521-13.147,5.405-17.562c3.301-2.986,7.574-4.631,12.033-4.631c1.903,0,3.784,0.302,5.57,0.882
		c-1.357,0.483-2.308,1.805-2.249,3.321c0.076,1.821,1.562,3.247,3.381,3.247l9.26-0.339c1.822-0.074,3.25-1.559,3.25-3.38
		l-0.34-9.27c-0.074-1.822-1.556-3.25-3.374-3.25l-0.136,0.002c-0.908,0.036-1.746,0.421-2.359,1.086
		c-0.61,0.662-0.927,1.523-0.891,2.42l0.064,1.693c-3.31-1.878-7.023-2.956-10.93-3.152c-6.595-0.339-12.959,1.953-17.816,6.358
		c-6.726,6.09-9.576,15.352-7.438,24.168c0.368,1.522,1.718,2.584,3.284,2.584c0.296,0,0.573-0.036,0.813-0.101
		C56.698,105.625,57.805,103.788,57.358,102z"/>
	<path d="M99.207,92.536c-0.381-1.51-1.729-2.564-3.279-2.564c-0.274,0-0.549,0.034-0.812,0.1c-1.812,0.452-2.921,2.287-2.474,4.08
		c1.558,6.411-0.513,13.139-5.403,17.559c-3.307,2.987-7.58,4.632-12.035,4.632c-2.199,0-4.363-0.402-6.386-1.167
		c1.769-0.256,3.05-1.862,2.883-3.658c-0.16-1.751-1.605-3.072-3.362-3.072c-0.104,0-0.211,0.005-0.312,0.014l-9.107,0.82
		c-1.856,0.177-3.225,1.829-3.051,3.674l0.818,9.09c0.149,1.731,1.626,3.087,3.365,3.087c0.115,0,0.259-0.004,0.427-0.033
		c1.795-0.232,3.104-1.852,2.936-3.659l-0.122-1.368c3.25,1.79,6.87,2.818,10.662,3.01c0.424,0.022,0.849,0.033,1.262,0.033
		c6.113,0,11.993-2.269,16.559-6.392C98.496,110.636,101.346,101.375,99.207,92.536z"/>
</g>
</svg>
