<?xml version="1.0" encoding="utf-8"?>
<!-- Generator: Adobe Illustrator 16.0.0, SVG Export Plug-In . SVG Version: 6.00 Build 0)  -->
<!DOCTYPE svg PUBLIC "-//W3C//DTD SVG 1.1//EN" "http://www.w3.org/Graphics/SVG/1.1/DTD/svg11.dtd">
<svg version="1.1" id="Layer_1" xmlns="http://www.w3.org/2000/svg" xmlns:xlink="http://www.w3.org/1999/xlink" x="0px" y="0px"
	 width="150px" height="150px" viewBox="0 0 150 150" enable-background="new 0 0 150 150" xml:space="preserve">
<g>
	<path d="M28.96,139.63c-2.146,0-3.891-1.746-3.891-3.891V69.337L1.067,45.076c-1.477-1.553-1.413-4.021,0.142-5.5l30.377-27.093
		c0.37-0.335,0.802-0.597,1.276-0.771l22.079-7.989c0.357-0.125,0.721-0.197,1.09-0.218c0.071-0.004,0.142-0.006,0.211-0.006
		c2.066,0,3.771,1.618,3.884,3.684c0.027,0.598,0.815,14.445,14.803,14.665C89.062,21.624,89.609,7.378,89.611,7.234
		c0.021-0.434,0.098-0.814,0.229-1.18c0.557-1.535,2.027-2.565,3.658-2.565c0.453,0,0.9,0.079,1.329,0.234l22.1,7.899
		c0.483,0.177,0.916,0.439,1.291,0.781l30.548,27.15l0.166,0.165c1.477,1.553,1.413,4.021-0.142,5.5l-23.136,23.388l-0.052,0.04
		c-0.326,0.255-0.638,0.565-0.967,0.894l-0.148,0.149l-0.209,0.087c-0.113,0.043-0.223,0.084-0.287,0.117l-0.098,0.05l-0.137,0.042
		c-0.097,0.025-0.191,0.059-0.287,0.099l-0.108,0.045l-0.118,0.019c-0.419,0.067-0.868,0.132-1.326,0.132
		c0,0-0.175-0.002-0.262-0.007c-1.103-0.064-2.24-0.382-3.203-0.897l-0.161-0.086l-0.119-0.137
		c-0.081-0.094-0.163-0.188-0.265-0.265c-0.148-0.114-0.279-0.243-0.408-0.375l-0.151-0.15l-0.076-0.109l-0.19-0.327l-0.021-0.301
		V47.175c0-2.146,1.745-3.892,3.892-3.892c2.146,0,3.892,1.746,3.892,3.892v11.073l15.418-15.62L113.61,18.701l-16.945-6.118
		c-2.09,8.466-8.836,14.919-17.472,16.596c-1.416,0.275-2.859,0.415-4.29,0.415c-10.301,0-19.255-7.087-21.713-17.01l-16.946,6.118
		L9.507,42.63l15.446,15.647V47.175c0-2.146,1.745-3.892,3.892-3.892s3.892,1.746,3.892,3.892v84.527h45.536l0.003,0.171
		c1.933,0.227,3.437,1.874,3.437,3.865c0,2.146-1.746,3.891-3.892,3.891H28.96z"/>
	<path d="M114.053,74.616c-19.824,0-35.947,16.123-35.947,35.947s16.123,35.947,35.947,35.947S150,130.388,150,110.563
		S133.877,74.616,114.053,74.616z M142.39,106.703h-24.403V82.235C130.65,83.981,140.676,94.028,142.39,106.703z M114.053,139.168
		c-15.787,0-28.605-12.819-28.605-28.605c0-14.52,10.848-26.521,24.872-28.354v28.529c0,2.146,1.745,3.891,3.891,3.891h28.154
		C140.387,128.493,128.458,139.168,114.053,139.168z"/>
</g>
</svg>
