<?xml version="1.0" encoding="utf-8"?>
<!-- Generator: Adobe Illustrator 16.0.0, SVG Export Plug-In . SVG Version: 6.00 Build 0)  -->
<!DOCTYPE svg PUBLIC "-//W3C//DTD SVG 1.1//EN" "http://www.w3.org/Graphics/SVG/1.1/DTD/svg11.dtd">
<svg version="1.1" id="Layer_1" xmlns="http://www.w3.org/2000/svg" xmlns:xlink="http://www.w3.org/1999/xlink" x="0px" y="0px"
	 width="150px" height="150px" viewBox="0 0 150 150" enable-background="new 0 0 150 150" xml:space="preserve">
<g>
	<g>
		<path d="M123.77,30.648h-3.855v-8.581c0-12.218-9.948-22.166-22.163-22.166h-46.54c-12.218,0-22.164,9.948-22.164,22.166v8.581
			h-3.514c-12.218,0-22.166,9.948-22.166,22.166v35.751c0,12.215,9.948,22.164,22.166,22.164h3.482v28.104
			c0,6.093,4.973,11.068,11.068,11.068h68.732c6.093,0,11.068-4.976,11.068-11.068v-28.104h3.885
			c12.218,0,22.166-9.948,22.166-22.164V52.814C145.936,40.596,135.987,30.648,123.77,30.648z M37.407,22.067
			c0-7.583,6.188-13.772,13.771-13.772h46.508c7.586,0,13.772,6.188,13.772,13.772v8.581H37.407V22.067z M111.491,138.895
			c0,1.461-1.214,2.674-2.675,2.674H40.084c-1.464,0-2.677-1.213-2.677-2.674V92.544h74.084V138.895z M137.542,88.595
			c0,7.586-6.187,13.772-13.772,13.772h-3.855v-9.823h5.535c2.331,0,4.197-1.867,4.197-4.197s-1.866-4.197-4.197-4.197H22.858
			c-2.33,0-4.194,1.866-4.194,4.197s1.864,4.197,4.194,4.197h6.188v9.823h-3.514c-7.586,0-13.772-6.187-13.772-13.772V52.846
			c0-7.586,6.187-13.772,13.772-13.772h98.236c7.586,0,13.772,6.186,13.772,13.772V88.595z"/>
		<path d="M47.574,113.185h53.44c2.33,0,4.196-1.864,4.196-4.197c0-2.331-1.866-4.197-4.196-4.197h-53.44
			c-2.333,0-4.197,1.866-4.197,4.197C43.377,111.321,45.275,113.185,47.574,113.185z"/>
		<path d="M101.355,121.952h-53.47c-2.331,0-4.197,1.866-4.197,4.197c0,2.333,1.866,4.197,4.197,4.197h53.438
			c2.333,0,4.196-1.864,4.196-4.197C105.521,123.818,103.657,121.952,101.355,121.952z"/>
		<path d="M123.677,47.124h-8.52c-2.33,0-4.194,1.866-4.194,4.197c0,2.333,1.864,4.197,4.194,4.197h8.52
			c2.33,0,4.196-1.864,4.196-4.197C127.873,48.99,126.007,47.124,123.677,47.124z"/>
	</g>
</g>
</svg>
