<?xml version="1.0" encoding="utf-8"?>
<!-- Generator: Adobe Illustrator 16.0.0, SVG Export Plug-In . SVG Version: 6.00 Build 0)  -->
<!DOCTYPE svg PUBLIC "-//W3C//DTD SVG 1.1//EN" "http://www.w3.org/Graphics/SVG/1.1/DTD/svg11.dtd">
<svg version="1.1" id="Layer_1" xmlns="http://www.w3.org/2000/svg" xmlns:xlink="http://www.w3.org/1999/xlink" x="0px" y="0px"
	 width="150px" height="150px" viewBox="0 0 150 150" enable-background="new 0 0 150 150" xml:space="preserve">
<g>
	<path fill="#010101" d="M138.955,54.834h-2.184c-3.63-9.321-9.721-17.78-17.842-24.641c-1.139-4.122-0.277-8.583,2.645-13.197
		c1.631-2.615,1.723-5.753,0.246-8.429c-1.477-2.646-4.245-4.276-7.229-4.276c-0.339,0-0.708,0.03-1.047,0.062
		c-11.229,1.385-18.057,6.398-22.148,11.167c-4.922-1.538-11.167-2-12.336-2.092c-2.893-0.308-5.846-0.492-8.768-0.492
		c-18.673,0-36.238,6.398-49.497,17.965C7.383,42.622,0,58.28,0,74.954c0,4.307,0.492,8.613,1.508,12.827
		c0.03,0.093,0.03,0.186,0.061,0.246L1.6,88.181c1.046,4.246,2.615,8.398,4.614,12.367c3.354,7.198,7.353,13.228,11.844,17.873
		c6.214,6.398,7.291,14.52,7.444,17.781v1.6c0,0.061,0,0.153,0,0.215c0,0.338,0.031,0.646,0.093,0.953
		c0.585,3.814,3.876,6.738,7.813,6.738h22.918c4.369,0,7.906-3.539,7.906-7.906v-1.047c3.262,0.246,6.553,0.277,9.844,0.123v0.924
		c0,4.367,3.539,7.906,7.906,7.906h22.919c4.368,0,7.905-3.539,7.905-7.906v-5.6c0.031-1.292,0.523-7.414,6.338-12.705
		c0.277-0.246,0.584-0.492,0.861-0.738c0.031-0.03,0.031-0.03,0.062-0.061c0.093-0.062,0.153-0.123,0.216-0.216
		c7.659-6.86,13.443-15.228,16.796-24.364h1.815c6.121,0,11.105-4.983,11.105-11.105V65.878
		C150.061,59.788,145.077,54.834,138.955,54.834z M114.592,12.567C114.561,12.567,114.561,12.567,114.592,12.567
		c-0.031-0.031-0.031-0.031-0.031-0.031s0,0,0,0.031l0,0l-0.523-4.122L114.592,12.567z M141.755,83.044
		c0,1.537-1.261,2.799-2.8,2.799h-4.799c-1.814,0-3.445,1.199-3.969,2.923c-2.707,8.859-8.09,17.042-15.504,23.656
		c-0.031,0.03-0.031,0.03-0.062,0.062l-0.03,0.031c-0.277,0.246-0.555,0.492-0.831,0.738c-0.03,0.03-0.062,0.061-0.093,0.092
		c-8.213,7.445-9.044,16.212-9.105,18.734c0,0.031,0,0.062,0,0.093v5.261H82.414v-5.015c0-1.169-0.492-2.308-1.385-3.077
		c-0.861-0.799-2.061-1.168-3.199-1.045c-2.523,0.276-5.045,0.399-7.537,0.399c-3.23,0-6.46-0.216-9.629-0.646
		c-1.199-0.154-2.399,0.215-3.291,0.984c-0.893,0.799-1.416,1.938-1.416,3.138v5.261H33.839v-1.323c0-0.062,0-0.123,0-0.185
		c-0.185-4.152-1.507-14.766-9.782-23.287c-3.877-4-7.353-9.26-10.306-15.658c-0.03-0.062-0.062-0.093-0.062-0.154
		c-1.754-3.414-3.107-6.982-3.999-10.645c0-0.03-0.03-0.061-0.03-0.092s0-0.031,0-0.062c-0.861-3.63-1.323-7.353-1.323-11.044
		c0-29.624,27.81-53.711,61.987-53.711c2.645,0,5.321,0.153,7.937,0.431c0.062,0,0.123,0,0.185,0.03
		c3.445,0.216,9.844,1.107,12.397,2.492c1.876,1.015,4.214,0.431,5.414-1.323c2.677-3.969,8.028-8.982,18.304-10.244
		c-4.152,6.645-5.383,13.536-3.568,19.965c0.031,1.2,0.615,2.339,1.538,3.107c8.306,6.706,14.335,15.228,17.411,24.61
		c0.555,1.692,2.154,2.861,3.938,2.861c0.03,0,0.03,0,0.062,0h5.045c1.538,0,2.799,1.261,2.799,2.799v17.043H141.755L141.755,83.044
		z"/>
</g>
<path d="M78.742,71.19h-8.298c-2.972,0-5.388-2.415-5.388-5.387c0-2.973,2.416-5.387,5.388-5.387h14.675
	c2.043,0,3.715-1.672,3.715-3.716c0-2.043-1.672-3.715-3.715-3.715h-6.78v-4.984c0-2.044-1.672-3.716-3.715-3.716
	c-2.044,0-3.716,1.672-3.716,3.716v4.984h-0.434c-7.059,0-12.816,5.759-12.816,12.817s5.758,12.817,12.816,12.817h8.298
	c2.972,0,5.388,2.415,5.388,5.388c0,2.972-2.416,5.387-5.388,5.387H63.85c-2.043,0-3.715,1.672-3.715,3.715s1.672,3.715,3.715,3.715
	h7.059v5.078c0,2.043,1.672,3.715,3.716,3.715c2.043,0,3.715-1.672,3.715-3.715v-5.078h0.526c0.031,0,0.062,0,0.093,0
	c6.997-0.093,12.663-5.82,12.663-12.816C91.559,76.949,85.801,71.19,78.742,71.19z"/>
</svg>
