<?xml version="1.0" encoding="utf-8"?>
<!-- Generator: Adobe Illustrator 16.0.0, SVG Export Plug-In . SVG Version: 6.00 Build 0)  -->
<!DOCTYPE svg PUBLIC "-//W3C//DTD SVG 1.1//EN" "http://www.w3.org/Graphics/SVG/1.1/DTD/svg11.dtd">
<svg version="1.1" id="Layer_1" xmlns="http://www.w3.org/2000/svg" xmlns:xlink="http://www.w3.org/1999/xlink" x="0px" y="0px"
	 width="150px" height="150px" viewBox="0 0 150 150" enable-background="new 0 0 150 150" xml:space="preserve">
<path fill="#010101" d="M143.808,0H6.193c-2.109,0-3.84,1.729-3.84,3.842c0,2.113,1.73,3.839,3.84,3.839h8.289v138.381
	c0,1.408,0.77,2.722,2.018,3.392c1.25,0.674,2.754,0.608,3.938-0.19l16.674-11.106l16.738,11.138c1.277,0.866,2.977,0.866,4.255,0
	l16.673-11.105l16.738,11.138c1.279,0.862,2.977,0.862,4.258,0l16.674-11.104l16.734,11.137c0.643,0.416,1.378,0.642,2.111,0.642
	c0.609,0,1.25-0.16,1.826-0.448c1.248-0.674,2.018-1.984,2.018-3.394L135.07,7.778h8.737c2.112,0,3.839-1.729,3.839-3.842
	S145.92,0,143.808,0z M127.486,138.896l-12.898-8.578c-1.278-0.865-2.977-0.865-4.254,0L93.66,141.454l-16.738-11.136
	c-1.278-0.865-2.977-0.865-4.258,0l-16.672,11.104l-16.74-11.104c-1.277-0.865-2.975-0.865-4.254,0l-12.834,8.545V7.647h105.291
	L127.486,138.896z"/>
<path d="M72.554,99.227C72.554,99.227,72.554,99.257,72.554,99.227c0.09,0.091,0.18,0.181,0.27,0.241
	c0.031,0.029,0.091,0.06,0.15,0.09c0.061,0.03,0.091,0.061,0.15,0.12c0.061,0.03,0.121,0.061,0.15,0.091
	c0.061,0.029,0.091,0.06,0.15,0.09c0.061,0.03,0.121,0.061,0.182,0.09c0.06,0.03,0.09,0.061,0.15,0.061
	c0.06,0.03,0.12,0.03,0.18,0.061c0.061,0.029,0.121,0.029,0.181,0.061c0.061,0.029,0.12,0.029,0.181,0.029s0.121,0.03,0.181,0.03
	s0.12,0.03,0.181,0.03s0.09,0.029,0.15,0.029c0.12,0,0.24,0.031,0.361,0.031c0.119,0,0.24,0,0.36-0.031
	c0.061,0,0.12-0.029,0.15-0.029c0.061,0,0.12-0.03,0.181-0.03s0.12-0.03,0.181-0.03c0.06,0,0.12-0.029,0.181-0.029
	c0.061-0.031,0.12-0.031,0.18-0.061c0.061-0.03,0.121-0.03,0.182-0.061c0.06-0.03,0.09-0.061,0.15-0.061
	c0.06-0.029,0.119-0.06,0.18-0.09s0.09-0.061,0.15-0.09c0.061-0.03,0.121-0.061,0.15-0.091c0.061-0.03,0.09-0.06,0.15-0.12
	c0.061-0.03,0.09-0.061,0.15-0.09c0.091-0.061,0.181-0.15,0.241-0.211c0,0,0,0,0.03-0.03l14.32-14.319
	c1.414-1.414,1.414-3.701,0-5.115s-3.701-1.414-5.115,0l-8.273,8.184v-50.03c0-1.985-1.624-3.61-3.609-3.61
	c-1.986,0-3.61,1.625-3.61,3.61v50.03l-8.122-8.123c-1.414-1.414-3.701-1.414-5.115,0s-1.414,3.7,0,5.114L72.554,99.227z"/>
</svg>
