<?xml version="1.0" encoding="utf-8"?>
<!-- Generator: Adobe Illustrator 16.0.0, SVG Export Plug-In . SVG Version: 6.00 Build 0)  -->
<!DOCTYPE svg PUBLIC "-//W3C//DTD SVG 1.1//EN" "http://www.w3.org/Graphics/SVG/1.1/DTD/svg11.dtd">
<svg version="1.1" id="Layer_1" xmlns="http://www.w3.org/2000/svg" xmlns:xlink="http://www.w3.org/1999/xlink" x="0px" y="0px"
	 width="150px" height="150px" viewBox="0 0 150 150" enable-background="new 0 0 150 150" xml:space="preserve">
<g>
	<g>
		<path d="M71.989,141.406H32.864c-10.631,0-19.257-8.661-19.257-19.261V27.854c0-10.633,8.657-19.261,19.257-19.261h39.762
			c2.386,0,4.297-1.908,4.297-4.297C76.922,1.91,75.012,0,72.625,0H32.864C17.489,0,5.01,12.509,5.01,27.854v94.291
			C5.01,137.521,17.522,150,32.864,150h39.125c2.388,0,4.297-1.909,4.297-4.297C76.286,143.314,74.343,141.406,71.989,141.406z"/>
		<path d="M142.786,71.976l-27.313-27.313c-1.687-1.688-4.393-1.688-6.079,0c-1.688,1.686-1.688,4.393,0,6.081l19.99,19.991H42.192
			c-2.387,0-4.298,1.909-4.298,4.297c0,2.387,1.911,4.299,4.298,4.299h87.191l-19.99,19.991c-1.688,1.686-1.688,4.393,0,6.081
			c0.826,0.826,1.94,1.271,3.022,1.271c1.083,0,2.196-0.413,3.025-1.271l27.312-27.314C144.474,76.37,144.474,73.63,142.786,71.976z
			"/>
	</g>
</g>
</svg>
