<?xml version="1.0" encoding="utf-8"?>
<!-- Generator: Adobe Illustrator 16.0.0, SVG Export Plug-In . SVG Version: 6.00 Build 0)  -->
<!DOCTYPE svg PUBLIC "-//W3C//DTD SVG 1.1//EN" "http://www.w3.org/Graphics/SVG/1.1/DTD/svg11.dtd">
<svg version="1.1" id="Layer_1" xmlns="http://www.w3.org/2000/svg" xmlns:xlink="http://www.w3.org/1999/xlink" x="0px" y="0px"
	 width="150px" height="150px" viewBox="0 0 150 150" enable-background="new 0 0 150 150" xml:space="preserve">
<g>
	<path d="M147.239,20.837c-1.658-0.43-3.377,0.306-4.234,1.779C123.89,56.304,87.84,58.083,64.306,58.176V33.785
		c0-1.443-0.826-2.793-2.146-3.406c-1.318-0.614-2.884-0.43-3.987,0.491L1.349,77.873C0.49,78.579,0,79.653,0,80.757
		c0,1.134,0.49,2.178,1.379,2.883l56.762,46.85c0.675,0.553,1.535,0.859,2.394,0.859c0.553,0,1.103-0.123,1.594-0.368
		c1.32-0.614,2.149-1.933,2.149-3.406v-24.483c36.112-1.35,56.545-17.089,67.405-30.313c13.5-16.414,18.316-35.744,18.316-48.354
		C150.03,22.77,148.896,21.266,147.239,20.837z M60.503,95.698c-2.057,0.031-3.713,1.688-3.713,3.774v20.158L9.663,80.757
		L56.79,41.761v20.158c0,0.982,0.4,1.964,1.105,2.669c0.705,0.705,1.656,1.104,2.669,1.104c21.875,0,56.669,0,79.954-26.57
		C134.659,62.256,114.502,95.176,60.503,95.698z"/>
</g>
</svg>
