<?xml version="1.0" encoding="utf-8"?>
<!-- Generator: Adobe Illustrator 16.0.0, SVG Export Plug-In . SVG Version: 6.00 Build 0)  -->
<!DOCTYPE svg PUBLIC "-//W3C//DTD SVG 1.1//EN" "http://www.w3.org/Graphics/SVG/1.1/DTD/svg11.dtd">
<svg version="1.1" id="Layer_1" xmlns="http://www.w3.org/2000/svg" xmlns:xlink="http://www.w3.org/1999/xlink" x="0px" y="0px"
	 width="150px" height="150px" viewBox="0 0 150 150" enable-background="new 0 0 150 150" xml:space="preserve">
<g>
	<g>
		<path fill="#010101" d="M13.195,62.848h36.457c7.273,0,13.195-5.922,13.195-13.195V13.196C62.848,5.923,56.926,0,49.652,0H13.195
			C5.923,0,0,5.923,0,13.196v36.426C0,56.925,5.923,62.848,13.195,62.848z M7.519,13.196c0-3.13,2.547-5.677,5.677-5.677h36.457
			c3.13,0,5.678,2.547,5.678,5.677v36.426c0,3.13-2.548,5.677-5.678,5.677H13.195c-3.13,0-5.677-2.547-5.677-5.677V13.196z"/>
		<path fill="#010101" d="M106.424,33.449c0-4.971-4.051-9.022-9.053-9.022H76.994c-4.971,0-9.053,4.051-9.053,9.022v20.376
			c0,4.971,4.051,9.053,9.053,9.053h20.377c4.971,0,9.053-4.051,9.053-9.053V33.449z M98.905,53.795
			c0,0.829-0.675,1.535-1.534,1.535H76.994c-0.828,0-1.533-0.675-1.533-1.535V33.418c0-0.829,0.674-1.503,1.533-1.503h20.377
			c0.828,0,1.534,0.675,1.534,1.503V53.795z"/>
		<path fill="#010101" d="M150,33.449c0-4.971-4.051-9.022-9.021-9.022h-20.377c-4.972,0-9.053,4.051-9.053,9.022v20.376
			c0,4.971,4.051,9.053,9.053,9.053h20.377c4.971,0,9.021-4.051,9.021-9.053V33.449z M142.481,53.795
			c0,0.829-0.675,1.535-1.503,1.535h-20.377c-0.828,0-1.535-0.675-1.535-1.535V33.418c0-0.829,0.676-1.503,1.535-1.503h20.377
			c0.828,0,1.503,0.675,1.503,1.503V53.795z"/>
		<path fill="#010101" d="M106.424,77.025c0-4.971-4.051-9.022-9.053-9.022H76.994c-4.971,0-9.053,4.051-9.053,9.022v20.377
			c0,4.971,4.051,9.053,9.053,9.053h20.377c4.971,0,9.053-4.051,9.053-9.053V77.025z M98.905,97.371
			c0,0.828-0.675,1.534-1.534,1.534H76.994c-0.828,0-1.533-0.675-1.533-1.534V76.994c0-0.828,0.674-1.503,1.533-1.503h20.377
			c0.828,0,1.534,0.675,1.534,1.503V97.371z"/>
		<path fill="#010101" d="M150,77.025c0-4.971-4.051-9.022-9.021-9.022h-20.377c-4.972,0-9.053,4.051-9.053,9.022v20.377
			c0,4.971,4.051,9.053,9.053,9.053h20.377c4.971,0,9.021-4.051,9.021-9.053V77.025z M142.481,97.371
			c0,0.828-0.675,1.534-1.503,1.534h-20.377c-0.828,0-1.535-0.675-1.535-1.534V76.994c0-0.828,0.676-1.503,1.535-1.503h20.377
			c0.828,0,1.503,0.675,1.503,1.503V97.371z"/>
		<path fill="#010101" d="M33.449,67.973c-4.971,0-9.053,4.051-9.053,9.021v20.377c0,4.971,4.051,9.053,9.053,9.053h20.377
			c4.971,0,9.053-4.051,9.053-9.053V76.994c0-4.971-4.051-9.021-9.053-9.021H33.449z M55.33,77.025v20.377
			c0,0.828-0.676,1.533-1.535,1.533H33.418c-0.828,0-1.533-0.674-1.533-1.533V77.025c0-0.828,0.675-1.504,1.533-1.504h20.377
			C54.654,75.491,55.33,76.166,55.33,77.025z"/>
		<path fill="#010101" d="M97.371,111.549H76.994c-4.971,0-9.053,4.051-9.053,9.053v20.377c0,4.971,4.051,9.021,9.053,9.021h20.377
			c4.971,0,9.053-4.051,9.053-9.021v-20.377C106.424,115.6,102.373,111.549,97.371,111.549z M98.905,140.979
			c0,0.828-0.675,1.503-1.534,1.503H76.994c-0.828,0-1.533-0.675-1.533-1.503v-20.377c0-0.828,0.674-1.535,1.533-1.535h20.377
			c0.828,0,1.534,0.676,1.534,1.535V140.979z"/>
		<path fill="#010101" d="M140.979,111.549h-20.377c-4.972,0-9.053,4.051-9.053,9.053v20.377c0,4.971,4.051,9.021,9.053,9.021
			h20.377c4.971,0,9.021-4.051,9.021-9.021v-20.377C150,115.6,145.949,111.549,140.979,111.549z M142.481,140.979
			c0,0.828-0.675,1.503-1.503,1.503h-20.377c-0.828,0-1.535-0.675-1.535-1.503v-20.377c0-0.828,0.676-1.535,1.535-1.535h20.377
			c0.828,0,1.503,0.676,1.503,1.535V140.979z"/>
		<path fill="#010101" d="M33.449,150h20.377c4.971,0,9.053-4.051,9.053-9.021v-20.377c0-4.972-4.051-9.053-9.053-9.053H33.449
			c-4.971,0-9.053,4.051-9.053,9.053v20.377C24.396,145.949,28.447,150,33.449,150z M31.915,120.602
			c0-0.828,0.675-1.535,1.534-1.535h20.377c0.828,0,1.533,0.676,1.533,1.535v20.377c0,0.828-0.674,1.503-1.533,1.503H33.449
			c-0.828,0-1.534-0.675-1.534-1.503V120.602z"/>
	</g>
</g>
</svg>
