<?xml version="1.0" encoding="utf-8"?>
<!-- Generator: Adobe Illustrator 16.0.0, SVG Export Plug-In . SVG Version: 6.00 Build 0)  -->
<!DOCTYPE svg PUBLIC "-//W3C//DTD SVG 1.1//EN" "http://www.w3.org/Graphics/SVG/1.1/DTD/svg11.dtd">
<svg version="1.1" id="Layer_1" xmlns="http://www.w3.org/2000/svg" xmlns:xlink="http://www.w3.org/1999/xlink" x="0px" y="0px"
	 width="150px" height="150px" viewBox="0 0 150 150" enable-background="new 0 0 150 150" xml:space="preserve">
<g>
	<g>
		<path d="M78.637,73.11V4.217C78.637,1.873,76.762,0,74.42,0c-2.345,0-4.217,1.873-4.217,4.217V73.11
			c-9.774,1.968-17.177,10.62-17.177,20.987c0,10.369,7.402,19.019,17.177,20.987v30.669c0,2.342,1.872,4.217,4.217,4.217
			c2.342,0,4.217-1.875,4.217-4.217v-30.669c9.774-1.968,17.175-10.618,17.175-20.987C95.812,83.76,88.441,75.078,78.637,73.11z
			 M74.42,107.059c-7.153,0-12.962-5.811-12.962-12.962s5.809-12.96,12.962-12.96c7.151,0,12.96,5.809,12.96,12.96
			S81.571,107.059,74.42,107.059z"/>
		<path d="M27.012,37.757V4.217C27.012,1.873,25.137,0,22.797,0c-2.345,0-4.217,1.873-4.217,4.217v33.541
			C8.806,39.725,1.4,48.375,1.4,58.745c0,10.369,7.405,19.019,17.18,20.987v66.021c0,2.342,1.872,4.217,4.217,4.217
			c2.34,0,4.215-1.875,4.215-4.217V79.699c9.776-1.965,17.177-10.618,17.177-20.984C44.188,48.345,36.788,39.725,27.012,37.757z
			 M22.797,71.704c-7.154,0-12.962-5.808-12.962-12.959s5.808-12.96,12.962-12.96c7.148,0,12.957,5.809,12.957,12.96
			S29.916,71.704,22.797,71.704z"/>
		<path d="M129.949,37.757V4.217c0-2.344-1.878-4.217-4.217-4.217c-2.345,0-4.218,1.873-4.218,4.217v33.541
			c-9.774,1.968-17.174,10.618-17.174,20.987c0,10.369,7.399,19.019,17.174,20.987v66.052c0,2.342,1.873,4.217,4.218,4.217
			c2.339,0,4.217-1.875,4.217-4.217V79.699c9.774-1.965,17.174-10.618,17.174-20.984C147.123,48.345,139.754,39.725,129.949,37.757z
			 M125.732,71.704c-7.154,0-12.963-5.808-12.963-12.959s5.809-12.96,12.963-12.96c7.148,0,12.962,5.809,12.962,12.96
			S132.881,71.704,125.732,71.704z"/>
	</g>
</g>
</svg>
