<?xml version="1.0" encoding="utf-8"?>
<!-- Generator: Adobe Illustrator 16.0.0, SVG Export Plug-In . SVG Version: 6.00 Build 0)  -->
<!DOCTYPE svg PUBLIC "-//W3C//DTD SVG 1.1//EN" "http://www.w3.org/Graphics/SVG/1.1/DTD/svg11.dtd">
<svg version="1.1" id="Layer_1" xmlns="http://www.w3.org/2000/svg" xmlns:xlink="http://www.w3.org/1999/xlink" x="0px" y="0px"
	 width="150px" height="150px" viewBox="0 0 150 150" enable-background="new 0 0 150 150" xml:space="preserve">
<g>
	<path d="M44.823,98.764h82.649c9.372,0,17.018-7.645,17.018-17.017V46.971c0-0.029,0-0.091,0-0.122c0-0.091,0-0.154,0-0.248
		c0-0.06,0-0.123-0.031-0.185c0-0.06-0.031-0.153-0.031-0.216c0-0.06-0.031-0.123-0.031-0.183c-0.029-0.062-0.029-0.125-0.061-0.216
		c-0.031-0.062-0.031-0.125-0.062-0.185c-0.031-0.062-0.031-0.125-0.062-0.185c-0.028-0.062-0.06-0.125-0.091-0.216
		c-0.031-0.062-0.062-0.125-0.094-0.154c-0.028-0.062-0.06-0.125-0.091-0.188c-0.031-0.06-0.062-0.091-0.094-0.153
		c-0.029-0.06-0.092-0.123-0.123-0.185c-0.031-0.06-0.062-0.091-0.122-0.154c-0.031-0.062-0.094-0.091-0.125-0.153
		c-0.028-0.062-0.091-0.094-0.122-0.154c-0.031-0.062-0.094-0.094-0.123-0.125c-0.062-0.06-0.094-0.091-0.156-0.154
		c-0.06-0.031-0.091-0.091-0.153-0.122c-0.06-0.031-0.122-0.094-0.185-0.125c-0.062-0.029-0.092-0.06-0.154-0.091
		s-0.122-0.062-0.185-0.125c-0.062-0.029-0.122-0.06-0.185-0.091c-0.062-0.031-0.123-0.062-0.186-0.091
		c-0.062-0.031-0.122-0.062-0.185-0.094s-0.125-0.031-0.185-0.062c-0.062-0.031-0.154-0.06-0.217-0.06
		c-0.062,0-0.122-0.031-0.153-0.031c-0.094-0.031-0.153-0.031-0.247-0.031c-0.031,0-0.062-0.031-0.123-0.031L36.159,28.384V13.771
		c0-0.153,0-0.307-0.031-0.432c0-0.031,0-0.06-0.031-0.123c0-0.093-0.028-0.185-0.028-0.278c-0.031-0.091-0.031-0.154-0.062-0.245
		c0-0.062-0.031-0.093-0.031-0.156c-0.031-0.091-0.062-0.185-0.091-0.276c0-0.031-0.031-0.094-0.031-0.123
		c-0.031-0.093-0.062-0.156-0.125-0.247c-0.029-0.031-0.029-0.094-0.061-0.125c-0.031-0.06-0.062-0.123-0.125-0.185
		c-0.031-0.06-0.06-0.091-0.091-0.154c-0.031-0.06-0.062-0.091-0.094-0.154s-0.091-0.123-0.122-0.185
		c-0.031-0.031-0.062-0.062-0.094-0.093c-0.061-0.06-0.123-0.123-0.186-0.185c-0.028-0.029-0.06-0.06-0.091-0.091
		c-0.062-0.062-0.122-0.123-0.216-0.185c-0.031-0.031-0.094-0.062-0.123-0.093c-0.062-0.06-0.125-0.091-0.185-0.154
		c-0.094-0.06-0.185-0.123-0.247-0.154c-0.031-0.031-0.062-0.031-0.094-0.062c-0.123-0.06-0.276-0.122-0.401-0.185L10.88,0.329
		C8.753-0.564,6.318,0.423,5.425,2.55C4.529,4.675,5.516,7.112,7.644,8.005l20.162,8.51v18.866v2.99v22.938v20.499v25.896
		c0,8.632,6.474,15.785,14.827,16.863c-1.51,2.528-2.403,5.487-2.403,8.632c0,9.278,7.552,16.801,16.801,16.801
		s16.801-7.552,16.801-16.801c0-3.083-0.831-6.013-2.312-8.479h37.427c-1.481,2.497-2.312,5.396-2.312,8.479
		c0,9.278,7.552,16.801,16.802,16.801c9.249,0,16.801-7.552,16.801-16.801c0-9.25-7.552-16.801-16.801-16.801H44.823
		c-4.81,0-8.695-3.917-8.695-8.695V96.421C38.656,97.9,41.646,98.764,44.823,98.764z M65.54,133.168
		c0,4.687-3.822,8.479-8.479,8.479s-8.479-3.823-8.479-8.479s3.822-8.479,8.479-8.479S65.54,128.483,65.54,133.168z
		 M131.943,133.168c0,4.687-3.824,8.479-8.479,8.479c-4.655,0-8.478-3.823-8.478-8.479s3.822-8.479,8.478-8.479
		C128.119,124.689,131.943,128.483,131.943,133.168z M127.473,90.439H44.823c-4.81,0-8.695-3.914-8.695-8.692V61.246V38.311v-1.542
		l100.039,13.78v31.167C136.167,86.557,132.251,90.439,127.473,90.439z"/>
</g>
</svg>
