<?xml version="1.0" encoding="iso-8859-1"?>
<!-- Generator: Adobe Illustrator 18.0.0, SVG Export Plug-In . SVG Version: 6.00 Build 0)  -->
<!DOCTYPE svg PUBLIC "-//W3C//DTD SVG 1.1//EN" "http://www.w3.org/Graphics/SVG/1.1/DTD/svg11.dtd">
<svg xmlns="http://www.w3.org/2000/svg" xmlns:xlink="http://www.w3.org/1999/xlink" version="1.1" id="Capa_1" x="0px" y="0px" viewBox="0 0 487 487" style="enable-background:new 0 0 487 487;" xml:space="preserve" width="512px" height="512px">
<g>
	<path d="M477.767,98.156c-4.536-6.337-12.124-9.972-20.818-9.972H315.94V30.5c0-16.818-13.683-30.5-30.5-30.5h-250   C18.623,0,4.94,13.682,4.94,30.5v426c0,16.818,13.683,30.5,30.5,30.5h250c16.817,0,30.5-13.682,30.5-30.5V324.968h17.215   c-0.013,0.406-0.03,0.81-0.03,1.219c0,19.81,16.116,35.927,35.927,35.927c19.811,0,35.927-16.117,35.927-35.927   c0-19.81-16.116-35.927-35.927-35.927c-11.427,0-21.616,5.368-28.201,13.708H278.38c-6.585-8.34-16.774-13.708-28.201-13.708   c-10.396,0-19.771,4.444-26.337,11.526c-0.722-0.939-1.167-2.102-1.167-3.383v-23.515c1.885,0.361,3.813,0.555,5.766,0.555h171.883   c15.476,0,31.506-11.474,36.494-26.121l43.678-128.246C483.298,112.848,482.304,104.493,477.767,98.156z M369.052,311.26   c8.23,0,14.927,6.696,14.927,14.927s-6.696,14.927-14.927,14.927c-8.23,0-14.927-6.696-14.927-14.927   S360.821,311.26,369.052,311.26z M285.44,466h-250c-5.238,0-9.5-4.262-9.5-9.5V397h269v59.5C294.94,461.738,290.679,466,285.44,466   z M250.179,311.26c8.231,0,14.928,6.696,14.928,14.927s-6.696,14.927-14.928,14.927c-8.23,0-14.926-6.696-14.926-14.927   S241.948,311.26,250.179,311.26z M195.885,246.03c0.564,5.548,2.645,10.742,5.79,15.175v37.198c0,9.714,5.152,18.192,12.929,22.824   c-0.226,1.622-0.351,3.276-0.351,4.96c0,19.81,16.116,35.927,35.926,35.927c19.81,0,35.928-16.117,35.928-35.927   c0-0.409-0.018-0.813-0.031-1.219h8.865V376h-269V30.5c0-5.238,4.262-9.5,9.5-9.5h250c5.238,0,9.5,4.262,9.5,9.5v57.684h-83.367   c-3.632,0-7.123,0.635-10.355,1.852l-3.026-30.251c-0.537-5.368-5.054-9.455-10.448-9.455h-47.391c-5.799,0-10.5,4.701-10.5,10.5   c0,5.799,4.701,10.5,10.5,10.5h37.889L195.885,246.03z M460.616,114.308l-43.678,128.246c-2.119,6.223-10.039,11.891-16.615,11.891   H228.439c-5.643,0-11.092-4.923-11.662-10.534l-12.786-126.135c0-0.002,0-0.004,0-0.006l-0.003-0.023   c-0.238-2.371,0.425-4.557,1.871-6.156c1.401-1.551,3.431-2.405,5.714-2.405h245.375c1.781,0,3.215,0.458,3.743,1.196   C461.219,111.117,461.19,112.622,460.616,114.308z" fill="#FFFFFF"/>
	<path d="M173.94,414.041h-26.998c-5.799,0-10.5,4.701-10.5,10.5c0,5.799,4.701,10.5,10.5,10.5h26.998c5.799,0,10.5-4.701,10.5-10.5   C184.44,418.742,179.739,414.041,173.94,414.041z" fill="#FFFFFF"/>
</g>
<g>
</g>
<g>
</g>
<g>
</g>
<g>
</g>
<g>
</g>
<g>
</g>
<g>
</g>
<g>
</g>
<g>
</g>
<g>
</g>
<g>
</g>
<g>
</g>
<g>
</g>
<g>
</g>
<g>
</g>
</svg>
