<?xml version="1.0" encoding="utf-8"?>
<!-- Generator: Adobe Illustrator 16.0.0, SVG Export Plug-In . SVG Version: 6.00 Build 0)  -->
<!DOCTYPE svg PUBLIC "-//W3C//DTD SVG 1.1//EN" "http://www.w3.org/Graphics/SVG/1.1/DTD/svg11.dtd">
<svg version="1.1" id="Layer_1" xmlns="http://www.w3.org/2000/svg" xmlns:xlink="http://www.w3.org/1999/xlink" x="0px" y="0px"
	 width="150px" height="150px" viewBox="0 0 150 150" enable-background="new 0 0 150 150" xml:space="preserve">
<g>
	<path fill="#FFFFFF" d="M86.719,44.519c-1.617,0-2.93,1.313-2.93,2.93c0,1.616,1.312,2.929,2.93,2.929
		c1.616,0,2.928-1.312,2.928-2.929C89.646,45.832,88.335,44.519,86.719,44.519z"/>
	<path fill="#FFFFFF" d="M68.957,101.738c1.143-1.146,1.143-3,0-4.146c-1.145-1.142-2.998-1.142-4.145,0
		c-1.142,1.146-1.142,2.999,0,4.146C65.959,102.88,67.812,102.88,68.957,101.738z"/>
	<path fill="#FFFFFF" d="M33.76,149.134c1.135,1.145,2.983,1.157,4.133,0.024l14.2-13.99c2.413-2.412,3.146-5.983,2.085-9.088
		l3.055-2.946c1.645-1.589,3.81-2.464,6.099-2.464h38.937c6.907,0,13.436-2.652,18.386-7.47c0.204-0.198-1.546,1.863,26.563-31.731
		c4.168-4.934,3.545-12.339-1.393-16.513c-4.906-4.135-12.255-3.541-16.436,1.307l-17.283,17.763
		c-2.182-2.686-5.51-4.359-9.105-4.359H70.34c-4.648-1.944-9.579-2.929-14.667-2.929c-14.1,0-26.417,6.509-33.028,18.728
		c-2.784-0.527-5.721,0.314-7.833,2.427L0.879,111.866c-1.139,1.141-1.141,2.987-0.006,4.13L33.76,149.134z M55.672,82.594
		c4.486,0,8.823,0.903,12.894,2.684c0.371,0.163,0.771,0.246,1.175,0.246H103c3.176,0,5.857,2.59,5.857,5.857
		c0,3.23-2.627,5.858-5.857,5.858H79.104c-1.617,0-2.929,1.312-2.929,2.929c0,1.618,1.312,2.929,2.929,2.929H103
		c6.46,0,11.715-5.255,11.715-11.716c0-0.515-0.037-1.025-0.104-1.531c16.719-17.186,19.076-19.6,19.178-19.72
		c2.088-2.464,5.793-2.776,8.258-0.698c2.467,2.086,2.779,5.79,0.687,8.268l-26.27,31.404c-3.837,3.683-8.873,5.709-14.196,5.709
		H63.331c-3.815,0-7.427,1.459-10.167,4.106l-2.489,2.402L27.729,98.377C33.092,88.316,43.155,82.594,55.672,82.594z
		 M18.957,102.031c0.965-0.967,2.449-1.141,3.626-0.412c0.448,0.272,25.499,25.385,25.653,25.592c0.857,1.155,0.734,2.795-0.27,3.8
		l-12.105,11.926L7.084,113.938L18.957,102.031z"/>
	<path fill="#FFFFFF" d="M45.714,62.092h70.293c4.846,0,8.787-3.941,8.787-8.787c0-7.383,0-39.21,0-44.519
		c0-4.845-3.941-8.787-8.787-8.787H45.714c-4.845,0-8.786,3.941-8.786,8.787v44.519C36.928,58.151,40.869,62.092,45.714,62.092z
		 M118.936,23.431h-76.15v-5.857h76.15V23.431z M116.007,56.235H45.714c-1.614,0-2.929-1.315-2.929-2.93V29.289h76.15v24.017
		C118.936,54.92,117.621,56.235,116.007,56.235z M45.714,5.858h70.293c1.614,0,2.929,1.313,2.929,2.928v2.929h-76.15V8.787
		C42.785,7.172,44.1,5.858,45.714,5.858z"/>
	<path fill="#FFFFFF" d="M110.148,44.519H98.434c-1.617,0-2.929,1.312-2.929,2.93c0,1.617,1.312,2.929,2.929,2.929h11.715
		c1.619,0,2.93-1.312,2.93-2.929C113.078,45.83,111.768,44.519,110.148,44.519z"/>
</g>
</svg>
