<?xml version="1.0" encoding="utf-8"?>
<!-- Generator: Adobe Illustrator 16.0.0, SVG Export Plug-In . SVG Version: 6.00 Build 0)  -->
<!DOCTYPE svg PUBLIC "-//W3C//DTD SVG 1.1//EN" "http://www.w3.org/Graphics/SVG/1.1/DTD/svg11.dtd">
<svg version="1.1" id="Layer_1" xmlns="http://www.w3.org/2000/svg" xmlns:xlink="http://www.w3.org/1999/xlink" x="0px" y="0px"
	 width="150px" height="150px" viewBox="0 0 150 150" enable-background="new 0 0 150 150" xml:space="preserve">
<path fill="#FFFFFF" d="M143.808,0H6.193c-2.109,0-3.84,1.729-3.84,3.842c0,2.113,1.73,3.839,3.84,3.839h8.289v138.381
	c0,1.408,0.77,2.722,2.018,3.392c1.25,0.674,2.754,0.608,3.938-0.19l16.674-11.106l16.738,11.138c1.277,0.866,2.977,0.866,4.255,0
	l16.673-11.105l16.738,11.138c1.279,0.862,2.977,0.862,4.258,0l16.674-11.104l16.734,11.137c0.643,0.416,1.378,0.642,2.111,0.642
	c0.609,0,1.25-0.16,1.826-0.448c1.248-0.674,2.018-1.984,2.018-3.394L135.07,7.778h8.737c2.112,0,3.839-1.729,3.839-3.842
	S145.92,0,143.808,0z M127.486,138.896l-12.898-8.578c-1.278-0.865-2.977-0.865-4.254,0L93.66,141.454l-16.738-11.136
	c-1.278-0.865-2.977-0.865-4.258,0l-16.672,11.104l-16.74-11.104c-1.277-0.865-2.975-0.865-4.254,0l-12.834,8.545V7.647h105.291
	L127.486,138.896z"/>
<g>
	<path fill="#FFFFFF" d="M98.905,44.459h-0.878v-3.176c0-6.5-5.287-11.788-11.786-11.788H63.593c-6.5,0-11.788,5.288-11.788,11.788
		v3.176h-0.71c-6.498,0-11.785,5.288-11.785,11.788v17.398c0,6.5,5.287,11.787,11.785,11.787h0.696v12.677
		c0,3.521,2.865,6.386,6.387,6.386h33.448c3.522,0,6.388-2.865,6.388-6.386V85.432h0.892c6.498,0,11.785-5.288,11.785-11.787V56.247
		C110.69,49.747,105.403,44.459,98.905,44.459z M91.626,98.44H58.178c-0.159,0-0.304-0.144-0.304-0.301V76.582h34.054v21.558
		C91.928,98.297,91.784,98.44,91.626,98.44z M63.576,35.581h22.635c3.145,0,5.702,2.558,5.702,5.702v3.176H57.874v-3.176
		C57.874,38.139,60.432,35.581,63.576,35.581z M98.027,76.582h1.694c1.678,0,3.043-1.364,3.043-3.042
		c0-1.678-1.365-3.043-3.043-3.043H49.794c-1.677,0-3.041,1.365-3.041,3.043c0,1.677,1.364,3.042,3.041,3.042h2.011v2.781h-0.71
		c-3.145,0-5.702-2.558-5.702-5.702V56.262c0-3.144,2.558-5.702,5.702-5.702h47.808c3.145,0,5.702,2.558,5.702,5.702l0.001,17.566
		c-0.09,3.067-2.612,5.534-5.7,5.534h-0.878V76.582z"/>
	<path fill="#FFFFFF" d="M61.822,86.627h26.007c1.678,0,3.042-1.365,3.042-3.043s-1.364-3.042-3.042-3.042H61.822
		c-1.678,0-3.043,1.365-3.043,3.042S60.145,86.627,61.822,86.627z"/>
	<path fill="#FFFFFF" d="M87.996,88.894H61.973c-1.678,0-3.043,1.365-3.043,3.042c0,1.678,1.365,3.043,3.043,3.043h26.007
		c1.678,0,3.043-1.365,3.043-3.043C91.022,90.259,89.665,88.894,87.996,88.894z"/>
	<path fill="#FFFFFF" d="M98.86,52.478h-4.147c-1.677,0-3.04,1.365-3.04,3.042c0,1.678,1.363,3.043,3.04,3.043h4.147
		c1.677,0,3.04-1.365,3.04-3.043C101.9,53.842,100.537,52.478,98.86,52.478z"/>
</g>
</svg>
