<?xml version="1.0" encoding="utf-8"?>
<!-- Generator: Adobe Illustrator 16.0.0, SVG Export Plug-In . SVG Version: 6.00 Build 0)  -->
<!DOCTYPE svg PUBLIC "-//W3C//DTD SVG 1.1//EN" "http://www.w3.org/Graphics/SVG/1.1/DTD/svg11.dtd">
<svg version="1.1" id="Layer_1" xmlns="http://www.w3.org/2000/svg" xmlns:xlink="http://www.w3.org/1999/xlink" x="0px" y="0px"
	 width="150px" height="150px" viewBox="0 0 150 150" enable-background="new 0 0 150 150" xml:space="preserve">
<g>
	<path fill="#FFFFFF" d="M135.014,129.662l-8.588-96.716c-0.183-2.146-1.993-3.772-4.109-3.772h-17.669
		C104.401,13.037,91.212,0,75.015,0c-16.196,0-29.387,13.037-29.63,29.173H27.714c-2.146,0-3.925,1.626-4.109,3.772l-8.589,96.716
		c0,0.123-0.029,0.246-0.029,0.369C14.986,141.043,25.075,150,37.5,150h75.032c12.422,0,22.514-8.957,22.514-19.969
		C135.046,129.908,135.046,129.785,135.014,129.662z M75.015,8.283c11.628,0,21.104,9.324,21.35,20.89H53.665
		C53.911,17.607,63.39,8.283,75.015,8.283z M112.532,141.717H37.5c-7.791,0-14.11-5.153-14.233-11.501l8.222-92.73h13.864V50.06
		c0,2.303,1.841,4.144,4.142,4.144s4.142-1.84,4.142-4.144V37.485h42.729V50.06c0,2.303,1.841,4.144,4.142,4.144
		s4.142-1.84,4.142-4.144V37.485h13.864l8.254,92.73C126.643,136.564,120.291,141.717,112.532,141.717z"/>
</g>
</svg>
