<?xml version="1.0" encoding="utf-8"?>
<!-- Generator: Adobe Illustrator 16.0.0, SVG Export Plug-In . SVG Version: 6.00 Build 0)  -->
<!DOCTYPE svg PUBLIC "-//W3C//DTD SVG 1.1//EN" "http://www.w3.org/Graphics/SVG/1.1/DTD/svg11.dtd">
<svg version="1.1" id="Layer_1" xmlns="http://www.w3.org/2000/svg" xmlns:xlink="http://www.w3.org/1999/xlink" x="0px" y="0px"
	 width="150px" height="150px" viewBox="0 0 150 150" enable-background="new 0 0 150 150" xml:space="preserve">
<g>
	<g>
		<path fill="#FFFFFF" d="M142.296,48.236c-5.046-5.464-12.235-8.483-20.221-8.483h-19.227V29.355c0-2.52-2.064-4.586-4.588-4.586
			H6.69c-2.214,0-4.073,1.592-4.496,3.686c0.852-0.647,1.972-1.053,3.382-1.053c4.096,0,6.252,3.368,6.236,6.542h81.903v71.892
			h-43.19c-0.191,0-0.379,0-0.574,0.039c-2.289-5.66-7.83-9.67-14.293-9.67c-6.498,0-12.039,4.051-14.295,9.745
			c-0.341-0.075-0.651-0.113-0.994-0.113h-9.058c0,0-0.614,0.005-0.938,0.03c-0.121,0.013-0.194,0.021-0.271,0.027
			c-0.177,0.054-0.357,0.101-0.531,0.166c-0.165,0.065-0.783,0.383-0.862,0.413c-0.641,0.36-1.276,0.729-1.919,1.087
			c-0.057,0.032-0.116,0.05-0.176,0.079c-0.713,1.624-2.191,2.85-4.491,2.989c0.134,2.406,2.126,4.342,4.566,4.342h13.946
			c1.532,6.881,7.688,12.002,15.021,12.002c7.341,0,13.454-5.121,15.02-12.002h54.959c1.571,6.842,7.687,12.002,15.023,12.002
			c7.341,0,13.456-5.121,15.019-12.002h10.244c2.521,0,4.588-2.064,4.588-4.586V72.277
			C150.511,62.379,147.642,54.045,142.296,48.236z M35.658,117.836c-3.439,0-6.229-2.792-6.229-6.231c0-3.441,2.79-6.23,6.229-6.23
			s6.229,2.789,6.229,6.23C41.888,115.044,39.098,117.836,35.658,117.836z M120.66,117.836c-3.439,0-6.23-2.792-6.23-6.231
			c0-3.441,2.791-6.23,6.23-6.23c3.441,0,6.229,2.789,6.229,6.23C126.853,115.044,124.062,117.836,120.66,117.836z M141.341,105.835
			h-6.423c-2.294-5.622-7.837-9.632-14.258-9.632c-6.422,0-11.963,3.975-14.256,9.632h-3.519v-56.91h19.229
			c12.037,0,19.227,8.752,19.227,23.39V105.835z"/>
		<path fill="#FFFFFF" d="M12.114,25.034c-0.068-0.094-0.165-0.169-0.229-0.265H5.099c-2.521,0-4.588,2.066-4.588,4.589
			c0,2.522,2.066,4.585,4.588,4.585h9.767C12.537,31.696,11.969,28.39,12.114,25.034z"/>
		<path fill="#FFFFFF" d="M38.922,65.092H9.363c-2.52,0-4.583,2.063-4.583,4.585c0,2.525,2.063,4.587,4.583,4.587h29.583
			C38.964,71.208,38.961,68.149,38.922,65.092z"/>
		<path fill="#FFFFFF" d="M78.006,69.143c0-0.077-0.037-0.153-0.037-0.268c0-0.076-0.04-0.152-0.04-0.229
			c0-0.076-0.032-0.153-0.032-0.23c-0.04-0.077-0.04-0.152-0.077-0.19c-0.04-0.077-0.04-0.153-0.079-0.23
			c-0.035-0.077-0.077-0.115-0.077-0.191c-0.035-0.075-0.075-0.153-0.114-0.228c-0.035-0.08-0.075-0.114-0.112-0.192
			c-0.04-0.077-0.077-0.153-0.119-0.229c-0.037-0.076-0.072-0.114-0.149-0.191c-0.04-0.076-0.075-0.114-0.114-0.19
			c-0.077-0.113-0.191-0.192-0.269-0.306l-0.04-0.04L65.509,55.193c-1.795-1.796-4.698-1.796-6.496,0
			c-1.798,1.797-1.798,4.702,0,6.498l3.398,3.402H25.846c0.029,3.057,0.029,6.115,0.007,9.172h36.523l-3.936,4.203
			c-1.798,1.797-1.798,4.702,0,6.499c0.876,0.878,2.061,1.337,3.246,1.337c1.187,0,2.331-0.459,3.25-1.337l11.849-11.848
			c0.077-0.114,0.191-0.191,0.269-0.306c0.039-0.076,0.074-0.116,0.114-0.191c0.037-0.076,0.077-0.113,0.149-0.191
			c0.042-0.075,0.079-0.152,0.119-0.227c0.037-0.079,0.077-0.115,0.112-0.192c0.039-0.077,0.079-0.154,0.114-0.23
			c0.042-0.075,0.077-0.114,0.077-0.191c0.039-0.076,0.039-0.153,0.079-0.229c0.037-0.076,0.037-0.152,0.077-0.189
			c0.032-0.078,0.032-0.153,0.032-0.233c0-0.075,0.04-0.151,0.04-0.227c0-0.076,0.037-0.154,0.037-0.269
			c0-0.076,0.042-0.113,0.042-0.188c0.04-0.31,0.04-0.614,0-0.919C78.048,69.259,78.048,69.217,78.006,69.143z"/>
	</g>
</g>
<path fill="#FFFFFF" d="M12.114,106.067c-0.068-0.092-0.165-0.168-0.229-0.264H5.099c-2.521,0-4.588,2.065-4.588,4.589
	c0,2.522,2.066,4.585,4.588,4.585h9.767C12.537,112.729,11.969,109.424,12.114,106.067z"/>
</svg>
