<?xml version="1.0" encoding="utf-8"?>
<!-- Generator: Adobe Illustrator 16.0.0, SVG Export Plug-In . SVG Version: 6.00 Build 0)  -->
<!DOCTYPE svg PUBLIC "-//W3C//DTD SVG 1.1//EN" "http://www.w3.org/Graphics/SVG/1.1/DTD/svg11.dtd">
<svg version="1.1" id="Layer_1" xmlns="http://www.w3.org/2000/svg" xmlns:xlink="http://www.w3.org/1999/xlink" x="0px" y="0px"
	 width="150px" height="150px" viewBox="0 0 150 150" enable-background="new 0 0 150 150" xml:space="preserve">
<g>
	<g>
		<path fill="#FFFFFF" d="M82.228,87.863h-3.553V66.272v-2.787h14.608c2.021,0,3.675-1.653,3.675-3.675s-1.654-3.675-3.675-3.675
			H78.675V20.243l7.626,7.626c1.439,1.439,3.767,1.439,5.206,0s1.439-3.767,0-5.206L77.634,8.79
			c-0.704-0.705-1.623-1.072-2.604-1.072c-0.979,0-1.898,0.398-2.603,1.072L58.524,22.693c-1.439,1.439-1.439,3.767,0,5.206
			c0.704,0.705,1.653,1.072,2.603,1.072s1.868-0.367,2.604-1.072l7.595-7.625v35.861h-3.553c-10.78,0-19.538,8.759-19.538,19.538
			c0,10.78,8.758,19.539,19.538,19.539h3.553v21.253v3.124H56.227c-2.021,0-3.675,1.654-3.675,3.675
			c0,2.021,1.654,3.676,3.675,3.676h15.099v11.668c0,2.021,1.653,3.675,3.675,3.675s3.675-1.654,3.675-3.675V126.94h3.553
			c10.78,0,19.538-8.759,19.538-19.539S93.008,87.863,82.228,87.863z M67.772,87.863c-6.707,0-12.188-5.482-12.188-12.189
			c0-6.706,5.481-12.188,12.188-12.188h3.553v2.787v21.591H67.772z M82.228,119.589h-3.553v-3.124V95.212h3.553
			c6.707,0,12.188,5.481,12.188,12.188C94.416,114.138,88.965,119.589,82.228,119.589z"/>
		<path fill="#FFFFFF" d="M133.892,86.147H131.9V70.1v-1.378h10.627c2.021,0,3.675-1.654,3.675-3.675
			c0-2.021-1.653-3.676-3.675-3.676H131.9V36.045l4.563,4.563c1.439,1.438,3.767,1.438,5.206,0c1.439-1.439,1.439-3.768,0-5.207
			l-10.841-10.841c-1.439-1.439-3.767-1.439-5.206,0l-10.872,10.872c-1.439,1.439-1.439,3.767,0,5.206
			c0.704,0.704,1.653,1.072,2.603,1.072c0.95,0,1.869-0.368,2.604-1.072l4.563-4.563v25.266h-1.991
			c-8.851,0-16.077,7.197-16.077,16.078s7.196,16.078,16.077,16.078h1.991V109.3v1.622h-10.934c-2.021,0-3.675,1.654-3.675,3.676
			s1.654,3.675,3.675,3.675h10.994v8.33c0,2.021,1.654,3.675,3.676,3.675c2.021,0,3.675-1.654,3.675-3.675v-8.33h1.99
			c8.851,0,16.078-7.197,16.078-16.078S142.772,86.147,133.892,86.147z M122.591,86.147c-4.808,0-8.728-3.92-8.728-8.728
			c0-4.809,3.92-8.729,8.728-8.729h1.99v1.379v16.047h-1.99V86.147z M133.892,110.923H131.9V109.3V93.498h1.991
			c4.808,0,8.728,3.92,8.728,8.728C142.619,107.002,138.699,110.923,133.892,110.923z"/>
		<path fill="#FFFFFF" d="M27.409,86.147h-1.99V70.1v-1.378h10.626c2.021,0,3.676-1.654,3.676-3.675
			c0-2.021-1.654-3.676-3.676-3.676H25.419V36.045l4.562,4.563c1.439,1.438,3.768,1.438,5.206,0c1.439-1.439,1.439-3.768,0-5.207
			L24.377,24.591c-1.439-1.438-3.767-1.438-5.206,0L8.299,35.463c-1.439,1.439-1.439,3.767,0,5.206
			c0.705,0.705,1.654,1.072,2.604,1.072s1.868-0.367,2.604-1.072l4.562-4.562v25.265h-1.99C7.228,61.372,0,68.569,0,77.45
			c0,8.882,7.197,16.078,16.078,16.078h1.99V109.3v1.622H7.104c-2.021,0-3.675,1.654-3.675,3.676s1.654,3.675,3.675,3.675h10.994
			v8.33c0,2.021,1.654,3.675,3.676,3.675c2.021,0,3.675-1.654,3.675-3.675v-8.33h1.99c8.851,0,16.078-7.197,16.078-16.078
			S36.26,86.147,27.409,86.147z M16.108,86.147c-4.808,0-8.728-3.92-8.728-8.728c0-4.809,3.92-8.729,8.728-8.729h1.99v1.379v16.047
			h-1.99V86.147z M27.409,110.923h-1.99V109.3V93.498h1.99c4.808,0,8.728,3.92,8.728,8.728
			C36.137,107.002,32.217,110.923,27.409,110.923z"/>
	</g>
</g>
</svg>
