<?xml version="1.0" encoding="utf-8"?>
<!-- Generator: Adobe Illustrator 16.0.0, SVG Export Plug-In . SVG Version: 6.00 Build 0)  -->
<!DOCTYPE svg PUBLIC "-//W3C//DTD SVG 1.1//EN" "http://www.w3.org/Graphics/SVG/1.1/DTD/svg11.dtd">
<svg version="1.1" id="Layer_1" xmlns="http://www.w3.org/2000/svg" xmlns:xlink="http://www.w3.org/1999/xlink" x="0px" y="0px"
	 width="150px" height="150px" viewBox="0 0 150 150" enable-background="new 0 0 150 150" xml:space="preserve">
<g>
	<path fill="#FFFFFF" d="M40.827,91.212h10.051c2.113,0,3.841-1.727,3.841-3.839s-1.728-3.839-3.841-3.839H40.827
		c-2.109,0-3.839,1.727-3.839,3.839S38.685,91.212,40.827,91.212z"/>
	<g>
		<path fill="#FFFFFF" d="M83.899,57.479c0-2.113-1.729-3.839-3.843-3.839H39.83c-2.112,0-3.842,1.727-3.842,3.839
			s1.697,3.841,3.842,3.841h40.227C82.17,61.319,83.899,59.59,83.899,57.479z"/>
		<path fill="#FFFFFF" d="M69.977,66.983H39.83c-2.112,0-3.842,1.727-3.842,3.839c0,2.112,1.697,3.842,3.842,3.842h30.146
			c2.112,0,3.842-1.729,3.842-3.842C73.818,68.709,72.089,66.983,69.977,66.983z"/>
		<path fill="#FFFFFF" d="M110.205,53.64h-10.051c-2.109,0-3.839,1.727-3.839,3.839s1.696,3.841,3.839,3.841h10.051
			c2.113,0,3.841-1.729,3.841-3.841C114.046,55.366,112.318,53.64,110.205,53.64z"/>
		<path fill="#FFFFFF" d="M80.057,22.819H39.83c-2.112,0-3.842,1.727-3.842,3.839c0,2.113,1.697,3.842,3.842,3.842h40.227
			c2.113,0,3.843-1.729,3.843-3.842C83.899,24.546,82.171,22.819,80.057,22.819z"/>
		<path fill="#FFFFFF" d="M69.977,43.812c2.112,0,3.842-1.73,3.842-3.842c0-2.11-1.729-3.839-3.842-3.839H39.83
			c-2.112,0-3.842,1.729-3.842,3.839c0,2.112,1.697,3.842,3.842,3.842H69.977z"/>
		<path fill="#FFFFFF" d="M110.205,22.819h-10.051c-2.109,0-3.839,1.727-3.839,3.839c0,2.113,1.696,3.842,3.839,3.842h10.051
			c2.113,0,3.841-1.729,3.841-3.842C114.046,24.546,112.318,22.819,110.205,22.819z"/>
		<path fill="#FFFFFF" d="M110.205,36.131h-10.051c-2.109,0-3.839,1.729-3.839,3.839c0,2.112,1.696,3.842,3.839,3.842h10.051
			c2.113,0,3.841-1.73,3.841-3.842C114.046,37.86,112.318,36.131,110.205,36.131z"/>
		<path fill="#FFFFFF" d="M114.053,74.616c-19.824,0-35.947,16.123-35.947,35.947s16.123,35.947,35.947,35.947
			S150,130.388,150,110.563S133.877,74.616,114.053,74.616z M117.986,82.235c12.664,1.747,22.689,11.793,24.403,24.468h-24.403
			V82.235z M114.053,139.168c-15.787,0-28.605-12.819-28.605-28.605c0-14.52,10.848-26.521,24.872-28.354v28.529
			c0,2.146,1.745,3.891,3.891,3.891h28.154C140.387,128.493,128.458,139.168,114.053,139.168z"/>
		<path fill="#FFFFFF" d="M69.977,98.156H39.83c-2.112,0-3.842,1.727-3.842,3.839s1.697,3.839,3.842,3.839h30.146
			c2.112,0,3.842-1.727,3.842-3.839S72.089,98.156,69.977,98.156z"/>
		<path fill="#FFFFFF" d="M73.594,129.678l-8.363,5.514c-0.188,0.124-0.352,0.268-0.51,0.417l-8.729,5.814l-16.74-11.104
			c-1.277-0.865-2.975-0.865-4.254,0l-12.834,8.545V7.647h105.291l0.012,51.565c0,0.005-0.001,0.01-0.001,0.016v10.017
			c0,2.106,1.712,3.828,3.808,3.828c2.095,0,3.807-1.722,3.807-3.828v-0.067h0.02l-0.029-61.4h8.737
			c2.112,0,3.839-1.729,3.839-3.842S145.92,0,143.808,0H6.193c-2.109,0-3.84,1.729-3.84,3.842c0,2.113,1.73,3.839,3.84,3.839h8.289
			v138.381c0,1.408,0.77,2.722,2.018,3.392c1.25,0.674,2.754,0.608,3.938-0.19l16.674-11.106l16.738,11.138
			c1.277,0.866,2.977,0.866,4.255,0l15.675-10.441l4.087-2.694c1.76-1.16,2.235-3.564,1.06-5.348S75.353,128.519,73.594,129.678z"/>
	</g>
</g>
</svg>
