<?xml version="1.0" encoding="utf-8"?>
<!-- Generator: Adobe Illustrator 16.0.0, SVG Export Plug-In . SVG Version: 6.00 Build 0)  -->
<!DOCTYPE svg PUBLIC "-//W3C//DTD SVG 1.1//EN" "http://www.w3.org/Graphics/SVG/1.1/DTD/svg11.dtd">
<svg version="1.1" id="Layer_1" xmlns="http://www.w3.org/2000/svg" xmlns:xlink="http://www.w3.org/1999/xlink" x="0px" y="0px"
	 width="150px" height="150px" viewBox="0 0 150 150" enable-background="new 0 0 150 150" xml:space="preserve">
<g>
	<g>
		<path fill="#FFFFFF" d="M122.229,0c-11.052,0-20.206,8.051-22.011,18.613H7.861c-2.081,0-3.766,1.682-3.766,3.765
			c0,2.081,1.685,3.765,3.766,3.765h92.325c1.808,10.529,10.96,18.611,22.011,18.611c12.337,0,22.348-10.011,22.348-22.347
			C144.545,10.071,134.534,0,122.229,0z M122.229,37.193c-8.175,0-14.849-6.671-14.849-14.846s6.674-14.848,14.849-14.848
			c8.174,0,14.845,6.674,14.845,14.848S130.403,37.193,122.229,37.193z"/>
		<path fill="#FFFFFF" d="M140.84,71.02H48.485c-1.808-10.529-10.96-18.611-22.011-18.611c-12.337,0-22.348,10.011-22.348,22.347
			c0,12.336,10.04,22.347,22.348,22.347c11.051,0,20.203-8.051,22.011-18.613h92.325c2.081,0,3.766-1.684,3.766-3.765
			C144.576,72.704,142.892,71.02,140.84,71.02z M26.475,89.633c-8.175,0-14.849-6.674-14.849-14.848
			c0-8.172,6.674-14.846,14.849-14.846c8.172,0,14.846,6.674,14.846,14.846C41.32,82.959,34.678,89.633,26.475,89.633z"/>
		<path fill="#FFFFFF" d="M122.229,105.246c-11.052,0-20.206,8.05-22.011,18.611H7.861c-2.081,0-3.766,1.684-3.766,3.765
			c0,2.083,1.685,3.765,3.766,3.765h92.325c1.808,10.531,10.96,18.613,22.011,18.613c12.337,0,22.348-10.011,22.348-22.347
			C144.545,115.317,134.534,105.246,122.229,105.246z M122.229,142.438c-8.175,0-14.849-6.674-14.849-14.846
			c0-8.174,6.674-14.848,14.849-14.848c8.174,0,14.845,6.674,14.845,14.848C137.074,135.764,130.403,142.438,122.229,142.438z"/>
	</g>
</g>
</svg>
