<?xml version="1.0" encoding="utf-8"?>
<!-- Generator: Adobe Illustrator 16.0.0, SVG Export Plug-In . SVG Version: 6.00 Build 0)  -->
<!DOCTYPE svg PUBLIC "-//W3C//DTD SVG 1.1//EN" "http://www.w3.org/Graphics/SVG/1.1/DTD/svg11.dtd">
<svg version="1.1" id="Layer_1" xmlns="http://www.w3.org/2000/svg" xmlns:xlink="http://www.w3.org/1999/xlink" x="0px" y="0px"
	 width="150px" height="150px" viewBox="0 0 150 150" enable-background="new 0 0 150 150" xml:space="preserve">
<g>
	<g>
		<path fill="#FFFFFF" d="M112.229,44.631c-1.145-1.144-3-1.144-4.145,0l-5.859,5.859c-1.144,1.144-1.144,2.999,0,4.144
			c1.145,1.144,3,1.144,4.145,0l5.859-5.859C113.372,47.631,113.372,45.775,112.229,44.631z"/>
	</g>
</g>
<g>
	<g>
		<path fill="#FFFFFF" d="M41.916,44.631c-1.145-1.144-3-1.144-4.145,0l-5.859,5.859c-1.144,1.144-1.144,2.999,0,4.144
			c1.145,1.144,3,1.144,4.145,0l5.859-5.859C43.06,47.631,43.06,45.775,41.916,44.631z"/>
	</g>
</g>
<g>
	<g>
		<path fill="#FFFFFF" d="M97.58,32.913c-1.145-1.144-3-1.144-4.145,0l-5.859,5.859c-1.144,1.144-1.144,2.999,0,4.144
			c1.145,1.144,3,1.144,4.145,0l5.859-5.859C98.724,35.912,98.724,34.057,97.58,32.913z"/>
	</g>
</g>
<g>
	<g>
		<path fill="#FFFFFF" d="M62.424,32.913c-1.145-1.144-3-1.144-4.145,0l-5.859,5.859c-1.144,1.144-1.144,2.999,0,4.144
			c1.145,1.144,3,1.144,4.145,0l5.859-5.859C63.567,35.912,63.567,34.057,62.424,32.913z"/>
	</g>
</g>
<g>
	<g>
		<path fill="#FFFFFF" d="M77.072,44.631c-1.145-1.144-3-1.144-4.145,0l-5.859,5.859c-1.144,1.144-1.144,2.999,0,4.144
			c1.145,1.144,3,1.144,4.145,0l5.859-5.859C78.216,47.631,78.216,45.775,77.072,44.631z"/>
	</g>
</g>
<g>
	<g>
		<path fill="#FFFFFF" d="M150,105.297c0-4.846-3.943-8.789-8.789-8.789h-2.93v-9.442c0.121-0.104,0.244-0.206,0.362-0.313
			c1.901-1.733,5.874-2.842,8.464-2.875c1.617-0.02,2.912-1.348,2.893-2.966c-0.021-1.605-1.328-2.894-2.93-2.894
			c-0.012,0-0.024,0-0.037,0.001c-2.514,0.032-5.854,0.699-8.752,2.069v-7.68c3.567-1.46,5.939-5.132,5.43-9.209
			c-3.456-27.776-27.201-48.722-55.234-48.722H61.523c-28.033,0-51.778,20.946-55.234,48.721c-0.508,4.065,1.848,7.745,5.43,9.211
			v7.55c-2.908-1.318-6.257-1.978-8.828-1.94C1.273,78.039-0.021,79.369,0,80.986c0.021,1.605,1.329,2.891,2.93,2.891
			c0.012,0,0.025,0,0.039,0c2.619-0.039,6.686,1.055,8.669,2.863c0.026,0.025,0.055,0.048,0.081,0.072v9.695h-2.93
			C3.934,96.508,0,100.44,0,105.297c0,4.355,3.185,7.979,7.348,8.668c-0.686,1.809-0.734,3.783-0.1,5.658
			c3.631,10.707,13.669,17.9,24.979,17.9h85.547c11.31,0,21.348-7.193,24.979-17.901c0.634-1.874,0.585-3.849-0.1-5.655
			C146.737,113.295,150,109.741,150,105.297z M12.104,63.922c3.092-24.848,24.338-43.586,49.42-43.586h26.953
			c25.082,0,46.328,18.738,49.42,43.587c0.211,1.693-1.109,3.167-2.74,3.277c-0.02,0.001-0.039,0.003-0.059,0.004
			c-0.051,0.004-0.1,0.006-0.15,0.006H15.053C13.327,67.211,11.883,65.691,12.104,63.922z M121.066,82.422
			c-6.438-5.871-15.089-5.871-21.527,0c-4.203,3.833-9.426,3.833-13.629,0c-6.438-5.871-15.089-5.871-21.527,0
			c-4.203,3.833-9.426,3.833-13.629,0c-6.438-5.871-15.089-5.871-21.527,0c-3.562,3.252-7.832,3.768-11.648,1.48V73.07h114.844
			v11.002C128.684,86.152,124.525,85.576,121.066,82.422z M132.422,90.427v6.081H17.578v-6.169c1.584,0.548,3.21,0.822,4.834,0.821
			c3.781,0,7.552-1.479,10.764-4.408c4.203-3.834,9.426-3.834,13.629,0c6.438,5.871,15.09,5.871,21.527,0
			c4.203-3.834,9.426-3.834,13.629,0c6.438,5.871,15.09,5.871,21.527,0c4.203-3.834,9.426-3.834,13.629,0
			C121.6,90.839,127.227,92.096,132.422,90.427z M137.203,117.742c-2.824,8.326-10.633,13.922-19.43,13.922H32.227
			c-8.797,0-16.605-5.596-19.429-13.92c-0.608-1.797,0.942-3.658,2.864-3.658h118.676
			C136.267,114.086,137.807,115.957,137.203,117.742z M141.211,108.227H8.789c-1.615,0-2.93-1.314-2.93-2.93
			c0-1.617,1.312-2.93,2.93-2.93h132.422c1.615,0,2.93,1.314,2.93,2.93C144.141,106.914,142.828,108.227,141.211,108.227z"/>
	</g>
</g>
</svg>
