<?xml version="1.0" encoding="utf-8"?>
<!-- Generator: Adobe Illustrator 16.0.0, SVG Export Plug-In . SVG Version: 6.00 Build 0)  -->
<!DOCTYPE svg PUBLIC "-//W3C//DTD SVG 1.1//EN" "http://www.w3.org/Graphics/SVG/1.1/DTD/svg11.dtd">
<svg version="1.1" id="Layer_1" xmlns="http://www.w3.org/2000/svg" xmlns:xlink="http://www.w3.org/1999/xlink" x="0px" y="0px"
	 width="150px" height="150px" viewBox="0 0 150 150" enable-background="new 0 0 150 150" xml:space="preserve">
<g>
	<path fill="#FFFFFF" d="M148.686,142.351l-36.451-36.452c9.777-11.242,15.698-25.91,15.698-41.94C127.933,28.669,99.229,0,63.975,0
		C28.686,0,0.017,28.703,0.017,63.958s28.703,63.958,63.958,63.958c16.031,0,30.698-5.92,41.939-15.699l36.453,36.453
		c0.865,0.864,2.029,1.33,3.159,1.33c1.131,0,2.295-0.433,3.159-1.33C150.416,146.939,150.416,144.08,148.686,142.351z
		 M8.963,63.958c0-30.333,24.68-54.978,54.979-54.978c30.332,0,54.978,24.679,54.978,54.978c0,30.3-24.646,55.011-54.978,55.011
		C33.643,118.969,8.963,94.291,8.963,63.958z"/>
</g>
</svg>
