<?xml version="1.0" encoding="utf-8"?>
<!-- Generator: Adobe Illustrator 16.0.0, SVG Export Plug-In . SVG Version: 6.00 Build 0)  -->
<!DOCTYPE svg PUBLIC "-//W3C//DTD SVG 1.1//EN" "http://www.w3.org/Graphics/SVG/1.1/DTD/svg11.dtd">
<svg version="1.1" id="Layer_1" xmlns="http://www.w3.org/2000/svg" xmlns:xlink="http://www.w3.org/1999/xlink" x="0px" y="0px"
	 width="150px" height="150px" viewBox="0 0 150 150" enable-background="new 0 0 150 150" xml:space="preserve">
<g>
	<g>
		<g>
			<path fill="#FFFFFF" d="M75,0C33.646,0,0,33.646,0,75s33.646,75,75,75s75-33.646,75-75S116.354,0,75,0z M75,142.504
				c-37.225,0-67.505-30.28-67.505-67.504S37.775,7.496,75,7.496S142.504,37.775,142.504,75S112.225,142.504,75,142.504z"/>
		</g>
	</g>
	<path fill="#FFFFFF" d="M75.016,39.766c-2.209,0-3.995,1.788-3.995,3.997v6.108h-0.521c-7.602,0-13.808,6.529-13.808,14.524
		c0,7.989,6.206,14.521,13.808,14.521h8.969c3.217,0,5.847,2.956,5.847,6.563c0,3.638-2.63,6.563-5.847,6.563H63.353
		c-2.209,0-3.995,1.788-3.995,3.995c0,2.211,1.786,3.997,3.995,3.997h7.668v6.204c0,2.212,1.786,3.997,3.995,3.997
		s3.997-1.785,3.997-3.997V100h0.584c0.033,0,0.064,0,0.098,0c7.537-0.098,13.612-6.594,13.612-14.521
		c0-8.025-6.204-14.521-13.809-14.521h-8.966c-3.217,0-5.847-2.958-5.847-6.562c0-3.607,2.63-6.563,5.847-6.563h15.821
		c2.209,0,3.997-1.788,3.997-3.997c0-2.209-1.788-3.997-3.997-3.997h-7.341v-6.108C78.979,41.554,77.225,39.766,75.016,39.766z"/>
</g>
</svg>
