<?xml version="1.0" encoding="utf-8"?>
<!-- Generator: Adobe Illustrator 16.0.0, SVG Export Plug-In . SVG Version: 6.00 Build 0)  -->
<!DOCTYPE svg PUBLIC "-//W3C//DTD SVG 1.1//EN" "http://www.w3.org/Graphics/SVG/1.1/DTD/svg11.dtd">
<svg version="1.1" id="Layer_1" xmlns="http://www.w3.org/2000/svg" xmlns:xlink="http://www.w3.org/1999/xlink" x="0px" y="0px"
	 width="150px" height="150px" viewBox="0 0 150 150" enable-background="new 0 0 150 150" xml:space="preserve">
<g>
	<path fill="#FFFFFF" d="M114.172,84.262c-17.861,0-32.369,14.508-32.369,32.369c0,17.86,14.508,32.369,32.369,32.369
		s32.368-14.509,32.368-32.369C146.54,98.77,132.033,84.262,114.172,84.262z M114.172,140.539
		c-13.192,0-23.908-10.717-23.908-23.908c0-13.192,10.716-23.909,23.908-23.909c13.191,0,23.908,10.717,23.908,23.909
		C138.08,129.822,127.363,140.539,114.172,140.539z"/>
	<path fill="#FFFFFF" d="M118.568,114.808v-13.435c0-2.399-1.952-4.352-4.352-4.352s-4.352,1.952-4.352,4.352v17.787
		c0,2.4,1.952,4.352,4.352,4.352h15.188c2.4,0,4.353-1.952,4.353-4.352s-1.952-4.352-4.353-4.352H118.568z"/>
	<path fill="#FFFFFF" d="M74.984,81.132H27.6c-2.169,0-3.943,1.772-3.943,3.938c0,2.175,1.774,3.947,3.943,3.947h47.385
		c2.201,0,3.945-1.772,3.945-3.947C78.93,82.904,77.152,81.132,74.984,81.132z"/>
	<path fill="#FFFFFF" d="M27.6,95.264c-2.169,0-3.943,1.774-3.943,3.941c0,2.171,1.774,3.943,3.943,3.943h18.961
		c2.166,0,3.944-1.772,3.944-3.943c0-2.167-1.778-3.941-3.944-3.941H27.6z"/>
	<path fill="#FFFFFF" d="M27.143,74.725h47.381c2.17,0,3.941-1.773,3.941-3.945c0-2.166-1.771-3.939-3.941-3.939H27.143
		c-2.17,0-3.945,1.773-3.945,3.939C23.197,72.952,24.939,74.725,27.143,74.725z"/>
	<path fill="#FFFFFF" d="M138.96,24.218H11.038C4.928,24.218,0,29.181,0,35.261V115.8c0,6.08,4.959,11.038,11.038,11.038h43.736
		h18.961h0.335c0-0.011,0-0.022,0-0.034c2.008-0.174,3.609-1.854,3.609-3.909c0-2.037-1.577-3.708-3.564-3.903
		c0-0.014,0-0.027,0-0.041H11.038c-0.218,0-0.429-0.022-0.634-0.064c-1.438-0.295-2.518-1.568-2.518-3.091V55.798h134.227v33.665
		c0,0,0.001,0,0.002,0v1.329c0,2.166,1.772,3.944,3.943,3.944c2.167,0,3.941-1.778,3.941-3.944v-1.468V71.831V35.256
		C149.997,29.179,145.037,24.218,138.96,24.218z M142.113,47.911H7.854v-12.65c0-1.742,1.445-3.157,3.185-3.157H138.96
		c1.741,0,3.153,1.414,3.153,3.156V47.911z"/>
</g>
</svg>
