<?xml version="1.0" encoding="utf-8"?>
<!-- Generator: Adobe Illustrator 16.0.0, SVG Export Plug-In . SVG Version: 6.00 Build 0)  -->
<!DOCTYPE svg PUBLIC "-//W3C//DTD SVG 1.1//EN" "http://www.w3.org/Graphics/SVG/1.1/DTD/svg11.dtd">
<svg version="1.1" id="Layer_1" xmlns="http://www.w3.org/2000/svg" xmlns:xlink="http://www.w3.org/1999/xlink" x="0px" y="0px"
	 width="150px" height="150px" viewBox="0 0 150 150" enable-background="new 0 0 150 150" xml:space="preserve">
<g>
	<path fill="#FFFFFF" d="M149.322,57.9c-0.49-1.507-1.784-2.585-3.353-2.832l-46.799-6.649L78.115,6.086
		c-0.71-1.416-2.157-2.309-3.726-2.309l0,0c-1.571,0-3.018,0.893-3.727,2.34L49.882,48.572L3.086,55.529
		c-1.568,0.247-2.862,1.324-3.355,2.833c-0.491,1.507-0.062,3.17,1.08,4.248l33.956,32.912l-7.85,46.611
		c-0.278,1.571,0.369,3.141,1.661,4.064c0.708,0.523,1.571,0.801,2.432,0.801c0.677,0,1.325-0.155,1.941-0.493l41.776-22.136
		l41.899,21.89c0.617,0.308,1.264,0.461,1.91,0.461l0,0c2.278,0,4.157-1.877,4.157-4.156c0-0.338-0.031-0.646-0.124-0.955
		l-8.098-46.333l33.742-33.096C149.416,61.072,149.816,59.409,149.322,57.9z M107.147,90.874c-0.987,0.955-1.418,2.34-1.17,3.694
		l7.048,40.423l-36.388-18.996c-1.202-0.646-2.648-0.615-3.881,0L36.49,135.206l6.803-40.485c0.218-1.354-0.214-2.709-1.199-3.663
		l-29.432-28.57l40.607-6.035c1.354-0.214,2.524-1.047,3.108-2.277L74.42,17.323l18.286,36.759c0.618,1.232,1.785,2.063,3.143,2.279
		l40.639,5.788L107.147,90.874z"/>
</g>
</svg>
