<?xml version="1.0" encoding="utf-8"?>
<!-- Generator: Adobe Illustrator 16.0.0, SVG Export Plug-In . SVG Version: 6.00 Build 0)  -->
<!DOCTYPE svg PUBLIC "-//W3C//DTD SVG 1.1//EN" "http://www.w3.org/Graphics/SVG/1.1/DTD/svg11.dtd">
<svg version="1.1" id="Layer_1" xmlns="http://www.w3.org/2000/svg" xmlns:xlink="http://www.w3.org/1999/xlink" x="0px" y="0px"
	 width="150px" height="150px" viewBox="0 0 150 150" enable-background="new 0 0 150 150" xml:space="preserve">
<path fill="#FFFFFF" d="M141.595,104.52c-12.239-9.497-24.707-16.124-29.075-18.333v-7.542c0.889-1.98,1.625-4.139,2.184-6.476
	c3.25-1.168,5.028-5.942,6.222-10.157c1.6-5.612,1.422-9.548-0.457-11.732c1.98-10.792,1.092-18.74-2.615-23.641
	c-1.955-2.564-4.241-3.657-5.765-4.139c-1.092-1.523-3.301-4.088-7.034-6.145c-3.859-2.286-8.202-3.428-12.976-3.428
	c-0.863,0-1.727,0.051-2.489,0.102c-2.133,0.102-4.24,0.508-6.323,1.193c-0.024,0-0.051,0.025-0.075,0.025
	c-2.286,0.787-4.521,1.93-6.679,3.403c-0.161,0.103-0.312,0.218-0.472,0.324c-0.751-0.556-1.591-1.103-2.526-1.619
	c-3.859-2.286-8.202-3.428-12.976-3.428c-0.863,0-1.727,0.051-2.489,0.102c-2.133,0.102-4.24,0.508-6.322,1.193
	c-0.025,0-0.052,0.025-0.076,0.025c-2.286,0.787-4.52,1.93-6.679,3.403c-2.463,1.574-4.724,3.454-6.679,5.536
	c-3.834,3.936-6.374,8.38-7.465,13.128c-1.042,3.936-1.118,7.897-0.255,11.783c-0.457,0.33-0.863,0.711-1.219,1.168
	c-1.752,2.311-1.828,5.942-0.279,11.452c1.066,3.81,2.489,7.694,4.9,9.447c0.712,3.657,1.905,6.983,3.505,9.929v6.12
	c-4.368,2.209-16.836,8.811-29.075,18.334C3.149,108.634,0,115.083,0,121.838v6.602c0,4.774,3.886,8.634,8.634,8.634h100.153h1.039
	h31.54c4.748,0,8.634-3.885,8.634-8.659v-6.602C150,115.083,146.851,108.608,141.595,104.52z M8.634,130.828
	c-1.346,0.025-2.438-1.067-2.438-2.413v-6.602c0-4.825,2.233-9.446,5.992-12.367c13.205-10.234,26.638-16.988,29.202-18.232
	c1.423-0.686,2.312-2.108,2.312-3.708v-8.253c0-0.559-0.152-1.092-0.432-1.574c-1.676-2.844-2.845-6.247-3.428-10.132
	c-0.204-1.244-1.118-2.235-2.312-2.54c-0.33-0.38-1.27-1.752-2.463-5.993c-0.99-3.504-0.915-5.129-0.812-5.713
	c0.99,0.051,1.98-0.406,2.615-1.193c0.66-0.838,0.838-1.956,0.482-2.946c-1.32-3.682-1.473-7.466-0.457-11.326
	c0.864-3.707,2.844-7.161,5.917-10.31c1.65-1.777,3.555-3.326,5.587-4.622c0.024-0.025,0.076-0.051,0.101-0.076
	c1.701-1.194,3.479-2.083,5.231-2.692c0.024,0,0.051-0.025,0.051-0.025c1.498-0.507,3.047-0.787,4.673-0.863
	c4.443-0.381,8.43,0.457,11.96,2.514c3.859,2.133,5.435,4.926,5.435,4.926c0.482,0.99,1.346,1.574,2.463,1.65
	c0.075,0,1.727,0.254,3.148,2.26c1.499,2.133,3.632,7.618,0.965,20.416c-0.305,1.422,0.432,2.844,1.727,3.454
	c0.127,0.457,0.331,2.006-0.761,5.866c-0.966,3.403-1.753,4.952-2.21,5.637c-0.584-0.102-1.193-0.051-1.752,0.203
	c-0.965,0.406-1.676,1.295-1.854,2.311c-0.534,3.047-1.397,5.79-2.514,8.125c-0.204,0.432-0.305,0.889-0.305,1.346v9.548
	c0,1.6,0.888,2.997,2.311,3.708c2.564,1.244,15.998,8.024,29.177,18.232c3.758,2.92,5.993,7.542,5.993,12.367v6.602
	c0,1.32-1.092,2.413-2.413,2.413H8.634z M143.779,128.415c0,1.32-1.093,2.413-2.413,2.413h-23.255
	c0.223-0.767,0.349-1.575,0.349-2.413v-6.602c0-6.729-3.148-13.205-8.405-17.293c-12.239-9.497-24.707-16.124-29.075-18.333v-7.542
	c0.889-1.98,1.625-4.139,2.184-6.476c3.25-1.168,5.028-5.942,6.222-10.157c1.601-5.612,1.423-9.548-0.457-11.732
	c1.98-10.792,1.092-18.74-2.615-23.641c-1.955-2.564-4.241-3.657-5.764-4.139c1.546-1.022,3.144-1.812,4.724-2.362
	c0.024,0,0.051-0.025,0.051-0.025c1.498-0.507,3.047-0.787,4.673-0.863c4.443-0.381,8.43,0.457,11.959,2.514
	c3.86,2.133,5.436,4.926,5.436,4.926c0.482,0.99,1.346,1.574,2.462,1.65c0.076,0,1.728,0.254,3.149,2.26
	c1.498,2.133,3.632,7.618,0.965,20.416c-0.305,1.422,0.432,2.844,1.727,3.454c0.127,0.457,0.331,2.006-0.762,5.866
	c-0.965,3.403-1.752,4.952-2.209,5.637c-0.584-0.102-1.193-0.051-1.752,0.203c-0.965,0.406-1.677,1.295-1.854,2.311
	c-0.533,3.047-1.396,5.79-2.514,8.125c-0.203,0.432-0.305,0.889-0.305,1.346v9.548c0,1.6,0.889,2.997,2.312,3.708
	c2.564,1.244,15.997,8.024,29.176,18.232c3.759,2.92,5.994,7.542,5.994,12.367V128.415z"/>
</svg>
