<?xml version="1.0" encoding="utf-8"?>
<!-- Generator: Adobe Illustrator 16.0.0, SVG Export Plug-In . SVG Version: 6.00 Build 0)  -->
<!DOCTYPE svg PUBLIC "-//W3C//DTD SVG 1.1//EN" "http://www.w3.org/Graphics/SVG/1.1/DTD/svg11.dtd">
<svg version="1.1" id="Layer_1" xmlns="http://www.w3.org/2000/svg" xmlns:xlink="http://www.w3.org/1999/xlink" x="0px" y="0px"
	 width="150px" height="150px" viewBox="0 0 150 150" enable-background="new 0 0 150 150" xml:space="preserve">
<g>
	<g>
		<path fill="#FFFFFF" d="M116.066,46.031c19.336,0,33.899-7.516,33.899-17.495s-14.563-17.495-33.899-17.495
			c-19.334,0-33.897,7.516-33.897,17.495S96.732,46.031,116.066,46.031z M116.066,18.557c16.124,0,26.414,5.924,26.414,10.01
			c0,4.085-10.29,10.01-26.414,10.01c-16.12,0-26.41-5.925-26.41-10.01C89.656,24.481,99.946,18.557,116.066,18.557z"/>
		<path fill="#FFFFFF" d="M147.127,46.374c-1.933-0.718-4.086,0.279-4.8,2.215c-1.593,4.333-12.069,9.011-26.227,9.011
			c-13.786,0-24.108-4.428-26.104-8.701c-0.87-1.871-3.12-2.682-4.99-1.809c-1.871,0.874-2.681,3.118-1.809,4.989
			c3.649,7.798,16.873,13.004,32.903,13.004c7.637,0,15.06-1.248,20.954-3.555c6.486-2.524,10.761-6.11,12.319-10.384
			C150.06,49.242,149.062,47.09,147.127,46.374z"/>
		<path fill="#FFFFFF" d="M147.127,65.458c-1.933-0.718-4.086,0.281-4.8,2.214c-1.593,4.335-12.069,9.013-26.227,9.013
			c-13.786,0-24.108-4.429-26.104-8.7c-0.87-1.871-3.12-2.682-4.99-1.809c-1.871,0.874-2.681,3.118-1.809,4.989
			c3.649,7.795,16.873,13.004,32.903,13.004c7.637,0,15.06-1.248,20.954-3.556c6.486-2.526,10.761-6.112,12.319-10.384
			C150.06,68.327,149.062,66.177,147.127,65.458z"/>
		<path fill="#FFFFFF" d="M147.127,84.511c-1.933-0.715-4.086,0.282-4.8,2.215c-1.593,4.336-12.069,9.012-26.227,9.012
			c-13.786,0-24.108-4.426-26.104-8.699c-0.87-1.871-3.12-2.682-4.99-1.809c-1.871,0.874-2.681,3.12-1.809,4.99
			c3.649,7.795,16.873,13.004,32.903,13.004c7.637,0,15.06-1.249,20.954-3.556c6.486-2.525,10.761-6.111,12.319-10.384
			C150.06,87.382,149.062,85.229,147.127,84.511z"/>
		<path fill="#FFFFFF" d="M147.127,103.598c-1.933-0.718-4.086,0.282-4.8,2.215c-1.593,4.333-12.069,9.012-26.227,9.012
			c-13.786,0-24.108-4.428-26.104-8.7c-0.87-1.873-3.12-2.682-4.99-1.811c-1.871,0.873-2.681,3.118-1.809,4.992
			c3.649,7.795,16.873,13.004,32.903,13.004c7.637,0,15.06-1.249,20.954-3.555c6.486-2.527,10.761-6.114,12.319-10.384
			C150.06,106.435,149.062,104.283,147.127,103.598z"/>
		<path fill="#FFFFFF" d="M147.127,122.651c-1.933-0.716-4.086,0.281-4.8,2.214c-1.593,4.335-12.069,9.013-26.227,9.013
			c-13.786,0-24.108-4.429-26.104-8.7c-0.87-1.871-3.12-2.682-4.99-1.809c-1.871,0.874-2.681,3.118-1.809,4.989
			c3.649,7.795,16.873,13.004,32.903,13.004c7.637,0,15.06-1.248,20.954-3.556c6.486-2.527,10.761-6.112,12.319-10.384
			C150.06,125.521,149.062,123.37,147.127,122.651z"/>
		<path fill="#FFFFFF" d="M64.894,84.511c-1.935-0.715-4.088,0.282-4.804,2.215c-1.591,4.336-12.069,9.012-26.225,9.012
			c-13.785,0-24.107-4.426-26.103-8.699c-0.872-1.871-3.119-2.682-4.989-1.809c-1.873,0.874-2.682,3.12-1.812,4.99
			c3.652,7.795,16.873,13.004,32.903,13.004c7.64,0,15.061-1.249,20.954-3.556c6.489-2.525,10.759-6.111,12.319-10.384
			C67.825,87.382,66.826,85.229,64.894,84.511z"/>
		<path fill="#FFFFFF" d="M64.894,103.598c-1.935-0.718-4.088,0.282-4.804,2.215c-1.591,4.333-12.069,9.012-26.225,9.012
			c-13.785,0-24.107-4.428-26.103-8.7c-0.872-1.873-3.119-2.682-4.989-1.811c-1.873,0.873-2.682,3.118-1.812,4.992
			c3.652,7.795,16.873,13.004,32.903,13.004c7.64,0,15.061-1.249,20.954-3.555c6.489-2.527,10.759-6.114,12.319-10.384
			C67.825,106.435,66.826,104.283,64.894,103.598z"/>
		<path fill="#FFFFFF" d="M64.894,122.651c-1.935-0.716-4.088,0.281-4.804,2.214c-1.591,4.335-12.069,9.013-26.225,9.013
			c-13.785,0-24.107-4.429-26.103-8.7c-0.872-1.871-3.119-2.682-4.989-1.809c-1.873,0.874-2.682,3.118-1.812,4.989
			c3.652,7.795,16.873,13.004,32.903,13.004c7.64,0,15.061-1.248,20.954-3.556c6.489-2.527,10.759-6.112,12.319-10.384
			C67.825,125.521,66.826,123.37,64.894,122.651z"/>
		<path fill="#FFFFFF" d="M33.865,49.18c-19.336,0-33.899,7.516-33.899,17.495S14.529,84.17,33.865,84.17
			c19.334,0,33.897-7.516,33.897-17.495S53.199,49.18,33.865,49.18z M33.865,76.685c-16.122,0-26.414-5.924-26.414-10.01
			c0-4.084,10.292-10.009,26.414-10.009c16.12,0,26.41,5.924,26.41,10.009C60.275,70.761,49.985,76.685,33.865,76.685z"/>
	</g>
</g>
</svg>
