<?xml version="1.0" encoding="utf-8"?>
<!-- Generator: Adobe Illustrator 16.0.0, SVG Export Plug-In . SVG Version: 6.00 Build 0)  -->
<!DOCTYPE svg PUBLIC "-//W3C//DTD SVG 1.1//EN" "http://www.w3.org/Graphics/SVG/1.1/DTD/svg11.dtd">
<svg version="1.1" id="Layer_1" xmlns="http://www.w3.org/2000/svg" xmlns:xlink="http://www.w3.org/1999/xlink" x="0px" y="0px"
	 width="150px" height="150px" viewBox="0 0 150 150" enable-background="new 0 0 150 150" xml:space="preserve">
<path fill="#FFFFFF" d="M114.053,74.616c-19.824,0-35.947,16.123-35.947,35.947s16.123,35.947,35.947,35.947
	S150,130.388,150,110.563S133.877,74.616,114.053,74.616z M142.39,106.703h-24.403V82.235
	C130.65,83.981,140.676,94.028,142.39,106.703z M114.053,139.168c-15.787,0-28.605-12.819-28.605-28.605
	c0-14.52,10.848-26.521,24.872-28.354v28.529c0,2.146,1.745,3.891,3.891,3.891h28.154
	C140.387,128.493,128.458,139.168,114.053,139.168z"/>
<path fill="#FFFFFF" d="M69.742,66.19h-8.298c-2.972,0-5.388-2.415-5.388-5.387c0-2.973,2.416-5.387,5.388-5.387h14.675
	c2.043,0,3.715-1.672,3.715-3.716c0-2.043-1.672-3.715-3.715-3.715h-6.78v-4.984c0-2.044-1.672-3.716-3.715-3.716
	c-2.044,0-3.716,1.672-3.716,3.716v4.984h-0.434c-7.059,0-12.816,5.759-12.816,12.817s5.758,12.817,12.816,12.817h8.298
	c2.972,0,5.388,2.415,5.388,5.388c0,2.972-2.416,5.387-5.388,5.387H54.85c-2.043,0-3.715,1.672-3.715,3.715s1.672,3.715,3.715,3.715
	h7.059v5.078c0,2.043,1.672,3.715,3.716,3.715c2.043,0,3.715-1.672,3.715-3.715v-5.078h0.526c0.031,0,0.062,0,0.093,0
	c6.997-0.093,12.663-5.82,12.663-12.816C82.559,71.949,76.801,66.19,69.742,66.19z"/>
<path fill="#FFFFFF" d="M139.288,55.17h-2.508c-3.622-9.474-9.783-18.05-18.05-24.984c0-0.031,0-0.031,0-0.062
	c-1.238-4.304-0.31-8.917,2.693-13.716c1.549-2.477,1.641-5.479,0.217-8.019c-1.393-2.508-4.024-4.087-6.873-4.087
	c-0.34,0-0.681,0.031-0.99,0.062c-11.486,1.424-18.359,6.656-22.322,11.517c-6.873-1.889-13.994-2.848-21.238-2.848
	c-18.669,0-36.223,6.377-49.474,17.956C7.369,42.693,0,58.297,0,74.923c0,4.304,0.495,8.606,1.518,12.817
	c0,0.062,0.03,0.154,0.062,0.217c0,0,0.03,0.062,0.062,0.186c1.053,4.241,2.602,8.391,4.613,12.322
	c3.312,7.213,7.307,13.219,11.795,17.863c6.379,6.563,7.462,14.861,7.617,18.205v1.949c0,0.155,0,0.311,0.031,0.434
	c0.371,3.809,3.621,6.75,7.461,6.75h23.064c4.117,0,7.492-3.375,7.492-7.492v-1.549c3.592,0.279,7.214,0.341,10.836,0.155v1.109
	c-0.002,0-0.005,0-0.007,0v3.121c0,2.043,1.664,3.715,3.696,3.715c2.033,0,3.697-1.672,3.697-3.715v-3.499
	c0.002-0.003,0.002-0.006,0.004-0.008c0.005-0.078,0.001-0.155,0.009-0.233v-4.546c0-1.053-0.433-2.043-1.238-2.756
	c-0.681-0.619-1.579-0.959-2.477-0.959c-0.124,0-0.247,0-0.402,0.03c-2.539,0.278-5.108,0.403-7.647,0.403
	c-3.25,0-6.532-0.217-9.721-0.65c-1.053-0.155-2.137,0.186-2.941,0.897s-1.27,1.733-1.27,2.786v5.666
	c0,0.031-0.031,0.062-0.062,0.062H33.127c-0.031,0-0.062-0.03-0.062-0.062v-1.889c-0.186-4.148-1.485-14.675-9.721-23.127
	c-3.932-4.056-7.461-9.381-10.465-15.852c-0.031-0.062-0.031-0.093-0.062-0.123c-1.765-3.469-3.157-7.09-4.056-10.806
	c0-0.03-0.031-0.062-0.031-0.093s0-0.031,0-0.062c-0.897-3.684-1.331-7.461-1.331-11.207c0-30.031,28.173-54.489,62.786-54.489
	c7.399,0,14.613,1.114,21.486,3.281c1.579,0.496,3.281-0.093,4.211-1.455c2.755-4.086,8.234-9.194,18.762-10.525
	c0.247-0.031,0.402,0.123,0.464,0.247c0.124,0.217,0.03,0.402-0.03,0.465c-4.118,6.563-5.326,13.374-3.53,19.69
	c0,0.03,0.031,0.093,0.031,0.123c0.03,1.084,0.526,2.105,1.394,2.787c8.42,6.811,14.52,15.448,17.646,24.984
	c0.496,1.517,1.92,2.569,3.529,2.569h5.108c1.796,0,3.251,1.455,3.251,3.251v10.976c-0.008,0-0.016,0.001-0.023,0.001v3.121
	c0,2.043,1.691,3.715,3.758,3.715S150,82.054,150,80.011v-1.36V76.4V65.975C149.969,59.969,145.17,55.17,139.288,55.17z"/>
</svg>
