<?xml version="1.0" encoding="utf-8"?>
<!-- Generator: Adobe Illustrator 16.0.0, SVG Export Plug-In . SVG Version: 6.00 Build 0)  -->
<!DOCTYPE svg PUBLIC "-//W3C//DTD SVG 1.1//EN" "http://www.w3.org/Graphics/SVG/1.1/DTD/svg11.dtd">
<svg version="1.1" id="Layer_1" xmlns="http://www.w3.org/2000/svg" xmlns:xlink="http://www.w3.org/1999/xlink" x="0px" y="0px"
	 width="150px" height="150px" viewBox="0 0 150 150" enable-background="new 0 0 150 150" xml:space="preserve">
<g>
	<g>
		<path fill="#FFFFFF" d="M9.824,43.124h23.475c5.418,0,9.825-4.407,9.825-9.824V9.824C43.124,4.407,38.717,0,33.299,0H9.824
			C4.407,0,0,4.407,0,9.824v23.475C0,38.716,4.407,43.124,9.824,43.124z M7.498,9.824c0-1.285,1.041-2.326,2.326-2.326h23.475
			c1.286,0,2.326,1.041,2.326,2.326v23.475c0,1.285-1.04,2.326-2.326,2.326H9.824c-1.285,0-2.326-1.041-2.326-2.326V9.824z"/>
		<path fill="#FFFFFF" d="M0,86.676C0,92.093,4.407,96.5,9.824,96.5h23.475c5.418,0,9.825-4.407,9.825-9.824V63.201
			c0-5.417-4.407-9.825-9.825-9.825H9.824C4.407,53.376,0,57.784,0,63.201V86.676z M7.498,63.17c0-1.285,1.041-2.326,2.326-2.326
			h23.475c1.286,0,2.326,1.041,2.326,2.326v23.476c0,1.285-1.04,2.326-2.326,2.326H9.824c-1.285,0-2.326-1.041-2.326-2.326V63.17z"
			/>
		<path fill="#FFFFFF" d="M0,140.023c0,5.416,4.407,9.824,9.824,9.824h23.475c5.418,0,9.825-4.408,9.825-9.824v-23.476
			c0-5.417-4.407-9.824-9.825-9.824H9.824c-5.417,0-9.824,4.407-9.824,9.824V140.023z M7.498,116.547
			c0-1.285,1.041-2.326,2.326-2.326h23.475c1.286,0,2.326,1.041,2.326,2.326v23.476c0,1.285-1.04,2.325-2.326,2.325H9.824
			c-1.285,0-2.326-1.04-2.326-2.325V116.547z"/>
		<path fill="#FFFFFF" d="M146.235,9.641H61.916c-2.081,0-3.765,1.684-3.765,3.765s1.684,3.765,3.765,3.765h84.319
			c2.081,0,3.765-1.684,3.765-3.765S148.316,9.641,146.235,9.641z"/>
		<path fill="#FFFFFF" d="M146.235,25.984H61.916c-2.081,0-3.765,1.683-3.765,3.765c0,2.081,1.684,3.764,3.765,3.764h84.319
			c2.081,0,3.765-1.683,3.765-3.764C149.969,27.667,148.316,25.984,146.235,25.984z"/>
		<path fill="#FFFFFF" d="M146.235,62.987H61.916c-2.081,0-3.765,1.684-3.765,3.765s1.684,3.765,3.765,3.765h84.319
			c2.081,0,3.765-1.684,3.765-3.765C149.969,64.67,148.316,62.987,146.235,62.987z"/>
		<path fill="#FFFFFF" d="M146.235,79.361H61.916c-2.081,0-3.765,1.684-3.765,3.765s1.684,3.765,3.765,3.765h84.319
			c2.081,0,3.765-1.684,3.765-3.765C149.969,81.044,148.316,79.361,146.235,79.361z"/>
		<path fill="#FFFFFF" d="M146.235,116.364H61.916c-2.081,0-3.765,1.684-3.765,3.765s1.684,3.765,3.765,3.765h84.319
			c2.081,0,3.765-1.684,3.765-3.765C149.969,118.047,148.316,116.364,146.235,116.364z"/>
		<path fill="#FFFFFF" d="M149.969,136.472c0-2.082-1.683-3.765-3.764-3.765H61.916c-2.081,0-3.765,1.683-3.765,3.765
			c0,2.081,1.684,3.764,3.765,3.764h84.319C148.316,140.207,149.969,138.523,149.969,136.472z"/>
	</g>
</g>
</svg>
