<?xml version="1.0" encoding="utf-8"?>
<!-- Generator: Adobe Illustrator 16.0.0, SVG Export Plug-In . SVG Version: 6.00 Build 0)  -->
<!DOCTYPE svg PUBLIC "-//W3C//DTD SVG 1.1//EN" "http://www.w3.org/Graphics/SVG/1.1/DTD/svg11.dtd">
<svg version="1.1" id="Layer_1" xmlns="http://www.w3.org/2000/svg" xmlns:xlink="http://www.w3.org/1999/xlink" x="0px" y="0px"
	 width="150px" height="150px" viewBox="0 0 150 150" enable-background="new 0 0 150 150" xml:space="preserve">
<g>
	<path fill="#FFFFFF" d="M60.052,70.574c0.409,0.224,0.862,0.335,1.312,0.335c0.51,0,1.018-0.145,1.465-0.426l30-19.091
		c0.785-0.501,1.263-1.369,1.263-2.302s-0.478-1.8-1.263-2.302l-30-19.091c-0.846-0.532-1.9-0.567-2.779-0.09
		c-0.869,0.48-1.412,1.396-1.412,2.392v38.182C58.637,69.177,59.18,70.094,60.052,70.574z M64.091,34.966l22.194,14.125
		L64.091,63.215V34.966z"/>
	<path fill="#FFFFFF" d="M1.363,0v150h147.273V0H1.363z M143.182,5.455v90H6.818v-90H143.182z M6.818,144.545v-43.636h136.363
		v43.636H6.818z"/>
	<path fill="#FFFFFF" d="M129.545,120H64.091v-5.455c0-1.508-1.219-2.727-2.728-2.727c-1.508,0-2.727,1.219-2.727,2.727V120h-10.91
		c-1.508,0-2.727,1.219-2.727,2.727c0,1.509,1.219,2.729,2.727,2.729h10.91v5.454c0,1.509,1.219,2.728,2.727,2.728
		c1.509,0,2.728-1.219,2.728-2.728v-5.454h65.454c1.509,0,2.729-1.22,2.729-2.729C132.273,121.219,131.054,120,129.545,120z"/>
	<path fill="#FFFFFF" d="M20.455,111.818c-1.509,0-2.729,1.219-2.729,2.727v16.364c0,1.509,1.22,2.728,2.729,2.728
		c1.508,0,2.727-1.219,2.727-2.728v-16.364C23.182,113.037,21.963,111.818,20.455,111.818z"/>
	<path fill="#FFFFFF" d="M31.363,111.818c-1.508,0-2.727,1.219-2.727,2.727v16.364c0,1.509,1.219,2.728,2.727,2.728
		c1.509,0,2.728-1.219,2.728-2.728v-16.364C34.091,113.037,32.872,111.818,31.363,111.818z"/>
</g>
</svg>
