<?xml version="1.0" encoding="utf-8"?>
<!-- Generator: Adobe Illustrator 16.0.0, SVG Export Plug-In . SVG Version: 6.00 Build 0)  -->
<!DOCTYPE svg PUBLIC "-//W3C//DTD SVG 1.1//EN" "http://www.w3.org/Graphics/SVG/1.1/DTD/svg11.dtd">
<svg version="1.1" id="Layer_1" xmlns="http://www.w3.org/2000/svg" xmlns:xlink="http://www.w3.org/1999/xlink" x="0px" y="0px"
	 width="150px" height="150px" viewBox="0 0 150 150" enable-background="new 0 0 150 150" xml:space="preserve">
<g>
	<g>
		<path fill="#FFFFFF" d="M146.13,38.816L116.688,1.477C115.95,0.546,114.858,0,113.67,0H36.359c-1.188,0-2.279,0.546-3.019,1.477
			L3.899,38.816c-0.546,0.674-0.835,1.509-0.835,2.376v104.955c0,2.118,1.734,3.853,3.854,3.853H143.08
			c2.119,0,3.853-1.734,3.853-3.853V41.192C146.965,40.325,146.676,39.491,146.13,38.816z M135.663,37.981H78.867V7.706h32.941
			L135.663,37.981z M38.221,7.706h32.941v30.276H14.366L38.221,7.706z M10.771,142.295V45.687h128.456v96.608H10.771L10.771,142.295
			z"/>
	</g>
</g>
<path fill="#FFFFFF" d="M101.586,81.619l-14.398-1.043l-5.434-13.354c-1.136-2.763-3.775-4.544-6.754-4.544
	s-5.618,1.781-6.754,4.544l-5.434,13.354l-14.398,1.043c-2.979,0.215-5.465,2.18-6.386,5.004c-0.921,2.824-0.03,5.894,2.241,7.829
	l11.021,9.302l-3.439,13.999c-0.552,2.18-0.061,4.452,1.32,6.202c1.382,1.78,3.531,2.824,5.741,2.824
	c1.351,0,2.671-0.369,3.837-1.105L75,118.061l12.249,7.613c1.167,0.736,2.487,1.105,3.838,1.105c2.21,0,4.359-1.044,5.741-2.824
	c1.381-1.75,1.872-4.022,1.32-6.202l-3.439-13.999l11.021-9.302c2.271-1.904,3.162-4.974,2.241-7.829
	C107.051,83.799,104.533,81.834,101.586,81.619z M88.078,99.518c-1.105,0.921-1.565,2.395-1.229,3.775l3.869,15.688l-13.723-8.533
	c-1.229-0.768-2.764-0.768-3.961,0l-13.754,8.596l3.899-15.78c0.337-1.382-0.123-2.854-1.228-3.776L49.58,89.049l16.117-1.167
	c1.413-0.092,2.672-1.013,3.225-2.333L75,70.598l6.109,14.981c0.553,1.32,1.78,2.241,3.224,2.333l16.117,1.167L88.078,99.518z"/>
</svg>
