<?xml version="1.0" encoding="utf-8"?>
<!-- Generator: Adobe Illustrator 16.0.0, SVG Export Plug-In . SVG Version: 6.00 Build 0)  -->
<!DOCTYPE svg PUBLIC "-//W3C//DTD SVG 1.1//EN" "http://www.w3.org/Graphics/SVG/1.1/DTD/svg11.dtd">
<svg version="1.1" id="Layer_1" xmlns="http://www.w3.org/2000/svg" xmlns:xlink="http://www.w3.org/1999/xlink" x="0px" y="0px"
	 width="150px" height="150px" viewBox="0 0 150 150" enable-background="new 0 0 150 150" xml:space="preserve">
<g>
	<g>
		<path fill="#FFFFFF" d="M68.456,80.823c0.156,0,0.311,0,0.496,0c0.063,0,0.125,0,0.188,0c0.094,0,0.219,0,0.311,0
			c9.102-0.156,16.465-3.354,21.9-9.475c11.959-13.481,9.971-36.591,9.752-38.796C100.327,15.996,92.499,8.075,86.04,4.38
			c-4.815-2.766-10.438-4.256-16.713-4.381H69.11c-0.031,0-0.094,0-0.125,0H68.8c-3.449,0-10.221,0.559-16.713,4.256
			c-6.522,3.696-14.475,11.617-15.252,28.299c-0.219,2.205-2.205,25.313,9.754,38.796C51.993,77.47,59.355,80.667,68.456,80.823z
			 M45.129,33.328c0-0.092,0.03-0.187,0.03-0.248C46.187,10.808,61.995,8.416,68.767,8.416h0.125c0.062,0,0.156,0,0.248,0
			c8.389,0.188,22.645,3.604,23.609,24.664c0,0.093,0,0.188,0.029,0.248c0.031,0.219,2.205,21.342-7.672,32.461
			c-3.914,4.409-9.132,6.585-15.998,6.646c-0.062,0-0.093,0-0.156,0l0,0c-0.062,0-0.092,0-0.152,0
			c-6.836-0.062-12.084-2.237-15.969-6.646C42.987,54.73,45.099,33.516,45.129,33.328z"/>
		<path fill="#FFFFFF" d="M84.161,140.782c-4.702,0.54-9.755,0.862-15.146,0.862c-29.883,0-49.731-9.907-54.795-12.767
			c-0.497-2.483-0.715-6.803-0.649-9.598c0-0.25,0.029-0.498,0.029-0.776c0.219-7.083,1.023-14.818,8.262-17.396
			c15.471-3.976,27.834-12.61,28.36-12.954c1.896-1.334,2.36-3.943,1.024-5.839c-1.334-1.896-3.945-2.36-5.84-1.024
			c-0.123,0.093-11.711,8.17-25.781,11.742c-0.125,0.032-0.217,0.063-0.312,0.094c-13.479,4.629-13.883,19.01-14.069,25.13
			c0,0.278,0,0.526-0.032,0.776v0.092c-0.031,1.615-0.062,9.91,1.587,14.072c0.311,0.807,0.867,1.49,1.613,1.957
			c0.932,0.621,23.266,14.848,60.635,14.848c6.503,0,12.54-0.438,18.099-1.155C88.165,145.441,87.563,141.814,84.161,140.782z"/>
	</g>
</g>
<path fill="#FFFFFF" d="M111.016,80.262c-17.861,0-32.369,14.508-32.369,32.369c0,17.86,14.508,32.369,32.369,32.369
	c17.86,0,32.368-14.509,32.368-32.369C143.384,94.77,128.876,80.262,111.016,80.262z M111.016,136.539
	c-13.192,0-23.908-10.717-23.908-23.908c0-13.192,10.716-23.909,23.908-23.909c13.191,0,23.908,10.717,23.908,23.909
	C134.924,125.822,124.207,136.539,111.016,136.539z"/>
<path fill="#FFFFFF" d="M111.004,99.259c-2.079-0.001-3.746,1.667-3.746,3.746v5.889l-5.891,0.001
	c-2.078-0.001-3.746,1.667-3.746,3.746c0,2.08,1.668,3.747,3.746,3.746l5.891,0.001l-0.021,5.868
	c-0.001,2.079,1.667,3.747,3.746,3.745c1.039,0.001,1.971-0.41,2.664-1.104s1.104-1.625,1.104-2.664v-5.889l5.89-0.001
	c1.04,0,1.972-0.411,2.664-1.104c0.693-0.693,1.104-1.625,1.104-2.665c0-2.078-1.668-3.746-3.746-3.745l-5.891-0.001v-5.89
	C114.751,100.926,113.084,99.259,111.004,99.259z"/>
</svg>
