<?xml version="1.0" encoding="utf-8"?>
<!-- Generator: Adobe Illustrator 16.0.0, SVG Export Plug-In . SVG Version: 6.00 Build 0)  -->
<!DOCTYPE svg PUBLIC "-//W3C//DTD SVG 1.1//EN" "http://www.w3.org/Graphics/SVG/1.1/DTD/svg11.dtd">
<svg version="1.1" id="Layer_1" xmlns="http://www.w3.org/2000/svg" xmlns:xlink="http://www.w3.org/1999/xlink" x="0px" y="0px"
	 width="150px" height="150px" viewBox="0 0 150 150" enable-background="new 0 0 150 150" xml:space="preserve">
<g>
	<path fill="#FFFFFF" d="M88.234,63.465v31.13c0,2.436,1.976,4.41,4.414,4.41c2.436,0,4.409-1.974,4.409-4.41V62.92
		C94.117,63.104,91.175,63.297,88.234,63.465z"/>
	<path fill="#FFFFFF" d="M97.058,68.209V39.899c0-2.437-1.974-4.41-4.409-4.41c-2.438,0-4.414,1.973-4.414,4.41v28.862
		C91.175,68.588,94.115,68.389,97.058,68.209z"/>
	<path fill="#FFFFFF" d="M131.688,18.117H18.343C8.227,18.117,0,26.342,0,36.459v77.469c0,10.117,8.227,18.342,18.343,18.342
		h113.314c10.119,0,18.343-8.225,18.343-18.342V36.49C150.03,26.373,141.807,18.117,131.688,18.117z M141.651,113.928
		c0,5.493-4.47,9.962-9.964,9.962H18.343c-5.492,0-9.962-4.469-9.962-9.962V36.49c0-5.493,4.47-9.962,9.962-9.962h113.314
		c5.492,0,9.964,4.469,9.964,9.962v77.438H141.651z"/>
	<path fill="#FFFFFF" d="M110.294,105.619c-2.436,0-4.413,1.976-4.413,4.413c0,2.434,1.978,4.411,4.413,4.411
		c2.434,0,4.412-1.977,4.412-4.411C114.706,107.595,112.728,105.619,110.294,105.619z"/>
	<path fill="#FFFFFF" d="M105.881,63.465v31.13c0,2.436,1.978,4.41,4.413,4.41c2.437,0,4.412-1.974,4.412-4.41V62.92
		C111.766,63.104,108.823,63.297,105.881,63.465z"/>
	<path fill="#FFFFFF" d="M114.706,68.209V39.899c0-2.437-1.976-4.41-4.412-4.41c-2.436,0-4.413,1.973-4.413,4.41v28.862
		C108.823,68.588,111.763,68.389,114.706,68.209z"/>
	<path fill="#FFFFFF" d="M127.94,35.489c-2.438,0-4.412,1.973-4.412,4.41v70.589c0,2.437,1.974,4.41,4.412,4.41
		c2.436,0,4.411-1.973,4.411-4.41V39.899C132.352,37.462,130.376,35.489,127.94,35.489z"/>
	<path fill="#FFFFFF" d="M92.648,105.619c-2.438,0-4.414,1.976-4.414,4.413c0,2.434,1.976,4.411,4.414,4.411
		c2.434,0,4.409-1.977,4.409-4.411C97.058,107.595,95.082,105.619,92.648,105.619z"/>
	<path fill="#FFFFFF" d="M61.766,63.465v31.13c0,2.436-1.976,4.41-4.414,4.41c-2.436,0-4.409-1.974-4.409-4.41V62.92
		C55.883,63.104,58.825,63.297,61.766,63.465z"/>
	<path fill="#FFFFFF" d="M52.942,68.209V39.899c0-2.437,1.974-4.41,4.409-4.41c2.438,0,4.414,1.973,4.414,4.41v28.862
		C58.825,68.588,55.885,68.389,52.942,68.209z"/>
	<path fill="#FFFFFF" d="M35.294,110.032c0,2.434,1.979,4.411,4.412,4.411c2.436,0,4.413-1.977,4.413-4.411
		c0-2.437-1.978-4.413-4.413-4.413C37.272,105.619,35.294,107.595,35.294,110.032z"/>
	<path fill="#FFFFFF" d="M44.119,63.465v31.13c0,2.436-1.978,4.41-4.413,4.41c-2.437,0-4.412-1.974-4.412-4.41V62.92
		C38.234,63.104,41.177,63.297,44.119,63.465z"/>
	<path fill="#FFFFFF" d="M35.294,68.209V39.899c0-2.437,1.976-4.41,4.412-4.41c2.436,0,4.413,1.973,4.413,4.41v28.862
		C41.177,68.588,38.236,68.389,35.294,68.209z"/>
	<path fill="#FFFFFF" d="M17.648,39.899v70.589c0,2.437,1.976,4.41,4.411,4.41c2.438,0,4.412-1.973,4.412-4.41V39.899
		c0-2.437-1.974-4.41-4.412-4.41C19.624,35.489,17.648,37.462,17.648,39.899z"/>
	<path fill="#FFFFFF" d="M52.942,110.032c0,2.434,1.976,4.411,4.409,4.411c2.438,0,4.414-1.977,4.414-4.411
		c0-2.437-1.976-4.413-4.414-4.413C54.918,105.619,52.942,107.595,52.942,110.032z"/>
	<path fill="#FFFFFF" d="M52.94,63.465v31.13c0,2.436,1.976,4.41,4.411,4.41c2.438,0,4.412-1.974,4.412-4.41V62.92
		C58.823,63.104,55.881,63.297,52.94,63.465z"/>
	<path fill="#FFFFFF" d="M61.764,68.209V39.899c0-2.437-1.974-4.41-4.412-4.41c-2.436,0-4.411,1.973-4.411,4.41v28.862
		C55.881,68.588,58.82,68.389,61.764,68.209z"/>
	<path fill="#FFFFFF" d="M75,105.619c-2.436,0-4.414,1.976-4.414,4.413c0,2.434,1.979,4.411,4.414,4.411
		c2.434,0,4.411-1.977,4.411-4.411C79.411,107.595,77.434,105.619,75,105.619z"/>
	<path fill="#FFFFFF" d="M70.586,63.465v31.13c0,2.436,1.979,4.41,4.414,4.41s4.411-1.974,4.411-4.41V62.92
		C76.469,63.104,73.526,63.297,70.586,63.465z"/>
	<path fill="#FFFFFF" d="M79.411,68.209V39.899c0-2.437-1.976-4.41-4.411-4.41s-4.414,1.973-4.414,4.41v28.862
		C73.526,68.588,76.467,68.389,79.411,68.209z"/>
	<path fill="#FFFFFF" d="M57.352,105.619c-2.436,0-4.411,1.976-4.411,4.413c0,2.434,1.976,4.411,4.411,4.411
		c2.437,0,4.412-1.977,4.412-4.411C61.764,107.595,59.788,105.619,57.352,105.619z"/>
</g>
</svg>
