<?xml version="1.0" encoding="utf-8"?>
<!-- Generator: Adobe Illustrator 16.0.0, SVG Export Plug-In . SVG Version: 6.00 Build 0)  -->
<!DOCTYPE svg PUBLIC "-//W3C//DTD SVG 1.1//EN" "http://www.w3.org/Graphics/SVG/1.1/DTD/svg11.dtd">
<svg version="1.1" id="Layer_1" xmlns="http://www.w3.org/2000/svg" xmlns:xlink="http://www.w3.org/1999/xlink" x="0px" y="0px"
	 width="150px" height="150px" viewBox="0 0 150 150" enable-background="new 0 0 150 150" xml:space="preserve">
<g>
	<g>
		<path fill="#FFFFFF" d="M3.77,120.414h48.447l19.213,25.434c0.705,0.92,1.777,1.471,2.941,1.502c0.031,0,0.031,0,0.062,0
			c1.133,0,2.206-0.521,2.91-1.41l20.593-25.525h48.294c2.084,0,3.77-1.686,3.77-3.77V6.42c0-2.084-1.686-3.77-3.77-3.77H3.77
			C1.686,2.65,0,4.336,0,6.42v110.225C0,118.729,1.686,120.414,3.77,120.414z M7.508,10.188h134.954v102.718H96.129
			c-1.134,0-2.207,0.521-2.911,1.409l-18.692,23.197l-17.437-23.104c-0.704-0.951-1.808-1.502-3.003-1.502H7.508V10.188z"/>
		<path fill="#FFFFFF" d="M23.994,34.52h101.981c2.083,0,3.769-1.686,3.769-3.769c0-2.084-1.686-3.77-3.769-3.77H23.994
			c-2.084,0-3.77,1.686-3.77,3.77C20.225,32.834,21.91,34.52,23.994,34.52z"/>
		<path fill="#FFFFFF" d="M23.994,55.021h101.981c2.083,0,3.769-1.686,3.769-3.77s-1.686-3.77-3.769-3.77H23.994
			c-2.084,0-3.77,1.686-3.77,3.77S21.91,55.021,23.994,55.021z"/>
		<path fill="#FFFFFF" d="M23.994,75.552h101.981c2.083,0,3.769-1.686,3.769-3.77s-1.686-3.77-3.769-3.77H23.994
			c-2.084,0-3.77,1.686-3.77,3.77S21.91,75.552,23.994,75.552z"/>
		<path fill="#FFFFFF" d="M78.754,92.313c0-2.083-1.686-3.769-3.77-3.769h-50.99c-2.084,0-3.77,1.686-3.77,3.769
			c0,2.084,1.686,3.769,3.77,3.769h50.99C77.068,96.053,78.754,94.367,78.754,92.313z"/>
	</g>
</g>
</svg>
