<?xml version="1.0" encoding="utf-8"?>
<!-- Generator: Adobe Illustrator 16.0.0, SVG Export Plug-In . SVG Version: 6.00 Build 0)  -->
<!DOCTYPE svg PUBLIC "-//W3C//DTD SVG 1.1//EN" "http://www.w3.org/Graphics/SVG/1.1/DTD/svg11.dtd">
<svg version="1.1" id="Layer_1" xmlns="http://www.w3.org/2000/svg" xmlns:xlink="http://www.w3.org/1999/xlink" x="0px" y="0px"
	 width="150px" height="150px" viewBox="0 0 150 150" enable-background="new 0 0 150 150" xml:space="preserve">
<g>
	<g>
		<path fill="#FFFFFF" d="M137.874,21.587h-31.21v-5.088C106.664,7.401,99.262,0,90.164,0H60.499c-9.098,0-16.5,7.401-16.5,16.499
			v5.088h-31.21c-2.312,0-4.161,1.851-4.161,4.164s1.849,4.163,4.161,4.163h7.526v97.821c0,12.274,9.992,22.266,22.266,22.266
			h65.501c12.273,0,22.266-9.992,22.266-22.266V29.914h7.526c2.312,0,4.161-1.85,4.161-4.163S140.187,21.587,137.874,21.587z
			 M52.327,16.499c0-4.503,3.668-8.173,8.172-8.173h29.665c4.504,0,8.174,3.67,8.174,8.173v5.088H52.327V16.499z M122.022,127.734
			c0,7.679-6.261,13.94-13.94,13.94H42.581c-7.68,0-13.94-6.261-13.94-13.94V29.914h93.411v97.821H122.022z"/>
		<path fill="#FFFFFF" d="M75.333,126.748c2.312,0,4.161-1.85,4.161-4.163V49.002c0-2.313-1.85-4.163-4.161-4.163
			c-2.314,0-4.164,1.85-4.164,4.163v73.551C71.169,124.867,73.019,126.748,75.333,126.748z"/>
		<path fill="#FFFFFF" d="M48.163,122.152c2.312,0,4.164-1.85,4.164-4.163V53.567c0-2.313-1.852-4.164-4.164-4.164
			c-2.314,0-4.164,1.851-4.164,4.164v64.422C43.999,120.302,45.882,122.152,48.163,122.152z"/>
		<path fill="#FFFFFF" d="M102.5,122.152c2.314,0,4.164-1.85,4.164-4.163V53.567c0-2.313-1.85-4.164-4.164-4.164
			c-2.312,0-4.162,1.851-4.162,4.164v64.422C98.338,120.302,100.188,122.152,102.5,122.152z"/>
	</g>
</g>
</svg>
