<?xml version="1.0" encoding="utf-8"?>
<!-- Generator: Adobe Illustrator 16.0.0, SVG Export Plug-In . SVG Version: 6.00 Build 0)  -->
<!DOCTYPE svg PUBLIC "-//W3C//DTD SVG 1.1//EN" "http://www.w3.org/Graphics/SVG/1.1/DTD/svg11.dtd">
<svg version="1.1" id="Layer_1" xmlns="http://www.w3.org/2000/svg" xmlns:xlink="http://www.w3.org/1999/xlink" x="0px" y="0px"
	 width="150px" height="150px" viewBox="0 0 150 150" enable-background="new 0 0 150 150" xml:space="preserve">
<g>
	<g>
		<path fill="#FFFFFF" d="M74.933,150.001c-41.354,0-75-33.645-75-75C-0.067,33.645,33.578,0,74.933,0s75,33.645,75,75.001
			C149.933,116.356,116.287,150.001,74.933,150.001z M74.933,5.807c-38.153,0-69.193,31.041-69.193,69.194
			s31.04,69.193,69.193,69.193s69.193-31.04,69.193-69.193S113.086,5.807,74.933,5.807z"/>
	</g>
</g>
<g>
	<path fill="#FFFFFF" d="M21.003,73.755c0.118,1.968,1.424,3.625,3.313,4.189l35.001,10.583l1.285,24.125
		c0.059,0.954,0.702,1.793,1.618,2.105c0.254,0.096,0.525,0.136,0.779,0.136c0.682,0,1.325-0.273,1.794-0.799l12.374-13.7
		l17.54,12.141c0.779,0.546,1.695,0.839,2.649,0.839c2.203,0,4.112-1.56,4.58-3.743l14.559-74.19
		c0.174-0.858-0.158-1.754-0.82-2.299c-0.682-0.566-1.598-0.702-2.415-0.37l-89.45,36.403
		C21.997,69.994,20.887,71.786,21.003,73.755z M65.046,106.67l-0.798-15.22l8.964,6.197L65.046,106.67z M97.279,108.522l-31.92-22.1
		l44.763-43.303L97.279,108.522z M105.211,41.21L60.954,84.024L25.992,73.461L105.211,41.21z"/>
</g>
</svg>
