<?xml version="1.0" encoding="utf-8"?>
<!-- Generator: Adobe Illustrator 16.0.0, SVG Export Plug-In . SVG Version: 6.00 Build 0)  -->
<!DOCTYPE svg PUBLIC "-//W3C//DTD SVG 1.1//EN" "http://www.w3.org/Graphics/SVG/1.1/DTD/svg11.dtd">
<svg version="1.1" id="Layer_1" xmlns="http://www.w3.org/2000/svg" xmlns:xlink="http://www.w3.org/1999/xlink" x="0px" y="0px"
	 width="150px" height="150px" viewBox="0 0 150 150" enable-background="new 0 0 150 150" xml:space="preserve">
<g>
	<path fill="#FFFFFF" d="M140.246,9.726c-12.911-12.944-33.91-12.944-46.821,0L7.577,95.54C6.905,96.21,6.491,97.073,6.362,98
		l-6.358,47.11c-0.194,1.342,0.286,2.685,1.214,3.611c0.799,0.8,1.918,1.279,3.036,1.279c0.191,0,0.383,0,0.576-0.032l28.378-3.835
		c2.367-0.319,4.028-2.492,3.708-4.858c-0.317-2.365-2.49-4.027-4.857-3.708l-22.756,3.068l4.441-32.855l34.582,34.581
		c0.801,0.799,1.917,1.279,3.036,1.279s2.237-0.448,3.036-1.279l85.848-85.814c6.263-6.263,9.715-14.574,9.715-23.426
		C149.961,24.267,146.509,15.958,140.246,9.726z M95.086,20.273l14.412,14.414l-78.333,78.335L16.749,98.608L95.086,20.273z
		 M51.396,133.221l-14.095-14.095l78.334-78.335l14.095,14.095L51.396,133.221z M135.74,48.717l-34.486-34.485
		c4.379-3.611,9.844-5.593,15.596-5.593c6.553,0,12.689,2.557,17.322,7.158c4.635,4.603,7.159,10.771,7.159,17.323
		C141.331,38.905,139.35,44.338,135.74,48.717z"/>
</g>
</svg>
