<?xml version="1.0" encoding="utf-8"?>
<!-- Generator: Adobe Illustrator 16.0.0, SVG Export Plug-In . SVG Version: 6.00 Build 0)  -->
<!DOCTYPE svg PUBLIC "-//W3C//DTD SVG 1.1//EN" "http://www.w3.org/Graphics/SVG/1.1/DTD/svg11.dtd">
<svg version="1.1" id="Layer_1" xmlns="http://www.w3.org/2000/svg" xmlns:xlink="http://www.w3.org/1999/xlink" x="0px" y="0px"
	 width="150px" height="150px" viewBox="0 0 150 150" enable-background="new 0 0 150 150" xml:space="preserve">
<path fill="#FFFFFF" d="M112.172,84.262c-17.861,0-32.369,14.508-32.369,32.369c0,17.86,14.508,32.369,32.369,32.369
	s32.368-14.509,32.368-32.369C144.54,98.77,130.033,84.262,112.172,84.262z M112.172,140.539c-13.192,0-23.908-10.717-23.908-23.908
	c0-13.192,10.716-23.909,23.908-23.909c13.191,0,23.908,10.717,23.908,23.909C136.08,129.822,125.363,140.539,112.172,140.539z"/>
<g>
	<g>
		<path fill="#FFFFFF" d="M22.668,19.284c-1.478-1.476-3.846-1.476-5.322-0.031c-1.507,1.477-1.507,3.845-0.031,5.321l8.981,9.042
			c0.708,0.707,1.661,1.107,2.676,1.107l0,0c0.984,0,1.938-0.4,2.646-1.107L58.959,6.428c1.477-1.477,1.477-3.845,0.031-5.321
			c-1.477-1.477-3.844-1.477-5.32,0l-8.273,8.212c-4.398-4.552-10.52-7.167-16.947-7.167c-13.01,0-23.59,10.581-23.59,23.59
			c0,13.01,10.58,23.59,23.59,23.59c10.488,0,19.561-6.736,22.605-16.762c0.615-1.999-0.523-4.091-2.521-4.706
			c-1.999-0.584-4.091,0.523-4.706,2.522c-2.03,6.705-8.366,11.411-15.378,11.411c-8.857,0-16.055-7.197-16.055-16.055
			S19.592,9.688,28.449,9.688c4.398,0,8.581,1.845,11.596,4.982l-11.043,10.98L22.668,19.284z"/>
		<path fill="#FFFFFF" d="M28.449,52.471c-13.01,0-23.59,10.581-23.59,23.59c0,13.011,10.58,23.591,23.59,23.591
			s23.59-10.58,23.59-23.591C52.039,63.051,41.459,52.471,28.449,52.471z M28.449,92.116c-8.857,0-16.055-7.197-16.055-16.056
			c0-8.857,7.197-16.054,16.055-16.054s16.055,7.197,16.055,16.054C44.504,84.919,37.307,92.116,28.449,92.116z"/>
		<path fill="#FFFFFF" d="M52.039,126.41c0-13.011-10.58-23.591-23.59-23.591s-23.59,10.58-23.59,23.591
			c0,13.01,10.58,23.59,23.59,23.59S52.039,139.42,52.039,126.41z M28.449,142.495c-8.857,0-16.055-7.196-16.055-16.055
			s7.197-16.056,16.055-16.056s16.055,7.197,16.055,16.056S37.307,142.495,28.449,142.495z"/>
		<path fill="#FFFFFF" d="M137.358,72.278H64.065c-2.092,0-3.783,1.692-3.783,3.783c0,2.092,1.691,3.783,3.783,3.783h73.293
			c2.091,0,3.782-1.691,3.782-3.783C141.141,73.97,139.449,72.278,137.358,72.278z"/>
		<path fill="#FFFFFF" d="M137.358,21.991H64.065c-2.092,0-3.783,1.691-3.783,3.783s1.691,3.783,3.783,3.783h73.293
			c2.091,0,3.782-1.692,3.782-3.783S139.449,21.991,137.358,21.991z"/>
		<path fill="#FFFFFF" d="M73.124,122.657h-2.335h-2.317h-4.406c-2.092,0-3.783,1.692-3.783,3.783s1.691,3.783,3.783,3.783h4.577
			h2.252h2.229c2.091,0,3.782-1.692,3.782-3.783C76.906,124.318,75.215,122.657,73.124,122.657z"/>
	</g>
</g>
<path fill="#FFFFFF" d="M122.684,109.094c0.001-0.001,0.001-0.002,0.002-0.003l-7.832-7.832c-0.269-0.269-0.576-0.471-0.896-0.642
	c-0.076-0.042-0.161-0.065-0.24-0.101c-0.083-0.038-0.166-0.075-0.251-0.106c-0.132-0.048-0.267-0.087-0.404-0.121
	c-0.129-0.032-0.258-0.057-0.39-0.076c-0.043-0.005-0.083-0.021-0.126-0.024c-0.119-0.011-0.236-0.034-0.354-0.034
	c-0.004,0-0.009,0.001-0.013,0.001c-0.003,0-0.007-0.001-0.01-0.001s-0.006,0.001-0.008,0.001c-0.005,0-0.009-0.001-0.013-0.001
	c-0.951-0.001-1.925,0.367-2.661,1.104l-7.832,7.832c0.001,0.001,0.001,0.002,0.002,0.003l-0.897,0.897
	c-1.558,1.428-1.557,3.808-0.086,5.279c0.736,0.736,1.688,1.082,2.662,1.103c0.951,0.001,1.925-0.367,2.661-1.104l2.439-2.439v1.134
	v5.677v9.731c0,2.081,1.684,3.764,3.734,3.733c2.08,0,3.764-1.683,3.732-3.733v-10.075v-5.677v-0.791l2.439,2.439
	c0.736,0.736,1.71,1.105,2.661,1.104c0.974-0.021,1.926-0.367,2.662-1.103c1.471-1.471,1.472-3.851-0.086-5.279L122.684,109.094z"/>
</svg>
