<?xml version="1.0" encoding="utf-8"?>
<!-- Generator: Adobe Illustrator 16.0.0, SVG Export Plug-In . SVG Version: 6.00 Build 0)  -->
<!DOCTYPE svg PUBLIC "-//W3C//DTD SVG 1.1//EN" "http://www.w3.org/Graphics/SVG/1.1/DTD/svg11.dtd">
<svg version="1.1" id="Layer_1" xmlns="http://www.w3.org/2000/svg" xmlns:xlink="http://www.w3.org/1999/xlink" x="0px" y="0px"
	 width="150px" height="150px" viewBox="0 0 150 150" enable-background="new 0 0 150 150" xml:space="preserve">
<g>
	<g>
		<path fill="#FFFFFF" d="M34.354,29.635c22.145-20.032,55.289-20.339,77.741-2.053l-17.799,0.674
			c-2.296,0.091-4.072,1.99-3.98,4.288c0.092,2.236,1.931,3.982,4.134,3.982c0.062,0,0.093,0,0.154,0l27.323-1.011
			c2.235-0.091,3.98-1.898,3.98-4.134v-0.307c0-0.061,0-0.091,0-0.152V30.89l0,0l-1.011-27.015
			c-0.093-2.299-2.022-4.075-4.288-3.983c-2.296,0.092-4.072,1.991-3.982,4.289l0.642,16.939
			C106.15,12.021,92.458,6.754,77.818,6.018c-18.134-0.918-35.562,5.3-49.009,17.491C10.31,40.263,2.467,65.748,8.349,90.006
			c0.459,1.899,2.144,3.156,4.012,3.156c0.337,0,0.644-0.031,0.98-0.123c2.205-0.55,3.584-2.787,3.032-4.991
			C11.228,66.728,18.088,44.337,34.354,29.635z"/>
		<path fill="#FFFFFF" d="M141.653,59.774c-0.554-2.206-2.788-3.584-4.995-3.032c-2.206,0.551-3.583,2.788-3.033,4.993
			c5.179,21.317-1.715,43.709-17.978,58.412c-11.427,10.322-25.763,15.406-40.035,15.406c-13.63,0-27.229-4.624-38.196-13.752
			l18.011-1.626c2.265-0.212,3.951-2.204,3.736-4.502c-0.214-2.297-2.205-3.95-4.503-3.735l-27.23,2.45
			c-2.266,0.214-3.951,2.206-3.736,4.503l2.45,27.229c0.184,2.146,1.992,3.769,4.104,3.769c0.123,0,0.246,0,0.368-0.031
			c2.266-0.213,3.951-2.204,3.737-4.503l-1.471-16.57c11.119,9.006,24.75,14.243,39.299,14.979c1.165,0.062,2.328,0.092,3.461,0.092
			c16.878,0,32.927-6.187,45.547-17.583C139.692,109.518,147.533,84.064,141.653,59.774z"/>
	</g>
</g>
</svg>
