<?xml version="1.0" encoding="utf-8"?>
<!-- Generator: Adobe Illustrator 16.0.0, SVG Export Plug-In . SVG Version: 6.00 Build 0)  -->
<!DOCTYPE svg PUBLIC "-//W3C//DTD SVG 1.1//EN" "http://www.w3.org/Graphics/SVG/1.1/DTD/svg11.dtd">
<svg version="1.1" id="Layer_1" xmlns="http://www.w3.org/2000/svg" xmlns:xlink="http://www.w3.org/1999/xlink" x="0px" y="0px"
	 width="150px" height="150px" viewBox="0 0 150 150" enable-background="new 0 0 150 150" xml:space="preserve">
<path fill="#FFFFFF" d="M143.808,0H6.193c-2.109,0-3.84,1.729-3.84,3.842c0,2.113,1.73,3.839,3.84,3.839h8.289v138.381
	c0,1.408,0.77,2.722,2.018,3.392c1.25,0.674,2.754,0.608,3.938-0.19l16.674-11.106l16.738,11.138c1.277,0.866,2.977,0.866,4.255,0
	l16.673-11.105l16.738,11.138c1.279,0.862,2.977,0.862,4.258,0l16.674-11.104l16.734,11.137c0.643,0.416,1.378,0.642,2.111,0.642
	c0.609,0,1.25-0.16,1.826-0.448c1.248-0.674,2.018-1.984,2.018-3.394L135.07,7.778h8.737c2.112,0,3.839-1.729,3.839-3.842
	S145.92,0,143.808,0z M127.486,138.896l-12.898-8.578c-1.278-0.865-2.977-0.865-4.254,0L93.66,141.454l-16.738-11.136
	c-1.278-0.865-2.977-0.865-4.258,0l-16.672,11.104l-16.74-11.104c-1.277-0.865-2.975-0.865-4.254,0l-12.834,8.545V7.647h105.291
	L127.486,138.896z"/>
<path fill="#FFFFFF" d="M75.016,35.615c-17.861,0-32.369,14.508-32.369,32.369c0,17.86,14.508,32.369,32.369,32.369
	c17.86,0,32.368-14.509,32.368-32.369C107.384,50.123,92.876,35.615,75.016,35.615z M75.016,91.893
	c-13.192,0-23.908-10.717-23.908-23.908c0-13.192,10.716-23.909,23.908-23.909c13.191,0,23.908,10.717,23.908,23.909
	C98.924,81.176,88.207,91.893,75.016,91.893z"/>
<path fill="#FFFFFF" d="M80.84,67.987l6.848-6.848c0.759-0.757,1.189-1.781,1.213-2.922c0.002-1.09-0.44-2.158-1.211-2.927
	c-0.782-0.782-1.819-1.213-2.922-1.213c-1.113,0-2.152,0.438-2.903,1.212l-6.849,6.849l-6.849-6.849
	c-0.781-0.782-1.819-1.212-2.922-1.212c-1.114,0-2.152,0.438-2.904,1.213c-0.789,0.79-1.219,1.838-1.21,2.952
	c0.008,1.102,0.446,2.129,1.212,2.872l6.849,6.849l-6.849,6.849c-0.79,0.79-1.221,1.838-1.212,2.952
	c0.008,1.102,0.446,2.13,1.212,2.872c0.781,0.782,1.819,1.212,2.921,1.212c1.114,0,2.152-0.438,2.903-1.212l6.849-6.849l6.789,6.788
	c0.769,0.837,1.856,1.317,2.986,1.317c1.091,0,2.119-0.428,2.897-1.206c0.758-0.758,1.188-1.781,1.212-2.921
	c0.002-1.089-0.44-2.157-1.212-2.927L80.84,67.987z"/>
</svg>
